<?xml version="1.0" standalone="no"?>
<!DOCTYPE svg PUBLIC "-//W3C//DTD SVG 1.1//EN" "http://www.w3.org/Graphics/SVG/1.1/DTD/svg11.dtd" >
<svg>
<metadata>
Created by FontForge 20090914 at Mon Jul  4 01:52:57 2016
 By www-data
2010 by Digital Type, Hamburg, Germany
</metadata>
<defs>
<font id="FujitsuSans-Regular" horiz-adv-x="1081" vert-adv-y="2048" >
  <font-face 
    font-family="Fujitsu Sans"
    font-weight="400"
    font-stretch="semi-condensed"
    units-per-em="2048"
    panose-1="2 11 4 4 6 2 2 2 2 4"
    ascent="1638"
    descent="-410"
    x-height="1053"
    cap-height="1475"
    bbox="-310 -553 2124 1958"
    underline-thickness="106"
    underline-position="-221"
    unicode-range="U+0020-U+FB02"
  />
<missing-glyph horiz-adv-x="492" vert-adv-y="2457" 
d="M49 0v1475h394v-1475h-394zM394 49v1377h-296v-1377h296z" />
    <glyph glyph-name="fi" unicode="fi" horiz-adv-x="1112" vert-adv-y="2457" 
d="M170 0v1085c0 110.667 6.66699 200.334 20 269.001c20 102 71 167.667 153 197c62 22.667 127.333 34 196 34h82v-108h-41c-94 0 -155 -20.667 -183 -62c-31.333 -47.333 -47 -150.333 -47 -309v-53h252v-115h-252v-938h-180zM758 -0.000976562v1053h180v-1053h-180z
M846 1438c32.667 0 59.999 -12 81.999 -36c18.667 -21.333 28 -46 28 -74c0 -32.667 -12 -60 -36 -82c-20.667 -18.667 -45.667 -28 -75 -28c-32 0 -59 12 -81 36c-18.667 21.333 -28 46.666 -28 75.999c0 30.667 12 57.334 36 80.001c20.667 18.667 45.334 28 74.001 28z
" />
    <glyph glyph-name="fl" unicode="fl" horiz-adv-x="1101" vert-adv-y="2457" 
d="M170 0v1085c0 110.667 6.66699 200.334 20 269.001c20 102 71 167.667 153 197c62 22.667 127.333 34 196 34h82v-108h-41c-94 0 -155 -20.667 -183 -62c-31.333 -47.333 -47 -150.333 -47 -309v-53h252v-115h-252v-938h-180zM750 -0.000976562v1585h180v-1585h-180z" />
    <glyph glyph-name=".notdef" horiz-adv-x="492" vert-adv-y="2457" 
d="M49 0v1475h394v-1475h-394zM394 49v1377h-296v-1377h296z" />
    <glyph glyph-name="space" unicode=" " horiz-adv-x="492" vert-adv-y="2457" 
 />
    <glyph glyph-name="exclam" unicode="!" horiz-adv-x="655" vert-adv-y="2457" 
d="M257 428l-33 1047h205l-33 -1047h-139zM327 220c36.667 0 67.334 -13.666 92.001 -40.999c21.333 -23.333 32 -51.333 32 -84c0 -36.667 -13.667 -67.334 -41 -92.001c-24 -21.333 -52 -32 -84 -32c-36.667 0 -67.334 13.667 -92.001 41c-21.333 23.333 -32 52 -32 86
c0 35.333 13.667 65.333 41 90c24 21.333 52 32 84 32z" />
    <glyph glyph-name="quotedbl" unicode="&#x22;" horiz-adv-x="630" vert-adv-y="2457" 
d="M102 922l-20 553h180l-20 -553h-140zM388 922l-20 553h180l-20 -553h-140z" />
    <glyph glyph-name="numbersign" unicode="#" vert-adv-y="2457" 
d="M260 602l30 258h-145v119h159l57 496h167l-58 -496h202l58 496h160l-55 -496h150v-119h-163l-29 -258h143v-119h-156l-54 -483h-167l56 483h-204l-54 -483h-167l56 483h-150v119h164zM425 602h204l30 258h-203z" />
    <glyph glyph-name="dollar" unicode="$" vert-adv-y="2457" 
d="M487 117v603.001c-90 42.667 -161 82.667 -213 120c-60.667 43.333 -104 86.666 -130 129.999c-29.333 48 -44 103 -44 165c0 82.667 25.333 154 76 214c65.333 76.667 169 122.334 311 137.001v187h131v-183c106.667 -2.66699 200.667 -16 282 -40v-133
c-106 36 -200 54.333 -282 55v-539c110 -52.667 185.333 -95.667 226 -129c104 -84.667 156 -191.334 156 -320.001c0 -110 -33.333 -198 -100 -264c-60 -59.333 -154 -97 -282 -113v-214h-131v205c-164.667 0.666992 -302.667 19.667 -414 57v151
c89.333 -43.333 174.333 -70.333 255 -81c42.667 -5.33301 95.667 -8 159 -8zM618 135.001c140 34 210 114.667 210 242c0 82 -34 152 -102 210c-22 19.333 -58 42.333 -108 69v-521zM487 899.001v463.001c-143.333 -26.667 -215 -99.334 -215 -218.001
c0 -68 26.667 -122 80 -162c30 -23.333 75 -51 135 -83z" />
    <glyph glyph-name="percent" unicode="%" horiz-adv-x="1526" vert-adv-y="2457" 
d="M368 1504c123.333 0 205.667 -47.001 247 -141.001c26.667 -59.333 40 -141.666 40 -246.999c0 -116.667 -16.667 -205.667 -50 -267c-43.333 -80 -122.333 -120 -237 -120c-122 0 -204 47 -246 141c-26.667 59.333 -40 143 -40 251c0 114 16.667 201.667 50 263
c43.333 80 122 120 236 120zM368.001 1422c-52 0 -87.999 -30.667 -107.999 -92c-14.667 -46.667 -22 -116.667 -22 -210c0 -107.333 9.33301 -184.333 28 -231c20 -52 54 -78 102 -78c52.667 0 89 30.667 109 92c14.667 46.667 22 117.667 22 213
c0 105.333 -9 181.333 -27 228c-20.667 52 -55.334 78 -104.001 78zM373.002 -0.000976562l656 1475h125l-656 -1475h-125zM1157 759.999c123.333 0 205.999 -46.999 247.999 -140.999c26 -59.333 39 -141.333 39 -246c0 -116.667 -16.667 -205.667 -50 -267
c-43.333 -80 -122.333 -120 -237 -120c-122.667 0 -204.667 47 -246 141c-26.667 59.333 -40 142.666 -40 249.999c0 114 16.667 201.667 50 263c42.667 80 121.334 120 236.001 120zM1157 678c-52 0 -87.667 -30.667 -107 -92c-15.333 -46.667 -23 -116.334 -23 -209.001
c0 -107.333 9.33301 -184.333 28 -231c20 -52 54 -78 102 -78c52 0 88 30.667 108 92c15.333 46.667 23 117.667 23 213c0 104.667 -9.33301 180.334 -28 227.001c-20 52 -54.333 78 -103 78z" />
    <glyph glyph-name="ampersand" unicode="&#x26;" horiz-adv-x="1284" vert-adv-y="2457" 
d="M400 817c-86.667 124.667 -130.002 243.668 -130.002 357.001c0 95.333 28.333 173.666 85 234.999c58.667 63.333 141.334 95 248.001 95c116 0 202.333 -36 259 -108c41.333 -52.667 62 -118.334 62 -197.001c0 -122.667 -50.667 -223.667 -152 -303
c-38 -30 -90.667 -61.333 -158 -94l302 -420c64 128.667 112.667 293.667 146 495h171c-37.333 -259.333 -111.666 -467.666 -222.999 -624.999l181 -252h-208l-88 122c-110 -100.667 -236.333 -151 -379 -151c-128 0 -230.667 35.333 -308 106
c-80 74 -120 174.333 -120 301c0 140 53.333 255.667 160 347c30 25.333 80.667 56 152 92zM550.998 892.001c55.333 30 95.333 59.667 120 89c48.667 56.667 73 131.667 73 225c0 62 -14.333 110 -43 144c-25.333 30 -59 45 -101 45c-48 0 -85.667 -19.667 -113 -59
c-24.667 -35.333 -37 -84.333 -37 -147c0 -68.667 12.333 -131 37 -187c10.667 -24 32 -60.667 64 -110zM463.998 726.001c-48.667 -28.667 -84.999 -56.667 -108.999 -84c-52.667 -60 -79 -140 -79 -240c0 -109.333 29.333 -191.333 88 -246
c47.333 -44 105.666 -66 174.999 -66c98.667 0 191 47.667 277 143z" />
    <glyph glyph-name="quotesingle" unicode="'" horiz-adv-x="344" vert-adv-y="2457" 
d="M102 922l-20 553h180l-20 -553h-140z" />
    <glyph glyph-name="parenleft" unicode="(" horiz-adv-x="778" vert-adv-y="2457" 
d="M635 -333l-102.999 -60.001c-184 302 -276 642.667 -276 1022c0 380 92 720.667 276 1022l103 -60c-42.667 -90 -79.334 -196.333 -110.001 -319c-54 -213.333 -81 -427.666 -81 -642.999c0 -230 31 -459.667 93 -689c27.333 -101.333 60 -192.333 98 -273z" />
    <glyph glyph-name="parenright" unicode=")" horiz-adv-x="778" vert-adv-y="2457" 
d="M246 -393l-102.999 60c42 90 78.667 196.333 110 319c24 96 42.333 185.333 55 268c16.667 111.333 25 236.333 25 375c0 166.667 -13.667 321.334 -41 464.001c-38.667 203.333 -88.334 369.333 -149.001 498l103 60c183.333 -302 275 -642.667 275 -1022
c0 -378.667 -91.667 -719.334 -275 -1022z" />
    <glyph glyph-name="asterisk" unicode="*" vert-adv-y="2457" 
d="M445 1173l-344 84l52 161l329 -134l-26 354h169l-26 -354l328 134l52 -161l-343 -84l230 -272l-137 -100l-189 305l-189 -305l-137 100z" />
    <glyph glyph-name="plus" unicode="+" vert-adv-y="2457" 
d="M133 610v115h342v377h131v-377h342v-115h-342v-374h-131v374h-342z" />
    <glyph glyph-name="comma" unicode="," horiz-adv-x="541" vert-adv-y="2457" 
d="M130 -293l52 492h193l-117 -492h-128z" />
    <glyph glyph-name="hyphen" unicode="-" horiz-adv-x="686" vert-adv-y="2457" 
d="M82 528v115h522v-115h-522z" />
    <glyph glyph-name="period" unicode="." horiz-adv-x="541" vert-adv-y="2457" 
d="M270 220c36.667 0 67.334 -13.666 92.001 -40.999c21.333 -23.333 32 -51.333 32 -84c0 -36.667 -13.667 -67.334 -41 -92.001c-24 -21.333 -52 -32 -84 -32c-36.667 0 -67.334 13.667 -92.001 41c-21.333 23.333 -32 52 -32 86c0 35.333 13.667 65.333 41 90
c24 21.333 52 32 84 32z" />
    <glyph glyph-name="slash" unicode="/" horiz-adv-x="584" vert-adv-y="2457" 
d="M25 0l386 1475h149l-385 -1475h-150z" />
    <glyph glyph-name="zero" unicode="0" vert-adv-y="2457" 
d="M540 1504c185.333 0 311.001 -84.333 377.001 -253c42.667 -108.667 64 -279.667 64 -513c0 -257.333 -26.667 -441 -80 -551c-70 -144 -190.333 -216 -361 -216c-184 0 -309.333 84.333 -376 253c-42.667 107.333 -64 281 -64 521c0 254 26.667 435 80 543
c34 69.333 78.667 121 134 155c65.333 40.667 140.666 61 225.999 61zM540.001 1385c-104.667 0 -176.668 -67.666 -216.001 -202.999c-26.667 -89.333 -40 -235 -40 -437c0 -230.667 16.333 -391.334 49 -482.001c42 -115.333 111 -173 207 -173
c105.333 0 178 67.667 218 203c26 89.333 39 237.333 39 444c0 226 -16.333 384.333 -49 475c-41.333 115.333 -110.666 173 -207.999 173z" />
    <glyph glyph-name="one" unicode="1" vert-adv-y="2457" 
d="M492 0v1330l-250 -93v117l289 129h141v-1483h-180z" />
    <glyph glyph-name="two" unicode="2" vert-adv-y="2457" 
d="M108 0l0.000976562 116l36 47c166.667 214 288.334 374.667 365.001 482c72.667 102 123.667 186.667 153 254c36 82 54 156 54 222c0 68.667 -15.667 126.667 -47 174c-40 60 -106.667 90 -200 90c-98.667 0 -199.334 -28 -302.001 -84v132
c102.667 47.333 210 71 322 71c140.667 0 245 -34.333 313 -103c39.333 -40 67.666 -95 84.999 -165c9.33301 -36 14 -73 14 -111c0 -118 -42 -241 -126 -369c-73.333 -112.667 -228.333 -316.667 -465 -612l-17 -21h636v-123h-821z" />
    <glyph glyph-name="three" unicode="3" vert-adv-y="2457" 
d="M313 723l-0.000976562 119h76c99.333 0 172 23.333 218 70c55.333 56.667 83 133.667 83 231c0 161.333 -83.333 242 -250 242c-89.333 0 -180.666 -21 -273.999 -63v132c87.333 33.333 182.666 50 285.999 50c138.667 0 243.334 -29.667 314.001 -89
c72 -60.667 108 -150 108 -268c0 -105.333 -29.333 -190 -88 -254c-26 -28.667 -69 -58.667 -129 -90c66 -16.667 117.667 -40 155 -70c38 -30.667 66.333 -67.667 85 -111c22 -52 33 -119.667 33 -203c0 -161.333 -44 -278.333 -132 -351
c-78.667 -64.667 -196.334 -97 -353.001 -97c-117.333 0 -218.666 11.333 -303.999 34v133c89.333 -32.667 182 -49 278 -49c108 0 186.333 20 235 60c61.333 50.667 92 140 92 268c0 124 -33.667 210.333 -101 259c-44 31.333 -112.333 47 -205 47h-127z" />
    <glyph glyph-name="four" unicode="4" vert-adv-y="2457" 
d="M661 0v346h-579v117l443 1012h174l-440 -1006h402v371h172v-371h175v-123h-175v-346h-172z" />
    <glyph glyph-name="five" unicode="5" vert-adv-y="2457" 
d="M168 1v132.001c87.333 -28.667 181.333 -43 282 -43c128 0 214.333 38.667 259 116c33.333 58.667 50 137.667 50 237c0 130.667 -36.333 222.667 -109 276c-50.667 38 -134 57 -250 57h-210l40 699h645v-123h-491l-26 -457h89c166 0 287.667 -34.333 365 -103
c87.333 -78.667 131 -196.334 131 -353.001c0 -312 -163.333 -468 -490 -468c-104.667 0 -199.667 10 -285 30z" />
    <glyph glyph-name="six" unicode="6" vert-adv-y="2457" 
d="M311 807c27.333 31.333 51.3301 54.334 71.9971 69.001c55.333 38.667 124 58 206 58c138.667 0 242.667 -54.333 312 -163c49.333 -78 74 -177 74 -297c0 -114.667 -20.667 -213.334 -62 -296.001c-68.667 -138 -190 -207 -364 -207
c-169.333 0 -287.666 71.333 -354.999 214c-46 98.667 -69 244 -69 436c0 588.667 174.667 883 524 883c71.333 0 143 -11.333 215 -34v-128c-79.333 28.667 -149.333 43 -210 43c-85.333 0 -154.666 -34 -207.999 -102c-55.333 -70 -93.666 -172 -114.999 -306
c-8 -49.333 -14.667 -106 -20 -170zM561.997 825.001c-66.667 0 -123 -27.667 -169 -83c-56 -66.667 -84 -159.667 -84 -279c0 -104 16.333 -190.667 49 -260c39.333 -82 103.333 -123 192 -123c90 0 154 42.333 192 127c32.667 71.333 49 158 49 260
c0 94 -15 172.333 -45 235c-38.667 82 -100 123 -184 123z" />
    <glyph glyph-name="seven" unicode="7" vert-adv-y="2457" 
d="M269 0l501 1352h-641v123h831v-69l-506 -1406h-185z" />
    <glyph glyph-name="eight" unicode="8" vert-adv-y="2457" 
d="M326 785c-44 25.333 -76.332 48.333 -96.999 69c-62 62.667 -93 150.667 -93 264c0 114 32 206 96 276c67.333 73.333 170 110 308 110c137.333 0 239.666 -36.667 306.999 -110c64 -70 96 -162 96 -276c0 -121.333 -35.333 -213.333 -106 -276
c-18 -16.667 -46 -35.667 -84 -57c66.667 -35.333 114.667 -71 144 -107c62 -75.333 93 -172.333 93 -291c0 -277.333 -150 -416 -450 -416c-300.667 0 -451 138.333 -451 415c0 138 40.333 245.667 121 323c22 20.667 60.667 46 116 76zM540.001 1395
c-73.333 0 -128.666 -25.667 -165.999 -77c-36 -49.333 -54 -117.666 -54 -204.999c0 -86.667 18 -155.334 54 -206.001c37.333 -51.333 91.333 -77 162 -77c75.333 0 131.666 25.667 168.999 77c36 50.667 54 119.667 54 207c0 86.667 -18 154.667 -54 204
c-38 51.333 -93 77 -165 77zM544.001 721c-180.667 0 -271 -107.667 -271 -323c0 -212 89.667 -318 269 -318c176 0 264 106.333 264 319c0 214.667 -87.333 322 -262 322z" />
    <glyph glyph-name="nine" unicode="9" vert-adv-y="2457" 
d="M771 694c-22.667 -27.333 -42.333 -47.668 -59 -61.001c-57.333 -45.333 -130.333 -68 -219 -68c-138.667 0 -242.334 53.333 -311.001 160c-50 76.667 -75 174 -75 292c0 110.667 20.667 206 62 286c68.667 134 189.334 201 362.001 201c170.667 0 289.667 -72 357 -216
c46 -98 69 -247 69 -447c0 -194 -15.333 -353.667 -46 -479c-63.333 -260.667 -223.333 -391 -480 -391c-84.667 0 -168.667 11.333 -252 34v128c91.333 -28.667 175 -43 251 -43c151.333 0 249.333 76.333 294 229c20.667 72 34.667 162.333 42 271
c1.33301 22.667 3 57.334 5 104.001zM531.001 1395c-89.333 0 -153 -40.666 -191 -121.999c-32.667 -68.667 -49 -151.667 -49 -249c0 -88.667 15 -163.334 45 -224.001c37.333 -77.333 98.333 -116 183 -116c68 0 125 26 171 78c55.333 62.667 83 151 83 265
c0 102 -16.333 185.333 -49 250c-40 78.667 -104.333 118 -193 118z" />
    <glyph glyph-name="colon" unicode=":" horiz-adv-x="541" vert-adv-y="2457" 
d="M270 220c36.667 0 67.334 -13.666 92.001 -40.999c21.333 -23.333 32 -51.333 32 -84c0 -36.667 -13.667 -67.334 -41 -92.001c-24 -21.333 -52 -32 -84 -32c-36.667 0 -67.334 13.667 -92.001 41c-21.333 23.333 -32 52 -32 86c0 35.333 13.667 65.333 41 90
c24 21.333 52 32 84 32zM270 1051c36.667 0 67.334 -13.667 92.001 -41c21.333 -23.333 32 -51 32 -83c0 -37.333 -13.667 -68.333 -41 -93c-24 -21.333 -52 -32 -84 -32c-36.667 0 -67.334 13.667 -92.001 41c-21.333 23.333 -32 52 -32 86c0 35.333 13.667 65.333 41 90
c24 21.333 52 32 84 32z" />
    <glyph glyph-name="semicolon" unicode=";" horiz-adv-x="541" vert-adv-y="2457" 
d="M130 -293l52 492h193l-117 -492h-128zM270 1051c36.667 0 67.334 -13.667 92.001 -41c21.333 -24 32 -51.667 32 -83c0 -37.333 -13.667 -68.333 -41 -93c-24 -21.333 -52 -32 -84 -32c-36.667 0 -67.334 13.667 -92.001 41c-21.333 23.333 -32 52 -32 86
c0 35.333 13.667 65.333 41 90c24 21.333 52 32 84 32z" />
    <glyph glyph-name="less" unicode="&#x3c;" vert-adv-y="2457" 
d="M250 668l702 -407v-132l-850 488v103l850 485v-131z" />
    <glyph glyph-name="equal" unicode="=" vert-adv-y="2457" 
d="M133 442v115h815v-115h-815zM133 780v115h815v-115h-815z" />
    <glyph glyph-name="greater" unicode="&#x3e;" vert-adv-y="2457" 
d="M831 666l-702 407v132l850 -488v-103l-850 -485v131z" />
    <glyph glyph-name="question" unicode="?" horiz-adv-x="834" vert-adv-y="2457" 
d="M422 426l-139.999 -0.000976562v52c0 94 7.33301 163.333 22 208c12.667 38.667 30.334 74.334 53.001 107.001c8 12 37 48 87 108c35.333 42.667 63.666 80 84.999 112c30 44 45 95.333 45 154c0 145.333 -80.667 218 -242 218c-72 0 -152 -14.333 -240 -43v128
c81.333 22.667 167.666 34 258.999 34c130 0 228.667 -27 296 -81c74 -59.333 111 -144.666 111 -255.999c0 -79.333 -18.667 -151 -56 -215c-21.333 -36 -83 -107.333 -185 -214c-48 -50 -76.667 -101.333 -86 -154c-6 -32.667 -9 -64.334 -9 -95.001v-63zM364.001 219.999
c36.667 0 67.334 -13.666 92.001 -40.999c21.333 -23.333 32 -51.333 32 -84c0 -36.667 -13.667 -67.334 -41 -92.001c-24 -21.333 -52 -32 -84 -32c-36.667 0 -67.334 13.667 -92.001 41c-21.333 23.333 -32 52 -32 86c0 35.333 13.667 65.333 41 90c24 21.333 52 32 84 32
z" />
    <glyph glyph-name="at" unicode="@" horiz-adv-x="1731" vert-adv-y="2457" 
d="M1188 1069l0.00195312 -434.002c0 -81.333 9.66699 -137 29 -167c19.333 -30.667 48 -46 86 -46c57.333 0 95.333 38.667 114 116c15.333 62 23 145.667 23 251c0 184.667 -33.333 323 -100 415c-86.667 120.667 -235.334 181 -446.001 181
c-209.333 0 -365 -61 -467 -183c-90.667 -109.333 -136 -271 -136 -485c0 -210.667 41.333 -369 124 -475c92.667 -120 256.334 -180 491.001 -180c102.667 0 214 9.66699 334 29c54.667 8.66699 102.667 19.334 144 32.001l28 -123c-157.333 -35.333 -328.333 -53 -513 -53
c-220 0 -385.333 35 -496 105c-186.667 117.333 -280 337 -280 659c0 248.667 62.667 441.667 188 579c129.333 142.667 325.333 214 588 214c282 0 479.667 -83.333 593 -250c77.333 -113.333 116 -257.333 116 -432c0 -159.333 -22 -279.666 -66 -360.999
c-50.667 -92.667 -132.334 -139 -245.001 -139c-71.333 0 -129 18 -173 54c-10.667 8.66699 -24.334 24 -41.001 46c-70.667 -70.667 -157.667 -106 -261 -106c-202.667 0 -304 119.667 -304 359c0 118 27.333 214.333 82 289c66.667 90.667 171 136 313 136
c97.333 0 189 -10.333 275 -31zM1016 993.998c-36 4 -65.002 5.99902 -87.002 5.99902c-83.333 0 -142.666 -26.333 -177.999 -79c-42 -62 -63 -145.667 -63 -251c0 -78 12 -139.667 36 -185c24.667 -46 62.334 -69 113.001 -69c58.667 0 106.667 23.667 144 71
c23.333 28.667 35 68.334 35 119.001v388z" />
    <glyph glyph-name="A" unicode="A" horiz-adv-x="1152" vert-adv-y="2457" 
d="M831 450h-543l-143 -450h-163l496 1475h199l494 -1475h-197zM794 569l-234 739l-235 -739h469z" />
    <glyph glyph-name="B" unicode="B" horiz-adv-x="1174" vert-adv-y="2457" 
d="M178 0l0.000976562 1475c155.333 19.333 283.666 29 384.999 29c178.667 0 305.667 -39 381 -117c58.667 -61.333 88 -150.333 88 -267c0 -110 -27 -193.667 -81 -251c-30.667 -33.333 -76.667 -60 -138 -80c80 -16.667 139.667 -45.667 179 -87
c59.333 -60.667 89 -157 89 -289c0 -158 -44 -274.333 -132 -349c-72.667 -62 -191.667 -93 -357 -93c-147.333 0 -285.333 9.66699 -414 29zM362.001 838l146 0.000976562c72.667 0 126.667 3.33301 162 10c118.667 21.333 178 110.666 178 267.999
c0 96 -22.333 165.667 -67 209c-44.667 42.667 -116 64 -214 64c-56 0 -124.333 -5.66699 -205 -17v-534zM362.001 103.001c81.333 -11.333 151 -17 209 -17c122 0 204.333 24.333 247 73c46.667 54.667 70 137 70 247c0 136 -33.333 227 -100 273
c-46.667 32 -140 48 -280 48h-146v-624z" />
    <glyph glyph-name="C" unicode="C" horiz-adv-x="971" vert-adv-y="2457" 
d="M936 133l-0.000976562 -128c-64.667 -22.667 -144.667 -34 -240 -34c-224 0 -382 69.333 -474 208c-81.333 122 -122 292.667 -122 512c0 242 41.667 434 125 576c92 158 253 237 483 237c75.333 0 143 -11 203 -33v-129c-74 28.667 -140.333 43 -199 43
c-159.333 0 -269.666 -65 -330.999 -195c-58.667 -122.667 -88 -288.667 -88 -498c0 -186 28 -330 84 -432c62.667 -113.333 176 -170 340 -170c73.333 0 146.333 14.333 219 43z" />
    <glyph glyph-name="D" unicode="D" horiz-adv-x="1260" vert-adv-y="2457" 
d="M178 0v1475c156 19.333 274.333 29 355 29c141.333 0 255.666 -27.333 342.999 -82c106.667 -66.667 183.667 -172.667 231 -318c34.667 -108.667 52 -231 52 -367c0 -268 -58.333 -466 -175 -594c-66.667 -73.333 -149.667 -122.666 -249 -147.999
c-60 -16 -132.333 -24 -217 -24c-111.333 0 -224.666 9.66699 -339.999 29zM362 105.999c46 -10.667 93.667 -16 143 -16c177.333 0 303 68 377 204c56 103.333 84 254.333 84 453c0 219.333 -38.333 383 -115 491c-38 54 -84 92.333 -138 115c-52 21.333 -117 32 -195 32
c-52.667 0 -104.667 -4 -156 -12v-1267z" />
    <glyph glyph-name="E" unicode="E" horiz-adv-x="1036" vert-adv-y="2457" 
d="M178 0v1475h770v-119h-586v-510h469v-119h-469v-608h611v-119h-795z" />
    <glyph glyph-name="F" unicode="F" horiz-adv-x="954" vert-adv-y="2457" 
d="M178 0v1475h737v-119h-553v-527h463v-119h-463v-710h-184z" />
    <glyph glyph-name="G" unicode="G" horiz-adv-x="1167" vert-adv-y="2457" 
d="M852 756l183.999 -0.000976562v-756c-96.667 -19.333 -208.667 -29 -336 -29c-143.333 0 -258 23.333 -344 70c-170.667 93.333 -256 309.666 -256 648.999c0 289.333 59 501 177 635c104 119.333 260 179 468 179c92.667 0 175.334 -11.333 248.001 -34v-128
c-95.333 28.667 -177.333 43 -246 43c-161.333 0 -277 -58 -347 -174c-71.333 -117.333 -107 -295.666 -107 -534.999c0 -205.333 29.667 -354.666 89 -447.999c58.667 -92 162 -138 310 -138c52.667 0 106 6.33301 160 19v647z" />
    <glyph glyph-name="H" unicode="H" horiz-adv-x="1323" vert-adv-y="2457" 
d="M178 0v1475h184v-644h599v644h184v-1475h-184v712h-599v-712h-184z" />
    <glyph glyph-name="I" unicode="I" horiz-adv-x="549" vert-adv-y="2457" 
d="M182 0v1475h184v-1475h-184z" />
    <glyph glyph-name="J" unicode="J" horiz-adv-x="555" vert-adv-y="2457" 
d="M189 1475l184 0.000976562v-1062c0 -178 -5.66699 -306.333 -17 -385c-24.667 -170.667 -99 -279.334 -223 -326.001c-40.667 -16 -100 -27 -178 -33v105c60.667 4.66699 104.667 17.667 132 39c46.667 37.333 77 108.333 91 213c7.33301 58.667 11 136.667 11 234v1215z
" />
    <glyph glyph-name="K" unicode="K" horiz-adv-x="1096" vert-adv-y="2457" 
d="M178 0v1475h184v-1475h-184zM889 0l-511 791l506 684h177l-499 -658l546 -817h-219z" />
    <glyph glyph-name="L" unicode="L" horiz-adv-x="948" vert-adv-y="2457" 
d="M178 0v1475h184v-1356h564v-119h-748z" />
    <glyph glyph-name="M" unicode="M" horiz-adv-x="1598" vert-adv-y="2457" 
d="M102 0l129.001 1475h225l292 -990c27.333 -91.333 47.333 -172 60 -242c14.667 76.667 33 153.667 55 231l290 1001h216l126 -1475h-171l-86 1005c-2.66699 34.667 -6 106.334 -10 215.001l-3 69c-28 -112.667 -53 -207 -75 -283l-284 -1006h-147l-283 1007
c-6.66699 22 -31.334 116 -74.001 282c-4 -134 -9.33301 -236.333 -16 -307l-85 -982h-159z" />
    <glyph glyph-name="N" unicode="N" horiz-adv-x="1313" vert-adv-y="2457" 
d="M178 0v1475h211l503 -1029c33.333 -69.333 63.333 -143.666 90 -222.999c-4 80 -6 158 -6 234v1018h158v-1475h-193l-537 1090c-26 52.667 -50.667 112 -74 178l3 -79c2 -45.333 3 -84.333 3 -117v-1072h-158z" />
    <glyph glyph-name="O" unicode="O" horiz-adv-x="1270" vert-adv-y="2457" 
d="M640 1504c352.667 0 529 -255.333 529 -766c0 -511.333 -177.667 -767 -533 -767c-200 0 -342 75.333 -426 226c-73.333 132 -110 315.333 -110 550c0 504.667 180 757 540 757zM635 1385c-130.667 0 -221.666 -61 -272.999 -183c-46 -110 -69 -262 -69 -456
c0 -205.333 23 -363.333 69 -474c50.667 -121.333 141.667 -182 273 -182s222 60.667 272 182c46 111.333 69 266.666 69 465.999c0 202.667 -23 357.334 -69 464.001c-52.667 122 -143.334 183 -272.001 183z" />
    <glyph glyph-name="P" unicode="P" horiz-adv-x="1079" vert-adv-y="2457" 
d="M178 0l0.000976562 1475c129.333 19.333 251.666 29 366.999 29c176.667 0 301.667 -48.333 375 -145c60.667 -80 91 -186.333 91 -319c0 -322 -148.667 -483 -446 -483c-62 0 -129.667 9.33301 -203 28v-585h-184zM362.001 706c61.333 -20 117.666 -30 168.999 -30
c191.333 0 287 118.333 287 355c0 118 -23.333 208 -70 270c-42 56 -117.333 84 -226 84c-43.333 0 -96.666 -4.66699 -159.999 -14v-665z" />
    <glyph glyph-name="Q" unicode="Q" horiz-adv-x="1270" vert-adv-y="2457" 
d="M1179 99v-165l-205 155c-87.333 -78.667 -201 -118 -341 -118c-356 0 -534 255.333 -534 766c0 228.667 36.667 409 110 541c84 150.667 227.333 226 430 226c353.333 0 530 -255.333 530 -766c0 -232.667 -39.667 -417.667 -119 -555zM687 442l221.998 -163
c44.667 114 67 265.333 67 454c0 202 -23 358.333 -69 469c-51.333 122 -142.333 183 -273 183c-131.333 0 -222.333 -61 -273 -183c-46 -110.667 -69 -265.334 -69 -464.001c0 -199.333 23 -354.666 69 -465.999c50.667 -121.333 141.334 -182 272.001 -182
c88.667 0 160.334 29.333 215.001 88l-161 103v161z" />
    <glyph glyph-name="R" unicode="R" horiz-adv-x="1111" vert-adv-y="2457" 
d="M178 0l0.000976562 1475c157.333 19.333 282.666 29 375.999 29c168.667 0 289.667 -41.667 363 -125c62.667 -72 94 -167.333 94 -286c0 -148.667 -42 -258 -126 -328c-46.667 -38.667 -114.667 -68.667 -204 -90l405 -675h-208l-420 772
c34.667 -2.66699 62.334 -4 83.001 -4c184.667 0 277 107.333 277 322c0 98.667 -21.333 172.334 -64 221.001c-42.667 49.333 -116.667 74 -222 74c-38.667 0 -95.334 -5 -170.001 -15v-1370h-184z" />
    <glyph glyph-name="S" unicode="S" horiz-adv-x="950" vert-adv-y="2457" 
d="M59 30v150c106 -56 214.333 -84 325 -84c108 0 189 23.333 243 70c54 46 81 114 81 204c0 66.667 -18 123.667 -54 171c-24.667 32 -54 59 -88 81c-30.667 20 -69.334 43 -116.001 69c-117.333 64.667 -204 125.667 -260 183c-69.333 71.333 -104 158 -104 260
c0 112.667 35.667 201.667 107 267c76 68.667 185 103 327 103c101.333 0 189.333 -14 264 -42v-132c-89.333 36.667 -170.333 55 -243 55c-84 0 -150 -17 -198 -51c-54 -38.667 -81 -98.334 -81 -179.001c0 -65.333 23.667 -119.333 71 -162
c34 -31.333 99.333 -74.666 196 -129.999c94.667 -54 160.334 -96.333 197.001 -127c105.333 -86.667 158 -204 158 -352c0 -102 -23 -187 -69 -255c-70.667 -105.333 -209.667 -158 -417 -158c-132 0 -245 19.667 -339 59z" />
    <glyph glyph-name="T" unicode="T" horiz-adv-x="897" vert-adv-y="2457" 
d="M356 0v1356h-356v119h897v-119h-357v-1356h-184z" />
    <glyph glyph-name="U" unicode="U" horiz-adv-x="1251" vert-adv-y="2457" 
d="M170 1475h183.999v-910c0 -166 14 -279.667 42 -341c40.667 -89.333 121 -134 241 -134c130.667 0 215.334 53 254.001 159c21.333 59.333 32 164.666 32 315.999v910h158v-917c0 -91.333 -3.33301 -160.666 -10 -207.999c-34 -252.667 -181.667 -379 -443 -379
c-215.333 0 -354 81.667 -416 245c-28 72.667 -42 186.667 -42 342v917z" />
    <glyph glyph-name="V" unicode="V" horiz-adv-x="1071" vert-adv-y="2457" 
d="M441 0l-448.999 1475h197l286 -974c21.333 -71.333 48.666 -172.333 81.999 -303c26.667 108 53 208.333 79 301l267 976h176l-436 -1475h-202z" />
    <glyph glyph-name="W" unicode="W" horiz-adv-x="1643" vert-adv-y="2457" 
d="M362 0l-344 1475h201l211 -976c6 -27.333 14 -66 24 -116l23 -126c21.333 106 38 185.333 50 238l228 980h173l225 -969c7.33301 -30 16.666 -73 27.999 -129l24 -120l12 61c10.667 62 22.334 123.333 35.001 184l194 973h179l-344 -1475h-181l-215 939
c-19.333 83.333 -38.333 180 -57 290c-20.667 -116.667 -38.667 -208 -54 -274l-223 -955h-189z" />
    <glyph glyph-name="X" unicode="X" horiz-adv-x="1097" vert-adv-y="2457" 
d="M441 785l-393 690h205l319 -573l291 573h185l-401 -705l439 -770h-205l-363 649l-341 -649h-185z" />
    <glyph glyph-name="Y" unicode="Y" horiz-adv-x="981" vert-adv-y="2457" 
d="M396 0v584l-416 891h215l311 -722l310 722h185l-421 -891v-584h-184z" />
    <glyph glyph-name="Z" unicode="Z" horiz-adv-x="977" vert-adv-y="2457" 
d="M14 0v93l702 1263h-622v119h825v-94l-701 -1262h736v-119h-940z" />
    <glyph glyph-name="bracketleft" unicode="[" horiz-adv-x="778" vert-adv-y="2457" 
d="M292 -371v1999h395v-119h-215v-1761h215v-119h-395z" />
    <glyph glyph-name="backslash" unicode="\" horiz-adv-x="584" vert-adv-y="2457" 
d="M411 0l-386 1475h149l386 -1475h-149z" />
    <glyph glyph-name="bracketright" unicode="]" horiz-adv-x="778" vert-adv-y="2457" 
d="M91 -371v119h215v1761h-215v119h395v-1999h-395z" />
    <glyph glyph-name="asciicircum" unicode="^" horiz-adv-x="1024" vert-adv-y="2457" 
d="M496 1287l-287 -546h-147l410 764h81l410 -764h-180z" />
    <glyph glyph-name="underscore" unicode="_" horiz-adv-x="889" vert-adv-y="2457" 
d="M-41 -328v106h971v-106h-971z" />
    <glyph glyph-name="grave" unicode="`" horiz-adv-x="1024" vert-adv-y="2457" 
d="M494 1194l-209 281h200l150 -281h-141z" />
    <glyph glyph-name="a" unicode="a" horiz-adv-x="1049" vert-adv-y="2457" 
d="M711 679l0.000976562 41.001c0 69.333 -11 123 -33 161c-33.333 58.667 -103 88 -209 88c-96 0 -193.667 -19.667 -293 -59v126c100 30.667 204 46 312 46c164 0 276.667 -37.333 338 -112c32.667 -40 53 -100 61 -180c2.66699 -29.333 4 -73 4 -131v-643
c-48.667 -12.667 -112.334 -23.334 -191.001 -32.001s-151 -13 -217 -13c-126.667 0 -223 18.333 -289 55c-80 44 -120 126 -120 246c0 129.333 47.333 224 142 284c66.667 42 182.667 76 348 102c20.667 3.33301 69.667 10.333 147 21zM711.001 571.001
c-102 -13.333 -185 -29.332 -249 -47.999c-77.333 -22.667 -131.333 -54.334 -162 -95.001c-28 -37.333 -42 -85 -42 -143c0 -137.333 84 -206 252 -206c74.667 0 141.667 8.66699 201 26v466z" />
    <glyph glyph-name="b" unicode="b" horiz-adv-x="1109" vert-adv-y="2457" 
d="M171 21l0.000976562 1564h180v-615c76 74.667 168 112 276 112c139.333 0 239.666 -49.333 300.999 -148c60.667 -98 91 -230.667 91 -398c0 -147.333 -28.667 -270 -86 -368c-34 -58 -74.667 -100.667 -122 -128c-78.667 -46 -177 -69 -295 -69
c-106 0 -221 16.667 -345 50zM351.001 106c64 -17.333 125.668 -26 185.001 -26c110 0 188.667 47.333 236 142c42 82 63 186.667 63 314c0 128 -17.667 233.333 -53 316c-34.667 80.667 -94.334 121 -179.001 121c-53.333 0 -101.333 -17 -144 -51
c-48 -38 -80 -90.333 -96 -157c-8 -33.333 -12 -83.333 -12 -150v-509z" />
    <glyph glyph-name="c" unicode="c" horiz-adv-x="817" vert-adv-y="2457" 
d="M770 125l-0.000976562 -118.001c-56 -24 -130.333 -36 -223 -36c-160.667 0 -278 46.667 -352 140c-70 87.333 -105 217 -105 389c0 179.333 39.333 321 118 425c79.333 104.667 199.333 157 360 157c62.667 0 119.667 -10.667 171 -32v-116
c-51.333 26 -104.666 39 -159.999 39c-117.333 0 -199.333 -48.667 -246 -146c-39.333 -82 -59 -191.333 -59 -328c0 -153.333 26.333 -262.666 79 -327.999c46.667 -58 120.334 -87 221.001 -87c73.333 0 138.666 13.667 195.999 41z" />
    <glyph glyph-name="d" unicode="d" vert-adv-y="2457" 
d="M729 1044v541.001h180v-1568c-48 -13.333 -107.5 -24.333 -178.5 -33s-135.833 -13 -194.5 -13c-173.333 0 -293 48 -359 144c-58 85.333 -87 209.666 -87 372.999c0 165.333 31.667 301 95 407c41.333 68.667 98.333 119 171 151c54 24 114.333 36 181 36
s130.667 -12.667 192 -38zM729 927.001c-56.667 30.667 -113.667 46.002 -171 46.002c-98.667 0 -171.334 -44.333 -218.001 -133c-44 -84.667 -66 -200.334 -66 -347.001c0 -164.667 28 -278.334 84 -341.001c42.667 -48 108.334 -72 197.001 -72
c56.667 0 114.667 7 174 21v826z" />
    <glyph glyph-name="e" unicode="e" horiz-adv-x="1032" vert-adv-y="2457" 
d="M276 501c0.666992 -106.667 13.335 -190 38.002 -250c46 -111.333 149.333 -167 310 -167c103.333 0 191.666 15.667 264.999 47v-117c-84 -28.667 -180.333 -43 -289 -43c-198 0 -336.333 52 -415 156c-63.333 84 -95 206 -95 366c0 190.667 38 337 114 439
c75.333 100 187.666 150 336.999 150c194 0 317 -92 369 -276c23.333 -80 35.333 -181.667 36 -305h-670zM277.001 612l487.998 -0.000976562c-3.33301 85.333 -12.666 153.333 -27.999 204c-31.333 104.667 -96.666 157 -195.999 157c-105.333 0 -178.333 -50 -219 -150
c-21.333 -51.333 -36.333 -121.666 -45 -210.999z" />
    <glyph glyph-name="f" unicode="f" horiz-adv-x="598" vert-adv-y="2457" 
d="M170 0v1085c0 110.667 6.66699 200.334 20 269.001c20 102 71 167.667 153 197c62 22.667 127.333 34 196 34h82v-108h-41c-94 0 -155 -20.667 -183 -62c-31.333 -47.333 -47 -150.333 -47 -309v-53h252v-115h-252v-938h-180z" />
    <glyph glyph-name="g" unicode="g" horiz-adv-x="1087" vert-adv-y="2457" 
d="M739 94c-26.667 -29.333 -48.999 -50.332 -66.999 -62.999c-54.667 -40 -124 -60 -208 -60c-94 0 -171.333 26 -232 78c-94.667 79.333 -142 222.333 -142 429c0 166 34.333 303.333 103 412c81.333 128 212.333 192 393 192c108 0 219 -14 333 -42v-835
c0 -154.667 -6.66699 -272.334 -20 -353.001c-24 -146.667 -88.667 -248 -194 -304c-86 -45.333 -198.333 -68 -337 -68c-38.667 0 -83.667 3 -135 9v108c46 -5.33301 90.667 -8 134 -8c98.667 0 172 13 220 39c71.333 38 116.666 105.667 135.999 203
c10.667 54 16 122.667 16 206v57zM739.001 963.001c-50 6.66699 -95 9.99902 -135 9.99902c-75.333 0 -134.333 -15.333 -177 -46c-49.333 -35.333 -88 -97.333 -116 -186c-24.667 -77.333 -37 -167.333 -37 -270c0 -143.333 23.333 -247.666 70 -312.999
c36.667 -52 85 -78 145 -78c50.667 0 98 16 142 48c44 32.667 75 75.334 93 128.001c10 27.333 15 67.666 15 120.999v586z" />
    <glyph glyph-name="h" unicode="h" horiz-adv-x="1128" vert-adv-y="2457" 
d="M171 0l0.000976562 1585h180v-558c89.333 36.667 177.666 55 264.999 55c166.667 0 273.667 -55 321 -165c22 -50 33 -140.333 33 -271v-646h-180v674c0 100.667 -10.667 172.334 -32 215.001c-28 56 -81 84 -159 84c-74 0 -156.667 -21.333 -248 -64v-909h-180z" />
    <glyph glyph-name="i" unicode="i" horiz-adv-x="528" vert-adv-y="2457" 
d="M174 0v1053h180v-1053h-180zM262 1438c32.667 0 59.999 -12 81.999 -36c18.667 -21.333 28 -46 28 -74c0 -32.667 -12 -60 -36 -82c-20.667 -18.667 -45.667 -28 -75 -28c-32.667 0 -59.667 12 -81 36c-18.667 21.333 -28 46.666 -28 75.999
c0 30.667 12 57.334 36 80.001c20.667 18.667 45.334 28 74.001 28z" />
    <glyph glyph-name="j" unicode="j" horiz-adv-x="541" vert-adv-y="2457" 
d="M187 1053h180v-903c0 -156 -8 -272.333 -24 -349c-31.333 -148.667 -106.333 -244.667 -225 -288c-49.333 -18 -107 -29 -173 -33v106c62 5.33301 107 19 135 41c49.333 39.333 81 113 95 221c8 62 12 143.333 12 244v961zM275 1438c32.667 0 59.999 -12 81.999 -36
c18.667 -21.333 28 -46 28 -74c0 -32.667 -12 -60 -36 -82c-20.667 -18.667 -45.667 -28 -75 -28c-32 0 -59 12 -81 36c-18.667 21.333 -28 46.666 -28 75.999c0 30.667 12 57.334 36 80.001c20.667 18.667 45.334 28 74.001 28z" />
    <glyph glyph-name="k" unicode="k" horiz-adv-x="981" vert-adv-y="2457" 
d="M784 0l-411 620l397 433h183l-403 -419l443 -634h-209zM171 0v1585h180v-1585h-180z" />
    <glyph glyph-name="l" unicode="l" horiz-adv-x="523" vert-adv-y="2457" 
d="M171 0v1585h180v-1585h-180z" />
    <glyph glyph-name="m" unicode="m" horiz-adv-x="1685" vert-adv-y="2457" 
d="M167 0l-0.000976562 1040c164.667 28 294.334 42 389.001 42c124.667 0 218.334 -22.667 281.001 -68c114 45.333 226.667 68 338 68c169.333 0 276.333 -55.667 321 -167c20.667 -51.333 31 -141 31 -269v-646h-180v635c0 123.333 -9.66699 206.666 -29 249.999
c-26.667 58.667 -82.334 88 -167.001 88c-70 0 -141.333 -16.333 -214 -49v-924h-180v643c0 119.333 -9.66699 200 -29 242c-27.333 58.667 -84.666 88 -171.999 88c-66.667 0 -136.334 -7.66699 -209.001 -23v-950h-180z" />
    <glyph glyph-name="n" unicode="n" horiz-adv-x="1124" vert-adv-y="2457" 
d="M167 0v1040c166.667 28 307 42 421 42c184 0 299.333 -55.333 346 -166c21.333 -51.333 32 -141.333 32 -270v-646h-180v635c0 124.667 -10.667 208.334 -32 251.001c-29.333 58 -90.333 87 -183 87c-73.333 0 -148 -7.66699 -224 -23v-950h-180z" />
    <glyph glyph-name="o" unicode="o" horiz-adv-x="1065" vert-adv-y="2457" 
d="M533 1082c150.667 0 262.668 -50.001 336.001 -150.001c70.667 -96.667 106 -232 106 -406c0 -172 -35.333 -307 -106 -405c-72 -100 -183.667 -150 -335 -150c-296 0 -444 187.667 -444 563c0 168.667 35.333 301.334 106 398.001c73.333 100 185.666 150 336.999 150z
M533.001 972.999c-102 0 -172.333 -45.667 -211 -137c-32 -76 -48 -177.333 -48 -304c0 -134 16 -239 48 -315c38.667 -91.333 109 -137 211 -137s172 45.667 210 137c32 76 48 179.333 48 310c0 132.667 -16 235.667 -48 309c-39.333 91.333 -109.333 137 -210 137z" />
    <glyph glyph-name="p" unicode="p" horiz-adv-x="1085" vert-adv-y="2457" 
d="M347 41v-545h-180v1544c124 28 245 42 363 42c182 0 307.333 -54.667 376 -164c58.667 -94.667 88 -224.667 88 -390c0 -170 -37.667 -307 -113 -411c-70 -97.333 -174.667 -146 -314 -146c-86 0 -159.333 23.333 -220 70zM347 170
c60.667 -60 128.001 -89.999 202.001 -89.999c91.333 0 158.666 46.333 201.999 139c39.333 84.667 59 188.667 59 312c0 153.333 -26.667 268.666 -80 345.999c-44 64 -119.667 96 -227 96c-46.667 0 -98.667 -4.33301 -156 -13v-790z" />
    <glyph glyph-name="q" unicode="q" horiz-adv-x="1087" vert-adv-y="2457" 
d="M739 -504l0.000976562 591.001c-62.667 -77.333 -153 -116 -271 -116c-252 0 -378 166.333 -378 499c0 171.333 34 310.666 102 417.999c80.667 129.333 213.667 194 399 194c115.333 0 224.666 -14 327.999 -42v-1544h-180zM739.001 956.001
c-49.333 11.333 -96.334 17.001 -141.001 17.001c-74.667 0 -132.667 -15 -174 -45c-47.333 -34.667 -85.333 -95.667 -114 -183c-24 -74.667 -36 -167 -36 -277c0 -258.667 70.333 -388 211 -388c50.667 0 97.334 15 140.001 45c45.333 31.333 78.333 74.666 99 129.999
c10 28 15 69 15 123v578z" />
    <glyph glyph-name="r" unicode="r" horiz-adv-x="653" vert-adv-y="2457" 
d="M167 0v1036c137.333 29.333 289 44.666 455 45.999v-113c-101.333 -0.666992 -193 -7 -275 -19v-950h-180z" />
    <glyph glyph-name="s" unicode="s" horiz-adv-x="819" vert-adv-y="2457" 
d="M66 15l0.000976562 129.005c70.667 -40 157 -60 259 -60c172.667 0 259 56.667 259 170c0 43.333 -14.667 79.666 -44 108.999c-22.667 23.333 -48.667 43.333 -78 60c-26 14 -59.333 30.667 -100 50c-98 48.667 -166.333 94.667 -205 138
c-48.667 53.333 -73 117.666 -73 192.999c0 97.333 38 170 114 218c63.333 40 144.333 60 243 60c68.667 0 143.667 -12 225 -36v-119c-68.667 30.667 -142.667 46 -222 46c-134.667 0 -202 -50.333 -202 -151c0 -44.667 14 -81.334 42 -110.001
c27.333 -28 87.666 -65.667 180.999 -113c73.333 -36.667 122.333 -64.334 147 -83.001c48 -34.667 82 -72.334 102 -113.001c18.667 -36 28 -80 28 -132c0 -200 -135.667 -300 -407 -300c-109.333 0 -199 14.667 -269 44z" />
    <glyph glyph-name="t" unicode="t" horiz-adv-x="672" vert-adv-y="2457" 
d="M162 1336l179.999 0.000976562v-283h283v-115h-283v-558c0 -106.667 15.667 -178.334 47 -215.001c22 -26 55.333 -41.667 100 -47c14.667 -2 40.334 -3 77.001 -3h59v-115h-97c-77.333 0 -138 6 -182 18c-91.333 25.333 -147.333 85 -168 179
c-10.667 50 -16 119.667 -16 209v930z" />
    <glyph glyph-name="u" unicode="u" horiz-adv-x="1093" vert-adv-y="2457" 
d="M158 1053h179.999v-649c0 -120 10.667 -200 32 -240c17.333 -33.333 42.333 -56 75 -68c27.333 -10.667 66 -16 116 -16c59.333 0 121 9 185 27v946h180v-1036c-133.333 -30.667 -258.666 -46 -375.999 -46c-119.333 0 -208 18.667 -266 56
c-66 42.667 -105 108.667 -117 198c-6 42 -9 97 -9 165v663z" />
    <glyph glyph-name="v" unicode="v" horiz-adv-x="916" vert-adv-y="2457" 
d="M380 0l-364 1053h183l194 -596c23.333 -72.667 49.333 -165.667 78 -279c26 104 51.333 194.333 76 271l197 604h167l-379 -1053h-152z" />
    <glyph glyph-name="w" unicode="w" horiz-adv-x="1404" vert-adv-y="2457" 
d="M322 0l-297.002 1053h181l190 -728c7.33301 -29.333 18.333 -85 33 -167c12.667 77.333 23 134 31 170l166 725h178l171 -711c11.333 -48.667 23.333 -109.667 36 -183c12.667 73.333 24.667 133.333 36 180l170 714h163l-297 -1053h-178l-158 681
c-11.333 48.667 -24.666 120.334 -39.999 215.001c-11.333 -76 -24.666 -147.333 -39.999 -214l-158 -682h-187z" />
    <glyph glyph-name="x" unicode="x" horiz-adv-x="977" vert-adv-y="2457" 
d="M395 543l-338 510h198l254 -401l242 401h168l-334 -502l366 -551h-198l-273 444l-288 -444h-168z" />
    <glyph glyph-name="y" unicode="y" horiz-adv-x="920" vert-adv-y="2457" 
d="M405 -14l-391 1067h189l216 -637c20 -59.333 43 -135.666 69 -228.999c12 59.333 31 134 57 224l187 642h167l-522 -1557h-173z" />
    <glyph glyph-name="z" unicode="z" horiz-adv-x="837" vert-adv-y="2457" 
d="M33 0v116l543 822h-488v115h680v-116l-541 -822h572v-115h-766z" />
    <glyph glyph-name="braceleft" unicode="{" horiz-adv-x="778" vert-adv-y="2457" 
d="M312 677c40 -12.667 69.332 -24.668 87.999 -36.001c39.333 -25.333 64 -68.333 74 -129c3.33301 -20 5 -81.333 5 -184v-214c0 -140.667 6 -234.334 18 -281.001c15.333 -62 59.666 -93 132.999 -93h77v-109h-92c-92.667 0 -162 14.667 -208 44
c-32 21.333 -58.333 58 -79 110c-15.333 39.333 -24.666 89.333 -27.999 150c-0.666992 20 -1 72 -1 156v228c0 92 -1.66699 153 -5 183c-10 80.667 -57.667 121 -143 121h-28v108h28c59.333 0 99.333 18.333 120 55c16 26.667 25 67.667 27 123
c0.666992 18.667 1 61.334 1 128.001v130c0 122 3.66699 204 11 246c9.33301 51.333 28 95.333 56 132c42.667 55.333 125.667 83 249 83h92v-108h-77c-73.333 0 -117.666 -31.333 -132.999 -94c-12 -46.667 -18 -140.667 -18 -282v-117c0 -102 -1.66699 -163.333 -5 -184
c-9.33301 -61.333 -34 -104.666 -74 -129.999c-18.667 -11.333 -48 -23.333 -88 -36z" />
    <glyph glyph-name="bar" unicode="|" horiz-adv-x="778" vert-adv-y="2457" 
d="M306 -504v2132h166v-2132h-166z" />
    <glyph glyph-name="braceright" unicode="}" horiz-adv-x="778" vert-adv-y="2457" 
d="M465 677c-40 12.667 -69.332 24.667 -87.999 36c-39.333 25.333 -64 68.666 -74 129.999c-3.33301 20 -5 81.333 -5 184v117c0 141.333 -5.66699 235.333 -17 282c-16 62.667 -60.667 94 -134 94h-76v108h91c92.667 0 162 -14.667 208 -44
c32.667 -20.667 59 -57.334 79 -110.001c15.333 -38.667 24.666 -88.667 27.999 -150c0.666992 -20 1 -72.333 1 -157v-130c0 -93.333 1.66699 -154.666 5 -183.999c10 -81.333 58 -122 144 -122h28v-108h-28c-60 0 -100.333 -18 -121 -54c-16 -27.333 -25 -68.333 -27 -123
c-0.666992 -18 -1 -60.333 -1 -127v-228c0 -121.333 -3.66699 -203 -11 -245c-9.33301 -50 -28 -93.667 -56 -131c-42.667 -56 -125.667 -84 -249 -84h-91v109h76c73.333 0 118 31 134 93c11.333 46.667 17 140.334 17 281.001v214c0 102 1.66699 163.333 5 184
c9.33301 60.667 34 103.667 74 129c18.667 11.333 48 23.333 88 36z" />
    <glyph glyph-name="asciitilde" unicode="~" vert-adv-y="2457" 
d="M238 542l-89.998 33c21.333 64 43.666 113 66.999 147c43.333 65.333 100 98 170 98c47.333 0 92.666 -15.333 135.999 -46c22 -15.333 49.667 -37.666 83 -66.999c34 -30 55 -47.667 63 -53c16 -10 33 -15 51 -15c37.333 0 68 22.667 92 68
c7.33301 14.667 18.666 45 33.999 91l89 -33c-13.333 -56.667 -27.666 -100.334 -42.999 -131.001c-37.333 -75.333 -101.333 -113 -192 -113c-58 0 -108.667 17.667 -152 53l-92 79c-18 16 -32.333 27.333 -43 34c-14.667 10 -31 15 -49 15c-32 0 -60.333 -22 -85 -66
c-10.667 -18.667 -23.667 -50 -39 -94z" />
    <glyph glyph-name="uni00A0" unicode="&#xa0;" horiz-adv-x="492" vert-adv-y="2457" 
 />
    <glyph glyph-name="exclamdown" unicode="&#xa1;" horiz-adv-x="655" vert-adv-y="2457" 
d="M258 608h138l34 -1095h-206zM326 1051c36.667 0 67.667 -13.667 93 -41c21.333 -23.333 32 -51 32 -83c0 -38 -13.667 -69 -41 -93c-24 -21.333 -52.333 -32 -85 -32c-36 0 -66.333 13.667 -91 41c-21.333 23.333 -32 52 -32 86c0 34.667 13.667 64.667 41 90
c23.333 21.333 51 32 83 32z" />
    <glyph glyph-name="cent" unicode="&#xa2;" vert-adv-y="2457" 
d="M537 164c-97.333 14.667 -173.333 43.999 -228 87.999c-106 84 -159 225.333 -159 424c0 226.667 64 385.667 192 477c53.333 38.667 118.333 63.667 195 75v275h131v-268c66 -3.33301 127.333 -15.666 184 -36.999v-118c-58 26.667 -119.333 42 -184 46v-859
c79.333 4 150.333 22 213 54v-118c-52.667 -24 -123.667 -38.667 -213 -44v-257h-131v262zM537 277.999v834c-135.333 -46 -203 -193.333 -203 -442c0 -160 31 -271.333 93 -334c28 -28 64.667 -47.333 110 -58z" />
    <glyph glyph-name="sterling" unicode="&#xa3;" vert-adv-y="2457" 
d="M274 131l-0.000976562 559h-170v115h170v196c0 156 26 271 78 345c73.333 105.333 197 158 371 158c90.667 0 169.667 -11.333 237 -34v-128c-90.667 28.667 -167.667 43 -231 43c-121.333 0 -201.666 -46 -240.999 -138c-22.667 -54.667 -34 -153 -34 -295v-147h252
v-115h-252v-559h545v-131h-897v131h172z" />
    <glyph glyph-name="currency" unicode="&#xa4;" vert-adv-y="2457" 
d="M150 181l-101 83.001l135 151c-49.333 75.333 -74 171.333 -74 288c0 117.333 24.667 213.666 74 288.999l-135 150l101 83l123 -143c72.667 46 162 69 268 69c106.667 0 196 -23 268 -69l123 143l101 -83l-135 -150c48.667 -78 73 -173.667 73 -287
c0 -118 -24.333 -214.667 -73 -290l135 -151l-101 -83l-123 144c-72 -46 -161.333 -69 -268 -69c-106 0 -195.333 23 -268 69zM541 1042c-96.667 0 -163.664 -34.667 -200.997 -104c-30.667 -57.333 -46 -134.333 -46 -231c0 -102 15.333 -181.667 46 -239
c37.333 -68.667 104.666 -103 201.999 -103c95.333 0 161.666 34.667 198.999 104c30.667 56.667 46 135 46 235c0 100.667 -15.333 178.667 -46 234c-38.667 69.333 -105.334 104 -200.001 104z" />
    <glyph glyph-name="yen" unicode="&#xa5;" vert-adv-y="2457" 
d="M448 0v281h-350v109h350v126h-350v109h330l-396 850h199l330 -746l313 746h163l-387 -850h322v-109h-340v-126h340v-109h-340v-281h-184z" />
    <glyph glyph-name="brokenbar" unicode="&#xa6;" horiz-adv-x="575" vert-adv-y="2457" 
d="M205 932v543h166v-543h-166zM205 0v508h166v-508h-166z" />
    <glyph glyph-name="section" unicode="&#xa7;" vert-adv-y="2457" 
d="M336 922c-95.333 60.667 -143.001 149.001 -143.001 265.001c0 115.333 42 200 126 254c66 42 150 63 252 63c94 0 179 -14 255 -42v-132c-91.333 36.667 -172 55 -242 55c-155.333 0 -233 -62.333 -233 -187c0 -55.333 16.667 -97.333 50 -126
c26.667 -22 58.334 -41.333 95.001 -58c33.333 -14.667 72.333 -31 117 -49c92.667 -37.333 155.667 -66 189 -86c98 -58.667 147 -139 147 -241c0 -109.333 -61.667 -206 -185 -290c96 -62 144 -149.667 144 -263c0 -112 -43 -196.333 -129 -253
c-65.333 -43.333 -149.333 -65 -252 -65c-136.667 0 -259 19.333 -367 58v151c120.667 -56 240 -84 358 -84c154.667 0 232 61 232 183c0 53.333 -16.667 94.333 -50 123c-26 22.667 -57.667 42 -95 58c-33.333 15.333 -72.333 32 -117 50
c-92.667 37.333 -155.667 65.666 -189 84.999c-98 58.667 -147 139 -147 241c0 110 61.333 206.667 184 290zM408.999 876.001c-66 -50.667 -99.001 -115 -99.001 -193c0 -50 13.667 -89 41 -117c28 -28 96 -65 204 -111c58.667 -24.667 104.334 -45 137.001 -61
c66 50.667 99 115 99 193c0 50 -13.667 89 -41 117s-95.333 65 -204 111c-57.333 24 -103 44.333 -137 61z" />
    <glyph glyph-name="dieresis" unicode="&#xa8;" horiz-adv-x="1024" vert-adv-y="2457" 
d="M357 1458c31.333 0 57.335 -11.666 78.002 -34.999c18 -20 27 -43.333 27 -70c0 -31.333 -11.333 -57.333 -34 -78c-20 -18 -44 -27 -72 -27c-30.667 0 -56.334 11.667 -77.001 35c-18 20 -27 44 -27 72c0 29.333 11.667 54.666 35 75.999c19.333 18 42.666 27 69.999 27
zM664.002 1458c31.333 0 57.335 -11.666 78.002 -34.999c18 -20 27 -43.333 27 -70c0 -30.667 -11.667 -56.667 -35 -78c-19.333 -18 -43 -27 -71 -27c-30.667 0 -56.334 11.667 -77.001 35c-18 20 -27 44 -27 72c0 29.333 11.667 54.666 35 75.999
c19.333 18 42.666 27 69.999 27z" />
    <glyph glyph-name="copyright" unicode="&#xa9;" horiz-adv-x="1741" vert-adv-y="2457" 
d="M1105 459l-0.000976562 -85.001c-50.667 -12.667 -104.667 -19 -162 -19c-140.667 0 -242.667 34.667 -306 104c-52 56 -78 139.667 -78 251c0 262 128 393 384 393c56.667 0 108 -6.33301 154 -19v-86c-61.333 16 -111.666 24 -150.999 24
c-91.333 0 -154.333 -28.667 -189 -86c-32 -53.333 -48 -128.666 -48 -225.999c0 -88 15.667 -154.333 47 -199c36 -50 98.333 -75 187 -75c40 0 94 7.66699 162 23zM869.999 1504c224.667 0 409.002 -73 553.002 -219c65.333 -66.667 116.666 -144 153.999 -232
c40.667 -98 61 -202 61 -312c0 -151.333 -37.333 -289.333 -112 -414c-70.667 -118 -165.334 -208.333 -284.001 -271c-108 -56.667 -231.333 -85 -370 -85c-227.333 0 -412.333 74 -555 222c-143.333 148.667 -215 334.667 -215 558c0 144 37.333 278 112 402
c68.667 114.667 163.667 203.667 285 267c108 56 231.667 84 371 84zM870.001 1399c-188 0 -344.667 -65.667 -470 -197c-115.333 -121.333 -173 -272.333 -173 -453c0 -192 57.667 -350 173 -474c124 -133.333 281.333 -200 472 -200c188 0 344 66.667 468 200
c115.333 124 173 279 173 465c0 189.333 -57.667 343.333 -173 462c-128 131.333 -284.667 197 -470 197z" />
    <glyph glyph-name="ordfeminine" unicode="&#xaa;" horiz-adv-x="737" vert-adv-y="2457" 
d="M462 1256v20c0 88.667 -42.333 133 -127 133c-52 0 -120.333 -16 -205 -48v112c69.333 20.667 141.333 31 216 31c112 0 188.333 -23 229 -69c29.333 -32.667 44 -97.667 44 -195v-387c-84.667 -21.333 -172.667 -32 -264 -32c-89.333 0 -158.333 12.333 -207 37
c-54 27.333 -81 78.333 -81 153c0 102.667 48.667 170.667 146 204c47.333 16 130.333 29.667 249 41zM462 1167c-74.667 -8 -127.667 -18.667 -159 -32c-50.667 -22 -76 -60.333 -76 -115c0 -71.333 49 -107 147 -107c28.667 0 58 3.66699 88 11v243z" />
    <glyph glyph-name="guillemotleft" unicode="&#xab;" horiz-adv-x="778" vert-adv-y="2457" 
d="M556 584l176 -296l-70 -56l-302 352l302 353l70 -56zM230 584l176 -296l-70 -55l-303 351l303 353l70 -56z" />
    <glyph glyph-name="registered.salt" unicode="&#xac;" horiz-adv-x="1741" vert-adv-y="2457" 
d="M637 373l-0.000976562 714c87.333 11.333 169.666 17 246.999 17c98.667 0 169.334 -21 212.001 -63c36.667 -36 55 -86.667 55 -152c0 -117.333 -62.333 -183 -187 -197l252 -319h-169l-258 381c32 -8.66699 63.333 -13 94 -13c48 0 81 12 99 36
c17.333 23.333 26 57.333 26 102c0 55.333 -10 94 -30 116c-17.333 18.667 -51.666 28 -102.999 28c-30.667 0 -64 -3 -100 -9v-641h-138zM870.999 1504c224.667 0 409.002 -73 553.002 -219c65.333 -66.667 116.666 -144 153.999 -232c40.667 -98 61 -202 61 -312
c0 -151.333 -37.333 -289.333 -112 -414c-70.667 -118 -165.334 -208.333 -284.001 -271c-108 -56.667 -231.333 -85 -370 -85c-227.333 0 -412.333 74 -555 222c-143.333 148.667 -215 334.667 -215 558c0 144 37.333 278 112 402c68.667 114.667 163.667 203.667 285 267
c108 56 231.667 84 371 84zM871.001 1399c-188 0 -344.667 -65.667 -470 -197c-115.333 -121.333 -173 -272.333 -173 -453c0 -192 57.667 -350 173 -474c124 -133.333 281.333 -200 472 -200c188 0 344 66.667 468 200c115.333 124 173 279 173 465
c0 189.333 -57.667 343.333 -173 462c-128 131.333 -284.667 197 -470 197z" />
    <glyph glyph-name="uni00AD" unicode="&#xad;" horiz-adv-x="686" vert-adv-y="2457" 
d="M82 528v115h522v-115h-522z" />
    <glyph glyph-name="registered" unicode="&#xae;" horiz-adv-x="1108" vert-adv-y="2457" 
d="M385 853v475.999c73.333 7.33301 132.333 11 177 11c126.667 0 190 -47.667 190 -143c0 -67.333 -37 -112.666 -111 -135.999l152 -208h-138l-150 242v-242h-120zM505 1119c17.333 -8.66699 36.333 -13.001 57 -13.001c45.333 0 68 27 68 81
c0 34.667 -5.33301 58.334 -16 71.001c-10 11.333 -29.333 17 -58 17c-15.333 0 -32.333 -2 -51 -6v-150zM555 1553c136.667 0 248 -40.667 334 -122c92 -86.667 138 -199.334 138 -338.001c0 -138 -46 -250.667 -138 -338c-86 -81.333 -197 -122 -333 -122
c-138 0 -250 40.667 -336 122c-92 87.333 -138 202 -138 344c0 86.667 21 166 63 238c43.333 74.667 105.333 131.334 186 170.001c65.333 30.667 140 46 224 46zM555 1477c-107.333 0 -194.334 -34.334 -261.001 -103.001c-68 -69.333 -102 -161.333 -102 -276
c0 -120.667 34 -216 102 -286c66.667 -68.667 153.667 -103 261 -103c106.667 0 193.334 34.333 260.001 103c68 70 102 163.667 102 281c0 118.667 -34 212.334 -102 281.001c-67.333 68.667 -154 103 -260 103z" />
    <glyph glyph-name="macron" unicode="&#xaf;" horiz-adv-x="1024" vert-adv-y="2457" 
d="M241 1295v100h543v-100h-543z" />
    <glyph glyph-name="degree" unicode="&#xb0;" horiz-adv-x="563" vert-adv-y="2457" 
d="M281 1553c79.333 0 143.333 -22.6641 192 -67.9971c48.667 -44.667 73 -104.334 73 -179.001s-24.333 -134.667 -73 -180c-48 -44.667 -111.667 -67 -191 -67c-80.667 0 -145 22.333 -193 67c-48.667 45.333 -73 106.666 -73 183.999c0 73.333 24.333 131.666 73 174.999
c49.333 45.333 113.333 68 192 68zM281 1465c-33.333 0 -61.668 -13.332 -85.001 -39.999c-24.667 -28.667 -37 -67.334 -37 -116.001c0 -52.667 12.333 -93.334 37 -122.001c22.667 -26.667 51 -40 85 -40s62.333 13.333 85 40c24.667 28.667 37 68.334 37 119.001
c0 51.333 -12.333 91 -37 119c-23.333 26.667 -51.666 40 -84.999 40z" />
    <glyph glyph-name="plusminus" unicode="&#xb1;" vert-adv-y="2457" 
d="M133 610v115h342v377h131v-377h342v-115h-342v-374h-131v374h-342zM133 0v115h815v-115h-815z" />
    <glyph glyph-name="twosuperior" unicode="&#xb2;" horiz-adv-x="655" vert-adv-y="2457" 
d="M51 907l0.00195312 75l220 230c56 60.667 93.667 107 113 139c24.667 40 37 78 37 114c0 31.333 -8.33301 57.333 -25 78c-22.667 28 -55.334 42 -98.001 42c-53.333 0 -122 -18.667 -206 -56v100c67.333 25.333 138.666 38 213.999 38c180.667 0 271 -66.667 271 -200
c0 -52.667 -16 -103 -48 -151c-28 -43.333 -114 -138.333 -258 -285l-41 -42h364v-82h-543z" />
    <glyph glyph-name="threesuperior" unicode="&#xb3;" horiz-adv-x="655" vert-adv-y="2457" 
d="M178 1261v82.001h68c50.667 0 88.334 11 113.001 33c30 26.667 45 60.667 45 102c0 71.333 -42.333 107 -127 107c-56 0 -118.333 -14.667 -187 -44v98c63.333 18.667 128 28 194 28c184 0 276 -62.667 276 -188c0 -72.667 -35.333 -127.334 -106 -164.001
c36 -10.667 64.333 -25 85 -43c36 -32 54 -81.667 54 -149c0 -84.667 -29 -145 -87 -181c-52 -32.667 -125.333 -49 -220 -49c-80 0 -150.333 12 -211 36v101c73.333 -36.667 139.666 -55 198.999 -55c108.667 0 163 49.333 163 148c0 92 -53.333 138 -160 138h-99z" />
    <glyph glyph-name="acute" unicode="&#xb4;" horiz-adv-x="1024" vert-adv-y="2457" 
d="M389 1194l150 281h200l-209 -281h-141z" />
    <glyph glyph-name="mu" unicode="&#xb5;" vert-adv-y="2457" 
d="M157 -504v1557h180v-649c0 -120 10.667 -200 32 -240c17.333 -33.333 42.333 -56 75 -68c28 -10.667 67 -16 117 -16c59.333 0 120.666 9 183.999 27v946h180v-1036c-133.333 -30.667 -254 -46 -362 -46c-89.333 0 -164.666 10 -225.999 30v-505h-180z" />
    <glyph glyph-name="paragraph" unicode="&#xb6;" horiz-adv-x="1262" vert-adv-y="2457" 
d="M517 -424l0.000976562 1155h-60c-70 0 -122.333 6 -157 18c-134 45.333 -201 158.666 -201 339.999c0 98 19.333 179.667 58 245c43.333 72.667 113.666 117 210.999 133c34 5.33301 103.333 8 208 8h395v-1899h-158v1780h-138v-1780h-158z" />
    <glyph glyph-name="periodcentered" unicode="&#xb7;" horiz-adv-x="541" vert-adv-y="2457" 
d="M271 712c36.667 0 67.334 -13.667 92.001 -41c21.333 -23.333 32 -51 32 -83c0 -37.333 -13.667 -68.333 -41 -93c-24 -21.333 -52 -32 -84 -32c-36.667 0 -67.334 13.667 -92.001 41c-21.333 23.333 -32 52 -32 86c0 35.333 13.667 65.333 41 90c24 21.333 52 32 84 32z
" />
    <glyph glyph-name="cedilla" unicode="&#xb8;" horiz-adv-x="1024" vert-adv-y="2457" 
d="M499 0h120l-55 -122c57.333 -7.33301 102.666 -18.333 135.999 -33c66 -28.667 99 -81 99 -157c0 -122 -87 -183 -261 -183c-56 0 -105.333 6 -148 18v92c44.667 -13.333 89.334 -20 134.001 -20c68.667 0 103 33 103 99c0 50.667 -19 82.667 -57 96
c-26 9.33301 -63.667 14 -113 14l-33 29z" />
    <glyph glyph-name="onesuperior" unicode="&#xb9;" horiz-adv-x="655" vert-adv-y="2457" 
d="M276 907v637l-150 -46v92l183 67h120v-750h-153z" />
    <glyph glyph-name="ordmasculine" unicode="&#xba;" horiz-adv-x="737" vert-adv-y="2457" 
d="M371 1504c196.667 0 295 -114 295 -342c0 -227.333 -99.333 -341 -298 -341c-197.333 0 -296 115.333 -296 346c0 224.667 99.667 337 299 337zM369 1412c-91.333 0 -137 -82 -137 -246c0 -168.667 46 -253 138 -253c90.667 0 136 83 136 249
c0 166.667 -45.667 250 -137 250z" />
    <glyph glyph-name="guillemotright" unicode="&#xbb;" horiz-adv-x="778" vert-adv-y="2457" 
d="M222 585l-176 297l70 55l303 -352l-303 -353l-70 56zM548 585l-176 297l71 55l302 -352l-302 -352l-71 55z" />
    <glyph glyph-name="onequarter" unicode="&#xbc;" horiz-adv-x="1471" vert-adv-y="2457" 
d="M242 743v638l-150 -46v91l183 67h120v-750h-153zM269 0l656 1475h125l-656 -1475h-125zM1127 172h-375v73l225 514h150l-220 -505h220v239h148v-239h93v-82h-93v-172h-148v172z" />
    <glyph glyph-name="onehalf" unicode="&#xbd;" horiz-adv-x="1471" vert-adv-y="2457" 
d="M258 743v638l-150 -46v91l183 67h120v-750h-153zM249 0l656 1475h125l-656 -1475h-125zM782 0v75.002l104 109c90 92.667 151.333 159 184 199c54.667 66 82 124.333 82 175c0 31.333 -8.33301 57.333 -25 78c-22.667 28 -55.334 42 -98.001 42
c-54 0 -123 -18.667 -207 -56v100c68 25.333 139.333 38 214 38c181.333 0 272 -66.667 272 -200c0 -64.667 -25.333 -127.334 -76 -188.001c-43.333 -52.667 -133.666 -149.334 -270.999 -290.001h364v-82h-543z" />
    <glyph glyph-name="threequarters" unicode="&#xbe;" horiz-adv-x="1471" vert-adv-y="2457" 
d="M172 1097v82.001h68c50.667 0 88.334 11 113.001 33c30 26.667 45 60.667 45 102c0 72 -42.333 108 -127 108c-56 0 -118.333 -14.667 -187 -44v98c62 18.667 126.667 28 194 28c184 0 276 -63 276 -189c0 -72.667 -35.333 -127.334 -106 -164.001
c36 -10.667 64.333 -25 85 -43c36 -31.333 54 -81 54 -149c0 -153.333 -102.333 -230 -307 -230c-80 0 -150.333 12 -211 36v101c73.333 -36.667 139.666 -55 198.999 -55c108.667 0 163 49.333 163 148c0 92 -53.333 138 -160 138h-99zM339 0.000976562l656 1475h125
l-656 -1475h-125zM1154 172.001h-375v73l225 514h150l-220 -505h220v239h148v-239h94v-82h-94v-172h-148v172z" />
    <glyph glyph-name="questiondown" unicode="&#xbf;" horiz-adv-x="834" vert-adv-y="2457" 
d="M411 608h138.998v-83c0 -93.333 -7.33301 -162.333 -22 -207c-12 -39.333 -29.333 -75.333 -52 -108c-9.33301 -12.667 -38.333 -48.334 -87 -107.001c-35.333 -43.333 -63.666 -80.666 -84.999 -111.999c-30 -44 -45 -95.333 -45 -154c0 -145.333 80.667 -218 242 -218
c72 0 152 14.333 240 43v-128c-81.333 -22.667 -167.666 -34 -258.999 -34c-130 0 -228.667 27 -296 81c-74 59.333 -111 144.666 -111 255.999c0 78.667 18.667 150 56 214c21.333 36.667 83 108.334 185 215.001c48 50 76.667 101 86 153c6 32.667 9 64.667 9 96v93z
M466.998 1051c36.667 0 67.667 -13.667 93 -41c21.333 -23.333 32 -51 32 -83c0 -37.333 -13.667 -68.333 -41 -93c-24 -21.333 -52.333 -32 -85 -32c-36 0 -66.333 13.667 -91 41c-21.333 23.333 -32 52 -32 86c0 34.667 13.667 64.667 41 90c23.333 21.333 51 32 83 32z
" />
    <glyph glyph-name="Agrave" unicode="&#xc0;" horiz-adv-x="1152" vert-adv-y="2457" 
d="M831 450h-543l-143 -450h-163l496 1475h199l494 -1475h-197zM794 569l-234 739l-235 -739h469zM543 1599l-209 281h200l150 -281h-141z" />
    <glyph glyph-name="Aacute" unicode="&#xc1;" horiz-adv-x="1152" vert-adv-y="2457" 
d="M831 450h-543l-143 -450h-163l496 1475h199l494 -1475h-197zM794 569l-234 739l-235 -739h469zM472 1599l149 281h200l-208 -281h-141z" />
    <glyph glyph-name="Acircumflex" unicode="&#xc2;" horiz-adv-x="1152" vert-adv-y="2457" 
d="M831 450h-543l-143 -450h-163l496 1475h199l494 -1475h-197zM794 569l-234 739l-235 -739h469zM576 1790l-148 -191h-148l207 281h178l208 -281h-148z" />
    <glyph glyph-name="Atilde" unicode="&#xc3;" horiz-adv-x="1152" vert-adv-y="2457" 
d="M831 450h-543l-143 -450h-163l496 1475h199l494 -1475h-197zM794 569l-234 739l-235 -739h469zM386 1622l-122.998 0.000976562c8 59.333 21.667 108.666 41 147.999c31.333 64.667 85.666 97 162.999 97c46 0 87.333 -15 124 -45c15.333 -12 41.333 -37.667 78 -77
c11.333 -12.667 22.666 -19 33.999 -19c23.333 0 41.333 21 54 63c5.33301 18 8.66602 38.667 9.99902 62h123c-14.667 -163.333 -82.667 -245 -204 -245c-46 0 -87.333 15 -124 45c-23.333 18.667 -46.333 41 -69 67c-16.667 19.333 -31 29 -43 29
c-23.333 0 -41.333 -21 -54 -63c-5.33301 -18 -8.66602 -38.667 -9.99902 -62z" />
    <glyph glyph-name="Adieresis" unicode="&#xc4;" horiz-adv-x="1152" vert-adv-y="2457" 
d="M831 450h-543l-143 -450h-163l496 1475h199l494 -1475h-197zM794 569l-234 739l-235 -739h469zM409 1842c31.333 0 57.335 -11.666 78.002 -34.999c18 -20 27 -43.333 27 -70c0 -31.333 -11.667 -57.333 -35 -78c-19.333 -18 -43 -27 -71 -27
c-30.667 0 -56.334 11.667 -77.001 35c-18 20 -27 44 -27 72c0 29.333 11.667 54.666 35 75.999c19.333 18 42.666 27 69.999 27zM741.002 1842c31.333 0 57.335 -11.666 78.002 -34.999c18 -20 27 -43.333 27 -70c0 -31.333 -11.333 -57.333 -34 -78
c-20 -18 -44 -27 -72 -27c-30.667 0 -56.334 11.667 -77.001 35c-18 20 -27 44 -27 72c0 29.333 11.667 54.666 35 75.999c19.333 18 42.666 27 69.999 27z" />
    <glyph glyph-name="Aring" unicode="&#xc5;" horiz-adv-x="1152" vert-adv-y="2457" 
d="M831 450h-543l-143 -450h-163l496 1475h199l494 -1475h-197zM794 569l-234 739l-235 -739h469zM577 1958c70 0 124.333 -20.001 163 -60.001c34.667 -36 52 -80.333 52 -133c0 -53.333 -17.333 -98 -52 -134c-38.667 -40 -93.667 -60 -165 -60
c-69.333 0 -123.333 20 -162 60c-34.667 36 -52 81.333 -52 136c0 52.667 17.333 96.334 52 131.001c39.333 40 94 60 164 60zM577 1888c-56.667 0 -85 -40.667 -85 -122c0 -83.333 28.333 -125 85 -125c56 0 84 41.333 84 124c0 82 -28 123 -84 123z" />
    <glyph glyph-name="AE" unicode="&#xc6;" horiz-adv-x="1676" vert-adv-y="2457" 
d="M819 469h-499l-261 -469h-167l831 1475h866v-119h-586v-510h469v-119h-469v-608h611v-119h-795v469zM819 588v779l-433 -779h433z" />
    <glyph glyph-name="Ccedilla" unicode="&#xc7;" horiz-adv-x="958" vert-adv-y="2457" 
d="M936 133l-0.000976562 -128.001c-64.667 -22.667 -143 -34 -235 -34c-20.667 0 -43.667 1 -69 3l-43 -96c57.333 -7.33301 102.666 -18.333 135.999 -33c66 -28.667 99 -81 99 -157c0 -122 -87 -183 -261 -183c-56 0 -105.333 6 -148 18v92
c44.667 -13.333 89.334 -20 134.001 -20c68.667 0 103 33 103 99c0 50.667 -19 82.667 -57 96c-26 9.33301 -63.667 14 -113 14l-33 29l69 156c-278.667 58.667 -418 292.334 -418 701.001c0 242.667 41.667 435 125 577c92 158 253 237 483 237c75.333 0 143 -11 203 -33
v-129c-74 28.667 -140.333 43 -199 43c-159.333 0 -269.666 -65 -330.999 -195c-58.667 -123.333 -88 -289.333 -88 -498c0 -186 28 -330 84 -432c62.667 -113.333 176 -170 340 -170c73.333 0 146.333 14.333 219 43z" />
    <glyph glyph-name="Egrave" unicode="&#xc8;" horiz-adv-x="1036" vert-adv-y="2457" 
d="M178 0v1475h770v-119h-586v-510h469v-119h-469v-608h611v-119h-795zM563 1599l-209 281h200l150 -281h-141z" />
    <glyph glyph-name="Eacute" unicode="&#xc9;" horiz-adv-x="1036" vert-adv-y="2457" 
d="M178 0v1475h770v-119h-586v-510h469v-119h-469v-608h611v-119h-795zM474 1599l149 281h200l-209 -281h-140z" />
    <glyph glyph-name="Ecircumflex" unicode="&#xca;" horiz-adv-x="1036" vert-adv-y="2457" 
d="M178 0v1475h770v-119h-586v-510h469v-119h-469v-608h611v-119h-795zM568 1790l-148 -191h-149l208 281h178l208 -281h-149z" />
    <glyph glyph-name="Edieresis" unicode="&#xcb;" horiz-adv-x="1036" vert-adv-y="2457" 
d="M178 0v1475h770v-119h-586v-510h469v-119h-469v-608h611v-119h-795zM417 1842c31.333 0 57.335 -11.666 78.002 -34.999c18 -20 27 -43.333 27 -70c0 -30.667 -11.667 -56.667 -35 -78c-19.333 -18 -43 -27 -71 -27c-30.667 0 -56.334 11.667 -77.001 35
c-18 20 -27 44 -27 72c0 29.333 11.667 54.666 35 75.999c19.333 18 42.666 27 69.999 27zM749.002 1842c31.333 0 57.335 -11.666 78.002 -34.999c18 -20 27 -43.333 27 -70c0 -31.333 -11.333 -57.333 -34 -78c-20 -18 -44 -27 -72 -27
c-30.667 0 -56.334 11.667 -77.001 35c-18 20 -27 44 -27 72c0 29.333 11.667 54.666 35 75.999c19.333 18 42.666 27 69.999 27z" />
    <glyph glyph-name="Igrave" unicode="&#xcc;" horiz-adv-x="549" vert-adv-y="2457" 
d="M182 0v1475h184v-1475h-184zM226 1599l-209 281h200l150 -281h-141z" />
    <glyph glyph-name="Iacute" unicode="&#xcd;" horiz-adv-x="549" vert-adv-y="2457" 
d="M182 0v1475h184v-1475h-184zM188 1599l149 281h200l-209 -281h-140z" />
    <glyph glyph-name="Icircumflex" unicode="&#xce;" horiz-adv-x="549" vert-adv-y="2457" 
d="M182 0v1475h184v-1475h-184zM274 1790l-148 -191h-149l208 281h178l208 -281h-149z" />
    <glyph glyph-name="Idieresis" unicode="&#xcf;" horiz-adv-x="549" vert-adv-y="2457" 
d="M182 0v1475h184v-1475h-184zM107 1842c31.333 0 57.335 -11.666 78.002 -34.999c18 -20 27 -43.333 27 -70c0 -31.333 -11.333 -57.333 -34 -78c-20 -18 -44 -27 -72 -27c-30.667 0 -56.334 11.667 -77.001 35c-18 20 -27 44 -27 72c0 29.333 11.667 54.666 35 75.999
c19.333 18 42.666 27 69.999 27zM439.002 1842c31.333 0 57.335 -11.666 78.002 -34.999c18 -20 27 -43.333 27 -70c0 -30.667 -11.667 -56.667 -35 -78c-19.333 -18 -43 -27 -71 -27c-30.667 0 -56.334 11.667 -77.001 35c-18 20 -27 44 -27 72
c0 29.333 11.667 54.666 35 75.999c19.333 18 42.666 27 69.999 27z" />
    <glyph glyph-name="Eth" unicode="&#xd0;" horiz-adv-x="1260" vert-adv-y="2457" 
d="M178 811l-0.000976562 663.998c156 19.333 274.333 29 355 29c141.333 0 255.666 -27.333 342.999 -82c106.667 -66.667 183.334 -172.667 230.001 -318c35.333 -109.333 53 -231.666 53 -366.999c0 -268 -58.333 -466 -175 -594
c-66.667 -73.333 -149.667 -122.666 -249 -147.999c-60 -16 -132.333 -24 -217 -24c-111.333 0 -224.666 9.66699 -339.999 29v692h-165v119h165zM361.999 810.998h345v-119h-345v-586c46 -10.667 93.667 -16 143 -16c177.333 0 303 68 377 204c56 103.333 84 254 84 452
c0 220 -38.333 384 -115 492c-38 54 -84.333 92.333 -139 115c-51.333 21.333 -116 32 -194 32c-52.667 0 -104.667 -4 -156 -12v-562z" />
    <glyph glyph-name="Ntilde" unicode="&#xd1;" horiz-adv-x="1313" vert-adv-y="2457" 
d="M178 0v1475h211l503 -1029c33.333 -69.333 63.333 -143.666 90 -222.999c-4 80 -6 158 -6 234v1018h158v-1475h-193l-537 1090c-26 52.667 -50.667 112 -74 178l3 -79c2 -45.333 3 -84.333 3 -117v-1072h-158zM502 1622l-122.998 0.000976562
c8 59.333 21.667 108.666 41 147.999c31.333 64.667 85.666 97 162.999 97c46 0 87.333 -15 124 -45c15.333 -12 41.333 -37.667 78 -77c11.333 -12.667 22.666 -19 33.999 -19c23.333 0 41.333 21 54 63c5.33301 18 8.66602 38.667 9.99902 62h123
c-14.667 -163.333 -82.667 -245 -204 -245c-46 0 -87.333 15 -124 45c-23.333 18.667 -46.333 41 -69 67c-16.667 19.333 -31 29 -43 29c-23.333 0 -41.333 -21 -54 -63c-5.33301 -18 -8.66602 -38.667 -9.99902 -62z" />
    <glyph glyph-name="Ograve" unicode="&#xd2;" horiz-adv-x="1270" vert-adv-y="2457" 
d="M640 1504c352.667 0 529 -255.333 529 -766c0 -511.333 -177.667 -767 -533 -767c-200 0 -342 75.333 -426 226c-73.333 132 -110 315.333 -110 550c0 504.667 180 757 540 757zM635 1385c-130.667 0 -221.666 -61 -272.999 -183c-46 -110 -69 -262 -69 -456
c0 -205.333 23 -363.333 69 -474c50.667 -121.333 141.667 -182 273 -182s222 60.667 272 182c46 111.333 69 266.666 69 465.999c0 202.667 -23 357.334 -69 464.001c-52.667 122 -143.334 183 -272.001 183zM617.001 1599l-209 281h200l149 -281h-140z" />
    <glyph glyph-name="Oacute" unicode="&#xd3;" horiz-adv-x="1270" vert-adv-y="2457" 
d="M640 1504c352.667 0 529 -255.333 529 -766c0 -511.333 -177.667 -767 -533 -767c-200 0 -342 75.333 -426 226c-73.333 132 -110 315.333 -110 550c0 504.667 180 757 540 757zM635 1385c-130.667 0 -221.666 -61 -272.999 -183c-46 -110 -69 -262 -69 -456
c0 -205.333 23 -363.333 69 -474c50.667 -121.333 141.667 -182 273 -182s222 60.667 272 182c46 111.333 69 266.666 69 465.999c0 202.667 -23 357.334 -69 464.001c-52.667 122 -143.334 183 -272.001 183zM542.001 1599l149 281h200l-208 -281h-141z" />
    <glyph glyph-name="Ocircumflex" unicode="&#xd4;" horiz-adv-x="1270" vert-adv-y="2457" 
d="M640 1504c352.667 0 529 -255.333 529 -766c0 -511.333 -177.667 -767 -533 -767c-200 0 -342 75.333 -426 226c-73.333 132 -110 315.333 -110 550c0 504.667 180 757 540 757zM635 1385c-130.667 0 -221.666 -61 -272.999 -183c-46 -110 -69 -262 -69 -456
c0 -205.333 23 -363.333 69 -474c50.667 -121.333 141.667 -182 273 -182s222 60.667 272 182c46 111.333 69 266.666 69 465.999c0 202.667 -23 357.334 -69 464.001c-52.667 122 -143.334 183 -272.001 183zM635.001 1790l-148 -191h-149l207 281h178l208 -281h-148z" />
    <glyph glyph-name="Otilde" unicode="&#xd5;" horiz-adv-x="1270" vert-adv-y="2457" 
d="M640 1504c352.667 0 529 -255.333 529 -766c0 -511.333 -177.667 -767 -533 -767c-200 0 -342 75.333 -426 226c-73.333 132 -110 315.333 -110 550c0 504.667 180 757 540 757zM635 1385c-130.667 0 -221.666 -61 -272.999 -183c-46 -110 -69 -262 -69 -456
c0 -205.333 23 -363.333 69 -474c50.667 -121.333 141.667 -182 273 -182s222 60.667 272 182c46 111.333 69 266.666 69 465.999c0 202.667 -23 357.334 -69 464.001c-52.667 122 -143.334 183 -272.001 183zM444.001 1622l-122.999 0.000976562
c8 59.333 21.667 108.666 41 147.999c31.333 64.667 85.666 97 162.999 97c46 0 87.333 -15 124 -45c15.333 -12 41.333 -37.667 78 -77c12 -12.667 23.333 -19 34 -19c23.333 0 41.333 21 54 63c5.33301 18 8.66602 38.667 9.99902 62h123
c-14.667 -163.333 -82.667 -245 -204 -245c-46 0 -87.333 15 -124 45c-23.333 18.667 -46 41 -68 67c-17.333 19.333 -32 29 -44 29c-23.333 0 -41.333 -21 -54 -63c-5.33301 -18 -8.66602 -38.667 -9.99902 -62z" />
    <glyph glyph-name="Odieresis" unicode="&#xd6;" horiz-adv-x="1270" vert-adv-y="2457" 
d="M640 1504c352.667 0 529 -255.333 529 -766c0 -511.333 -177.667 -767 -533 -767c-200 0 -342 75.333 -426 226c-73.333 132 -110 315.333 -110 550c0 504.667 180 757 540 757zM635 1385c-130.667 0 -221.666 -61 -272.999 -183c-46 -110 -69 -262 -69 -456
c0 -205.333 23 -363.333 69 -474c50.667 -121.333 141.667 -182 273 -182s222 60.667 272 182c46 111.333 69 266.666 69 465.999c0 202.667 -23 357.334 -69 464.001c-52.667 122 -143.334 183 -272.001 183zM467.001 1842c31.333 0 57.335 -11.666 78.002 -34.999
c18 -20 27 -43.333 27 -70c0 -30.667 -11.667 -56.667 -35 -78c-19.333 -18 -43 -27 -71 -27c-30.667 0 -56.334 11.667 -77.001 35c-18 20 -27 44 -27 72c0 29.333 11.667 54.666 35 75.999c19.333 18 42.666 27 69.999 27zM799.003 1842
c31.333 0 57.335 -11.666 78.002 -34.999c18 -20 27 -43.333 27 -70c0 -30.667 -11.667 -56.667 -35 -78c-19.333 -18 -43 -27 -71 -27c-30.667 0 -56.334 11.667 -77.001 35c-18 20 -27 44 -27 72c0 29.333 11.667 54.666 35 75.999c19.333 18 42.666 27 69.999 27z" />
    <glyph glyph-name="multiply" unicode="&#xd7;" vert-adv-y="2457" 
d="M456 669l-266 266l85 85l266 -266l266 266l85 -85l-266 -266l266 -266l-85 -85l-266 266l-266 -266l-85 85z" />
    <glyph glyph-name="Oslash" unicode="&#xd8;" horiz-adv-x="1270" vert-adv-y="2457" 
d="M171 -33l-110.999 76l133 187c-62 129.333 -93 298 -93 506c0 512 176.667 768 530 768c153.333 0 276 -47.333 368 -142l104 146l107 -76l-133 -188c62 -128.667 93 -297 93 -505c0 -512 -177 -768 -531 -768c-152.667 0 -274.334 46.667 -365.001 140zM320.001 409
l579 813.001c-55.333 108.667 -142.666 163 -261.999 163c-132.667 0 -224.334 -61 -275.001 -183c-46 -110.667 -69 -264.334 -69 -461.001c0 -133.333 9 -244 27 -332zM372.001 251.001c31.333 -44.667 57.333 -77 78 -97c44 -42.667 103.333 -64 178 -64
c135.333 0 228.333 60.667 279 182c46 111.333 69 268 69 470c0 124 -9 231.667 -27 323z" />
    <glyph glyph-name="Ugrave" unicode="&#xd9;" horiz-adv-x="1251" vert-adv-y="2457" 
d="M170 1475h183.999v-910c0 -166 14 -279.667 42 -341c40.667 -89.333 121 -134 241 -134c130.667 0 215.334 53 254.001 159c21.333 59.333 32 164.666 32 315.999v910h158v-917c0 -91.333 -3.33301 -160.666 -10 -207.999c-34 -252.667 -181.667 -379 -443 -379
c-215.333 0 -354 81.667 -416 245c-28 72.667 -42 186.667 -42 342v917zM607.999 1599l-209 281h200l149 -281h-140z" />
    <glyph glyph-name="Uacute" unicode="&#xda;" horiz-adv-x="1251" vert-adv-y="2457" 
d="M170 1475h183.999v-910c0 -166 14 -279.667 42 -341c40.667 -89.333 121 -134 241 -134c130.667 0 215.334 53 254.001 159c21.333 59.333 32 164.666 32 315.999v910h158v-917c0 -91.333 -3.33301 -160.666 -10 -207.999c-34 -252.667 -181.667 -379 -443 -379
c-215.333 0 -354 81.667 -416 245c-28 72.667 -42 186.667 -42 342v917zM562.999 1599l150 281h200l-209 -281h-141z" />
    <glyph glyph-name="Ucircumflex" unicode="&#xdb;" horiz-adv-x="1251" vert-adv-y="2457" 
d="M170 1475h183.999v-910c0 -166 14 -279.667 42 -341c40.667 -89.333 121 -134 241 -134c130.667 0 215.334 53 254.001 159c21.333 59.333 32 164.666 32 315.999v910h158v-917c0 -91.333 -3.33301 -160.666 -10 -207.999c-34 -252.667 -181.667 -379 -443 -379
c-215.333 0 -354 81.667 -416 245c-28 72.667 -42 186.667 -42 342v917zM625.999 1790l-148 -191h-149l207 281h178l209 -281h-149z" />
    <glyph glyph-name="Udieresis" unicode="&#xdc;" horiz-adv-x="1251" vert-adv-y="2457" 
d="M170 1475h183.999v-910c0 -166 14 -279.667 42 -341c40.667 -89.333 121 -134 241 -134c130.667 0 215.334 53 254.001 159c21.333 59.333 32 164.666 32 315.999v910h158v-917c0 -91.333 -3.33301 -160.666 -10 -207.999c-34 -252.667 -181.667 -379 -443 -379
c-215.333 0 -354 81.667 -416 245c-28 72.667 -42 186.667 -42 342v917zM469.999 1842c31.333 0 57.335 -11.666 78.002 -34.999c18 -20 27 -43.333 27 -70c0 -31.333 -11.333 -57.333 -34 -78c-20 -18 -44 -27 -72 -27c-30.667 0 -56.334 11.667 -77.001 35
c-18 20 -27 44 -27 72c0 29.333 11.667 54.666 35 75.999c19.333 18 42.666 27 69.999 27zM802.001 1842c31.333 0 57.335 -11.666 78.002 -34.999c18 -20 27 -43.333 27 -70c0 -30.667 -11.667 -56.667 -35 -78c-19.333 -18 -43 -27 -71 -27
c-30.667 0 -56.334 11.667 -77.001 35c-18 20 -27 44 -27 72c0 29.333 11.667 54.666 35 75.999c19.333 18 42.666 27 69.999 27z" />
    <glyph glyph-name="Yacute" unicode="&#xdd;" horiz-adv-x="981" vert-adv-y="2457" 
d="M396 0v584l-416 891h215l311 -722l310 722h185l-421 -891v-584h-184zM432 1599l149 281h200l-209 -281h-140z" />
    <glyph glyph-name="Thorn" unicode="&#xde;" horiz-adv-x="1071" vert-adv-y="2457" 
d="M178 0l0.000976562 1475h184v-246c9.33301 0.666992 39.666 2.66699 90.999 6c22 1.33301 49.333 2 82 2c135.333 0 236 -21.667 302 -65c116 -75.333 174 -208 174 -398c0 -322 -148.333 -483 -445 -483c-63.333 0 -131.333 9.33301 -204 28v-319h-184zM362.001 441
c62 -20.667 117.667 -31 167 -31c192.667 0 289 118.667 289 356c0 118 -23 207.667 -69 269c-40.667 55.333 -114.334 83 -221.001 83c-43.333 0 -98.666 -4.33301 -165.999 -13v-664z" />
    <glyph glyph-name="germandbls" unicode="&#xdf;" horiz-adv-x="1104" vert-adv-y="2457" 
d="M170 0l-0.00195312 1122c0 102 6.66699 179.667 20 233c42 172.667 168 259 378 259c132.667 0 232 -34.667 298 -104c56 -59.333 84 -135.333 84 -228c0 -64.667 -17.333 -122.667 -52 -174c-18 -27.333 -51.333 -65.333 -100 -114c-38.667 -38 -64.334 -67 -77.001 -87
c-16.667 -26 -25 -51.333 -25 -76c0 -33.333 15.667 -65 47 -95c16 -15.333 58.333 -47.666 127 -96.999c64 -45.333 112.333 -93 145 -143c36 -56 54 -121 54 -195c0 -220 -117.333 -330 -352 -330c-65.333 0 -129 9.33301 -191 28v120c64 -26 123.667 -39 179 -39
c137.333 0 206 63.333 206 190c0 60.667 -16 110.334 -48 149.001c-20.667 24.667 -62 60 -124 106c-69.333 50.667 -117.666 92.667 -144.999 126c-37.333 46 -56 97.333 -56 154c0 44.667 13.333 86 40 124c12.667 18.667 43.334 53.667 92.001 105
c36.667 39.333 62.334 71.666 77.001 96.999c22 37.333 33 83.333 33 138c0 67.333 -15.667 122.666 -47 165.999c-32.667 46.667 -86 70 -160 70c-98 0 -163 -42.333 -195 -127c-18.667 -49.333 -28 -140.666 -28 -273.999v-1104h-180z" />
    <glyph glyph-name="agrave" unicode="&#xe0;" horiz-adv-x="1049" vert-adv-y="2457" 
d="M711 679l0.000976562 41.001c0 69.333 -11 123 -33 161c-33.333 58.667 -103 88 -209 88c-96 0 -193.667 -19.667 -293 -59v126c100 30.667 204 46 312 46c164 0 276.667 -37.333 338 -112c32.667 -40 53 -100 61 -180c2.66699 -29.333 4 -73 4 -131v-643
c-48.667 -12.667 -112.334 -23.334 -191.001 -32.001s-151 -13 -217 -13c-126.667 0 -223 18.333 -289 55c-80 44 -120 126 -120 246c0 129.333 47.333 224 142 284c66.667 42 182.667 76 348 102c20.667 3.33301 69.667 10.333 147 21zM711.001 571.001
c-102 -13.333 -185 -29.332 -249 -47.999c-77.333 -22.667 -131.333 -54.334 -162 -95.001c-28 -37.333 -42 -85 -42 -143c0 -137.333 84 -206 252 -206c74.667 0 141.667 8.66699 201 26v466zM507.001 1194l-209 281h200l149 -281h-140z" />
    <glyph glyph-name="aacute" unicode="&#xe1;" horiz-adv-x="1049" vert-adv-y="2457" 
d="M711 679l0.000976562 41.001c0 69.333 -11 123 -33 161c-33.333 58.667 -103 88 -209 88c-96 0 -193.667 -19.667 -293 -59v126c100 30.667 204 46 312 46c164 0 276.667 -37.333 338 -112c32.667 -40 53 -100 61 -180c2.66699 -29.333 4 -73 4 -131v-643
c-48.667 -12.667 -112.334 -23.334 -191.001 -32.001s-151 -13 -217 -13c-126.667 0 -223 18.333 -289 55c-80 44 -120 126 -120 246c0 129.333 47.333 224 142 284c66.667 42 182.667 76 348 102c20.667 3.33301 69.667 10.333 147 21zM711.001 571.001
c-102 -13.333 -185 -29.332 -249 -47.999c-77.333 -22.667 -131.333 -54.334 -162 -95.001c-28 -37.333 -42 -85 -42 -143c0 -137.333 84 -206 252 -206c74.667 0 141.667 8.66699 201 26v466zM432.001 1194l149 281h201l-209 -281h-141z" />
    <glyph glyph-name="acircumflex" unicode="&#xe2;" horiz-adv-x="1049" vert-adv-y="2457" 
d="M711 679l0.000976562 41.001c0 69.333 -11 123 -33 161c-33.333 58.667 -103 88 -209 88c-96 0 -193.667 -19.667 -293 -59v126c100 30.667 204 46 312 46c164 0 276.667 -37.333 338 -112c32.667 -40 53 -100 61 -180c2.66699 -29.333 4 -73 4 -131v-643
c-48.667 -12.667 -112.334 -23.334 -191.001 -32.001s-151 -13 -217 -13c-126.667 0 -223 18.333 -289 55c-80 44 -120 126 -120 246c0 129.333 47.333 224 142 284c66.667 42 182.667 76 348 102c20.667 3.33301 69.667 10.333 147 21zM711.001 571.001
c-102 -13.333 -185 -29.332 -249 -47.999c-77.333 -22.667 -131.333 -54.334 -162 -95.001c-28 -37.333 -42 -85 -42 -143c0 -137.333 84 -206 252 -206c74.667 0 141.667 8.66699 201 26v466zM525.001 1385l-148 -191h-149l207 281h178l209 -281h-149z" />
    <glyph glyph-name="atilde" unicode="&#xe3;" horiz-adv-x="1049" vert-adv-y="2457" 
d="M711 679l0.000976562 41.001c0 69.333 -11 123 -33 161c-33.333 58.667 -103 88 -209 88c-96 0 -193.667 -19.667 -293 -59v126c100 30.667 204 46 312 46c164 0 276.667 -37.333 338 -112c32.667 -40 53 -100 61 -180c2.66699 -29.333 4 -73 4 -131v-643
c-48.667 -12.667 -112.334 -23.334 -191.001 -32.001s-151 -13 -217 -13c-126.667 0 -223 18.333 -289 55c-80 44 -120 126 -120 246c0 129.333 47.333 224 142 284c66.667 42 182.667 76 348 102c20.667 3.33301 69.667 10.333 147 21zM711.001 571.001
c-102 -13.333 -185 -29.332 -249 -47.999c-77.333 -22.667 -131.333 -54.334 -162 -95.001c-28 -37.333 -42 -85 -42 -143c0 -137.333 84 -206 252 -206c74.667 0 141.667 8.66699 201 26v466zM334.001 1237l-122.999 0.00195312c8 59.333 21.667 108.666 41 147.999
c32 65.333 86.333 98 163 98c45.333 0 86.666 -15.333 123.999 -46c15.333 -12.667 41.333 -38.334 78 -77.001c12 -12.667 23.333 -19 34 -19c23.333 0 41.333 21 54 63c5.33301 18 8.66602 38.667 9.99902 62h123c-14.667 -163.333 -82.667 -245 -204 -245
c-46 0 -87.333 15 -124 45c-22 18 -44.667 40.333 -68 67c-17.333 19.333 -32 29 -44 29c-23.333 0 -41.333 -21 -54 -63c-5.33301 -18 -8.66602 -38.667 -9.99902 -62z" />
    <glyph glyph-name="adieresis" unicode="&#xe4;" horiz-adv-x="1049" vert-adv-y="2457" 
d="M711 679l0.000976562 41.001c0 69.333 -11 123 -33 161c-33.333 58.667 -103 88 -209 88c-96 0 -193.667 -19.667 -293 -59v126c100 30.667 204 46 312 46c164 0 276.667 -37.333 338 -112c32.667 -40 53 -100 61 -180c2.66699 -29.333 4 -73 4 -131v-643
c-48.667 -12.667 -112.334 -23.334 -191.001 -32.001s-151 -13 -217 -13c-126.667 0 -223 18.333 -289 55c-80 44 -120 126 -120 246c0 129.333 47.333 224 142 284c66.667 42 182.667 76 348 102c20.667 3.33301 69.667 10.333 147 21zM711.001 571.001
c-102 -13.333 -185 -29.332 -249 -47.999c-77.333 -22.667 -131.333 -54.334 -162 -95.001c-28 -37.333 -42 -85 -42 -143c0 -137.333 84 -206 252 -206c74.667 0 141.667 8.66699 201 26v466zM369.001 1458c31.333 0 57.335 -11.666 78.002 -34.999
c18 -20 27 -43.333 27 -70c0 -30.667 -11.667 -56.667 -35 -78c-19.333 -18 -43 -27 -71 -27c-30.667 0 -56.334 11.667 -77.001 35c-18 20 -27 44 -27 72c0 29.333 11.667 54.666 35 75.999c19.333 18 42.666 27 69.999 27zM677.003 1458
c31.333 0 57.335 -11.666 78.002 -34.999c18 -20 27 -43.333 27 -70c0 -30.667 -11.667 -56.667 -35 -78c-19.333 -18 -43 -27 -71 -27c-30.667 0 -56.334 11.667 -77.001 35c-18 20 -27 44 -27 72c0 29.333 11.667 54.666 35 75.999c19.333 18 42.666 27 69.999 27z" />
    <glyph glyph-name="aring" unicode="&#xe5;" horiz-adv-x="1049" vert-adv-y="2457" 
d="M711 679l0.000976562 41.001c0 69.333 -11 123 -33 161c-33.333 58.667 -103 88 -209 88c-96 0 -193.667 -19.667 -293 -59v126c100 30.667 204 46 312 46c164 0 276.667 -37.333 338 -112c32.667 -40 53 -100 61 -180c2.66699 -29.333 4 -73 4 -131v-643
c-48.667 -12.667 -112.334 -23.334 -191.001 -32.001s-151 -13 -217 -13c-126.667 0 -223 18.333 -289 55c-80 44 -120 126 -120 246c0 129.333 47.333 224 142 284c66.667 42 182.667 76 348 102c20.667 3.33301 69.667 10.333 147 21zM711.001 571.001
c-102 -13.333 -185 -29.332 -249 -47.999c-77.333 -22.667 -131.333 -54.334 -162 -95.001c-28 -37.333 -42 -85 -42 -143c0 -137.333 84 -206 252 -206c74.667 0 141.667 8.66699 201 26v466zM543.001 1573c70 0 124.335 -20.001 163.002 -60.001
c34.667 -36 52 -80.333 52 -133c0 -53.333 -17.333 -98 -52 -134c-38.667 -40 -93.667 -60 -165 -60c-68.667 0 -122.334 20 -161.001 60c-34.667 36 -52 81.333 -52 136c0 52.667 17.333 96.334 52 131.001c39.333 40 93.666 60 162.999 60zM543.003 1503
c-56 0 -84 -40.667 -84 -122c0 -83.333 28 -125 84 -125s84 41.333 84 124c0 82 -28 123 -84 123z" />
    <glyph glyph-name="ae" unicode="&#xe6;" horiz-adv-x="1633" vert-adv-y="2457" 
d="M711 612v107.998c0 70 -11 124.667 -33 164c-33.333 59.333 -104.333 89 -213 89c-94.667 0 -191 -21.333 -289 -64v127c97.333 30.667 200.666 46 309.999 46c116 0 204 -22 264 -66c28.667 -21.333 53.334 -49.666 74.001 -84.999c76.667 100.667 184.667 151 324 151
c124 0 218 -39.667 282 -119c60 -73.333 96.667 -175.666 110 -306.999c4 -43.333 6.33301 -95 7 -155h-656c0.666992 -106.667 12.667 -190 36 -250c44 -111.333 143.667 -167 299 -167c102.667 0 190.667 15.667 264 47v-117c-84 -28.667 -177 -43 -279 -43
c-124.667 0 -222.334 19.333 -293.001 58c-40 22 -76 53.667 -108 95c-36 -44 -76.333 -77.667 -121 -101c-66.667 -34.667 -150.667 -52 -252 -52c-104 0 -187 18 -249 54c-76 44.667 -114 124 -114 238c0 150 58.667 249.667 176 299c78.667 33.333 195.334 50 350.001 50
h111zM711 500.998h-109.002c-103.333 0 -183.666 -13.333 -240.999 -40c-68.667 -32.667 -103 -94.667 -103 -186c0 -130.667 69.667 -196 209 -196c130 0 222.667 56 278 168c-21.333 65.333 -32.666 150 -33.999 254zM891.998 611.998l473.999 -0.000976562
c-3.33301 85.333 -12.666 153.333 -27.999 204c-31.333 104.667 -96.333 157 -195 157c-100.667 0 -170 -50 -208 -150c-20 -51.333 -34.333 -121.666 -43 -210.999z" />
    <glyph glyph-name="ccedilla" unicode="&#xe7;" horiz-adv-x="817" vert-adv-y="2457" 
d="M770 125v-118.002c-56 -24 -130 -36 -222 -36c-12.667 0 -27.334 0.666992 -44.001 2l-43 -95c57.333 -7.33301 102.666 -18.333 135.999 -33c66 -28.667 99 -81 99 -157c0 -122 -87 -183 -261 -183c-56 0 -105.333 6 -148 18v92c44.667 -13.333 89.334 -20 134.001 -20
c68.667 0 103 33 103 99c0 50.667 -19 82.667 -57 96c-26 9.33301 -63.667 14 -113 14l-33 29l70 157c-200.667 50.667 -301 220.334 -301 509.001c0 180.667 39.333 322.667 118 426c79.333 104.667 199.333 157 360 157c62.667 0 119.667 -10.667 171 -32v-116
c-51.333 26 -104.666 39 -159.999 39c-117.333 0 -199.333 -48.667 -246 -146c-39.333 -82 -59 -191.333 -59 -328c0 -153.333 26.333 -262.666 79 -327.999c46.667 -58 120.334 -87 221.001 -87c73.333 0 138.666 13.667 195.999 41z" />
    <glyph glyph-name="egrave" unicode="&#xe8;" horiz-adv-x="1032" vert-adv-y="2457" 
d="M276 501c0.666992 -106.667 13.335 -190 38.002 -250c46 -111.333 149.333 -167 310 -167c103.333 0 191.666 15.667 264.999 47v-117c-84 -28.667 -180.333 -43 -289 -43c-198 0 -336.333 52 -415 156c-63.333 84 -95 206 -95 366c0 190.667 38 337 114 439
c75.333 100 187.666 150 336.999 150c194 0 317 -92 369 -276c23.333 -80 35.333 -181.667 36 -305h-670zM277.001 612l487.998 -0.000976562c-3.33301 85.333 -12.666 153.333 -27.999 204c-31.333 104.667 -96.666 157 -195.999 157c-105.333 0 -178.333 -50 -219 -150
c-21.333 -51.333 -36.333 -121.666 -45 -210.999zM497.999 1194l-209 281h200l150 -281h-141z" />
    <glyph glyph-name="eacute" unicode="&#xe9;" horiz-adv-x="1032" vert-adv-y="2457" 
d="M276 501c0.666992 -106.667 13.335 -190 38.002 -250c46 -111.333 149.333 -167 310 -167c103.333 0 191.666 15.667 264.999 47v-117c-84 -28.667 -180.333 -43 -289 -43c-198 0 -336.333 52 -415 156c-63.333 84 -95 206 -95 366c0 190.667 38 337 114 439
c75.333 100 187.666 150 336.999 150c194 0 317 -92 369 -276c23.333 -80 35.333 -181.667 36 -305h-670zM277.001 612l487.998 -0.000976562c-3.33301 85.333 -12.666 153.333 -27.999 204c-31.333 104.667 -96.666 157 -195.999 157c-105.333 0 -178.333 -50 -219 -150
c-21.333 -51.333 -36.333 -121.666 -45 -210.999zM431.999 1194l149 281h200l-208 -281h-141z" />
    <glyph glyph-name="ecircumflex" unicode="&#xea;" horiz-adv-x="1032" vert-adv-y="2457" 
d="M276 501c0.666992 -106.667 13.335 -190 38.002 -250c46 -111.333 149.333 -167 310 -167c103.333 0 191.666 15.667 264.999 47v-117c-84 -28.667 -180.333 -43 -289 -43c-198 0 -336.333 52 -415 156c-63.333 84 -95 206 -95 366c0 190.667 38 337 114 439
c75.333 100 187.666 150 336.999 150c194 0 317 -92 369 -276c23.333 -80 35.333 -181.667 36 -305h-670zM277.001 612l487.998 -0.000976562c-3.33301 85.333 -12.666 153.333 -27.999 204c-31.333 104.667 -96.666 157 -195.999 157c-105.333 0 -178.333 -50 -219 -150
c-21.333 -51.333 -36.333 -121.666 -45 -210.999zM540.999 1385l-148 -191h-149l207 281h178l209 -281h-149z" />
    <glyph glyph-name="edieresis" unicode="&#xeb;" horiz-adv-x="1032" vert-adv-y="2457" 
d="M276 501c0.666992 -106.667 13.335 -190 38.002 -250c46 -111.333 149.333 -167 310 -167c103.333 0 191.666 15.667 264.999 47v-117c-84 -28.667 -180.333 -43 -289 -43c-198 0 -336.333 52 -415 156c-63.333 84 -95 206 -95 366c0 190.667 38 337 114 439
c75.333 100 187.666 150 336.999 150c194 0 317 -92 369 -276c23.333 -80 35.333 -181.667 36 -305h-670zM277.001 612l487.998 -0.000976562c-3.33301 85.333 -12.666 153.333 -27.999 204c-31.333 104.667 -96.666 157 -195.999 157c-105.333 0 -178.333 -50 -219 -150
c-21.333 -51.333 -36.333 -121.666 -45 -210.999zM380.999 1458c31.333 0 57.335 -11.666 78.002 -34.999c18 -20 27 -43.333 27 -70c0 -31.333 -11.333 -57.333 -34 -78c-20 -18 -44 -27 -72 -27c-30.667 0 -56.334 11.667 -77.001 35c-18 20 -27 44 -27 72
c0 29.333 11.667 54.666 35 75.999c19.333 18 42.666 27 69.999 27zM689.001 1458c31.333 0 57.335 -11.666 78.002 -34.999c18 -20 27 -43.333 27 -70c0 -31.333 -11.333 -57.333 -34 -78c-20 -18 -44 -27 -72 -27c-30.667 0 -56.334 11.667 -77.001 35
c-18 20 -27 44 -27 72c0 29.333 11.667 54.666 35 75.999c19.333 18 42.666 27 69.999 27z" />
    <glyph glyph-name="igrave" unicode="&#xec;" horiz-adv-x="528" vert-adv-y="2457" 
d="M174 0v1053h180v-1053h-180zM226 1194l-209 281h200l150 -281h-141z" />
    <glyph glyph-name="iacute" unicode="&#xed;" horiz-adv-x="528" vert-adv-y="2457" 
d="M174 0v1053h180v-1053h-180zM162 1194l150 281h200l-209 -281h-141z" />
    <glyph glyph-name="icircumflex" unicode="&#xee;" horiz-adv-x="528" vert-adv-y="2457" 
d="M174 0v1053h180v-1053h-180zM264 1385l-148 -191h-149l208 281h178l208 -281h-149z" />
    <glyph glyph-name="idieresis" unicode="&#xef;" horiz-adv-x="528" vert-adv-y="2457" 
d="M174 0v1053h180v-1053h-180zM109 1458c31.333 0 57.335 -11.666 78.002 -34.999c18 -20 27 -43.333 27 -70c0 -31.333 -11.333 -57.333 -34 -78c-20 -18 -44 -27 -72 -27c-30.667 0 -56.334 11.667 -77.001 35c-18 20 -27 44 -27 72c0 29.333 11.667 54.666 35 75.999
c19.333 18 42.666 27 69.999 27zM416.002 1458c31.333 0 57.335 -11.666 78.002 -34.999c18 -20 27 -43.333 27 -70c0 -30.667 -11.667 -56.667 -35 -78c-19.333 -18 -43 -27 -71 -27c-30.667 0 -56.334 11.667 -77.001 35c-18 20 -27 44 -27 72
c0 29.333 11.667 54.666 35 75.999c19.333 18 42.666 27 69.999 27z" />
    <glyph glyph-name="eth" unicode="&#xf0;" horiz-adv-x="1065" vert-adv-y="2457" 
d="M709 1036c-38.667 117.333 -88.333 216.333 -149 297l-214 -127l-46 77l198 117c-51.333 47.333 -123 82 -215 104v102c132.667 -16 245 -60.667 337 -134l191 113l48 -76l-171 -101c62 -70.667 114.667 -155.667 158 -255c86 -194.667 129 -400.667 129 -618
c0 -376 -147.333 -564 -442 -564c-152 0 -264.333 50 -337 150c-70.667 97.333 -106 232.333 -106 405c0 174 35.333 309.333 106 406c40 54.667 94.667 95 164 121c51.333 19.333 106 29 164 29c66 0 127.667 -15.333 185 -46zM532.001 973
c-101.333 0 -171.334 -45.667 -210.001 -137c-32 -76 -48 -179 -48 -309c0 -130.667 16 -234 48 -310c38.667 -91.333 109 -137 211 -137s172 45.667 210 137c32 76 48 177.333 48 304c0 136.667 -16 241.667 -48 315c-39.333 91.333 -109.666 137 -210.999 137z" />
    <glyph glyph-name="ntilde" unicode="&#xf1;" horiz-adv-x="1124" vert-adv-y="2457" 
d="M167 0v1040c166.667 28 307 42 421 42c184 0 299.333 -55.333 346 -166c21.333 -51.333 32 -141.333 32 -270v-646h-180v635c0 124.667 -10.667 208.334 -32 251.001c-29.333 58 -90.333 87 -183 87c-73.333 0 -148 -7.66699 -224 -23v-950h-180zM359 1237
l-122.999 0.00195312c8 59.333 21.667 108.666 41 147.999c32 65.333 86.333 98 163 98c45.333 0 86.666 -15.333 123.999 -46c15.333 -12.667 41.333 -38.334 78 -77.001c12 -12.667 23.333 -19 34 -19c23.333 0 41.333 21 54 63c5.33301 18 8.66602 38.667 9.99902 62h123
c-14.667 -163.333 -82.667 -245 -204 -245c-46 0 -87.333 15 -124 45c-22 18 -44.667 40.333 -68 67c-17.333 19.333 -32 29 -44 29c-23.333 0 -41.333 -21 -54 -63c-5.33301 -18 -8.66602 -38.667 -9.99902 -62z" />
    <glyph glyph-name="ograve" unicode="&#xf2;" horiz-adv-x="1065" vert-adv-y="2457" 
d="M533 1082c150.667 0 262.668 -50.001 336.001 -150.001c70.667 -96.667 106 -232 106 -406c0 -172 -35.333 -307 -106 -405c-72 -100 -183.667 -150 -335 -150c-296 0 -444 187.667 -444 563c0 168.667 35.333 301.334 106 398.001c73.333 100 185.666 150 336.999 150z
M533.001 972.999c-102 0 -172.333 -45.667 -211 -137c-32 -76 -48 -177.333 -48 -304c0 -134 16 -239 48 -315c38.667 -91.333 109 -137 211 -137s172 45.667 210 137c32 76 48 179.333 48 310c0 132.667 -16 235.667 -48 309c-39.333 91.333 -109.333 137 -210 137z
M514.001 1194l-209 281h200l150 -281h-141z" />
    <glyph glyph-name="oacute" unicode="&#xf3;" horiz-adv-x="1065" vert-adv-y="2457" 
d="M533 1082c150.667 0 262.668 -50.001 336.001 -150.001c70.667 -96.667 106 -232 106 -406c0 -172 -35.333 -307 -106 -405c-72 -100 -183.667 -150 -335 -150c-296 0 -444 187.667 -444 563c0 168.667 35.333 301.334 106 398.001c73.333 100 185.666 150 336.999 150z
M533.001 972.999c-102 0 -172.333 -45.667 -211 -137c-32 -76 -48 -177.333 -48 -304c0 -134 16 -239 48 -315c38.667 -91.333 109 -137 211 -137s172 45.667 210 137c32 76 48 179.333 48 310c0 132.667 -16 235.667 -48 309c-39.333 91.333 -109.333 137 -210 137z
M410.001 1194l149 281h200l-209 -281h-140z" />
    <glyph glyph-name="ocircumflex" unicode="&#xf4;" horiz-adv-x="1065" vert-adv-y="2457" 
d="M533 1082c150.667 0 262.668 -50.001 336.001 -150.001c70.667 -96.667 106 -232 106 -406c0 -172 -35.333 -307 -106 -405c-72 -100 -183.667 -150 -335 -150c-296 0 -444 187.667 -444 563c0 168.667 35.333 301.334 106 398.001c73.333 100 185.666 150 336.999 150z
M533.001 972.999c-102 0 -172.333 -45.667 -211 -137c-32 -76 -48 -177.333 -48 -304c0 -134 16 -239 48 -315c38.667 -91.333 109 -137 211 -137s172 45.667 210 137c32 76 48 179.333 48 310c0 132.667 -16 235.667 -48 309c-39.333 91.333 -109.333 137 -210 137z
M532.001 1385l-148 -191h-149l208 281h178l208 -281h-148z" />
    <glyph glyph-name="otilde" unicode="&#xf5;" horiz-adv-x="1065" vert-adv-y="2457" 
d="M533 1082c150.667 0 262.668 -50.001 336.001 -150.001c70.667 -96.667 106 -232 106 -406c0 -172 -35.333 -307 -106 -405c-72 -100 -183.667 -150 -335 -150c-296 0 -444 187.667 -444 563c0 168.667 35.333 301.334 106 398.001c73.333 100 185.666 150 336.999 150z
M533.001 972.999c-102 0 -172.333 -45.667 -211 -137c-32 -76 -48 -177.333 -48 -304c0 -134 16 -239 48 -315c38.667 -91.333 109 -137 211 -137s172 45.667 210 137c32 76 48 179.333 48 310c0 132.667 -16 235.667 -48 309c-39.333 91.333 -109.333 137 -210 137z
M342.001 1237l-122.997 0.00195312c8 59.333 21.667 108.666 41 147.999c31.333 65.333 85.666 98 162.999 98c45.333 0 86.666 -15.333 123.999 -46c15.333 -12.667 41.333 -38.334 78 -77.001c11.333 -12.667 22.666 -19 33.999 -19c23.333 0 41.333 21 54 63
c5.33301 18 8.66602 38.667 9.99902 62h123c-14.667 -163.333 -82.667 -245 -204 -245c-46 0 -87.333 15 -124 45c-22 18 -45 40.333 -69 67c-16.667 19.333 -31 29 -43 29c-23.333 0 -41.333 -21 -54 -63c-5.33301 -18 -8.66602 -38.667 -9.99902 -62z" />
    <glyph glyph-name="odieresis" unicode="&#xf6;" horiz-adv-x="1065" vert-adv-y="2457" 
d="M533 1082c150.667 0 262.668 -50.001 336.001 -150.001c70.667 -96.667 106 -232 106 -406c0 -172 -35.333 -307 -106 -405c-72 -100 -183.667 -150 -335 -150c-296 0 -444 187.667 -444 563c0 168.667 35.333 301.334 106 398.001c73.333 100 185.666 150 336.999 150z
M533.001 972.999c-102 0 -172.333 -45.667 -211 -137c-32 -76 -48 -177.333 -48 -304c0 -134 16 -239 48 -315c38.667 -91.333 109 -137 211 -137s172 45.667 210 137c32 76 48 179.333 48 310c0 132.667 -16 235.667 -48 309c-39.333 91.333 -109.333 137 -210 137z
M377.001 1458c31.333 0 57.335 -11.666 78.002 -34.999c18 -20 27 -43.333 27 -70c0 -31.333 -11.333 -57.333 -34 -78c-20 -18 -44 -27 -72 -27c-30.667 0 -56.334 11.667 -77.001 35c-18 20 -27 44 -27 72c0 29.333 11.667 54.666 35 75.999
c19.333 18 42.666 27 69.999 27zM684.003 1458c31.333 0 57.335 -11.666 78.002 -34.999c18 -20 27 -43.333 27 -70c0 -30.667 -11.667 -56.667 -35 -78c-19.333 -18 -43 -27 -71 -27c-30.667 0 -56.334 11.667 -77.001 35c-18 20 -27 44 -27 72
c0 29.333 11.667 54.666 35 75.999c19.333 18 42.666 27 69.999 27z" />
    <glyph glyph-name="divide" unicode="&#xf7;" vert-adv-y="2457" 
d="M133 610v115h815v-115h-815zM540 1110c32 0 58.666 -12 79.999 -36c18.667 -20 28 -44 28 -72c0 -32 -12 -58.667 -36 -80c-20 -18.667 -44.333 -28 -73 -28c-31.333 0 -57.666 12 -78.999 36c-18.667 20 -28 44.667 -28 74c0 30.667 12 56.667 36 78
c20 18.667 44 28 72 28zM539.999 445c32 0 58.666 -12 79.999 -36c18.667 -20 28 -44 28 -72c0 -32 -12 -58.667 -36 -80c-20 -18.667 -44.333 -28 -73 -28c-31.333 0 -57.666 12 -78.999 36c-18.667 20 -28 44.667 -28 74c0 30.667 12 56.667 36 78c20 18.667 44 28 72 28z
" />
    <glyph glyph-name="oslash" unicode="&#xf8;" horiz-adv-x="1065" vert-adv-y="2457" 
d="M85 6l97 136.999c-61.333 100.667 -92 229 -92 385c0 172 35.333 306.667 106 404c72.667 100 183.667 150 333 150c106.667 0 195.667 -25.667 267 -77l81 115l104 -73l-97 -137c60.667 -99.333 91 -227.666 91 -384.999c0 -171.333 -35.333 -306 -106 -404
c-72 -100 -183 -150 -333 -150c-102 0 -190 25 -264 75l-80 -113zM296 301.999l417 587c-42 56 -101 84 -177 84c-104 0 -175.333 -45.667 -214 -137c-32 -76 -48 -179.667 -48 -311c0 -84 7.33301 -158.333 22 -223zM354 161.999c43.333 -54.667 101.667 -82 175 -82
c104.667 0 176 45.667 214 137c32 76 48 179.667 48 311c0 84.667 -7 158.667 -21 222z" />
    <glyph glyph-name="ugrave" unicode="&#xf9;" horiz-adv-x="1093" vert-adv-y="2457" 
d="M158 1053h179.999v-649c0 -120 10.667 -200 32 -240c17.333 -33.333 42.333 -56 75 -68c27.333 -10.667 66 -16 116 -16c59.333 0 121 9 185 27v946h180v-1036c-133.333 -30.667 -258.666 -46 -375.999 -46c-119.333 0 -208 18.667 -266 56
c-66 42.667 -105 108.667 -117 198c-6 42 -9 97 -9 165v663zM510.999 1194l-209 281h200l149 -281h-140z" />
    <glyph glyph-name="uacute" unicode="&#xfa;" horiz-adv-x="1093" vert-adv-y="2457" 
d="M158 1053h179.999v-649c0 -120 10.667 -200 32 -240c17.333 -33.333 42.333 -56 75 -68c27.333 -10.667 66 -16 116 -16c59.333 0 121 9 185 27v946h180v-1036c-133.333 -30.667 -258.666 -46 -375.999 -46c-119.333 0 -208 18.667 -266 56
c-66 42.667 -105 108.667 -117 198c-6 42 -9 97 -9 165v663zM459.999 1194l150 281h200l-209 -281h-141z" />
    <glyph glyph-name="ucircumflex" unicode="&#xfb;" horiz-adv-x="1093" vert-adv-y="2457" 
d="M158 1053h179.999v-649c0 -120 10.667 -200 32 -240c17.333 -33.333 42.333 -56 75 -68c27.333 -10.667 66 -16 116 -16c59.333 0 121 9 185 27v946h180v-1036c-133.333 -30.667 -258.666 -46 -375.999 -46c-119.333 0 -208 18.667 -266 56
c-66 42.667 -105 108.667 -117 198c-6 42 -9 97 -9 165v663zM546.999 1385l-148 -191h-149l208 281h177l209 -281h-149z" />
    <glyph glyph-name="udieresis" unicode="&#xfc;" horiz-adv-x="1093" vert-adv-y="2457" 
d="M158 1053h179.999v-649c0 -120 10.667 -200 32 -240c17.333 -33.333 42.333 -56 75 -68c27.333 -10.667 66 -16 116 -16c59.333 0 121 9 185 27v946h180v-1036c-133.333 -30.667 -258.666 -46 -375.999 -46c-119.333 0 -208 18.667 -266 56
c-66 42.667 -105 108.667 -117 198c-6 42 -9 97 -9 165v663zM391.999 1458c31.333 0 57.335 -11.666 78.002 -34.999c18 -20 27 -43.333 27 -70c0 -30.667 -11.667 -56.667 -35 -78c-19.333 -18 -43 -27 -71 -27c-30.667 0 -56.334 11.667 -77.001 35c-18 20 -27 44 -27 72
c0 29.333 11.667 54.666 35 75.999c19.333 18 42.666 27 69.999 27zM699.001 1458c31.333 0 57.335 -11.666 78.002 -34.999c18 -20 27 -43.333 27 -70c0 -31.333 -11.333 -57.333 -34 -78c-20 -18 -44 -27 -72 -27c-30.667 0 -56.334 11.667 -77.001 35
c-18 20 -27 44 -27 72c0 29.333 11.667 54.666 35 75.999c19.333 18 42.666 27 69.999 27z" />
    <glyph glyph-name="yacute" unicode="&#xfd;" horiz-adv-x="920" vert-adv-y="2457" 
d="M405 -14l-391 1067h189l216 -637c20 -59.333 43 -135.666 69 -228.999c12 59.333 31 134 57 224l187 642h167l-522 -1557h-173zM406 1194l150 281h200l-209 -281h-141z" />
    <glyph glyph-name="thorn" unicode="&#xfe;" horiz-adv-x="1089" vert-adv-y="2457" 
d="M171 -504l-0.000976562 2089h180v-516c66 8.66699 129.333 13 190 13c178 0 300.333 -55 367 -165c60 -98.667 90 -227.667 90 -387c0 -143.333 -27 -264.333 -81 -363c-29.333 -53.333 -67.666 -96 -114.999 -128c-66 -45.333 -144.333 -68 -235 -68
c-58 0 -107.667 10.333 -149 31c-18 8 -40.333 22.333 -67 43v-549h-180zM350.999 170c60.667 -60 126.667 -90 198 -90c60 0 112 22.667 156 68c72.667 74.667 109 202.334 109 383.001c0 153.333 -26.667 268.666 -80 345.999c-44 64 -119.667 96 -227 96
c-46.667 0 -98.667 -4.33301 -156 -13v-790z" />
    <glyph glyph-name="ydieresis" unicode="&#xff;" horiz-adv-x="920" vert-adv-y="2457" 
d="M405 -14l-391 1067h189l216 -637c20 -59.333 43 -135.666 69 -228.999c12 59.333 31 134 57 224l187 642h167l-522 -1557h-173zM324 1458c31.333 0 57.335 -11.666 78.002 -34.999c18 -20 27 -43.333 27 -70c0 -30.667 -11.667 -56.667 -35 -78
c-19.333 -18 -43 -27 -71 -27c-30.667 0 -56.334 11.667 -77.001 35c-18 20 -27 44 -27 72c0 29.333 11.667 54.666 35 75.999c19.333 18 42.666 27 69.999 27zM631.002 1458c31.333 0 57.335 -11.666 78.002 -34.999c18 -20 27 -43.333 27 -70
c0 -31.333 -11.333 -57.333 -34 -78c-20 -18 -44 -27 -72 -27c-30.667 0 -56.334 11.667 -77.001 35c-18 20 -27 44 -27 72c0 29.333 11.667 54.666 35 75.999c19.333 18 42.666 27 69.999 27z" />
    <glyph glyph-name="Dcroat" unicode="&#x110;" horiz-adv-x="1260" vert-adv-y="2457" 
d="M178 811l-0.000976562 663.998c156 19.333 274.333 29 355 29c141.333 0 255.666 -27.333 342.999 -82c106.667 -66.667 183.334 -172.667 230.001 -318c35.333 -109.333 53 -231.666 53 -366.999c0 -268 -58.333 -466 -175 -594
c-66.667 -73.333 -149.667 -122.666 -249 -147.999c-60 -16 -132.333 -24 -217 -24c-111.333 0 -224.666 9.66699 -339.999 29v692h-165v119h165zM361.999 810.998h345v-119h-345v-586c46 -10.667 93.667 -16 143 -16c177.333 0 303 68 377 204c56 103.333 84 254 84 452
c0 220 -38.333 384 -115 492c-38 54 -84.333 92.333 -139 115c-51.333 21.333 -116 32 -194 32c-52.667 0 -104.667 -4 -156 -12v-562z" />
    <glyph glyph-name="dotlessi" unicode="&#x131;" horiz-adv-x="528" vert-adv-y="2457" 
d="M174 0v1053h180v-1053h-180z" />
    <glyph glyph-name="OE" unicode="&#x152;" horiz-adv-x="1835" vert-adv-y="2457" 
d="M1161 727l-0.00195312 -608h610v-119h-782v130c-34.667 -40.667 -67 -70.667 -97 -90c-71.333 -46 -161.333 -69 -270 -69c-121.333 0 -223.666 34 -306.999 102c-143.333 116 -215 337.333 -215 664c0 228.667 36.667 409 110 541c46 82 111.667 142.667 197 182
c64.667 29.333 137 44 217 44c104.667 0 192.667 -22.333 264 -67c32.667 -20.667 66.334 -51.667 101.001 -93v131h758v-119h-586v-510h469v-119h-469zM633.998 1385c-130 0 -220.667 -61.001 -272 -183.001c-46 -110 -69 -264.667 -69 -464s23 -354.666 69 -465.999
c50.667 -121.333 141.667 -182 273 -182s222.333 60.667 273 182c46 111.333 69 263.666 69 456.999c0 208.667 -23 366.334 -69 473.001c-52.667 122 -144 183 -274 183z" />
    <glyph glyph-name="oe" unicode="&#x153;" horiz-adv-x="1730" vert-adv-y="2457" 
d="M974 501c0.666992 -116 15.668 -204.666 45.001 -265.999c49.333 -100.667 150.666 -151 303.999 -151c103.333 0 191.333 15.667 264 47v-117c-84 -28.667 -176.667 -43 -278 -43c-142.667 0 -250 26.667 -322 80c-39.333 29.333 -72.666 69 -99.999 119
c-72.667 -132.667 -192.667 -199 -360 -199c-148 0 -258.333 49.667 -331 149c-70.667 96.667 -106 231.667 -106 405c0 174 35.333 309.667 106 407c40 55.333 94.333 95.666 163 120.999c52.667 19.333 108.667 29 168 29c108 0 195.333 -28.333 262 -85
c34.667 -28.667 66.667 -71.334 96 -128.001c74.667 142 194.667 213 360 213c120.667 0 214 -38.333 280 -115c57.333 -67.333 93.666 -162.666 108.999 -285.999c6 -52.667 9.33301 -112.667 10 -180h-670zM531.001 973.001c-101.333 0 -171 -45.667 -209 -137
c-32 -76 -48 -179.667 -48 -311s16 -234.666 48 -309.999c38 -90.667 107.667 -136 209 -136s171 45.333 209 136c32 75.333 48 176.666 48 303.999c0 138 -16 243.667 -48 317c-39.333 91.333 -109 137 -209 137zM975.001 612.001l487.998 -0.000976562
c-3.33301 85.333 -12.666 153.333 -27.999 204c-31.333 104.667 -96.666 157 -195.999 157c-105.333 0 -178.333 -50 -219 -150c-21.333 -51.333 -36.333 -121.666 -45 -210.999z" />
    <glyph glyph-name="Scaron" unicode="&#x160;" horiz-adv-x="950" vert-adv-y="2457" 
d="M59 30v150c106 -56 214.333 -84 325 -84c108 0 189 23.333 243 70c54 46 81 114 81 204c0 66.667 -18 123.667 -54 171c-24.667 32 -54 59 -88 81c-30.667 20 -69.334 43 -116.001 69c-117.333 64.667 -204 125.667 -260 183c-69.333 71.333 -104 158 -104 260
c0 112.667 35.667 201.667 107 267c76 68.667 185 103 327 103c101.333 0 189.333 -14 264 -42v-132c-89.333 36.667 -170.333 55 -243 55c-84 0 -150 -17 -198 -51c-54 -38.667 -81 -98.334 -81 -179.001c0 -65.333 23.667 -119.333 71 -162
c34 -31.333 99.333 -74.666 196 -129.999c94.667 -54 160.334 -96.333 197.001 -127c105.333 -86.667 158 -204 158 -352c0 -102 -23 -187 -69 -255c-70.667 -105.333 -209.667 -158 -417 -158c-132 0 -245 19.667 -339 59zM511 1689l148 191h149l-208 -281h-178l-208 281
h149z" />
    <glyph glyph-name="scaron" unicode="&#x161;" horiz-adv-x="819" vert-adv-y="2457" 
d="M66 15l0.000976562 129.005c70.667 -40 157 -60 259 -60c172.667 0 259 56.667 259 170c0 43.333 -14.667 79.666 -44 108.999c-22.667 23.333 -48.667 43.333 -78 60c-26 14 -59.333 30.667 -100 50c-98 48.667 -166.333 94.667 -205 138
c-48.667 53.333 -73 117.666 -73 192.999c0 97.333 38 170 114 218c63.333 40 144.333 60 243 60c68.667 0 143.667 -12 225 -36v-119c-68.667 30.667 -141 46 -217 46c-59.333 0 -108.333 -11.667 -147 -35c-40 -24 -60 -62.667 -60 -116c0 -44.667 14 -81.334 42 -110.001
c27.333 -28 87.666 -65.667 180.999 -113c73.333 -36.667 122.333 -64.334 147 -83.001c48 -34.667 82 -72.334 102 -113.001c18.667 -36 28 -80 28 -132c0 -200 -135.667 -300 -407 -300c-109.333 0 -199 14.667 -269 44zM434.001 1284l148 191h149l-207 -281h-178
l-209 281h149z" />
    <glyph glyph-name="Ydieresis" unicode="&#x178;" horiz-adv-x="981" vert-adv-y="2457" 
d="M396 0v584l-416 891h215l311 -722l310 722h185l-421 -891v-584h-184zM351 1842c31.333 0 57.335 -11.666 78.002 -34.999c18 -20 27 -43.333 27 -70c0 -31.333 -11.333 -57.333 -34 -78c-20 -18 -44 -27 -72 -27c-30.667 0 -56.334 11.667 -77.001 35
c-18 20 -27 44 -27 72c0 29.333 11.667 54.666 35 75.999c19.333 18 42.666 27 69.999 27zM682.002 1842c31.333 0 57.335 -11.666 78.002 -34.999c18 -20 27 -43.333 27 -70c0 -30.667 -11.667 -56.667 -35 -78c-19.333 -18 -43 -27 -71 -27
c-30.667 0 -56.334 11.667 -77.001 35c-18 20 -27 44 -27 72c0 29.333 11.667 54.666 35 75.999c19.333 18 42.666 27 69.999 27z" />
    <glyph glyph-name="Zcaron" unicode="&#x17d;" horiz-adv-x="977" vert-adv-y="2457" 
d="M14 0v93l702 1263h-622v119h825v-94l-701 -1262h736v-119h-940zM528 1689l148 191h149l-207 -281h-178l-209 281h149z" />
    <glyph glyph-name="zcaron" unicode="&#x17e;" horiz-adv-x="837" vert-adv-y="2457" 
d="M33 0v116l543 822h-488v115h680v-116l-541 -822h572v-115h-766zM455 1284l148 191h149l-208 -281h-178l-208 281h149z" />
    <glyph glyph-name="copyright.salt" unicode="&#x192;" horiz-adv-x="1109" vert-adv-y="2457" 
d="M707 933l-0.000976562 -69.999c-36 -10 -72 -15 -108 -15c-83.333 0 -147 23.667 -191 71c-34 38 -51 93 -51 165c0 83.333 22 147.666 66 192.999c39.333 41.333 97.333 62 174 62c38 0 73 -5 105 -15v-70c-33.333 12.667 -65.666 19 -96.999 19
c-83.333 0 -125 -65.333 -125 -196c0 -108.667 41 -163 123 -163c35.333 0 70 6.33301 104 19zM554.999 1553c136.667 0 248 -40.667 334 -122c92 -86.667 138 -199.334 138 -338.001c0 -138 -46 -250.667 -138 -338c-86 -81.333 -197 -122 -333 -122
c-138 0 -250 40.667 -336 122c-92 87.333 -138 202 -138 344c0 86.667 21 166 63 238c43.333 74.667 105.333 131.334 186 170.001c65.333 30.667 140 46 224 46zM554.999 1477c-107.333 0 -194.334 -34.334 -261.001 -103.001c-68 -69.333 -102 -161.333 -102 -276
c0 -120.667 34 -216 102 -286c66.667 -68.667 153.667 -103 261 -103c106.667 0 193.334 34.333 260.001 103c68 70 102 163.667 102 281c0 118.667 -34 212.334 -102 281.001c-67.333 68.667 -154 103 -260 103z" />
    <glyph glyph-name="afii57929" unicode="&#x2bc;" horiz-adv-x="365" vert-adv-y="2457" 
d="M74 1128l63 457h186l-118 -457h-131z" />
    <glyph glyph-name="circumflex" unicode="&#x2c6;" horiz-adv-x="1024" vert-adv-y="2457" 
d="M512 1385l-148 -191h-149l208 281h178l208 -281h-149z" />
    <glyph glyph-name="caron" unicode="&#x2c7;" horiz-adv-x="1024" vert-adv-y="2457" 
d="M512 1284l148 191h149l-208 -281h-178l-208 281h149z" />
    <glyph glyph-name="uni02C9" unicode="&#x2c9;" horiz-adv-x="1024" vert-adv-y="2457" 
d="M241 1295v100h543v-100h-543z" />
    <glyph glyph-name="breve" unicode="&#x2d8;" horiz-adv-x="1024" vert-adv-y="2457" 
d="M215 1468l139 0.000976562c4.66699 -36.667 12.667 -65.334 24 -86.001c13.333 -26 32.333 -43.333 57 -52c18.667 -7.33301 44.334 -11 77.001 -11c45.333 0 78.666 7.66699 99.999 23c30 22 49.333 64 58 126h139c-12 -178.667 -111 -268 -297 -268
c-186.667 0 -285.667 89.333 -297 268z" />
    <glyph glyph-name="dotaccent" unicode="&#x2d9;" horiz-adv-x="1024" vert-adv-y="2457" 
d="M510 1463c32.667 0 59.999 -12 81.999 -36c18.667 -21.333 28 -46 28 -74c0 -32.667 -12 -60 -36 -82c-20.667 -18.667 -45.667 -28 -75 -28c-32.667 0 -59.667 12 -81 36c-18.667 21.333 -28 46.666 -28 75.999c0 30.667 12 57.334 36 80.001
c20.667 18.667 45.334 28 74.001 28z" />
    <glyph glyph-name="ring" unicode="&#x2da;" horiz-adv-x="1024" vert-adv-y="2457" 
d="M512 1573c70 0 124.335 -20.001 163.002 -60.001c34.667 -36 52 -80.333 52 -133c0 -53.333 -17.333 -98 -52 -134c-38.667 -40 -93.334 -60 -164.001 -60c-69.333 0 -123.333 20 -162 60c-34.667 36 -52 81.333 -52 136c0 52.667 17.333 96.334 52 131.001
c39.333 40 93.666 60 162.999 60zM512.002 1503c-56 0 -84 -40.667 -84 -122c0 -83.333 28 -125 84 -125s84 41.333 84 124c0 82 -28 123 -84 123z" />
    <glyph glyph-name="ogonek" unicode="&#x2db;" horiz-adv-x="1024" vert-adv-y="2457" 
d="M495 0l105 0.000976562c-32 -32 -57.333 -60.667 -76 -86c-42.667 -56.667 -64 -115.334 -64 -176.001c0 -95.333 42 -143 126 -143c39.333 0 78.333 6.66699 117 20v-92c-38 -12 -87.667 -18 -149 -18c-86 0 -153 18.667 -201 56c-43.333 34 -65 81.333 -65 142
c0 64 29.667 128 89 192c26.667 28.667 66 63.667 118 105z" />
    <glyph glyph-name="tilde" unicode="&#x2dc;" horiz-adv-x="1024" vert-adv-y="2457" 
d="M322 1237l-122.997 0.00195312c8 59.333 21.667 108.666 41 147.999c31.333 65.333 85.666 98 162.999 98c45.333 0 86.666 -15.333 123.999 -46c15.333 -12.667 41.333 -38.334 78 -77.001c11.333 -12.667 22.666 -19 33.999 -19c23.333 0 41.333 21 54 63
c5.33301 18 8.66602 38.667 9.99902 62h123c-14.667 -163.333 -82.667 -245 -204 -245c-46 0 -87.333 15 -124 45c-22 18 -45 40.333 -69 67c-16.667 19.333 -31 29 -43 29c-23.333 0 -41.333 -21 -54 -63c-5.33301 -18 -8.66602 -38.667 -9.99902 -62z" />
    <glyph glyph-name="hungarumlaut" unicode="&#x2dd;" horiz-adv-x="1024" vert-adv-y="2457" 
d="M296 1194l133 281h188l-193 -281h-128zM563 1194l133 281h187l-192 -281h-128z" />
    <glyph glyph-name="erotimatico" unicode="&#x37e;" horiz-adv-x="541" vert-adv-y="2457" 
d="M130 -293l52 492h193l-117 -492h-128zM270 1051c36.667 0 67.334 -13.667 92.001 -41c21.333 -24 32 -51.667 32 -83c0 -37.333 -13.667 -68.333 -41 -93c-24 -21.333 -52 -32 -84 -32c-36.667 0 -67.334 13.667 -92.001 41c-21.333 23.333 -32 52 -32 86
c0 35.333 13.667 65.333 41 90c24 21.333 52 32 84 32z" />
    <glyph glyph-name="uni0387" unicode="&#x387;" horiz-adv-x="541" vert-adv-y="2457" 
d="M271 712c36.667 0 67.334 -13.667 92.001 -41c21.333 -23.333 32 -51 32 -83c0 -37.333 -13.667 -68.333 -41 -93c-24 -21.333 -52 -32 -84 -32c-36.667 0 -67.334 13.667 -92.001 41c-21.333 23.333 -32 52 -32 86c0 35.333 13.667 65.333 41 90c24 21.333 52 32 84 32z
" />
    <glyph glyph-name="uni2011" unicode="&#x2011;" horiz-adv-x="686" vert-adv-y="2457" 
d="M82 528v115h522v-115h-522z" />
    <glyph glyph-name="figuredash" unicode="&#x2012;" vert-adv-y="2457" 
d="M133 528v115h815v-115h-815z" />
    <glyph glyph-name="endash" unicode="&#x2013;" vert-adv-y="2457" 
d="M133 528v115h815v-115h-815z" />
    <glyph glyph-name="emdash" unicode="&#x2014;" horiz-adv-x="1024" vert-adv-y="2457" 
d="M-80 528v115h1184v-115h-1184z" />
    <glyph glyph-name="afii00208" unicode="&#x2015;" horiz-adv-x="1024" vert-adv-y="2457" 
d="M-80 528v115h1184v-115h-1184z" />
    <glyph glyph-name="quoteleft" unicode="&#x2018;" horiz-adv-x="365" vert-adv-y="2457" 
d="M42 1128l118 457h131l-64 -457h-185z" />
    <glyph glyph-name="quoteright" unicode="&#x2019;" horiz-adv-x="365" vert-adv-y="2457" 
d="M74 1128l63 457h186l-118 -457h-131z" />
    <glyph glyph-name="quotesinglbase" unicode="&#x201a;" horiz-adv-x="365" vert-adv-y="2457" 
d="M73 -303l63 485h178l-110 -485h-131z" />
    <glyph glyph-name="quotedblleft" unicode="&#x201c;" horiz-adv-x="664" vert-adv-y="2457" 
d="M42 1128l118 457h131l-64 -457h-185zM341 1128l118 457h131l-64 -457h-185z" />
    <glyph glyph-name="quotedblright" unicode="&#x201d;" horiz-adv-x="664" vert-adv-y="2457" 
d="M74 1128l63 457h186l-118 -457h-131zM373 1128l63 457h186l-118 -457h-131z" />
    <glyph glyph-name="quotedblbase" unicode="&#x201e;" horiz-adv-x="664" vert-adv-y="2457" 
d="M74 -258l63 457h186l-118 -457h-131zM373 -258l63 457h186l-118 -457h-131z" />
    <glyph glyph-name="dagger" unicode="&#x2020;" vert-adv-y="2457" 
d="M450 1026h-317v119h317v493h180v-493h318v-119h-318v-1294h-180v1294z" />
    <glyph glyph-name="daggerdbl" unicode="&#x2021;" vert-adv-y="2457" 
d="M450 1026h-317v119h317v493h180v-493h318v-119h-318v-682h318v-119h-318v-493h-180v493h-317v119h317v682z" />
    <glyph glyph-name="bullet" unicode="&#x2022;" vert-adv-y="2457" 
d="M544 1033c83.333 0 150.667 -30.002 202 -90.002c44 -51.333 66 -110.666 66 -177.999c0 -79.333 -28.333 -145.666 -85 -198.999c-49.333 -46.667 -111.333 -70 -186 -70c-82 0 -148.667 30 -200 90c-44 52 -66 113 -66 183c0 74 28.333 138.667 85 194
c48.667 46.667 110 70 184 70z" />
    <glyph glyph-name="ellipsis" unicode="&#x2026;" horiz-adv-x="1334" vert-adv-y="2457" 
d="M262 220c36.667 0 67.334 -13.666 92.001 -40.999c21.333 -23.333 32 -51.333 32 -84c0 -36.667 -13.667 -67.334 -41 -92.001c-24 -21.333 -52 -32 -84 -32c-36.667 0 -67.334 13.667 -92.001 41c-21.333 23.333 -32 52 -32 86c0 35.333 13.667 65.333 41 90
c24 21.333 52 32 84 32zM668 220.001c36.667 0 67.334 -13.666 92.001 -40.999c21.333 -23.333 32 -51.333 32 -84c0 -36.667 -13.667 -67.334 -41 -92.001c-24 -21.333 -52 -32 -84 -32c-36.667 0 -67.334 13.667 -92.001 41c-21.333 23.333 -32 52 -32 86
c0 35.333 13.667 65.333 41 90c24 21.333 52 32 84 32zM1072 220.002c36.667 0 67.334 -13.666 92.001 -40.999c21.333 -23.333 32 -51.333 32 -84c0 -36.667 -13.667 -67.334 -41 -92.001c-24 -21.333 -52 -32 -84 -32c-36.667 0 -67.334 13.667 -92.001 41
c-21.333 23.333 -32 52 -32 86c0 35.333 13.667 65.333 41 90c24 21.333 52 32 84 32z" />
    <glyph glyph-name="perthousand" unicode="&#x2030;" horiz-adv-x="2206" vert-adv-y="2457" 
d="M368 1504c123.333 0 205.667 -47.001 247 -141.001c26.667 -59.333 40 -141.666 40 -246.999c0 -116.667 -16.667 -205.667 -50 -267c-43.333 -80 -122.333 -120 -237 -120c-122 0 -204 47 -246 141c-26.667 59.333 -40 143 -40 251c0 114 16.667 201.667 50 263
c43.333 80 122 120 236 120zM368.001 1422c-52 0 -87.999 -30.667 -107.999 -92c-14.667 -46.667 -22 -116.667 -22 -210c0 -107.333 9.33301 -184.333 28 -231c20 -52 54 -78 102 -78c52.667 0 89 30.667 109 92c14.667 46.667 22 117.667 22 213
c0 105.333 -9 181.333 -27 228c-20.667 52 -55.334 78 -104.001 78zM373.002 -0.000976562l656 1475h125l-656 -1475h-125zM1157 759.999c123.333 0 205.999 -46.999 247.999 -140.999c26 -59.333 39 -141.333 39 -246c0 -116.667 -16.667 -205.667 -50 -267
c-43.333 -80 -122.333 -120 -237 -120c-122.667 0 -204.667 47 -246 141c-26.667 59.333 -40 142.666 -40 249.999c0 114 16.667 201.667 50 263c42.667 80 121.334 120 236.001 120zM1157 678c-52 0 -87.667 -30.667 -107 -92c-15.333 -46.667 -23 -116.334 -23 -209.001
c0 -107.333 9.33301 -184.333 28 -231c20 -52 54 -78 102 -78c52 0 88 30.667 108 92c15.333 46.667 23 117.667 23 213c0 104.667 -9.33301 180.334 -28 227.001c-20 52 -54.333 78 -103 78zM1838 760c122.667 0 204.667 -46.999 246 -140.999
c26.667 -59.333 40 -141.333 40 -246c0 -116.667 -16.667 -205.667 -50 -267c-43.333 -80 -122.333 -120 -237 -120c-122.667 0 -204.667 47 -246 141c-26.667 59.333 -40 142.666 -40 249.999c0 114 16.667 201.667 50 263c43.333 80 122.333 120 237 120zM1838 678.001
c-52 0 -88.333 -30.668 -109 -92.001c-14.667 -46 -22 -115.667 -22 -209c0 -108 9.33301 -185 28 -231c20.667 -52 55 -78 103 -78c52 0 87.667 30.667 107 92c15.333 46 23 117 23 213c0 104.667 -9 180.334 -27 227.001c-20.667 52 -55 78 -103 78z" />
    <glyph glyph-name="guilsinglleft" unicode="&#x2039;" horiz-adv-x="451" vert-adv-y="2457" 
d="M230 584l176 -296l-70 -56l-303 352l303 353l70 -56z" />
    <glyph glyph-name="guilsinglright" unicode="&#x203a;" horiz-adv-x="451" vert-adv-y="2457" 
d="M221 585l-176 297l70 55l303 -352l-303 -353l-70 56z" />
    <glyph glyph-name="uni203E" unicode="&#x203e;" horiz-adv-x="889" vert-adv-y="2457" 
d="M-41 1696v106h971v-106h-971z" />
    <glyph glyph-name="fraction" unicode="&#x2044;" horiz-adv-x="160" vert-adv-y="2457" 
d="M-310 0l655 1475h125l-655 -1475h-125z" />
    <glyph glyph-name="zerosuperior" unicode="&#x2070;" horiz-adv-x="655" vert-adv-y="2457" 
d="M327 1667c123.333 0 205.667 -46.999 247 -140.999c26.667 -59.333 40 -141.333 40 -246c0 -116.667 -16.667 -205.667 -50 -267c-43.333 -80 -122.333 -120 -237 -120c-122.667 0 -204.667 47 -246 141c-26.667 59.333 -40 142.666 -40 249.999
c0 114 16.667 201.667 50 263c43.333 80 122 120 236 120zM327.001 1585c-52 0 -87.999 -30.666 -107.999 -91.999c-14.667 -46.667 -22 -116.334 -22 -209.001c0 -107.333 9.33301 -184.333 28 -231c20 -52 54 -78 102 -78c52.667 0 89 30.667 109 92
c14.667 46 22 117 22 213c0 105.333 -9 181 -27 227c-20.667 52 -55.334 78 -104.001 78z" />
    <glyph glyph-name="foursuperior" unicode="&#x2074;" horiz-adv-x="655" vert-adv-y="2457" 
d="M399 1078h-375v73l225 514h150l-220 -505h220v240h148v-240h94v-82h-94v-171h-148v171z" />
    <glyph glyph-name="fivesuperior" unicode="&#x2075;" horiz-adv-x="655" vert-adv-y="2457" 
d="M81 912l-0.000976562 92.999c66.667 -20 131.334 -30 194.001 -30c106.667 0 160 53.333 160 160c0 58 -19.667 99.667 -59 125c-27.333 18 -72 27 -134 27h-149l26 366h431v-82h-295l-14 -202h30c107.333 0 185.333 -17 234 -51c57.333 -39.333 86 -100.666 86 -183.999
c0 -160.667 -104 -241 -312 -241c-73.333 0 -139.333 6.33301 -198 19z" />
    <glyph glyph-name="sixsuperior" unicode="&#x2076;" horiz-adv-x="655" vert-adv-y="2457" 
d="M219 1360c39.333 18.667 85.999 28 139.999 28c92 0 160.333 -27.333 205 -82c31.333 -38.667 47 -90.334 47 -155.001c0 -172 -92.333 -258 -277 -258c-114 0 -192.333 36 -235 108c-28.667 48.667 -43 122.334 -43 221.001c0 158 29.667 272.667 89 344
c56 67.333 139 101 249 101c50 0 100.333 -6.33301 151 -19v-81c-45.333 12.667 -88.666 19 -129.999 19c-52.667 0 -94 -16 -124 -48c-34.667 -36.667 -58.667 -96 -72 -178zM332.999 1311c-41.333 0 -72.668 -18.333 -94.001 -55c-18 -30 -27 -67.667 -27 -113
c0 -48.667 9 -88 27 -118c21.333 -36.667 53 -55 95 -55c42.667 0 74.334 19 95.001 57c17.333 32 26 69.667 26 113c0 44.667 -8.66699 82.667 -26 114c-21.333 38 -53.333 57 -96 57z" />
    <glyph glyph-name="sevensuperior" unicode="&#x2077;" horiz-adv-x="655" vert-adv-y="2457" 
d="M134 907l301 664h-377v82h544v-51l-307 -695h-161z" />
    <glyph glyph-name="eightsuperior" unicode="&#x2078;" horiz-adv-x="655" vert-adv-y="2457" 
d="M160 1303c-65.333 34.667 -98 88.999 -98 162.999c0 134 88 201 264 201c176.667 0 265 -67 265 -201c0 -74 -32.333 -128.333 -97 -163c84 -39.333 126 -103.666 126 -192.999c0 -144.667 -97.667 -217 -293 -217s-293 72.667 -293 218c0 90 42 154 126 192zM326 1590
c-72 0 -108 -42 -108 -126c0 -38.667 9 -69.667 27 -93c18 -22.667 44.667 -34 80 -34c73.333 0 110 42.333 110 127c0 38 -9 68.667 -27 92c-18 22.667 -45.333 34 -82 34zM329 1260c-92.667 0 -139.001 -48.668 -139.001 -146.001c0 -47.333 13 -84 39 -110
c22.667 -22.667 55.334 -34 98.001 -34c91.333 0 137 48.333 137 145c0 48.667 -13 85.334 -39 110.001c-24 23.333 -56 35 -96 35z" />
    <glyph glyph-name="ninesuperior" unicode="&#x2079;" horiz-adv-x="655" vert-adv-y="2457" 
d="M440 1214c-40 -20 -87.335 -30 -142.002 -30c-92 0 -160.667 27 -206 81c-31.333 37.333 -47 87.666 -47 150.999c0 60 13 110 39 150c44 67.333 123 101 237 101c114.667 0 193.334 -36 236.001 -108c28.667 -49.333 43 -125.333 43 -228
c0 -158 -25.667 -270.333 -77 -337c-51.333 -67.333 -138.333 -101 -261 -101c-58 0 -116 6.33301 -174 19v93c54.667 -20 109.334 -30 164.001 -30c74 0 124.667 27 152 81c18.667 36.667 30.667 89.334 36 158.001zM321.998 1590c-80.667 0 -121 -54 -121 -162
s40.333 -162 121 -162c81.333 0 122 53.333 122 160c0 109.333 -40.667 164 -122 164z" />
    <glyph glyph-name="zeroinferior" unicode="&#x2080;" horiz-adv-x="655" vert-adv-y="2457" 
d="M327 597c123.333 0 205.667 -47.001 247 -141.001c26.667 -59.333 40 -141.666 40 -246.999c0 -116.667 -16.667 -205.667 -50 -267c-43.333 -80 -122.333 -120 -237 -120c-122 0 -204 47 -246 141c-26.667 59.333 -40 143 -40 251c0 114 16.667 201.667 50 263
c43.333 80 122 120 236 120zM327.001 514.999c-52 0 -87.999 -30.667 -107.999 -92c-14.667 -46.667 -22 -116.667 -22 -210c0 -107.333 9.33301 -184.333 28 -231c20 -52 54 -78 102 -78c52.667 0 89 30.667 109 92c14.667 46.667 22 117.667 22 213
c0 105.333 -9 181.333 -27 228c-20.667 52 -55.334 78 -104.001 78z" />
    <glyph glyph-name="oneinferior" unicode="&#x2081;" horiz-adv-x="655" vert-adv-y="2457" 
d="M276 -164v637l-150 -46v92l183 67h120v-750h-153z" />
    <glyph glyph-name="twoinferior" unicode="&#x2082;" horiz-adv-x="655" vert-adv-y="2457" 
d="M51 -164l0.000976562 74.999l21 21c118.667 123.333 195 204 229 242c45.333 50.667 76 91.334 92 122.001c18.667 34 28 66.333 28 97c0 32 -8.33301 58.333 -25 79c-22.667 28 -55.334 42 -98.001 42c-53.333 0 -122 -18.667 -206 -56v100c66 25.333 137.333 38 214 38
c180.667 0 271 -66.667 271 -200c0 -52.667 -16 -103 -48 -151c-28 -43.333 -114 -138.333 -258 -285l-41 -42h364v-82h-543z" />
    <glyph glyph-name="threeinferior" unicode="&#x2083;" horiz-adv-x="655" vert-adv-y="2457" 
d="M178 190v82h68c50.667 0 88.334 11 113.001 33c30 26.667 45 60.667 45 102c0 71.333 -42.333 107 -127 107c-56 0 -118.333 -14.667 -187 -44v98c63.333 18.667 128 28 194 28c184 0 276 -62.667 276 -188c0 -72.667 -35.333 -127.334 -106 -164.001
c36 -10.667 64.333 -25 85 -43c36 -31.333 54 -81 54 -149c0 -85.333 -29 -145.666 -87 -180.999c-52 -32.667 -125.333 -49 -220 -49c-80 0 -150.333 12 -211 36v101c73.333 -36.667 139.666 -55 198.999 -55c108.667 0 163 49.333 163 148c0 92 -53.333 138 -160 138h-99z
" />
    <glyph glyph-name="fourinferior" unicode="&#x2084;" horiz-adv-x="655" vert-adv-y="2457" 
d="M399 8h-375v73l225 514h150l-220 -505h220v239h148v-239h94v-82h-94v-172h-148v172z" />
    <glyph glyph-name="fiveinferior" unicode="&#x2085;" horiz-adv-x="655" vert-adv-y="2457" 
d="M81 -158v93c66.667 -20 131.334 -30 194.001 -30c106.667 0 160 53.333 160 160c0 58 -19.667 99.667 -59 125c-26.667 18 -71.334 27 -134.001 27h-149l26 365h431v-82h-295l-14 -202h30c107.333 0 185.333 -16.667 234 -50c57.333 -38.667 86 -100 86 -184
c0 -160.667 -104 -241 -312 -241c-73.333 0 -139.333 6.33301 -198 19z" />
    <glyph glyph-name="sixinferior" unicode="&#x2086;" horiz-adv-x="655" vert-adv-y="2457" 
d="M219 289c39.333 19.333 86 29 140 29c92 0 160.333 -27.333 205 -82c31.333 -39.333 47 -91 47 -155c0 -172.667 -92.333 -259 -277 -259c-114 0 -192.333 36 -235 108c-28.667 48.667 -43 122.667 -43 222c0 158 29.667 272.667 89 344c56 67.333 139 101 249 101
c49.333 0 99.666 -6.66699 150.999 -20v-81c-45.333 13.333 -88.666 20 -129.999 20c-52.667 0 -94 -16.333 -124 -49c-34.667 -36 -58.667 -95.333 -72 -178zM333 241c-41.333 0 -72.668 -18.333 -94.001 -55c-18 -30.667 -27 -68.667 -27 -114c0 -48 9 -87.333 27 -118
c21.333 -36.667 53 -55 95 -55c42.667 0 74.334 19 95.001 57c17.333 32 26 70 26 114c0 44.667 -8.66699 82.667 -26 114c-21.333 38 -53.333 57 -96 57z" />
    <glyph glyph-name="seveninferior" unicode="&#x2087;" horiz-adv-x="655" vert-adv-y="2457" 
d="M134 -164l301 664h-377v82h544v-51l-307 -695h-161z" />
    <glyph glyph-name="eightinferior" unicode="&#x2088;" horiz-adv-x="655" vert-adv-y="2457" 
d="M160 233c-65.333 34.667 -98 89 -98 163c0 134 88 201 264 201c176.667 0 265 -67 265 -201c0 -74 -32.333 -128.333 -97 -163c84 -40 126 -104.667 126 -194c0 -144.667 -97.667 -217 -293 -217s-293 72.667 -293 218c0 90 42 154.333 126 193zM326 520
c-72 0 -108 -42.333 -108 -127c0 -38 9 -68.667 27 -92s44.667 -35 80 -35c73.333 0 110 42.667 110 128c0 38 -9 68.667 -27 92c-18.667 22.667 -46 34 -82 34zM329 189c-92.667 0 -139.001 -48.668 -139.001 -146.001c0 -47.333 13 -84 39 -110
c22.667 -22.667 55.334 -34 98.001 -34c91.333 0 137 48.333 137 145c0 48.667 -13 85.334 -39 110.001c-24 23.333 -56 35 -96 35z" />
    <glyph glyph-name="nineinferior" unicode="&#x2089;" horiz-adv-x="655" vert-adv-y="2457" 
d="M440 143c-40 -20 -87.334 -29.998 -142.001 -29.998c-92 0 -160.667 27 -206 81c-31.333 37.333 -47 88 -47 152c0 60 13 110 39 150c44 67.333 123 101 237 101c114.667 0 193.334 -36.333 236.001 -109c28.667 -48.667 43 -124.334 43 -227.001
c0 -158.667 -25.667 -271.334 -77 -338.001c-51.333 -67.333 -138.333 -101 -261 -101c-57.333 0 -115.333 6.33301 -174 19v94c54 -20.667 108.667 -31 164 -31c74 0 124.667 27.333 152 82c18.667 36 30.667 88.333 36 157zM321.999 520.002
c-80.667 0 -121 -54.333 -121 -163c0 -108 40.333 -162 121 -162c81.333 0 122 53.667 122 161c0 109.333 -40.667 164 -122 164z" />
    <glyph glyph-name="Euro" unicode="&#x20ac;" vert-adv-y="2457" 
d="M50 520v108.999h147c-1.33301 24.667 -2 47 -2 67c0 9.33301 0.666992 33.333 2 72h-147v109h154c17.333 140 46 250 86 330c99.333 198 269.666 297 510.999 297c84 0 156.667 -11.333 218 -34v-128c-82 28.667 -153.667 43 -215 43c-88 0 -159.333 -18.333 -214 -55
c-86.667 -59.333 -144.334 -160.666 -173.001 -303.999c-8 -42 -15 -91.667 -21 -149h531v-109h-538c-0.666992 -19.333 -1 -41.333 -1 -66c0 -28 0.333008 -52.333 1 -73h538v-109h-530c8.66699 -80.667 25.334 -151 50.001 -211c60.667 -146 177.667 -219 351 -219
c68 0 145.667 14.333 233 43v-128c-66 -22.667 -145.333 -34 -238 -34c-271.333 0 -449.666 107.667 -534.999 323c-24 58.667 -41.333 134 -52 226h-156z" />
    <glyph glyph-name="trademark" unicode="&#x2122;" horiz-adv-x="1427" vert-adv-y="2457" 
d="M569 740l49 735h158l183 -543l187 543h152l47 -735h-137l-23 528l-178 -528h-108l-176 528l-25 -528h-129zM205 740v644h-205v91h547v-91h-205v-644h-137z" />
    <glyph glyph-name="uni2126" unicode="&#x2126;" horiz-adv-x="1382" vert-adv-y="2457" 
d="M112 0l-0.00195312 119h344v90l-28 16c-53.333 30.667 -89.666 54 -108.999 70c-142 117.333 -213 297.666 -213 540.999c0 165.333 34.333 305.333 103 420c98.667 165.333 259.334 248 482.001 248c222 0 382.333 -82.667 481 -248
c68.667 -114.667 103 -254.667 103 -420c0 -226.667 -61 -398.334 -183 -515.001c-29.333 -28 -67.333 -55.333 -114 -82l-53 -30v-90h344v-119h-489v263c76 44.667 136.333 94.334 181 149.001c40.667 48.667 70 102 88 160c22.667 72.667 34 163.334 34 272.001
c0 134.667 -23 247.667 -69 339c-67.333 134.667 -175 202 -323 202c-148.667 0 -256.667 -67.333 -324 -202c-46 -91.333 -69 -205.333 -69 -342c0 -138.667 19.333 -248.667 58 -330c46.667 -97.333 128.667 -180 246 -248v-263h-490z" />
    <glyph glyph-name="arrowleft" unicode="&#x2190;" horiz-adv-x="1622" vert-adv-y="2457" 
d="M1439 672h-1041l473 -553h-204l-522 619l522 618h204l-473 -553h1041v-131z" />
    <glyph glyph-name="arrowup" unicode="&#x2191;" horiz-adv-x="1622" vert-adv-y="2457" 
d="M881 0h-139v1228l-549 -471v196l618 522l619 -522v-196l-549 471v-1228z" />
    <glyph glyph-name="arrowright" unicode="&#x2192;" horiz-adv-x="1622" vert-adv-y="2457" 
d="M182 672v131h1041l-472 553h203l522 -618l-522 -619h-203l472 553h-1041z" />
    <glyph glyph-name="arrowdown" unicode="&#x2193;" horiz-adv-x="1622" vert-adv-y="2457" 
d="M742 1475h139v-1228l549 471v-196l-619 -522l-618 522v196l549 -471v1228z" />
    <glyph glyph-name="arrowboth" unicode="&#x2194;" horiz-adv-x="1622" vert-adv-y="2457" 
d="M341 803h940l-308 361h201l360 -426l-360 -427h-201l308 361h-940l308 -361h-202l-359 427l359 426h202z" />
    <glyph glyph-name="arrowupdn" unicode="&#x2195;" horiz-adv-x="1622" vert-adv-y="2457" 
d="M741 214v1047l-355 -302v165l425 355l424 -355v-165l-355 302v-1047l355 302v-166l-424 -354l-425 354v166z" />
    <glyph glyph-name="uni2196" unicode="&#x2196;" horiz-adv-x="1622" vert-adv-y="2457" 
d="M1422 265l-98 -98l-863 862l-55 -721l-144 144l68 807l807 68l144 -144l-721 -55z" />
    <glyph glyph-name="uni2197" unicode="&#x2197;" horiz-adv-x="1622" vert-adv-y="2457" 
d="M199 265l862 863l-721 55l145 144l806 -68l68 -807l-144 -144l-55 721l-862 -862z" />
    <glyph glyph-name="uni2198" unicode="&#x2198;" horiz-adv-x="1622" vert-adv-y="2457" 
d="M199 1228l99 99l862 -863l55 722l144 -145l-68 -806l-806 -68l-145 144l721 55z" />
    <glyph glyph-name="uni2199" unicode="&#x2199;" horiz-adv-x="1622" vert-adv-y="2457" 
d="M1422 1228l-862 -862l721 -55l-144 -144l-807 68l-68 806l144 145l55 -722l863 863z" />
    <glyph glyph-name="arrowupdnbse" unicode="&#x21a8;" horiz-adv-x="1622" vert-adv-y="2457" 
d="M730 403v873l-355 -301v165l425 355l424 -355v-165l-355 301v-873l355 302v-166l-424 -355l-425 355v166zM392 0v131h815v-131h-815z" />
    <glyph glyph-name="uni21C4" unicode="&#x21c4;" horiz-adv-x="1622" vert-adv-y="2457" 
d="M142 427l359 426h202l-301 -361h1034v-131h-1034l301 -361h-202zM186 983v131h1035l-302 361h202l359 -427l-359 -426h-202l302 361h-1035z" />
    <glyph glyph-name="uni21C6" unicode="&#x21c6;" horiz-adv-x="1622" vert-adv-y="2457" 
d="M186 361v131h1035l-302 361h202l359 -426l-359 -427h-202l302 361h-1035zM142 1048l359 427h202l-301 -361h1034v-131h-1034l301 -361h-202z" />
    <glyph glyph-name="partialdiff" unicode="&#x2202;" vert-adv-y="2457" 
d="M717 1036c-43.333 130.667 -96.667 234.333 -160 311c-50 59.333 -108.333 102.333 -175 129c-26 10 -56.333 19.333 -91 28v102c192 -23.333 342 -108 450 -254c68.667 -92.667 124.667 -207 168 -343c49.333 -155.333 74 -313.333 74 -474
c0 -376 -147.333 -564 -442 -564c-152 0 -264.333 50 -337 150c-70.667 97.333 -106 232.333 -106 405c0 174 35.333 309.333 106 406c40 54.667 94.667 95 164 121c51.333 19.333 106 29 164 29c66 0 127.667 -15.333 185 -46zM539.999 972.999
c-101.333 0 -171.334 -45.667 -210.001 -137c-32 -76 -48 -179 -48 -309c0 -130.667 16 -234 48 -310c38.667 -91.333 109 -137 211 -137s172 45.667 210 137c32 76 48 177.333 48 304c0 136.667 -16 241.667 -48 315c-39.333 91.333 -109.666 137 -210.999 137z" />
    <glyph glyph-name="Delta" unicode="&#x2206;" vert-adv-y="2457" 
d="M1138 0h-1193l496 1475h203zM901 119l-376 1182l-377 -1182h753z" />
    <glyph glyph-name="product" unicode="&#x220f;" horiz-adv-x="1331" vert-adv-y="2457" 
d="M169 -553v2189h993v-2189h-188v2070h-617v-2070h-188z" />
    <glyph glyph-name="summation" unicode="&#x2211;" horiz-adv-x="1123" vert-adv-y="2457" 
d="M71 -553v158l466 980l-470 894v157h1004v-119h-825l487 -932l-479 -1019h835v-119h-1018z" />
    <glyph glyph-name="minus" unicode="&#x2212;" vert-adv-y="2457" 
d="M133 610v115h815v-115h-815z" />
    <glyph glyph-name="radical" unicode="&#x221a;" vert-adv-y="2457" 
d="M406 0l-172 653h-162v115h272l142 -546l395 1597h491v-115h-361l-435 -1704h-170z" />
    <glyph glyph-name="infinity" unicode="&#x221e;" horiz-adv-x="1417" vert-adv-y="2457" 
d="M708 654c-33.333 -52.667 -62.668 -92 -88.001 -118c-63.333 -66 -139.666 -99 -228.999 -99c-91.333 0 -162 28.333 -212 85c-51.333 58 -77 135 -77 231s25.667 173 77 231c50 56.667 120.667 85 212 85c94.667 0 175.667 -37.667 243 -113
c20.667 -24 45.334 -58.667 74.001 -104c32.667 52 62 91.333 88 118c63.333 66 139.666 99 228.999 99c91.333 0 162 -28.333 212 -85c51.333 -58 77 -135 77 -231s-25.667 -173 -77 -231c-50 -56.667 -120.667 -85 -212 -85c-66 0 -122.667 16 -170 48
c-46.667 32 -95.667 88.333 -147 169zM778.998 753c30.667 -56.667 58.668 -101.666 84.001 -134.999c50.667 -66 106 -99 166 -99c50 0 89.333 20.333 118 61c30.667 44 46 101.667 46 173s-15.333 129 -46 173c-28.667 40.667 -68 61 -118 61
c-62.667 0 -121.334 -37.333 -176.001 -112c-16 -22 -32 -47 -48 -75c-18 -30.667 -26.667 -46.334 -26 -47.001zM636.999 753.001c-29.333 56 -57.334 100.999 -84.001 134.999c-50.667 66 -106 99 -166 99c-50 0 -89.333 -20.333 -118 -61
c-30.667 -44 -46 -101.667 -46 -173s15.333 -129 46 -173c28.667 -40.667 68 -61 118 -61c62.667 0 121.334 37.333 176.001 112c16 22 32 47 48 75c18 30.667 26.667 46.334 26 47.001z" />
    <glyph glyph-name="integral" unicode="&#x222b;" vert-adv-y="2457" 
d="M226 -510v129c37.333 -12 72.333 -18 105 -18c50 0 83.333 22 100 66c10 26.667 15 69.667 15 129v1541c0 104 16.667 180 50 228c46.667 68 123.667 102 231 102c40 0 82.333 -6.33301 127 -19v-129c-36.667 12.667 -71.667 19 -105 19c-50.667 0 -84 -22 -100 -66
c-10 -26.667 -15 -69.667 -15 -129v-1541c0 -104 -16.667 -180 -50 -228c-46.667 -68 -124 -102 -232 -102c-40.667 0 -82.667 6 -126 18z" />
    <glyph glyph-name="approxequal" unicode="&#x2248;" vert-adv-y="2457" 
d="M238 379l-89.998 32c21.333 64 43.666 113.333 66.999 148c43.333 64.667 100 97 170 97c47.333 0 92.666 -15.333 135.999 -46c22 -15.333 49.667 -37.666 83 -66.999c34 -30 55 -47.667 63 -53c16 -10 33 -15 51 -15c37.333 0 68 22.667 92 68
c7.33301 14.667 18.666 45 33.999 91l89 -33c-13.333 -56.667 -27.666 -100.334 -42.999 -131.001c-37.333 -75.333 -101.333 -113 -192 -113c-58 0 -108.667 17.667 -152 53l-92 79c-18 16 -32.333 27.333 -43 34c-14 10 -30.333 15 -49 15c-32.667 0 -61 -22 -85 -66
c-10 -18 -23 -49 -39 -93zM238.002 706l-89.998 33c22 64 44.333 113 67 147c43.333 65.333 100 98 170 98c47.333 0 92.666 -15.333 135.999 -46c22 -15.333 49.667 -37.666 83 -66.999c34 -30 55 -47.667 63 -53c16 -10 33 -15 51 -15c37.333 0 68 22.667 92 68
c7.33301 14.667 18.666 45 33.999 91l89 -33c-13.333 -56.667 -27.666 -100.334 -42.999 -131.001c-37.333 -75.333 -101.333 -113 -192 -113c-58 0 -108.667 17.667 -152 53l-92 79c-36.667 32.667 -67.334 49 -92.001 49c-32 0 -60.333 -22 -85 -66
c-10.667 -18.667 -23.667 -50 -39 -94z" />
    <glyph glyph-name="notequal" unicode="&#x2260;" vert-adv-y="2457" 
d="M133 442v115h294l92 223h-386v115h433l101 246l114 -54l-79 -192h246v-115h-293l-91 -223h384v-115h-431l-101 -246l-116 53l79 193h-246z" />
    <glyph glyph-name="lessequal" unicode="&#x2264;" vert-adv-y="2457" 
d="M131 0v115h819v-115h-819zM250 699l700 -377v-132l-848 458v103l848 454v-131z" />
    <glyph glyph-name="greaterequal" unicode="&#x2265;" vert-adv-y="2457" 
d="M131 0v115h819v-115h-819zM831 699l-700 375v131l848 -454v-103l-848 -458v132z" />
    <glyph glyph-name="dotmath" unicode="&#x22c5;" horiz-adv-x="541" vert-adv-y="2457" 
d="M271 712c36.667 0 67.334 -13.667 92.001 -41c21.333 -23.333 32 -51 32 -83c0 -37.333 -13.667 -68.333 -41 -93c-24 -21.333 -52 -32 -84 -32c-36.667 0 -67.334 13.667 -92.001 41c-21.333 23.333 -32 52 -32 86c0 35.333 13.667 65.333 41 90c24 21.333 52 32 84 32z
" />
    <glyph glyph-name="filledbox" unicode="&#x25a0;" horiz-adv-x="1622" vert-adv-y="2457" 
d="M285 0v1053h1053v-1053h-1053z" />
    <glyph glyph-name="lozenge" unicode="&#x25ca;" vert-adv-y="2457" 
d="M44 737l497 828l497 -828l-497 -830zM225 737l316 -543l315 543l-315 545z" />
    <glyph glyph-name="glyph1" horiz-adv-x="0" vert-adv-y="0" 
 />
    <glyph glyph-name="glyph2" horiz-adv-x="492" vert-adv-y="2457" 
 />
    <glyph glyph-name="glyph155" horiz-adv-x="492" vert-adv-y="2457" 
 />
    <glyph glyph-name="glyph164" horiz-adv-x="492" vert-adv-y="2457" 
 />
    <glyph glyph-name="glyph166" horiz-adv-x="492" vert-adv-y="2457" 
 />
    <glyph glyph-name="glyph172" vert-adv-y="1081" 
 />
    <glyph glyph-name="glyph210" horiz-adv-x="492" vert-adv-y="2457" 
 />
    <glyph glyph-name="florin.fitted" horiz-adv-x="696" vert-adv-y="2457" 
d="M53 657v115.001h192v246c0 126.667 10 224 30 292c37.333 128.667 147.333 193 330 193h80v-108h-40c-86.667 0 -144.334 -20 -173.001 -60c-31.333 -43.333 -47 -142.333 -47 -297v-266h244v-115h-244v-659c0 -126.667 -10 -224 -30 -292
c-37.333 -128.667 -147.333 -193 -330 -193h-80v108h40c86.667 0 144.334 20 173.001 60c20.667 28.667 34 76 40 142c4.66699 49.333 7 100.666 7 153.999v680h-192z" />
    <glyph glyph-name="cent.fitted" horiz-adv-x="916" vert-adv-y="2457" 
d="M490 164c-97.333 14.667 -173.333 43.999 -228 87.999c-106 84 -159 225.333 -159 424c0 226.667 64 385.667 192 477c53.333 38.667 118.333 63.667 195 75v275h131v-268c66 -3.33301 127.333 -15.666 184 -36.999v-118c-58 26.667 -119.333 42 -184 46v-859
c79.333 4 150.333 22 213 54v-118c-52.667 -24 -123.667 -38.667 -213 -44v-257h-131v262zM490 277.999v834c-135.333 -46 -203 -193.333 -203 -442c0 -160 31 -271.333 93 -334c28 -28 64.667 -47.333 110 -58z" />
    <glyph glyph-name="dollar.fitted" horiz-adv-x="1049" vert-adv-y="2457" 
d="M471 117v603.001c-90 42.667 -161 82.667 -213 120c-60.667 43.333 -104 86.666 -130 129.999c-29.333 48 -44 103 -44 165c0 82.667 25.333 154 76 214c65.333 76.667 169 122.334 311 137.001v187h131v-183c106.667 -2.66699 200.667 -16 282 -40v-133
c-106 36 -200 54.333 -282 55v-539c110 -52.667 185.333 -95.667 226 -129c104 -84.667 156 -191.334 156 -320.001c0 -110 -33.333 -198 -100 -264c-60 -59.333 -154 -97 -282 -113v-214h-131v205c-164.667 0.666992 -302.667 19.667 -414 57v151
c89.333 -43.333 174.333 -70.333 255 -81c42.667 -5.33301 95.667 -8 159 -8zM602 135.001c140 34 210 114.667 210 242c0 82 -34 152 -102 210c-22 19.333 -58 42.333 -108 69v-521zM471 899.001v463.001c-143.333 -26.667 -215 -99.334 -215 -218.001
c0 -68 26.667 -122 80 -162c30 -23.333 75 -51 135 -83z" />
    <glyph glyph-name="sterling.fitted" horiz-adv-x="1049" vert-adv-y="2457" 
d="M258 131l-0.000976562 559h-170v115h170v196c0 156 26 271 78 345c73.333 105.333 197 158 371 158c90.667 0 169.667 -11.333 237 -34v-128c-90.667 28.667 -167.667 43 -231 43c-121.333 0 -201.666 -46 -240.999 -138c-22.667 -54.667 -34 -153 -34 -295v-147h252
v-115h-252v-559h545v-131h-897v131h172z" />
    <glyph glyph-name="zero.fitted" vert-adv-y="2457" 
d="M540 1504c185.333 0 311.001 -84.333 377.001 -253c42.667 -108.667 64 -279.667 64 -513c0 -257.333 -26.667 -441 -80 -551c-70 -144 -190.333 -216 -361 -216c-184 0 -309.333 84.333 -376 253c-42.667 107.333 -64 281 -64 521c0 254 26.667 435 80 543
c34 69.333 78.667 121 134 155c65.333 40.667 140.666 61 225.999 61zM540.001 1385c-104.667 0 -176.668 -67.666 -216.001 -202.999c-26.667 -89.333 -40 -235 -40 -437c0 -230.667 16.333 -391.334 49 -482.001c42 -115.333 111 -173 207 -173
c105.333 0 178 67.667 218 203c26 89.333 39 237.333 39 444c0 226 -16.333 384.333 -49 475c-41.333 115.333 -110.666 173 -207.999 173z" />
    <glyph glyph-name="nine.fitted" horiz-adv-x="1049" vert-adv-y="2457" 
d="M754 694c-22.667 -27.333 -42.333 -47.668 -59 -61.001c-57.333 -45.333 -130.333 -68 -219 -68c-138.667 0 -242.334 53.333 -311.001 160c-50 76.667 -75 174 -75 292c0 110.667 20.667 206 62 286c68.667 134 189.334 201 362.001 201c170.667 0 289.667 -72 357 -216
c46 -98 69 -247 69 -447c0 -194 -15.333 -353.667 -46 -479c-63.333 -260.667 -223.333 -391 -480 -391c-84.667 0 -168.667 11.333 -252 34v128c91.333 -28.667 175 -43 251 -43c151.333 0 249.333 76.333 294 229c20.667 72 34.667 162.333 42 271
c1.33301 22.667 3 57.334 5 104.001zM514.001 1395c-89.333 0 -153 -40.666 -191 -121.999c-32.667 -68.667 -49 -151.667 -49 -249c0 -88.667 15 -163.334 45 -224.001c37.333 -77.333 98.333 -116 183 -116c68 0 125 26 171 78c55.333 62.667 83 151 83 265
c0 102 -16.333 185.333 -49 250c-40 78.667 -104.333 118 -193 118z" />
    <glyph glyph-name="eight.fitted" horiz-adv-x="1049" vert-adv-y="2457" 
d="M310 785c-44 25.333 -76.332 48.333 -96.999 69c-62 62.667 -93 150.667 -93 264c0 114 32 206 96 276c67.333 73.333 170 110 308 110c137.333 0 239.666 -36.667 306.999 -110c64 -70 96 -162 96 -276c0 -121.333 -35.333 -213.333 -106 -276
c-18 -16.667 -46 -35.667 -84 -57c66.667 -35.333 114.667 -71 144 -107c62 -75.333 93 -172.333 93 -291c0 -277.333 -150 -416 -450 -416c-300.667 0 -451 138.333 -451 415c0 138 40.333 245.667 121 323c22 20.667 60.667 46 116 76zM524.001 1395
c-73.333 0 -128.666 -25.667 -165.999 -77c-36 -49.333 -54 -117.666 -54 -204.999c0 -86.667 18 -155.334 54 -206.001c37.333 -51.333 91.333 -77 162 -77c75.333 0 131.666 25.667 168.999 77c36 50.667 54 119.667 54 207c0 86.667 -18 154.667 -54 204
c-38 51.333 -93 77 -165 77zM528.001 721c-180.667 0 -271 -107.667 -271 -323c0 -212 89.667 -318 269 -318c176 0 264 106.333 264 319c0 214.667 -87.333 322 -262 322z" />
    <glyph glyph-name="seven.fitted" horiz-adv-x="879" vert-adv-y="2457" 
d="M135 0l502 1352h-621v123h811v-69l-506 -1406h-186z" />
    <glyph glyph-name="six.fitted" horiz-adv-x="1049" vert-adv-y="2457" 
d="M294 807c27.333 31.333 51.3301 54.334 71.9971 69.001c55.333 38.667 124 58 206 58c138.667 0 242.667 -54.333 312 -163c49.333 -78 74 -177 74 -297c0 -114.667 -20.667 -213.334 -62 -296.001c-68.667 -138 -190 -207 -364 -207
c-169.333 0 -287.666 71.333 -354.999 214c-46 98.667 -69 244 -69 436c0 588.667 174.667 883 524 883c71.333 0 143 -11.333 215 -34v-128c-79.333 28.667 -149.333 43 -210 43c-85.333 0 -154.666 -34 -207.999 -102c-55.333 -70 -93.666 -172 -114.999 -306
c-8 -49.333 -14.667 -106 -20 -170zM544.997 825.001c-66.667 0 -123 -27.667 -169 -83c-56 -66.667 -84 -159.667 -84 -279c0 -104 16.333 -190.667 49 -260c39.333 -82 103.333 -123 192 -123c90 0 154 42.333 192 127c32.667 71.333 49 158 49 260
c0 94 -15 172.333 -45 235c-38.667 82 -100 123 -184 123z" />
    <glyph glyph-name="five.fitted" horiz-adv-x="983" vert-adv-y="2457" 
d="M101 1v132.001c87.333 -28.667 181.333 -43 282 -43c128 0 214.333 38.667 259 116c33.333 58.667 50 137.667 50 237c0 130.667 -36.333 222.667 -109 276c-50.667 38 -134 57 -250 57h-210l40 699h645v-123h-491l-26 -457h89c166 0 287.667 -34.333 365 -103
c87.333 -78.667 131 -196.334 131 -353.001c0 -312 -163.333 -468 -490 -468c-104.667 0 -199.667 10 -285 30z" />
    <glyph glyph-name="four.fitted" horiz-adv-x="1044" vert-adv-y="2457" 
d="M635 0v346h-579v117l443 1012h174l-440 -1006h402v371h172v-371h175v-123h-175v-346h-172z" />
    <glyph glyph-name="three.fitted" horiz-adv-x="942" vert-adv-y="2457" 
d="M239 723l-0.000976562 119h76c99.333 0 172 23.333 218 70c55.333 56.667 83 133.667 83 231c0 161.333 -83.333 242 -250 242c-89.333 0 -180.666 -21 -273.999 -63v132c87.333 33.333 182.666 50 285.999 50c138.667 0 243.334 -29.667 314.001 -89
c72 -60.667 108 -150 108 -268c0 -105.333 -29.333 -190 -88 -254c-26 -28.667 -69 -58.667 -129 -90c66 -16.667 117.667 -40 155 -70c38 -30.667 66.333 -67.667 85 -111c22 -52 33 -119.667 33 -203c0 -161.333 -44 -278.333 -132 -351
c-78.667 -64.667 -196.334 -97 -353.001 -97c-117.333 0 -218.666 11.333 -303.999 34v133c89.333 -32.667 182 -49 278 -49c108 0 186.333 20 235 60c61.333 50.667 92 140 92 268c0 124 -33.667 210.333 -101 259c-44 31.333 -112.333 47 -205 47h-127z" />
    <glyph glyph-name="one.fitted" horiz-adv-x="696" vert-adv-y="2457" 
d="M287 0v1330l-250 -93v117l289 129h141v-1483h-180z" />
    <glyph glyph-name="two.fitted" horiz-adv-x="928" vert-adv-y="2457" 
d="M25 0l0.000976562 116l36 47c166.667 214 288.334 374.667 365.001 482c72.667 102 123.667 186.667 153 254c36 82 54 156 54 222c0 68.667 -15.667 126.667 -47 174c-40 60 -106.667 90 -200 90c-98.667 0 -199.334 -28 -302.001 -84v132c102.667 47.333 210 71 322 71
c140.667 0 245 -34.333 313 -103c39.333 -40 67.666 -95 84.999 -165c9.33301 -36 14 -73 14 -111c0 -118 -42 -241 -126 -369c-73.333 -112.667 -228.333 -316.667 -465 -612l-17 -21h636v-123h-821z" />
    <glyph glyph-name="zero.denominator" horiz-adv-x="655" vert-adv-y="2457" 
d="M327 760c123.333 0 205.667 -46.999 247 -140.999c26.667 -59.333 40 -141.333 40 -246c0 -116.667 -16.667 -205.667 -50 -267c-43.333 -80 -122.333 -120 -237 -120c-122.667 0 -204.667 47 -246 141c-26.667 59.333 -40 142.666 -40 249.999
c0 114 16.667 201.667 50 263c43.333 80 122 120 236 120zM327.001 678.001c-52 0 -87.999 -30.666 -107.999 -91.999c-14.667 -46.667 -22 -116.334 -22 -209.001c0 -107.333 9.33301 -184.333 28 -231c20 -52 54 -78 102 -78c52.667 0 89 30.667 109 92
c14.667 46 22 117 22 213c0 105.333 -9 181 -27 227c-20.667 52 -55.334 78 -104.001 78z" />
    <glyph glyph-name="nine.denominator" horiz-adv-x="655" vert-adv-y="2457" 
d="M440 307c-39.333 -20 -86.6689 -29.999 -142.002 -29.999c-92 0 -160.667 27 -206 81c-31.333 37.333 -47 87.666 -47 150.999c0 60 13 110 39 150c44 67.333 123 101 237 101c114.667 0 193.334 -36 236.001 -108c28.667 -49.333 43 -125.333 43 -228
c0 -158 -25.667 -270.333 -77 -337c-51.333 -67.333 -138.333 -101 -261 -101c-58 0 -116 6.33301 -174 19v93c54.667 -20 109.334 -30 164.001 -30c74 0 124.667 27.333 152 82c18.667 36 30.667 88.333 36 157zM321.997 683.001c-80.667 0 -121 -54 -121 -162
s40.333 -162 121 -162c81.333 0 122 53.333 122 160c0 109.333 -40.667 164 -122 164z" />
    <glyph glyph-name="eight.denominator" horiz-adv-x="655" vert-adv-y="2457" 
d="M160 397c-65.333 34.667 -98 88.667 -98 162c0 134 88 201 264 201c176.667 0 265 -67 265 -201c0 -74 -32.333 -128 -97 -162c84 -40 126 -104.667 126 -194c0 -144.667 -97.667 -217 -293 -217s-293 72.667 -293 218c0 90 42 154.333 126 193zM326 683
c-72 0 -108 -42 -108 -126c0 -38.667 9 -69.667 27 -93c18 -22.667 44.667 -34 80 -34c73.333 0 110 42.333 110 127c0 84 -36.333 126 -109 126zM329 353c-92.667 0 -139.001 -48.668 -139.001 -146.001c0 -47.333 13 -84 39 -110c22.667 -22.667 55.334 -34 98.001 -34
c91.333 0 137 48.333 137 145c0 48.667 -13 85.334 -39 110.001c-24 23.333 -56 35 -96 35z" />
    <glyph glyph-name="seven.denominator" horiz-adv-x="655" vert-adv-y="2457" 
d="M134 0l301 664h-377v82h544v-51l-307 -695h-161z" />
    <glyph glyph-name="six.denominator" horiz-adv-x="655" vert-adv-y="2457" 
d="M219 453c39.333 18.667 85.999 28 139.999 28c92 0 160.333 -27.333 205 -82c31.333 -38.667 47 -90.334 47 -155.001c0 -172 -92.333 -258 -277 -258c-114 0 -192.333 36 -235 108c-28.667 48.667 -43 122.334 -43 221.001c0 158 29.667 272.667 89 344
c56 67.333 139 101 249 101c48.667 0 99 -6.33301 151 -19v-81c-45.333 12.667 -88.666 19 -129.999 19c-52.667 0 -94 -16 -124 -48c-34.667 -36.667 -58.667 -96 -72 -178zM332.999 404c-41.333 0 -72.668 -18.333 -94.001 -55c-18 -30 -27 -67.667 -27 -113
c0 -48.667 9 -88 27 -118c21.333 -36.667 53 -55 95 -55c42.667 0 74.334 19 95.001 57c17.333 32 26 69.667 26 113c0 44.667 -8.66699 82.667 -26 114c-21.333 38 -53.333 57 -96 57z" />
    <glyph glyph-name="five.denominator" horiz-adv-x="655" vert-adv-y="2457" 
d="M81 5v92.999c66 -20 130.667 -30 194 -30c106.667 0 160 53.333 160 160c0 58 -19.667 99.667 -59 125c-27.333 18 -72 27 -134 27h-149l26 366h431v-82h-295l-14 -202h30c107.333 0 185.333 -17 234 -51c57.333 -39.333 86 -100.666 86 -183.999
c0 -160.667 -104 -241 -312 -241c-73.333 0 -139.333 6.33301 -198 19z" />
    <glyph glyph-name="four.denominator" horiz-adv-x="655" vert-adv-y="2457" 
d="M399 172h-375v73l225 514h150l-220 -505h220v239h148v-239h94v-82h-94v-172h-148v172z" />
    <glyph glyph-name="three.denominator" horiz-adv-x="655" vert-adv-y="2457" 
d="M178 354l-0.00292969 82.001h68c50.667 0 88.334 11 113.001 33c30 26.667 45 60.667 45 102c0 71.333 -42.333 107 -127 107c-56 0 -118.333 -14.667 -187 -44v98c63.333 18.667 128 28 194 28c184 0 276 -62.667 276 -188c0 -72.667 -35.333 -127.334 -106 -164.001
c36 -10.667 64.333 -25 85 -43c36 -32 54 -81.667 54 -149c0 -153.333 -102.333 -230 -307 -230c-79.333 0 -149.666 12 -210.999 36v101c40.667 -20 72.334 -33.333 95.001 -40c32 -10 66.667 -15 104 -15c108.667 0 163 49.333 163 148c0 92 -53.333 138 -160 138h-99z
" />
    <glyph glyph-name="two.denominator" horiz-adv-x="655" vert-adv-y="2457" 
d="M51 0l0.00195312 75l220 230c56.667 62 94.334 108.333 113.001 139c24.667 40 37 78 37 114c0 31.333 -8.33301 57.333 -25 78c-22.667 28 -55.334 42 -98.001 42c-53.333 0 -122 -18.667 -206 -56v100c67.333 25.333 138.666 38 213.999 38
c180.667 0 271 -66.667 271 -200c0 -42.667 -8.66699 -80.667 -26 -114s-51 -78 -101 -134c-40.667 -45.333 -100.334 -108 -179.001 -188l-41 -42h364v-82h-543z" />
    <glyph glyph-name="Dieresis" horiz-adv-x="1024" vert-adv-y="2457" 
d="M345 1842c31.333 0 57.335 -11.666 78.002 -34.999c18 -20 27 -43.333 27 -70c0 -31.333 -11.333 -57.333 -34 -78c-20 -18 -44 -27 -72 -27c-30.667 0 -56.334 11.667 -77.001 35c-18 20 -27 44 -27 72c0 29.333 11.667 54.666 35 75.999c19.333 18 42.666 27 69.999 27
zM677.002 1842c31.333 0 57.335 -11.666 78.002 -34.999c18 -20 27 -43.333 27 -70c0 -30.667 -11.667 -56.667 -35 -78c-19.333 -18 -43 -27 -71 -27c-30.667 0 -56.334 11.667 -77.001 35c-18 20 -27 44 -27 72c0 29.333 11.667 54.666 35 75.999
c19.333 18 42.666 27 69.999 27z" />
    <glyph glyph-name="Dotaccent" horiz-adv-x="1024" vert-adv-y="2457" 
d="M510 1848c32.667 0 59.999 -12 81.999 -36c18.667 -21.333 28 -46 28 -74c0 -32.667 -12 -60 -36 -82c-20.667 -18.667 -45.667 -28 -75 -28c-32.667 0 -59.667 12 -81 36c-18.667 21.333 -28 46.666 -28 75.999c0 30.667 12 57.334 36 80.001
c20.667 18.667 45.334 28 74.001 28z" />
    <glyph glyph-name="Ring" horiz-adv-x="1024" vert-adv-y="2457" 
d="M512 1958c70 0 124.335 -20.001 163.002 -60.001c34.667 -36 52 -80.333 52 -133c0 -53.333 -17.333 -98 -52 -134c-38.667 -40 -93.334 -60 -164.001 -60c-69.333 0 -123.333 20 -162 60c-34.667 36 -52 81.333 -52 136c0 52.667 17.333 96.334 52 131.001
c39.333 40 93.666 60 162.999 60zM512.002 1888c-56 0 -84 -40.667 -84 -122c0 -83.333 28 -125 84 -125s84 41.333 84 124c0 82 -28 123 -84 123z" />
    <glyph glyph-name="Acute" horiz-adv-x="1024" vert-adv-y="2457" 
d="M389 1599l150 281h200l-209 -281h-141z" />
    <glyph glyph-name="Grave" horiz-adv-x="1024" vert-adv-y="2457" 
d="M494 1599l-209 281h200l150 -281h-141z" />
    <glyph glyph-name="Circumflex" horiz-adv-x="1024" vert-adv-y="2457" 
d="M512 1790l-148 -191h-149l208 281h178l208 -281h-149z" />
    <glyph glyph-name="Caron" horiz-adv-x="1024" vert-adv-y="2457" 
d="M512 1689l148 191h149l-208 -281h-178l-208 281h149z" />
    <glyph glyph-name="Breve" horiz-adv-x="1024" vert-adv-y="2457" 
d="M215 1874l139.001 0.000976562c4.66699 -36.667 12.667 -65.334 24 -86.001c22 -42 66.667 -63 134 -63c45.333 0 78.666 7.66699 99.999 23c30 22 49.333 64 58 126h139c-12 -178.667 -111 -268 -297 -268c-186.667 0 -285.667 89.333 -297 268z" />
    <glyph glyph-name="Tilde" horiz-adv-x="1024" vert-adv-y="2457" 
d="M322 1622l-122.998 0.000976562c8 59.333 21.667 108.666 41 147.999c31.333 64.667 85.666 97 162.999 97c46 0 87.333 -15 124 -45c15.333 -12 41.333 -37.667 78 -77c11.333 -12.667 22.666 -19 33.999 -19c23.333 0 41.333 21 54 63
c5.33301 18 8.66602 38.667 9.99902 62h123c-14.667 -163.333 -82.667 -245 -204 -245c-46 0 -87.333 15 -124 45c-23.333 18.667 -46.333 41 -69 67c-16.667 19.333 -31 29 -43 29c-23.333 0 -41.333 -21 -54 -63c-5.33301 -18 -8.66602 -38.667 -9.99902 -62z" />
    <glyph glyph-name="Hungarumlaut" horiz-adv-x="1024" vert-adv-y="2457" 
d="M296 1599l133 281h188l-193 -281h-128zM563 1599l133 281h187l-192 -281h-128z" />
    <glyph glyph-name="Cedilla" horiz-adv-x="1024" vert-adv-y="2457" 
d="M499 0h120l-55 -122c57.333 -7.33301 102.666 -18.333 135.999 -33c66 -28.667 99 -81 99 -157c0 -122 -87 -183 -261 -183c-56 0 -105.333 6 -148 18v92c44.667 -13.333 89.334 -20 134.001 -20c68.667 0 103 33 103 99c0 50.667 -19 82.667 -57 96
c-26 9.33301 -63.667 14 -113 14l-33 29z" />
    <glyph glyph-name="Ogonek" horiz-adv-x="1024" vert-adv-y="2457" 
d="M495 0l105 0.000976562c-32 -32 -57.333 -60.667 -76 -86c-42.667 -56.667 -64 -115.334 -64 -176.001c0 -95.333 42 -143 126 -143c39.333 0 78.333 6.66699 117 20v-92c-38 -12 -87.667 -18 -149 -18c-86 0 -153 18.667 -201 56c-43.333 34 -65 81.333 -65 142
c0 64 29.667 128 89 192c26.667 28.667 66 63.667 118 105z" />
    <glyph glyph-name="Macron" horiz-adv-x="1024" vert-adv-y="2457" 
d="M241 1686v100h543v-100h-543z" />
    <glyph glyph-name="one.denominator" horiz-adv-x="655" vert-adv-y="2457" 
d="M276 0v637l-150 -46v92l183 67h120v-750h-153z" />
    <glyph glyph-name="zero.numerator" horiz-adv-x="655" vert-adv-y="2457" 
d="M327 1504c123.333 0 205.667 -47.001 247 -141.001c26.667 -59.333 40 -141.666 40 -246.999c0 -116.667 -16.667 -205.667 -50 -267c-43.333 -80 -122.333 -120 -237 -120c-122 0 -204 47 -246 141c-26.667 59.333 -40 143 -40 251c0 114 16.667 201.667 50 263
c43.333 80 122 120 236 120zM327.001 1422c-52 0 -87.999 -30.667 -107.999 -92c-14.667 -46.667 -22 -116.667 -22 -210c0 -107.333 9.33301 -184.333 28 -231c20 -52 54 -78 102 -78c52.667 0 89 30.667 109 92c14.667 46.667 22 117.667 22 213
c0 105.333 -9 181.333 -27 228c-20.667 52 -55.334 78 -104.001 78z" />
    <glyph glyph-name="nine.numerator" horiz-adv-x="655" vert-adv-y="2457" 
d="M440 1050c-40 -20 -87.334 -29.998 -142.001 -29.998c-92 0 -160.667 27 -206 81c-31.333 37.333 -47 88 -47 152c0 60 13 110 39 150c44 67.333 123 101 237 101c114.667 0 193.334 -36.333 236.001 -109c28.667 -48.667 43 -124.334 43 -227.001
c0 -158.667 -25.667 -271.334 -77 -338.001c-51.333 -67.333 -138.333 -101 -261 -101c-58 0 -116 6.33301 -174 19v94c55.333 -20.667 110 -31 164 -31c74 0 124.667 27.333 152 82c18.667 36 30.667 88.333 36 157zM321.999 1427c-80.667 0 -121 -54.333 -121 -163
c0 -108 40.333 -162 121 -162c81.333 0 122 53.667 122 161c0 109.333 -40.667 164 -122 164z" />
    <glyph glyph-name="eight.numerator" horiz-adv-x="655" vert-adv-y="2457" 
d="M160 1140c-65.333 34.667 -98 89 -98 163c0 134 88 201 264 201c176.667 0 265 -67 265 -201c0 -74 -32.333 -128.333 -97 -163c84 -40 126 -104.667 126 -194c0 -144.667 -97.667 -217 -293 -217s-293 72.667 -293 218c0 90 42 154.333 126 193zM326 1427
c-72 0 -108 -41.999 -108 -125.999c0 -38.667 9 -69.334 27 -92.001c18 -23.333 44.667 -35 80 -35c73.333 0 110 42.333 110 127c0 38 -9 68.667 -27 92c-18 22.667 -45.333 34 -82 34zM329 1097c-92.667 0 -139.001 -48.667 -139.001 -146c0 -48 13 -85 39 -111
c22.667 -22.667 55.334 -34 98.001 -34c91.333 0 137 48.333 137 145c0 48.667 -13 85.667 -39 111c-24 23.333 -56 35 -96 35z" />
    <glyph glyph-name="seven.numerator" horiz-adv-x="655" vert-adv-y="2457" 
d="M134 743l301 664h-377v82h544v-51l-307 -695h-161z" />
    <glyph glyph-name="six.numerator" horiz-adv-x="655" vert-adv-y="2457" 
d="M219 1196c39.333 19.333 86 29 140 29c92 0 160.333 -27.333 205 -82c31.333 -39.333 47 -91 47 -155c0 -172.667 -92.333 -259 -277 -259c-114 0 -192.333 36 -235 108c-28.667 48.667 -43 122.667 -43 222c0 158 29.667 272.667 89 344c56 67.333 139 101 249 101
c50 0 100.333 -6.66699 151 -20v-81c-44.667 13.333 -88 20 -130 20c-52.667 0 -94 -16.333 -124 -49c-34.667 -36 -58.667 -95.333 -72 -178zM333 1148c-41.333 0 -72.668 -18.333 -94.001 -55c-18 -30.667 -27 -68.667 -27 -114c0 -48 9 -87.333 27 -118
c21.333 -36.667 53 -55 95 -55c42.667 0 74.334 19 95.001 57c17.333 32 26 70 26 114c0 44.667 -8.66699 82.667 -26 114c-21.333 38 -53.333 57 -96 57z" />
    <glyph glyph-name="five.numerator" horiz-adv-x="655" vert-adv-y="2457" 
d="M81 748v92.999c65.333 -20 130 -30 194 -30c106.667 0 160 53.333 160 160c0 58 -19.667 99.667 -59 125c-27.333 18 -72 27 -134 27h-149l26 366h431v-82h-295l-14 -202h30c107.333 0 185.333 -17 234 -51c57.333 -39.333 86 -100.666 86 -183.999
c0 -160.667 -104 -241 -312 -241c-73.333 0 -139.333 6.33301 -198 19z" />
    <glyph glyph-name="four.numerator" horiz-adv-x="655" vert-adv-y="2457" 
d="M399 914h-375v73l225 514h150l-220 -505h220v240h148v-240h94v-82h-94v-171h-148v171z" />
    <glyph glyph-name="three.numerator" horiz-adv-x="655" vert-adv-y="2457" 
d="M178 1097v82.001h68c50.667 0 88.334 11 113.001 33c30 26.667 45 60.667 45 102c0 72 -42.333 108 -127 108c-56 0 -118.333 -14.667 -187 -44v98c62 18.667 126.667 28 194 28c184 0 276 -63 276 -189c0 -72.667 -35.333 -127.334 -106 -164.001
c36 -10.667 64.333 -25 85 -43c36 -31.333 54 -81 54 -149c0 -153.333 -102.333 -230 -307 -230c-80 0 -150.333 12 -211 36v101c73.333 -36.667 139.666 -55 198.999 -55c108.667 0 163 49.333 163 148c0 92 -53.333 138 -160 138h-99z" />
    <glyph glyph-name="two.numerator" horiz-adv-x="655" vert-adv-y="2457" 
d="M51 743l0.000976562 75l21 22c116.667 120.667 193 201 229 241c45.333 50.667 76 91.334 92 122.001c18.667 34.667 28 67.334 28 98.001c0 32 -8.33301 58.333 -25 79c-22.667 28 -55.334 42 -98.001 42c-54 0 -122.667 -19 -206 -57v100c66 26 137.333 39 214 39
c180.667 0 271 -67 271 -201c0 -64.667 -25 -127.334 -75 -188.001c-37.333 -44.667 -128 -141.334 -272 -290.001h364v-82h-543z" />
    <glyph glyph-name="one.numerator" horiz-adv-x="655" vert-adv-y="2457" 
d="M276 743v638l-150 -46v91l183 67h120v-750h-153z" />
    <glyph glyph-name="zerooldstyle" horiz-adv-x="1075" vert-adv-y="2457" 
d="M537 1082c161.333 0 279.999 -59.668 355.999 -179.001c56 -88 84 -213.667 84 -377c0 -179.333 -34.667 -314 -104 -404c-77.333 -100.667 -189.333 -151 -336 -151c-160 0 -278.333 59.667 -355 179c-56 86.667 -84 214.334 -84 383.001c0 175.333 34.667 308 104 398
c76.667 100.667 188.334 151 335.001 151zM536.999 972.999c-170 0 -255.001 -147 -255.001 -441c0 -153.333 20.333 -266 61 -338c42.667 -76 107.334 -114 194.001 -114c94.667 0 163.667 45.333 207 136c32.667 69.333 49 173 49 311c0 150 -20.333 260.667 -61 332
c-42.667 76 -107.667 114 -195 114z" />
    <glyph glyph-name="nineoldstyle" horiz-adv-x="1049" vert-adv-y="2457" 
d="M754 272c-23.333 -28 -43 -48 -59 -60c-56.667 -45.333 -129.667 -68 -219 -68c-138.667 0 -242.334 53.333 -311.001 160c-50 76.667 -75 174 -75 292c0 110.667 20.667 206 62 286c68.667 133.333 189.334 200 362.001 200c170.667 0 289.667 -71.667 357 -215
c46 -98.667 69 -247.667 69 -447c0 -194.667 -15.333 -354.334 -46 -479.001c-63.333 -260.667 -223.333 -391 -480 -391c-84 0 -168 11 -252 33v128c91.333 -28 175 -42 251 -42c151.333 0 249.333 76.333 294 229c20.667 71.333 34.667 161.333 42 270
c1.33301 22.667 3 57.334 5 104.001zM514 973c-89.333 0 -153 -40.667 -191 -122c-32.667 -68.667 -49 -151.667 -49 -249c0 -88.667 15 -163 45 -223c37.333 -77.333 98.333 -116 183 -116c68 0 125 26 171 78c55.333 62.667 83 151 83 265
c0 101.333 -16.333 184.333 -49 249c-40 78.667 -104.333 118 -193 118z" />
    <glyph glyph-name="eightoldstyle" horiz-adv-x="1049" vert-adv-y="2457" 
d="M310 785c-44 25.333 -76.332 48.333 -96.999 69c-62 62.667 -93 150.667 -93 264c0 114 32 206 96 276c67.333 73.333 170 110 308 110c137.333 0 239.666 -36.667 306.999 -110c64 -70 96 -162 96 -276c0 -121.333 -35.333 -213.333 -106 -276
c-18 -16.667 -46 -35.667 -84 -57c66.667 -35.333 114.667 -71 144 -107c62 -75.333 93 -172.333 93 -291c0 -277.333 -150 -416 -450 -416c-300.667 0 -451 138.333 -451 415c0 138 40.333 245.667 121 323c22 20.667 60.667 46 116 76zM524.001 1395
c-73.333 0 -128.666 -25.667 -165.999 -77c-36 -49.333 -54 -117.666 -54 -204.999c0 -86.667 18 -155.334 54 -206.001c37.333 -51.333 91.333 -77 162 -77c75.333 0 131.666 25.667 168.999 77c36 50.667 54 119.667 54 207c0 86.667 -18 154.667 -54 204
c-38 51.333 -93 77 -165 77zM528.001 721c-180.667 0 -271 -107.667 -271 -323c0 -212 89.667 -318 269 -318c176 0 264 106.333 264 319c0 214.667 -87.333 322 -262 322z" />
    <glyph glyph-name="sevenoldstyle" horiz-adv-x="879" vert-adv-y="2457" 
d="M146 -422l501 1352h-641v123h831v-69l-506 -1406h-185z" />
    <glyph glyph-name="sixoldstyle" horiz-adv-x="1049" vert-adv-y="2457" 
d="M294 807c27.333 31.333 51.3301 54.334 71.9971 69.001c55.333 38.667 124 58 206 58c138.667 0 242.667 -54.333 312 -163c49.333 -78 74 -177 74 -297c0 -114.667 -20.667 -213.334 -62 -296.001c-68.667 -138 -190 -207 -364 -207
c-169.333 0 -287.666 71.333 -354.999 214c-46 98.667 -69 244 -69 436c0 588.667 174.667 883 524 883c71.333 0 143 -11.333 215 -34v-128c-79.333 28.667 -149.333 43 -210 43c-85.333 0 -154.666 -34 -207.999 -102c-55.333 -70 -93.666 -172 -114.999 -306
c-8 -49.333 -14.667 -106 -20 -170zM544.997 825.001c-66.667 0 -123 -27.667 -169 -83c-56 -66.667 -84 -159.667 -84 -279c0 -104 16.333 -190.667 49 -260c39.333 -82 103.333 -123 192 -123c90 0 154 42.333 192 127c32.667 71.333 49 158 49 260
c0 94 -15 172.333 -45 235c-38.667 82 -100 123 -184 123z" />
    <glyph glyph-name="fiveoldstyle" horiz-adv-x="983" vert-adv-y="2457" 
d="M101 -421l0.00195312 131c78 -28 163.333 -42 256 -42c137.333 0 230.666 38.667 279.999 116c36.667 58 55 137.333 55 238c0 130 -36.333 221.667 -109 275c-50.667 38 -134 57 -250 57h-210l40 699h645v-123h-491l-26 -457h89c166 0 287.667 -34.333 365 -103
c87.333 -78.667 131 -196 131 -352c0 -312.667 -170.667 -469 -512 -469c-98.667 0 -186.334 10 -263.001 30z" />
    <glyph glyph-name="fouroldstyle" horiz-adv-x="1016" vert-adv-y="2457" 
d="M626 0h-596v117l409 936h182l-410 -930h415v379h172v-379h182v-123h-182v-422h-172v422z" />
    <glyph glyph-name="threeoldstyle" horiz-adv-x="942" vert-adv-y="2457" 
d="M239 301l-0.000976562 119h76c99.333 0 172 23.667 218 71c55.333 56 83 132.667 83 230c0 161.333 -83.333 242 -250 242c-89.333 0 -180.666 -21 -273.999 -63v132c87.333 33.333 182.666 50 285.999 50c138.667 0 243.334 -29.667 314.001 -89
c72 -60.667 108 -150 108 -268c0 -105.333 -29.333 -190 -88 -254c-26.667 -28.667 -69.667 -58.667 -129 -90c65.333 -16.667 117 -40 155 -70c78.667 -63.333 118 -165.666 118 -306.999c0 -166.667 -46.667 -286 -140 -358c-84 -64.667 -207 -97 -369 -97
c-108 0 -201.333 11.333 -280 34v133c81.333 -32.667 166 -49 254 -49c113.333 0 196.333 20 249 60c68 51.333 102 140.666 102 267.999c0 124 -33.667 210.333 -101 259c-44 31.333 -112.333 47 -205 47h-127z" />
    <glyph glyph-name="twooldstyle" horiz-adv-x="898" vert-adv-y="2457" 
d="M38 0l-0.00195312 122.997l42 35c146.667 122 262.667 222 348 300c64 60 109.667 107.333 137 142c38.667 50.667 58 105.667 58 165c0 54 -15.667 98.333 -47 133c-39.333 43.333 -97.666 65 -174.999 65c-98 0 -198 -28 -300 -84v132c91.333 47.333 198 71 320 71
c120 0 212.667 -25 278 -75c72.667 -55.333 109 -133.666 109 -234.999c0 -75.333 -27 -147.666 -81 -216.999c-28.667 -38 -77.667 -88.167 -147 -150.5s-179.666 -156.166 -330.999 -281.499h580v-123h-791z" />
    <glyph glyph-name="oneoldstyle" horiz-adv-x="696" vert-adv-y="2457" 
d="M287 0v916l-250 -93v117l289 129h141v-1069h-180z" />
    <glyph glyph-name="yen.fitted" horiz-adv-x="1049" vert-adv-y="2457" 
d="M432 0v269h-350v109h350v138h-350v109h330l-396 850h199l330 -746l313 746h163l-387 -850h322v-109h-340v-138h340v-109h-340v-269h-184z" />
    <glyph glyph-name="Euro.fitted" horiz-adv-x="1079" vert-adv-y="2457" 
d="M41 520v108.999h147c-1.33301 24.667 -2 47 -2 67c0 9.33301 0.666992 33.333 2 72h-147v109h154c17.333 140 46 250 86 330c99.333 198 269.666 297 510.999 297c84 0 156.667 -11.333 218 -34v-128c-82 28.667 -153.667 43 -215 43c-88 0 -159.333 -18.333 -214 -55
c-86.667 -59.333 -144.334 -160.666 -173.001 -303.999c-8 -42 -15 -91.667 -21 -149h531v-109h-538c-0.666992 -19.333 -1 -41.333 -1 -66c0 -28 0.333008 -52.333 1 -73h538v-109h-530c8.66699 -80.667 25.334 -151 50.001 -211c60.667 -146 177.667 -219 351 -219
c68 0 145.667 14.333 233 43v-128c-66 -22.667 -145.333 -34 -238 -34c-271.333 0 -449.666 107.667 -534.999 323c-24 58.667 -41.333 134 -52 226h-156z" />
    </font>
</defs>
</svg>
