<?xml version="1.0" standalone="no"?>
<!DOCTYPE svg PUBLIC "-//W3C//DTD SVG 1.1//EN" "http://www.w3.org/Graphics/SVG/1.1/DTD/svg11.dtd" >
<svg>
<metadata>
Created by FontForge 20090914 at Mon Jul  4 01:54:04 2016
 By www-data
2010 by Digital Type, Hamburg, Germany
</metadata>
<defs>
<font id="FujitsuSans-Medium" horiz-adv-x="1081" vert-adv-y="2048" >
  <font-face 
    font-family="Fujitsu Sans Medium"
    font-weight="500"
    font-stretch="semi-condensed"
    units-per-em="2048"
    panose-1="2 11 5 4 6 2 2 2 2 4"
    ascent="1638"
    descent="-410"
    x-height="1053"
    cap-height="1475"
    bbox="-325 -572 2259 1991"
    underline-thickness="127"
    underline-position="-209"
    unicode-range="U+0020-U+FB02"
  />
<missing-glyph horiz-adv-x="492" vert-adv-y="2457" 
d="M49 0v1475h394v-1475h-394zM394 49v1377h-296v-1377h296z" />
    <glyph glyph-name="fi" unicode="fi" horiz-adv-x="1192" vert-adv-y="2457" 
d="M156 0v1081c0 115.333 8 207.333 24 276c24.667 104.667 82 171.334 172 200.001c60 18.667 128.667 28 206 28h101v-131h-43c-92.667 0 -153 -20.333 -181 -61c-29.333 -42.667 -44 -129.667 -44 -261v-79h252v-142h-252v-911h-235zM794 -0.000976562v1053h235v-1053
h-235zM910 1482c40.667 0 74.332 -15 100.999 -45c23.333 -26 35 -56.667 35 -92c0 -40 -15 -73.667 -45 -101c-26 -23.333 -57 -35 -93 -35c-39.333 0 -72.666 15 -99.999 45c-23.333 26 -35 57.333 -35 94c0 38 15 71 45 99c25.333 23.333 56 35 92 35z" />
    <glyph glyph-name="fl" unicode="fl" horiz-adv-x="1183" vert-adv-y="2457" 
d="M156 0v1081c0 115.333 8 207.333 24 276c24.667 104.667 82 171.334 172 200.001c60 18.667 128.667 28 206 28h101v-131h-43c-92.667 0 -153 -20.333 -181 -61c-29.333 -42.667 -44 -129.667 -44 -261v-79h252v-142h-252v-911h-235zM789 -0.000976562v1585h235v-1585
h-235z" />
    <glyph glyph-name=".notdef" horiz-adv-x="492" vert-adv-y="2457" 
d="M49 0v1475h394v-1475h-394zM394 49v1377h-296v-1377h296z" />
    <glyph glyph-name="space" unicode=" " horiz-adv-x="492" vert-adv-y="2457" 
 />
    <glyph glyph-name="exclam" unicode="!" horiz-adv-x="699" vert-adv-y="2457" 
d="M251 455l-33 1020h263l-34 -1020h-196zM349 271c44.667 0 82 -16.667 112 -50c25.333 -28 38 -61.333 38 -100c0 -44.667 -16.333 -82 -49 -112c-28.667 -25.333 -62.667 -38 -102 -38c-44 0 -80.667 16.333 -110 49c-26 28.667 -39 63 -39 103
c0 42.667 16.667 79 50 109c28 26 61.333 39 100 39z" />
    <glyph glyph-name="quotedbl" unicode="&#x22;" horiz-adv-x="789" vert-adv-y="2457" 
d="M122 879l-23 596h238l-24 -596h-191zM476 879l-24 596h238l-23 -596h-191z" />
    <glyph glyph-name="numbersign" unicode="#" vert-adv-y="2457" 
d="M245 622l26 213h-143v144h159l57 496h190l-57 -496h188l57 496h185l-56 -496h150v-144h-165l-25 -213h141v-144h-157l-53 -478h-191l56 478h-189l-54 -478h-191l56 478h-150v144h166zM434 622h189l26 213h-188z" />
    <glyph glyph-name="dollar" unicode="$" vert-adv-y="2457" 
d="M478 131v555.997c-102.667 48.667 -179.667 92.334 -231 131.001c-61.333 46 -105 92.667 -131 140c-25.333 46.667 -38 99.667 -38 159c0 92 28.333 169.667 85 233c64 71.333 169 116 315 134v205h144v-198c106.667 -3.33301 206 -20.333 298 -51v-155
c-97.333 41.333 -196.666 63 -297.999 65v-511c115.333 -53.333 195.666 -98 240.999 -134c105.333 -85.333 158 -192.333 158 -321c0 -103.333 -32.333 -188.666 -97 -255.999c-65.333 -68 -166 -110.333 -302 -127v-222h-144v212
c-162 0.666992 -301.333 22.334 -418 65.001v167c100 -46 189.667 -74 269 -84c40 -5.33301 89.667 -8 149 -8zM622 152.997c119.333 38.667 179 110.999 179 216.999c0 72 -27.667 133 -83 183c-14 12.667 -46 34.334 -96 65.001v-465zM478 911.996v421.001
c-40.667 -10.667 -72.667 -22.334 -96 -35.001c-56.667 -32 -85 -87 -85 -165c0 -61.333 22 -110.333 66 -147c26.667 -22 65 -46.667 115 -74z" />
    <glyph glyph-name="percent" unicode="%" horiz-adv-x="1604" vert-adv-y="2457" 
d="M382 1504c128 0 215.332 -44.001 261.999 -132.001c32 -60.667 48 -146 48 -256c0 -120.667 -19.667 -212 -59 -274c-48 -75.333 -131.667 -113 -251 -113c-128 0 -215.333 44 -262 132c-32 60.667 -48 147.334 -48 260.001c0 118.667 19.667 208.667 59 270
c48.667 75.333 132.334 113 251.001 113zM381.999 1411c-44.667 0 -75.335 -29.667 -92.002 -89c-12.667 -45.333 -19 -112.666 -19 -201.999c0 -102.667 7.66699 -177 23 -223c16.667 -50 46 -75 88 -75c44.667 0 75.334 29.667 92.001 89c12.667 44.667 19 113 19 205
c0 101.333 -7.66699 174.666 -23 219.999c-17.333 50 -46.666 75 -87.999 75zM398.998 -0.000976562l655 1475h151l-655 -1475h-151zM1222 759.999c128 0 215.333 -44.001 262 -132.001c32 -60 48 -145 48 -255c0 -121.333 -19.667 -213 -59 -275
c-48 -74.667 -131.667 -112 -251 -112c-128 0 -215.333 44 -262 132c-32 60.667 -48 147.334 -48 260.001c0 118 19.667 208 59 270c48 74.667 131.667 112 251 112zM1222 666.998c-44.667 0 -75.334 -29.667 -92.001 -89c-12.667 -44.667 -19 -111.667 -19 -201
c0 -102.667 7.66699 -177 23 -223c16.667 -50 46 -75 88 -75c44.667 0 75.334 29.667 92.001 89c12.667 44.667 19 113 19 205c0 100.667 -7.66699 173.667 -23 219c-16.667 50 -46 75 -88 75z" />
    <glyph glyph-name="ampersand" unicode="&#x26;" horiz-adv-x="1328" vert-adv-y="2457" 
d="M404 815c-90 130 -135 249.333 -135 358c0 96.667 29.667 175.667 89 237c62 62.667 150 94 264 94c120.667 0 211 -34 271 -102c48 -54.667 72 -124.334 72 -209.001c0 -115.333 -48.333 -212.666 -145 -291.999c-30.667 -26 -84.667 -61 -162 -105l277 -380
c66.667 123.333 111 266.666 133 429.999h206c-26 -233.333 -102 -432 -228 -596l184 -250h-252l-78 98c-108.667 -86 -232.334 -129 -371.001 -129c-135.333 0 -241.666 35 -318.999 105c-80 72.667 -120 172.334 -120 299.001c0 186 104.667 333.333 314 442zM584 912
c45.333 24.667 78.666 49.666 99.999 74.999c43.333 52.667 65 124.667 65 216c0 56.667 -11.667 100.667 -35 132c-23.333 32 -55 48 -95 48c-44 0 -78 -18.667 -102 -56c-21.333 -32.667 -32 -77.334 -32 -134.001c0 -69.333 14 -132.666 42 -189.999
c10.667 -21.333 24 -43.666 40 -66.999c10.667 -16 16.334 -24 17.001 -24zM486 682.999c-42 -28.667 -72.333 -54.667 -91 -78c-42 -54.667 -63 -126 -63 -214c0 -101.333 25.667 -179.333 77 -234c40 -42.667 92 -64 156 -64c87.333 0 170 42.667 248 128z" />
    <glyph glyph-name="quotesingle" unicode="'" horiz-adv-x="435" vert-adv-y="2457" 
d="M122 879l-23 596h238l-24 -596h-191z" />
    <glyph glyph-name="parenleft" unicode="(" horiz-adv-x="818" vert-adv-y="2457" 
d="M688 -355l-114 -67.999c-87.333 124 -154 246.667 -200 368c-81.333 213.333 -122 437.666 -122 672.999c0 252 46.333 490.333 139 715c42.667 104.667 103.667 213 183 325l114 -68c-127.333 -286.667 -191 -610.667 -191 -972c0 -362 63.667 -686.333 191 -973z" />
    <glyph glyph-name="parenright" unicode=")" horiz-adv-x="818" vert-adv-y="2457" 
d="M244 -423l-114 68c126.667 288.667 190 613 190 973s-63.333 684 -190 972l114 68c214 -304 321 -650.667 321 -1040c0 -390 -107 -737 -321 -1041z" />
    <glyph glyph-name="asterisk" unicode="*" vert-adv-y="2457" 
d="M419 1144l-335 82l64 195l320 -130l-26 345h206l-26 -345l320 130l64 -195l-335 -82l224 -265l-166 -121l-184 297l-184 -297l-167 121z" />
    <glyph glyph-name="plus" unicode="+" vert-adv-y="2457" 
d="M113 566v152h344v366h169v-366h343v-152h-343v-365h-169v365h-344z" />
    <glyph glyph-name="comma" unicode="," horiz-adv-x="541" vert-adv-y="2457" 
d="M112 -319l56 571h240l-142 -571h-154z" />
    <glyph glyph-name="hyphen" unicode="-" horiz-adv-x="739" vert-adv-y="2457" 
d="M95 524v152h550v-152h-550z" />
    <glyph glyph-name="period" unicode="." horiz-adv-x="541" vert-adv-y="2457" 
d="M270 271c44 0 81.333 -16.667 112 -50c25.333 -28 38 -61.333 38 -100c0 -44.667 -16.333 -82 -49 -112c-28.667 -25.333 -62.667 -38 -102 -38c-44 0 -80.667 16.333 -110 49c-26 28.667 -39 63 -39 103c0 42.667 16.667 79 50 109c28.667 26 62 39 100 39z" />
    <glyph glyph-name="slash" unicode="/" horiz-adv-x="589" vert-adv-y="2457" 
d="M6 0l387 1475h191l-388 -1475h-190z" />
    <glyph glyph-name="zero" unicode="0" vert-adv-y="2457" 
d="M544 1504c184.667 0 310.667 -82.334 378 -247.001c46 -112 69 -285 69 -519c0 -257.333 -28.667 -443 -86 -557c-70 -140 -191.333 -210 -364 -210c-185.333 0 -312.333 82.333 -381 247c-46 110.667 -69 286.667 -69 528c0 252.667 28.667 435.334 86 548.001
c70.667 140 193 210 367 210zM541 1363c-84.667 0 -143.002 -65 -175.002 -195c-22 -89.333 -33 -229.666 -33 -420.999c0 -220.667 13.667 -376.667 41 -468c17.333 -58.667 39.333 -101.334 66 -128.001c26.667 -26 60.334 -39 101.001 -39
c54.667 0 97.334 24.333 128.001 73c34 54 56.667 137.333 68 250c8 76 12 177.333 12 304c0 215.333 -13.333 368 -40 458c-32.667 110.667 -88.667 166 -168 166z" />
    <glyph glyph-name="one" unicode="1" vert-adv-y="2457" 
d="M448 0v1285l-250 -93v140l307 147h176v-1479h-233z" />
    <glyph glyph-name="two" unicode="2" vert-adv-y="2457" 
d="M83 0l0.000976562 131.002l53 69c179.333 235.333 301.333 399.666 366 492.999c62.667 91.333 106 166 130 224c27.333 65.333 41 129.666 41 192.999c0 168.667 -81 253 -243 253c-91.333 0 -187.333 -25.333 -288 -76v152c99.333 43.333 209.333 65 330 65
c151.333 0 263.666 -35.667 336.999 -107c71.333 -68.667 107 -162 107 -280c0 -94 -28.667 -191 -86 -291c-70.667 -124 -239.667 -349 -507 -675h619v-151h-859z" />
    <glyph glyph-name="three" unicode="3" vert-adv-y="2457" 
d="M309 708l0.00195312 139.998h61c56 0 99.333 5 130 15c101.333 34 152 120.667 152 260c0 78.667 -16.667 137.334 -50 176.001c-36.667 42.667 -97.667 64 -183 64c-86.667 0 -179.667 -22 -279 -66v153c98.667 36 200.667 54 306 54c149.333 0 262.333 -32.667 339 -98
c72.667 -62.667 109 -151 109 -265c0 -102.667 -27.333 -183.667 -82 -243c-32.667 -34.667 -77.334 -64.667 -134.001 -90c74.667 -28 128.667 -57.333 162 -88c72 -65.333 108 -163.333 108 -294c0 -156 -44.667 -272.667 -134 -350c-81.333 -70 -205 -105 -371 -105
c-88.667 0 -162.667 5.66699 -222 17c-28 5.33301 -65.333 15.333 -112 30v168c92.667 -50 192 -75 298 -75c114.667 0 194.667 29.333 240 88c39.333 51.333 59 125 59 221c0 116.667 -31 198.334 -93 245.001c-38.667 28.667 -105.334 43 -200.001 43h-104z" />
    <glyph glyph-name="four" unicode="4" vert-adv-y="2457" 
d="M629 0v344h-560v144l405 987h233l-413 -984h335v360h224v-360h163v-147h-163v-344h-224z" />
    <glyph glyph-name="five" unicode="5" vert-adv-y="2457" 
d="M133 12v157c94.667 -38.667 195.667 -58 303 -58c113.333 0 191 33.667 233 101c34.667 54.667 52 131.667 52 231c0 123.333 -33.667 209.333 -101 258c-50.667 36.667 -133.334 55 -248.001 55h-198l40 719h673v-147h-468l-24 -432h66c168 0 290.333 -32.667 367 -98
c90 -76.667 135 -195 135 -355c0 -174 -50.333 -300.333 -151 -379c-79.333 -62 -199.666 -93 -360.999 -93c-118.667 0 -224.667 13.667 -318 41z" />
    <glyph glyph-name="six" unicode="6" vert-adv-y="2457" 
d="M352 858c64.667 64 147.667 96 249 96c142.667 0 247.334 -50.667 314.001 -152c53.333 -81.333 80 -187 80 -317c0 -128.667 -23 -236.667 -69 -324c-66.667 -128 -191 -192 -373 -192c-180 0 -304.333 70.333 -373 211c-49.333 100.667 -74 253.334 -74 458.001
c0 577.333 180.333 866 541 866c76.667 0 152 -12 226 -36v-150c-66.667 30 -137.334 45 -212.001 45c-74 0 -134.667 -27 -182 -81c-49.333 -56 -84.333 -138.667 -105 -248c-8.66699 -46.667 -16 -105.334 -22 -176.001zM560 822c-66.667 0 -118.667 -34.333 -156 -103
c-37.333 -69.333 -56 -153.333 -56 -252c0 -93.333 13 -174 39 -242c31.333 -83.333 87 -125 167 -125c60.667 0 107.667 28.667 141 86c38.667 66 58 160 58 282c0 130 -21.667 225.667 -65 287c-32 44.667 -74.667 67 -128 67z" />
    <glyph glyph-name="seven" unicode="7" vert-adv-y="2457" 
d="M244 0l502 1328h-618v147h849v-87l-488 -1388h-245z" />
    <glyph glyph-name="eight" unicode="8" vert-adv-y="2457" 
d="M315 780c-49.333 25.333 -85.999 51.667 -109.999 79c-55.333 62 -83 146.667 -83 254c0 124 35.667 221.333 107 292c68 67.333 172 101 312 101c139.333 0 243.333 -33.667 312 -101c70.667 -70.667 106 -168 106 -292c0 -115.333 -31.667 -204.666 -95 -267.999
c-21.333 -20.667 -54.333 -42.334 -99 -65.001c161.333 -66.667 242 -199 242 -397c0 -139.333 -43.667 -245 -131 -317c-78.667 -64.667 -190.334 -97 -335.001 -97c-145.333 0 -257.333 32.333 -336 97c-87.333 72 -131 177.667 -131 317c0 198 80.333 330.333 241 397z
M541.001 1378c-62.667 0 -109.667 -23.665 -141 -70.998c-31.333 -46.667 -47 -112.334 -47 -197.001s15.667 -150.334 47 -197.001c31.333 -47.333 77.333 -71 138 -71c126.667 0 190 90 190 270c0 84.667 -15.667 149.667 -47 195c-32 47.333 -78.667 71 -140 71z
M544.001 707.003c-77.333 0 -134 -23.333 -170 -70c-40.667 -53.333 -61 -132.333 -61 -237c0 -202 76 -303 228 -303c151.333 0 227 101.333 227 304c0 204 -74.667 306 -224 306z" />
    <glyph glyph-name="nine" unicode="9" vert-adv-y="2457" 
d="M730 650c-64.667 -64 -149.002 -96.001 -253.002 -96.001c-139.333 0 -242.666 49 -309.999 147c-53.333 77.333 -80 179.333 -80 306c0 123.333 23.333 226.333 70 309c70 125.333 194 188 372 188c179.333 0 303.333 -70.667 372 -212
c49.333 -101.333 74 -257.666 74 -468.999c0 -298 -40.333 -515 -121 -651c-80 -135.333 -220 -203 -420 -203c-91.333 0 -183 14 -275 42v152c80.667 -35.333 167.334 -53 260.001 -53c132.667 0 219.667 63.333 261 190c20.667 62 34.667 139.667 42 233zM529.998 1373
c-77.333 0 -130.668 -36.666 -160.001 -109.999c-27.333 -68 -41 -147 -41 -237c0 -86 13 -160.667 39 -224c28.667 -71.333 80.334 -107 155.001 -107c66 0 116.333 29 151 87c39.333 65.333 59 147.666 59 246.999c0 229.333 -67.667 344 -203 344z" />
    <glyph glyph-name="colon" unicode=":" horiz-adv-x="541" vert-adv-y="2457" 
d="M270 271c44 0 81.333 -16.667 112 -50c25.333 -28 38 -61.333 38 -100c0 -44.667 -16.333 -82 -49 -112c-28.667 -25.333 -62.667 -38 -102 -38c-44 0 -80.667 16.333 -110 49c-26 28.667 -39 63 -39 103c0 42.667 16.667 79 50 109c28.667 26 62 39 100 39zM270 1062
c44.667 0 82 -16.668 112 -50.001c25.333 -28 38 -61.333 38 -100c0 -44.667 -16.333 -82 -49 -112c-28.667 -25.333 -62.667 -38 -102 -38c-44 0 -80.667 16.333 -110 49c-26 28.667 -39 63.334 -39 104.001c0 42 16.667 78 50 108c28 26 61.333 39 100 39z" />
    <glyph glyph-name="semicolon" unicode=";" horiz-adv-x="541" vert-adv-y="2457" 
d="M112 -319l56 571h240l-142 -571h-154zM273 1062c44.667 0 82 -16.668 112 -50.001c25.333 -28 38 -61.333 38 -100c0 -44.667 -16.333 -82 -49 -112c-28.667 -25.333 -62.667 -38 -102 -38c-44 0 -81 16.333 -111 49c-25.333 28.667 -38 63.334 -38 104.001
c0 42 16.667 78.333 50 109c28 25.333 61.333 38 100 38z" />
    <glyph glyph-name="less" unicode="&#x3c;" vert-adv-y="2457" 
d="M314 643l637 -345v-180l-873 480v88l873 479v-179z" />
    <glyph glyph-name="equal" unicode="=" vert-adv-y="2457" 
d="M113 390v152h856v-152h-856zM113 743v152h856v-152h-856z" />
    <glyph glyph-name="greater" unicode="&#x3e;" vert-adv-y="2457" 
d="M768 641l-637 345v179l873 -480v-88l-873 -479v179z" />
    <glyph glyph-name="question" unicode="?" horiz-adv-x="855" vert-adv-y="2457" 
d="M460 454h-192v49c0 85.333 9.33301 150.666 28 195.999c14.667 34.667 34.667 69.334 60 104.001l84 107c30 37.333 56 76 78 116c23.333 41.333 35 86.333 35 135c0 134.667 -74.333 202 -223 202c-64.667 0 -138.667 -11.667 -222 -35v144c84 21.333 174.667 32 272 32
c138.667 0 242 -30 310 -90c70 -60.667 105 -141.667 105 -243c0 -86.667 -24.333 -167 -73 -241c-26 -39.333 -84 -105.333 -174 -198c-43.333 -44 -69.333 -86 -78 -126c-6.66699 -28 -10 -59.333 -10 -94v-58zM380 271c44 0 81 -16.666 111 -49.999
c26 -28 39 -61.333 39 -100c0 -44.667 -16.667 -82 -50 -112c-28 -25.333 -61.667 -38 -101 -38c-44 0 -81 16.333 -111 49c-25.333 28.667 -38 63 -38 103c0 43.333 16.667 79.666 50 108.999c28.667 26 62 39 100 39z" />
    <glyph glyph-name="at" unicode="@" horiz-adv-x="1782" vert-adv-y="2457" 
d="M1217 1069l-0.000976562 -435.997c0 -74 9.33301 -125.333 28 -154c19.333 -28 47 -42 83 -42c52 0 86.667 37 104 111c14 60 21 140.667 21 242c0 183.333 -35.667 320.666 -107 411.999c-85.333 108 -225.666 162 -420.999 162c-204.667 0 -358.334 -59 -461.001 -177
c-90 -104 -135 -260.667 -135 -470c0 -201.333 40.333 -353.333 121 -456c90 -114.667 249.667 -172 479 -172c106 0 219.333 9.66699 340 29c55.333 9.33301 104.333 20 147 32l28 -150c-161.333 -35.333 -336.666 -53 -525.999 -53c-226 0 -396 34.667 -510 104
c-194 118 -291 336.667 -291 656c0 253.333 65.667 447.666 197 582.999c138 142.667 343.333 214 616 214c192.667 0 344 -34.667 454 -104c106.667 -66 183.667 -162.333 231 -289c33.333 -87.333 50 -183.333 50 -288c0 -336 -112 -504 -336 -504
c-72 0 -130.333 15.333 -175 46c-16 11.333 -33.667 28.666 -53 51.999c-68 -67.333 -152.333 -101 -253 -101c-204.667 0 -307 113.333 -307 340c0 126 27.667 229.333 83 310c61.333 89.333 165 134 311 134c93.333 0 187.333 -10.333 282 -31zM1014 979.003
c-24 3.33301 -45.667 5 -65 5c-69.333 0 -120 -27.333 -152 -82c-34 -58.667 -51 -141 -51 -247c0 -148.667 43 -223 129 -223c48 0 85.667 18.667 113 56c17.333 24.667 26 60.667 26 108v383z" />
    <glyph glyph-name="A" unicode="A" horiz-adv-x="1173" vert-adv-y="2457" 
d="M823 377h-529l-117 -377h-206l494 1475h239l489 -1475h-254zM779 524l-217 716l-222 -716h439z" />
    <glyph glyph-name="B" unicode="B" horiz-adv-x="1204" vert-adv-y="2457" 
d="M166 0l0.000976562 1469c144 23.333 284 35 420 35c188.667 0 320.667 -39 396 -117c58 -60 87 -150.333 87 -271c0 -108 -25.667 -189.667 -77 -245c-28.667 -32 -73.334 -59.333 -134.001 -82c81.333 -19.333 141 -51.666 179 -96.999
c52.667 -63.333 79 -155.666 79 -276.999c0 -166.667 -49.667 -286.334 -149 -359.001c-77.333 -56.667 -201.333 -85 -372 -85c-149.333 0 -292.333 9.66699 -429 29zM408.001 843.999l127.999 -0.000976562c64.667 0 110.334 2.66699 137.001 8
c102.667 20.667 154 101.667 154 243c0 98.667 -18.667 168.334 -56 209.001c-38 41.333 -101 62 -189 62c-50.667 0 -108.667 -4.66699 -174 -14v-508zM408 123.998c54.667 -10 112.666 -15.001 173.999 -15.001c108.667 0 182.334 24.667 221.001 74
c41.333 54 62 131.667 62 233c0 126.667 -30.667 211.334 -92 254.001c-38.667 26 -123 39 -253 39h-112v-585z" />
    <glyph glyph-name="C" unicode="C" horiz-adv-x="1001" vert-adv-y="2457" 
d="M962 157l-0.000976562 -154.001c-67.333 -21.333 -147 -32 -239 -32c-420 0 -630 246.667 -630 740c0 259.333 56.667 460.333 170 603c100.667 126.667 254 190 460 190c79.333 0 151 -10.333 215 -31v-149c-67.333 24 -130.666 36 -189.999 36
c-151.333 0 -258 -63.667 -320 -191c-56 -115.333 -84 -269.333 -84 -462c0 -179.333 27.333 -319.666 82 -420.999c61.333 -114 166 -171 314 -171c75.333 0 149.333 14 222 42z" />
    <glyph glyph-name="D" unicode="D" horiz-adv-x="1272" vert-adv-y="2457" 
d="M166 0l0.000976562 1475c141.333 19.333 269.666 29 384.999 29c148 0 266 -28.667 354 -86c182 -119.333 273 -344.666 273 -675.999c0 -278 -58 -480.333 -174 -607c-66.667 -72 -150.667 -119.667 -252 -143c-60 -14 -133.333 -21 -220 -21
c-116 0 -238 9.66699 -366 29zM408.001 129.999c44.667 -10 87.333 -14.999 128 -14.999c147.333 0 253 64.667 317 194c49.333 99.333 74 243.666 74 432.999c0 202 -32.667 358 -98 468c-33.333 54.667 -73.333 93.667 -120 117c-45.333 22 -100 33 -164 33
c-45.333 0 -91 -4.33301 -137 -13v-1217z" />
    <glyph glyph-name="E" unicode="E" horiz-adv-x="1055" vert-adv-y="2457" 
d="M166 0v1475h807v-147h-565v-474h451v-147h-451v-560h588v-147h-830z" />
    <glyph glyph-name="F" unicode="F" horiz-adv-x="982" vert-adv-y="2457" 
d="M166 0v1475h776v-147h-534v-483h443v-147h-443v-698h-242z" />
    <glyph glyph-name="G" unicode="G" horiz-adv-x="1213" vert-adv-y="2457" 
d="M836 749h241v-739c-100.667 -26 -219 -39 -355 -39c-244.667 0 -414.334 73 -509.001 219c-80 123.333 -120 294 -120 512c0 272.667 63.333 479 190 619c109.333 122 272 183 488 183c88 0 174 -12.333 258 -37v-151c-93.333 29.333 -173.666 44 -240.999 44
c-152.667 0 -265 -56 -337 -168c-71.333 -111.333 -107 -277.333 -107 -498c0 -203.333 30 -352 90 -446c58 -91.333 155 -137 291 -137c34 0 71 3.66699 111 11v627z" />
    <glyph glyph-name="H" unicode="H" horiz-adv-x="1335" vert-adv-y="2457" 
d="M166 0v1475h242v-631h518v631h242v-1475h-242v697h-518v-697h-242z" />
    <glyph glyph-name="I" unicode="I" horiz-adv-x="598" vert-adv-y="2457" 
d="M178 0v1475h242v-1475h-242z" />
    <glyph glyph-name="J" unicode="J" horiz-adv-x="609" vert-adv-y="2457" 
d="M188 1475l242.002 0.000976562v-1072c0 -178.667 -7.66699 -310.334 -23 -395.001c-30.667 -164.667 -112.334 -270 -245.001 -316c-52.667 -18 -124.334 -29 -215.001 -33v129c63.333 6 108.333 18 135 36c50 34.667 81.667 102.334 95 203.001
c7.33301 51.333 11 121.666 11 210.999v1237z" />
    <glyph glyph-name="K" unicode="K" horiz-adv-x="1125" vert-adv-y="2457" 
d="M166 0v1475h239v-700l482 700h216l-471 -659l519 -816h-280l-466 775v-775h-239z" />
    <glyph glyph-name="L" unicode="L" horiz-adv-x="977" vert-adv-y="2457" 
d="M166 0v1475h242v-1328h543v-147h-785z" />
    <glyph glyph-name="M" unicode="M" horiz-adv-x="1634" vert-adv-y="2457" 
d="M106 0l112.998 1475h272l274 -949c22 -76 40.333 -156.333 55 -241c16 87.333 33.333 164.666 52 231.999l273 958h270l112 -1475h-226l-64 905c-3.33301 48 -5.66602 130.333 -6.99902 247l-2 78c-32.667 -132.667 -57.667 -230 -75 -292l-261 -938h-175l-261 939
c-14 49.333 -32.667 121 -56 215l-19 72c-1.33301 -148 -4.66602 -258.333 -9.99902 -331l-64 -895h-201z" />
    <glyph glyph-name="N" unicode="N" horiz-adv-x="1331" vert-adv-y="2457" 
d="M166 0v1475h267l435 -929c32 -68.667 67.333 -157 106 -265c-5.33301 85.333 -8 171 -8 257v937h198v-1475h-253l-473 1008c-24 52.667 -51.333 121.667 -82 207c5.33301 -96.667 8 -172.334 8 -227.001v-988h-198z" />
    <glyph glyph-name="O" unicode="O" horiz-adv-x="1299" vert-adv-y="2457" 
d="M653 1504c132.667 0 243.333 -36 332 -108c146.667 -118.667 220 -338 220 -658c0 -511.333 -185 -767 -555 -767c-371.333 0 -557 259 -557 777c0 504 186.667 756 560 756zM648.999 1360c-116 0 -196.334 -56.6689 -241.001 -170.002
c-42.667 -108.667 -64 -257 -64 -445c0 -197.333 21.333 -350.666 64 -459.999c44.667 -113.333 125.334 -170 242.001 -170c115.333 0 195.333 56.667 240 170c42.667 109.333 64 260.333 64 453c0 196.667 -21.333 347.334 -64 452.001c-46 113.333 -126.333 170 -241 170
z" />
    <glyph glyph-name="P" unicode="P" horiz-adv-x="1100" vert-adv-y="2457" 
d="M166 0l-0.000976562 1475c134 19.333 264.667 29 392 29c126.667 0 224.667 -20 294 -60c128.667 -74.667 193 -210 193 -406c0 -136.667 -28 -245.334 -84 -326.001c-75.333 -108.667 -195.666 -163 -360.999 -163c-70.667 0 -134.667 10 -192 30v-579h-242z
M407.999 722.001c50 -19.333 99 -29 147 -29c95.333 0 161.333 34.667 198 104c29.333 56 44 133.333 44 232c0 107.333 -20 191 -60 251c-36.667 53.333 -104.667 80 -204 80c-31.333 0 -73 -3.66699 -125 -11v-627z" />
    <glyph glyph-name="Q" unicode="Q" horiz-adv-x="1299" vert-adv-y="2457" 
d="M1217 109l-0.000976562 -201.001l-231 172c-91.333 -72.667 -204.666 -109 -339.999 -109c-368.667 0 -553 255.667 -553 767c0 510.667 186.667 766 560 766c133.333 0 244 -35.667 332 -107c146 -118 219 -337.667 219 -659c0 -223.333 -39.333 -404.666 -118 -543.999
zM695.999 476.999l203.999 -160c35.333 111.333 53 250.333 53 417c0 195.333 -21.333 347.333 -64 456c-44.667 113.333 -124.667 170 -240 170c-116 0 -196.333 -56.667 -241 -170c-42.667 -109.333 -64 -260 -64 -452c0 -192.667 21.333 -343.667 64 -453
c44.667 -113.333 125.334 -170 242.001 -170c74 0 135.333 25 184 75l-138 91v196z" />
    <glyph glyph-name="R" unicode="R" horiz-adv-x="1136" vert-adv-y="2457" 
d="M167 0l-0.00195312 1475c148.667 19.333 281.334 29 398.001 29c120.667 0 215.334 -17.333 284.001 -52c133.333 -68 200 -192.667 200 -374c0 -146 -39 -252.333 -117 -319c-41.333 -35.333 -101.666 -63.333 -180.999 -84l383 -675h-264l-389 766
c31.333 -2.66699 57 -4 77 -4c93.333 0 158.333 29.667 195 89c32 52.667 48 126.667 48 222c0 98.667 -19.333 171.334 -58 218.001c-38.667 46 -104.334 69 -197.001 69c-39.333 0 -85 -4.33301 -137 -13v-1347h-242z" />
    <glyph glyph-name="S" unicode="S" horiz-adv-x="992" vert-adv-y="2457" 
d="M67 29l0.000976562 170.999c107.333 -54 214.333 -81 321 -81c205.333 0 308 81 308 243c0 62 -16 114.333 -48 157c-31.333 40.667 -97 89.334 -197 146.001c-95.333 54 -161 95 -197 123c-66.667 53.333 -113 109 -139 167c-20 45.333 -30 97.333 -30 156
c0 124 38.667 219.667 116 287c80.667 70.667 198 106 352 106c101.333 0 191 -12.333 269 -37v-159c-83.333 34.667 -164.333 52 -243 52c-178 0 -267 -72.333 -267 -217c0 -64 23.667 -117 71 -159c32.667 -28.667 99.667 -71.334 201 -128.001
c85.333 -48 146.333 -87 183 -117c104 -85.333 156 -201.666 156 -348.999c0 -279.333 -171.667 -419 -515 -419c-130.667 0 -244.334 19.333 -341.001 58z" />
    <glyph glyph-name="T" unicode="T" horiz-adv-x="951" vert-adv-y="2457" 
d="M355 0v1328h-353v147h947v-147h-352v-1328h-242z" />
    <glyph glyph-name="U" unicode="U" horiz-adv-x="1257" vert-adv-y="2457" 
d="M157 1475h242v-983c0 -126.667 11.667 -214.667 35 -264c36 -77.333 107.667 -116 215 -116c114 0 188 45.333 222 136c18 48 27 129.333 27 244v983h202v-936c0 -89.333 -3 -157 -9 -203c-17.333 -131.333 -68 -226 -152 -284c-77.333 -54 -180 -81 -308 -81
c-223.333 0 -367.333 78 -432 234c-28 68 -42 179.333 -42 334v936z" />
    <glyph glyph-name="V" unicode="V" horiz-adv-x="1093" vert-adv-y="2457" 
d="M435 0l-447 1475h250l258 -914c20.667 -72.667 46.334 -172 77.001 -298c23.333 96.667 48.666 196.334 75.999 299.001l246 913h211l-431 -1475h-240z" />
    <glyph glyph-name="W" unicode="W" horiz-adv-x="1739" vert-adv-y="2457" 
d="M362 0l-343.001 1475h249l188 -901c14 -67.333 31 -158.333 51 -273c24.667 112 45.334 202 62.001 270l226 904h200l198 -899c17.333 -78.667 35.333 -170.334 54 -275.001l28 134c4 22 14 68.333 30 139l202 901h213l-388 -1475h-218l-196 882
c-20 88.667 -36.667 177.334 -50 266.001c-20 -106 -38.333 -192 -55 -258l-225 -890h-226z" />
    <glyph glyph-name="X" unicode="X" horiz-adv-x="1094" vert-adv-y="2457" 
d="M412 778l-379 697h256l285 -535l261 535h218l-386 -701l422 -774h-258l-324 610l-314 -610h-221z" />
    <glyph glyph-name="Y" unicode="Y" horiz-adv-x="1024" vert-adv-y="2457" 
d="M388 0v547l-430 928h264l312 -729l302 729h217l-423 -930v-545h-242z" />
    <glyph glyph-name="Z" unicode="Z" horiz-adv-x="1003" vert-adv-y="2457" 
d="M12 0v111l676 1217h-598v147h859v-113l-674 -1215h706v-147h-969z" />
    <glyph glyph-name="bracketleft" unicode="[" horiz-adv-x="818" vert-adv-y="2457" 
d="M272 -390v2015h446v-131h-207v-1753h207v-131h-446z" />
    <glyph glyph-name="backslash" unicode="\" horiz-adv-x="589" vert-adv-y="2457" 
d="M393 0l-387 1475h190l388 -1475h-191z" />
    <glyph glyph-name="bracketright" unicode="]" horiz-adv-x="818" vert-adv-y="2457" 
d="M100 -390v131h207v1753h-207v131h446v-2015h-446z" />
    <glyph glyph-name="asciicircum" unicode="^" horiz-adv-x="975" vert-adv-y="2457" 
d="M468 1212l-251 -483h-203l410 774h127l410 -774h-235z" />
    <glyph glyph-name="underscore" unicode="_" horiz-adv-x="915" vert-adv-y="2457" 
d="M-37 -336v128h989v-128h-989z" />
    <glyph glyph-name="grave" unicode="`" horiz-adv-x="1024" vert-adv-y="2457" 
d="M466 1198l-221 312h241l150 -312h-170z" />
    <glyph glyph-name="a" unicode="a" horiz-adv-x="1070" vert-adv-y="2457" 
d="M689 674l-0.000976562 40.001c0 69.333 -11.333 121 -34 155c-32 50.667 -97.667 76 -197 76c-83.333 0 -174.666 -16 -273.999 -48v147c94 25.333 196.667 38 308 38c186 0 310.333 -41 373 -123c29.333 -38.667 47.666 -95 54.999 -169
c2.66699 -28.667 4 -73.667 4 -135v-643c-142.667 -28 -287.667 -42 -435 -42c-135.333 0 -237.333 18.667 -306 56c-78 43.333 -117 121.666 -117 234.999c0 126.667 48 221.334 144 284.001c68 44 180 79.667 336 107c30.667 5.33301 78.334 12.666 143.001 21.999z
M688.999 547.001c-10.667 -2 -18.667 -3.66699 -24 -5c-112.667 -20.667 -194.667 -43.667 -246 -69c-77.333 -38 -116 -101.667 -116 -191c0 -118 70.667 -177 212 -177c67.333 0 125.333 7 174 21v421z" />
    <glyph glyph-name="b" unicode="b" horiz-adv-x="1121" vert-adv-y="2457" 
d="M157 22l0.000976562 1563h235v-597c66.667 62.667 150.667 94 252 94c262 0 393 -179.333 393 -538c0 -168 -30.667 -301.333 -92 -400c-72 -115.333 -206 -173 -402 -173c-116.667 0 -245.334 17 -386.001 51zM392.001 125c52 -12.667 100.666 -19 145.999 -19
c102.667 0 172.667 48 210 144c31.333 80.667 47 179.667 47 297c0 110.667 -14 204 -42 280c-29.333 80 -79.666 120 -150.999 120c-78 0 -137 -45.333 -177 -136c-22 -50 -33 -129 -33 -237v-449z" />
    <glyph glyph-name="c" unicode="c" horiz-adv-x="829" vert-adv-y="2457" 
d="M787 147l-0.000976562 -142.999c-71.333 -22 -146 -33 -224 -33c-163.333 0 -283.333 44 -360 132c-79.333 91.333 -119 227.666 -119 408.999c0 186.667 43.667 330 131 430c82 93.333 203.333 140 364 140c66 0 126 -8.66699 180 -26v-141
c-46.667 21.333 -96 32 -148 32c-190 0 -285 -147.333 -285 -442c0 -118 16.333 -209.333 49 -274c41.333 -80.667 118 -121 230 -121c64.667 0 125.334 12.333 182.001 37z" />
    <glyph glyph-name="d" unicode="d" horiz-adv-x="1102" vert-adv-y="2457" 
d="M710 1060l-0.000976562 525h235v-1571c-110.667 -28.667 -243.667 -43 -399 -43c-186 0 -311.667 49 -377 147c-56.667 85.333 -85 207.333 -85 366c0 166.667 34 305 102 415c75.333 122 200.333 183 375 183c52.667 0 102.334 -7.33301 149.001 -22zM709.999 917
c-42.667 20 -84.001 30 -124.001 30c-91.333 0 -158.333 -44 -201 -132c-40 -82.667 -60 -194 -60 -334c0 -119.333 15.667 -210.333 47 -273c34.667 -68 96.334 -102 185.001 -102c47.333 0 98.333 6 153 18v793z" />
    <glyph glyph-name="e" unicode="e" horiz-adv-x="1056" vert-adv-y="2457" 
d="M321 489c0.666992 -96 11.999 -171.667 33.999 -227c24.667 -60 66 -101.667 124 -125c47.333 -19.333 108.666 -29 183.999 -29c100 0 186 17 258 51v-145c-86 -28.667 -187 -43 -303 -43c-197.333 0 -337.666 46 -420.999 138c-75.333 83.333 -113 209 -113 377
c0 178.667 36.667 320.667 110 426c79.333 113.333 199.333 170 360 170c226.667 0 361.334 -116 404.001 -348c11.333 -59.333 17 -141 17 -245h-654zM320.999 619l431 -0.000976562c-2.66699 72.667 -10.667 133 -24 181c-14.667 54.667 -37 93.667 -67 117
c-28 21.333 -65 32 -111 32c-94 0 -158.333 -48.667 -193 -146c-18 -49.333 -30 -110.666 -36 -183.999z" />
    <glyph glyph-name="f" unicode="f" horiz-adv-x="644" vert-adv-y="2457" 
d="M156 0v1081c0 115.333 8 207.333 24 276c24.667 104.667 82 171.334 172 200.001c60 18.667 128.667 28 206 28h101v-131h-43c-92.667 0 -153 -20.333 -181 -61c-29.333 -42.667 -44 -129.667 -44 -261v-79h252v-142h-252v-911h-235z" />
    <glyph glyph-name="g" unicode="g" horiz-adv-x="1107" vert-adv-y="2457" 
d="M717 70c-62.667 -66 -147.001 -99 -253.001 -99c-253.333 0 -380 162.333 -380 487c0 179.333 36 325.333 108 438c78.667 124 214 186 406 186c112 0 230 -14 354 -42v-838c0 -156 -7.33301 -273 -22 -351c-28.667 -148 -99 -250.667 -211 -308
c-83.333 -42 -199 -63 -347 -63c-42.667 0 -92 2.66699 -148 8v138c48.667 -7.33301 97.334 -11 146.001 -11c108 0 187.667 18.667 239 56c72 52 108 164.667 108 338v61zM716.999 936c-34.667 7.33301 -71.667 10.999 -111 10.999c-62 0 -111 -15 -147 -45
c-44.667 -37.333 -78.667 -99.666 -102 -186.999c-20.667 -75.333 -31 -160.333 -31 -255c0 -236 60.333 -354 181 -354c76.667 0 134.667 42.667 174 128c16.667 36 27.667 74.333 33 115c2 19.333 3 52 3 98v489z" />
    <glyph glyph-name="h" unicode="h" horiz-adv-x="1146" vert-adv-y="2457" 
d="M160 0v1585h235v-542c82 26 163 39 243 39c167.333 0 275 -48.333 323 -145c25.333 -50.667 38 -140.334 38 -269.001v-668h-235v670c0 93.333 -8.66699 159.666 -26 198.999c-24 52 -71.667 78 -143 78c-60 0 -126.667 -14 -200 -42v-905h-235z" />
    <glyph glyph-name="i" unicode="i" horiz-adv-x="553" vert-adv-y="2457" 
d="M159 0v1053h235v-1053h-235zM275 1482c40.667 0 74.332 -15 100.999 -45c23.333 -26 35 -56.667 35 -92c0 -40 -15 -73.667 -45 -101c-26 -23.333 -57 -35 -93 -35c-39.333 0 -72.666 15 -99.999 45c-23.333 26 -35 57.333 -35 94c0 38 15 71 45 99
c25.333 23.333 56 35 92 35z" />
    <glyph glyph-name="j" unicode="j" horiz-adv-x="563" vert-adv-y="2457" 
d="M169 1053h235v-852c0 -170.667 -9 -296 -27 -376c-34.667 -152.667 -114 -253.667 -238 -303c-54 -22 -124.667 -34.667 -212 -38v130c62 5.33301 106 17.333 132 36c50 36.667 82.667 104.667 98 204c8 52 12 128.333 12 229v970zM286 1482
c40.667 0 74.332 -14.999 100.999 -44.999c23.333 -26 35 -56.667 35 -92c0 -40.667 -15 -74.334 -45 -101.001c-26 -23.333 -57 -35 -93 -35c-39.333 0 -72.666 15 -99.999 45c-23.333 26 -35 57.333 -35 94c0 38 15 71 45 99c25.333 23.333 56 35 92 35z" />
    <glyph glyph-name="k" unicode="k" horiz-adv-x="1002" vert-adv-y="2457" 
d="M160 0v1585h232v-978l378 446h213l-376 -411l418 -642h-263l-370 595v-595h-232z" />
    <glyph glyph-name="l" unicode="l" horiz-adv-x="554" vert-adv-y="2457" 
d="M160 0v1585h235v-1585h-235z" />
    <glyph glyph-name="m" unicode="m" horiz-adv-x="1698" vert-adv-y="2457" 
d="M155 0v1040c168 28 303.333 42 406 42c124.667 0 221 -20.333 289 -61c106 40.667 217.333 61 334 61c170 0 279.667 -48.667 329 -146c26 -51.333 39 -140.666 39 -267.999v-668h-235v617c0 118.667 -8 198.667 -24 240c-14 34.667 -33.667 59 -59 73
c-22 11.333 -51.667 17 -89 17c-58 0 -116 -12 -174 -36v-911h-235v621c0 116.667 -8 195.334 -24 236.001c-14 34.667 -33.667 58.667 -59 72c-22.667 12 -53 18 -91 18c-58 0 -115.333 -7 -172 -21v-926h-235z" />
    <glyph glyph-name="n" unicode="n" horiz-adv-x="1141" vert-adv-y="2457" 
d="M155 0v1040c155.333 28 300.666 42 435.999 42c121.333 0 211.333 -17 270 -51c66 -38 106.667 -100.333 122 -187c7.33301 -40 11 -98.667 11 -176v-668h-235v650c0 107.333 -8.66699 179.666 -26 216.999c-25.333 53.333 -78.333 80 -159 80
c-67.333 0 -128.666 -7 -183.999 -21v-926h-235z" />
    <glyph glyph-name="o" unicode="o" horiz-adv-x="1086" vert-adv-y="2457" 
d="M543 1082c156.667 0 272.668 -50.667 348.001 -152c74 -100 111 -234.667 111 -404c0 -168 -37 -302.333 -111 -403c-74.667 -101.333 -190.334 -152 -347.001 -152c-158 0 -274.333 50.667 -349 152c-74 100.667 -111 237.334 -111 410.001
c0 165.333 37 297.666 111 396.999c75.333 101.333 191.333 152 348 152zM543.001 947c-86 0 -145.001 -40.333 -177.001 -121c-26.667 -69.333 -40 -167.333 -40 -294c0 -134 13.333 -235.667 40 -305c31.333 -80.667 90.333 -121 177 -121s145.334 40.333 176.001 121
c27.333 70 41 170 41 300c0 132 -13.667 231.667 -41 299c-32 80.667 -90.667 121 -176 121z" />
    <glyph glyph-name="p" unicode="p" horiz-adv-x="1106" vert-adv-y="2457" 
d="M390 37v-540.999h-235v1539c38 8.66699 83 17 135 25c101.333 14.667 185 22 251 22c189.333 0 318.333 -52.333 387 -157c62.667 -95.333 94 -232.333 94 -411c0 -168.667 -34.333 -302.334 -103 -401.001c-66.667 -94.667 -170.667 -142 -312 -142
c-90 0 -162.333 22 -217 66zM390 194.001c56 -58.667 117.334 -88 184.001 -88c76 0 130.333 43 163 129c28.667 74.667 43 168.334 43 281.001c0 151.333 -22 263.666 -66 336.999c-38 62.667 -103.333 94 -196 94c-36.667 0 -79.334 -4.33301 -128.001 -13v-740z" />
    <glyph glyph-name="q" unicode="q" horiz-adv-x="1107" vert-adv-y="2457" 
d="M717 -504v570c-61.333 -63.333 -145 -95 -251 -95c-254.667 0 -382 159.333 -382 478c0 182 35.333 329.667 106 443c79.333 126.667 214.333 190 405 190c122.667 0 241.667 -14 357 -42v-1544h-235zM717 932c-37.333 10 -75 14.999 -113 14.999
c-62 0 -111.333 -15.333 -148 -46c-42 -34 -75 -97 -99 -189c-20.667 -76.667 -31 -164 -31 -262c0 -229.333 59.333 -344 178 -344c78 0 136.667 42.333 176 127c17.333 36.667 28.333 75.334 33 116.001c2.66699 19.333 4 52.333 4 99v484z" />
    <glyph glyph-name="r" unicode="r" horiz-adv-x="683" vert-adv-y="2457" 
d="M155 0l-0.000976562 1038c144.667 24.667 312.334 39.334 503.001 44.001v-138c-96.667 -2 -186 -8.66699 -268 -20v-924h-235z" />
    <glyph glyph-name="s" unicode="s" horiz-adv-x="827" vert-adv-y="2457" 
d="M58 10l0.00292969 151.999c74 -36 159 -54 255 -54c156.667 0 235 48.667 235 146c0 38 -14.667 71 -44 99c-26.667 24.667 -85.334 64.334 -176.001 119.001c-94 56.667 -158 107.334 -192 152.001c-39.333 50.667 -59 109 -59 175c0 95.333 36.333 167.333 109 216
c66 44.667 154 67 264 67c69.333 0 145.666 -10.333 228.999 -31v-144c-64 26.667 -132.333 40 -205 40c-124.667 0 -187 -43.667 -187 -131c0 -42.667 15.333 -78.334 46 -107.001c21.333 -19.333 77 -55 167 -107c89.333 -52.667 153 -100.334 191 -143.001
c44 -51.333 66 -113.666 66 -186.999c0 -200.667 -138.333 -301 -415 -301c-114.667 0 -209.334 13 -284.001 39z" />
    <glyph glyph-name="t" unicode="t" horiz-adv-x="715" vert-adv-y="2457" 
d="M152 1353h235v-300h272v-142h-272v-523c0 -100.667 14 -167.667 42 -201c29.333 -35.333 83.333 -53 162 -53h68v-134h-118c-78 0 -141.667 6.66699 -191 20c-62 16 -110.333 51 -145 105c-35.333 55.333 -53 161 -53 317v911z" />
    <glyph glyph-name="u" unicode="u" horiz-adv-x="1114" vert-adv-y="2457" 
d="M147 1053l234.999 -0.00195312v-658c0 -105.333 8.66699 -175.666 26 -210.999c24.667 -52 78.334 -78 161.001 -78c54 0 105.667 7 155 21v926h235v-1040c-144 -28 -278.333 -42 -403 -42c-123.333 0 -214.333 16.333 -273 49c-68 38 -109.667 99 -125 183
c-7.33301 40.667 -11 98.334 -11 173.001v677z" />
    <glyph glyph-name="v" unicode="v" horiz-adv-x="948" vert-adv-y="2457" 
d="M370 0l-350 1053h238l179 -583c26 -84 47.333 -164 64 -240c15.333 66.667 35.333 143.334 60 230.001l173 593h200l-356 -1053h-208z" />
    <glyph glyph-name="w" unicode="w" horiz-adv-x="1441" vert-adv-y="2457" 
d="M320 0l-290.998 1053h237l157 -661c8.66699 -35.333 20 -94.333 34 -177c14 78 26 137.667 36 179l155 659h199l150 -652c11.333 -50 23.333 -112 36 -186c14 78.667 26 140 36 184l147 654h197l-296 -1053h-213l-140 616
c-12.667 57.333 -25.334 126.666 -38.001 207.999c-10.667 -72.667 -23.334 -139.334 -38.001 -200.001l-149 -624h-219z" />
    <glyph glyph-name="x" unicode="x" horiz-adv-x="943" vert-adv-y="2457" 
d="M353 538l-330 515h248l230 -372l211 372h203l-326 -500l355 -553h-248l-250 410l-251 -410h-204z" />
    <glyph glyph-name="y" unicode="y" horiz-adv-x="961" vert-adv-y="2457" 
d="M395 -48l-383.999 1101h249l179 -576c19.333 -62 42.666 -144.333 69.999 -247c18 81.333 38.667 162.333 62 243l167 580h204l-535 -1557h-206z" />
    <glyph glyph-name="z" unicode="z" horiz-adv-x="864" vert-adv-y="2457" 
d="M23 0v117l525 802h-470v134h720v-119l-523 -800h554v-134h-806z" />
    <glyph glyph-name="braceleft" unicode="{" horiz-adv-x="818" vert-adv-y="2457" 
d="M348 674c40.667 -12.667 69.998 -24.999 87.998 -36.999c40 -24.667 65 -67.334 75 -128.001c3.33301 -20 5 -81.333 5 -184v-215c0 -140.667 5.66699 -234.334 17 -281.001c16 -62 60.667 -93 134 -93h76v-125h-150c-92.667 0 -161.667 14.667 -207 44
c-33.333 20.667 -60 57 -80 109c-15.333 39.333 -24.666 89.333 -27.999 150c-0.666992 20 -1 72 -1 156v236c0 92 -1.66699 153 -5 183c-10 80.667 -57.667 121 -143 121h-28v128h28c59.333 0 99.333 18.333 120 55c16 26.667 25 67.667 27 123
c0.666992 18.667 1 61.334 1 128.001v120c0 122 3.66699 204 11 246c9.33301 50.667 28 94.667 56 132c42.667 55.333 125.667 83 249 83h150v-125h-76c-73.333 0 -118 -31.333 -134 -94c-11.333 -46.667 -17 -140.667 -17 -282v-100c0 -101.333 -1.66699 -165.333 -5 -192
s-12.333 -52 -27 -76c-21.333 -32.667 -66.666 -60 -135.999 -82z" />
    <glyph glyph-name="bar" unicode="|" horiz-adv-x="818" vert-adv-y="2457" 
d="M297 -504v2129h224v-2129h-224z" />
    <glyph glyph-name="braceright" unicode="}" horiz-adv-x="818" vert-adv-y="2457" 
d="M469 674c-40.667 12.667 -69.999 24.667 -87.999 36c-40 24.667 -65 68 -75 130c-3.33301 20 -5 81.333 -5 184v100c0 141.333 -5.66699 235.333 -17 282c-16 62.667 -60.667 94 -134 94h-76v125h150c92.667 0 161.667 -14.667 207 -44
c33.333 -20.667 60 -57.334 80 -110.001c15.333 -38.667 24.666 -89 27.999 -151c0.666992 -19.333 1 -71.333 1 -156v-120c0 -92.667 1.66699 -154 5 -184c10 -81.333 57.667 -122 143 -122h28v-128h-28c-59.333 0 -99.333 -18 -120 -54c-16 -27.333 -25 -68.333 -27 -123
c-0.666992 -18.667 -1 -61 -1 -127v-236c0 -121.333 -3.66699 -202.666 -11 -243.999c-9.33301 -50.667 -28 -94.667 -56 -132c-42.667 -55.333 -125.667 -83 -249 -83h-150v125h76c73.333 0 118 31 134 93c11.333 46.667 17 140.334 17 281.001v215
c0 101.333 1.66699 162.666 5 183.999c9.33301 60.667 34.333 103.667 75 129c18 11.333 47.333 23.333 88 36z" />
    <glyph glyph-name="asciitilde" unicode="~" vert-adv-y="2457" 
d="M220 505l-112 51.001c31.333 73.333 58.666 124.333 81.999 153c50 60.667 113.333 91 190 91c51.333 0 104 -16.333 158 -49c26 -14.667 65 -43 117 -85c26.667 -20.667 52.334 -31 77.001 -31c31.333 0 60 22 86 66c7.33301 11.333 20 38.666 38 81.999l112 -50
c-47.333 -162.667 -138 -244 -272 -244c-62 0 -117 16.333 -165 49c-17.333 11.333 -51 36.333 -101 75c-34.667 27.333 -63 41 -85 41c-30 0 -58 -21.667 -84 -65c-8 -13.333 -21.667 -41.333 -41 -84z" />
    <glyph glyph-name="uni00A0" unicode="&#xa0;" horiz-adv-x="492" vert-adv-y="2457" 
 />
    <glyph glyph-name="exclamdown" unicode="&#xa1;" horiz-adv-x="699" vert-adv-y="2457" 
d="M251 589h196l34 -1045h-263zM349 1062c44.667 0 82 -16.667 112 -50c25.333 -28 38 -61.333 38 -100c0 -44.667 -16.333 -82 -49 -112c-28.667 -25.333 -62.667 -38 -102 -38c-44 0 -80.667 16.667 -110 50c-26 28.667 -39 63 -39 103c0 42 16.667 78 50 108
c28 26 61.333 39 100 39z" />
    <glyph glyph-name="cent" unicode="&#xa2;" vert-adv-y="2457" 
d="M567 165c-103.333 13.333 -185 40.666 -245 81.999c-126.667 87.333 -190 237 -190 449c0 140.667 28.333 257 85 349c72 116.667 188.667 184.334 350 203.001v255h144v-251c67.333 -4 132 -14.667 194 -32v-138c-62 23.333 -126.667 36.333 -194 39v-829
c80.667 4 154 20.333 220 49v-144c-56.667 -19.333 -130 -31.333 -220 -36v-259h-144v263zM567 308l-0.000976562 791c-55.333 -24 -96.666 -58 -123.999 -102c-46 -72.667 -69 -177.667 -69 -315c0 -144.667 30.333 -249.667 91 -315c21.333 -24 55.333 -43.667 102 -59z
" />
    <glyph glyph-name="sterling" unicode="&#xa3;" vert-adv-y="2457" 
d="M258 157l0.00195312 508.001h-164v138h164v177c0 93.333 6.33301 171 19 233c20.667 101.333 72 176.666 154 225.999c71.333 43.333 164.666 65 279.999 65c90 0 175 -12.333 255 -37v-149c-84.667 30 -159.334 45 -224.001 45c-112 0 -185 -43.333 -219 -130
c-19.333 -49.333 -29 -135 -29 -257v-173h261v-138h-261v-508h524v-157h-925v157h165z" />
    <glyph glyph-name="currency" unicode="&#xa4;" vert-adv-y="2457" 
d="M160 184l-114.001 98.001l126 137c-47.333 76.667 -71 171 -71 283c0 114.667 23.667 210 71 286l-126 136l114 98l113 -127c74 44 162.667 66 266 66c107.333 0 197 -22 269 -66l112 127l114 -98l-125 -136c46 -80.667 69 -175.667 69 -285
c0 -104.667 -23.333 -199.334 -70 -284.001l126 -137l-114 -98l-113 128c-72 -44 -160.667 -66 -266 -66c-107.333 0 -196.666 22 -267.999 66zM539.999 1028c-87.333 0 -147.334 -31.667 -180.001 -95c-28.667 -54.667 -43 -130 -43 -226
c0 -101.333 14.333 -179.333 43 -234c32.667 -62.667 92.667 -94 180 -94c86 0 145.333 31.333 178 94c28.667 54.667 43 131.667 43 231c0 100 -14.333 176.667 -43 230c-33.333 62.667 -92.666 94 -177.999 94z" />
    <glyph glyph-name="yen" unicode="&#xa5;" vert-adv-y="2457" 
d="M418 0v242h-331v133h331v118h-331v133h295l-394 849h256l322 -740l309 740h199l-378 -849h279v-133h-315v-118h315v-133h-315v-242h-242z" />
    <glyph glyph-name="brokenbar" unicode="&#xa6;" horiz-adv-x="634" vert-adv-y="2457" 
d="M205 916v559h224v-559h-224zM205 0v524h224v-524h-224z" />
    <glyph glyph-name="section" unicode="&#xa7;" vert-adv-y="2457" 
d="M353 927c-46.667 28.667 -82.3301 56.6699 -106.997 84.0029c-46.667 52 -70 113.333 -70 184c0 105.333 41 185 123 239c71.333 46.667 166 70 284 70c89.333 0 174 -11.333 254 -34v-147c-78.667 29.333 -153.334 44 -224.001 44c-151.333 0 -227 -50 -227 -150
c0 -50 19.667 -89.333 59 -118c24.667 -18.667 92.667 -53.667 204 -105c118 -54 200.333 -103 247 -147c50 -46 75 -107.333 75 -184c0 -122.667 -69.333 -230 -208 -322c47.333 -28.667 82.666 -57.667 105.999 -87c40 -50.667 60 -112 60 -184
c0 -106.667 -41.333 -186.667 -124 -240c-74.667 -48 -175.334 -72 -302.001 -72c-136.667 0 -256.667 16 -360 48v164c109.333 -45.333 224.666 -68 345.999 -68c154 0 231 51.333 231 154c0 50 -19.667 89 -59 117c-25.333 18.667 -93.666 53 -204.999 103
c-124.667 55.333 -207.667 102.666 -249 141.999c-50 47.333 -75 108.666 -75 183.999c0 121.333 73.667 229.666 221 324.999zM452.004 866.003c-79.333 -62.667 -119.002 -132 -119.002 -208c0 -60.667 26.667 -108.667 80 -144c22.667 -14.667 94.334 -48 215.001 -100
l28 -13c76 60 114 127.333 114 202c0 47.333 -13.667 85 -41 113c-23.333 24.667 -76.666 56 -159.999 94z" />
    <glyph glyph-name="dieresis" unicode="&#xa8;" horiz-adv-x="1024" vert-adv-y="2457" 
d="M340 1485c36.667 0 67.333 -13.666 92 -40.999c21.333 -24 32 -51.667 32 -83c0 -37.333 -13.667 -68.333 -41 -93c-23.333 -21.333 -51.333 -32 -84 -32c-37.333 0 -68 13.667 -92 41c-21.333 24 -32 52.333 -32 85c0 35.333 13.667 65.666 41 90.999
c23.333 21.333 51.333 32 84 32zM680.999 1485c37.333 0 68.332 -13.666 92.999 -40.999c21.333 -24 32 -51.667 32 -83c0 -37.333 -13.667 -68.333 -41 -93c-23.333 -21.333 -51.666 -32 -84.999 -32c-36.667 0 -67 13.667 -91 41c-21.333 24 -32 52.333 -32 85
c0 35.333 13.667 65.666 41 90.999c23.333 21.333 51 32 83 32z" />
    <glyph glyph-name="copyright" unicode="&#xa9;" horiz-adv-x="1765" vert-adv-y="2457" 
d="M1131 484l-0.000976562 -114c-50 -15.333 -108.333 -23 -175 -23c-100 0 -178 14 -234 42c-112.667 55.333 -169 162.333 -169 321c0 118.667 28.333 212 85 280c66.667 80 168.667 120 306 120c68.667 0 128.334 -7.66699 179.001 -23v-115
c-63.333 19.333 -119 29 -167 29c-80 0 -135.667 -25.333 -167 -76c-30.667 -49.333 -46 -121.333 -46 -216c0 -84.667 14.667 -147 44 -187c32.667 -44 89 -66 169 -66c54 0 112.333 9.33301 175 28zM881.999 1504c229.333 0 416.999 -73 562.999 -219
c66.667 -66.667 118.667 -144 156 -232c42 -98 63 -202 63 -312c0 -151.333 -38 -289.333 -114 -414c-72 -118 -168.667 -208.333 -290 -271c-110 -56.667 -235.333 -85 -376 -85c-231.333 0 -419.666 74 -564.999 222c-146 148.667 -219 334.667 -219 558
c0 144 38 278 114 402c70 114.667 166.667 203.667 290 267c110 56 236 84 378 84zM881.998 1388c-184 0 -336.999 -64.333 -458.999 -193c-112.667 -119.333 -169 -267.666 -169 -444.999c0 -189.333 56.333 -345 169 -467c121.333 -130.667 274.666 -196 459.999 -196
c184 0 336.667 65.333 458 196c112.667 122 169 274.667 169 458c0 185.333 -56.333 336.666 -169 453.999c-124.667 128.667 -277.667 193 -459 193z" />
    <glyph glyph-name="ordfeminine" unicode="&#xaa;" horiz-adv-x="767" vert-adv-y="2457" 
d="M461 1257l0.00195312 17c0 35.333 -6.66699 62.333 -20 81c-18.667 26.667 -54.667 40 -108 40c-52.667 0 -119.667 -12.667 -201 -38v122c76 16.667 150.667 25 224 25c131.333 0 218.666 -25 261.999 -75c21.333 -24 34.333 -59.333 39 -106c2 -18 3 -46 3 -84v-388
c-96 -19.333 -196 -29 -300 -29c-98 0 -172 12 -222 36c-56 26.667 -84 76.334 -84 149.001c0 99.333 51.333 166.666 154 201.999c57.333 20 141.666 36 252.999 48zM461.002 1155c-62.667 -8.66699 -109.333 -20.001 -140 -34.001c-44 -21.333 -66 -55.666 -66 -102.999
c0 -62 40.667 -93 122 -93c26.667 0 54.667 3 84 9v221z" />
    <glyph glyph-name="guillemotleft" unicode="&#xab;" horiz-adv-x="863" vert-adv-y="2457" 
d="M647 569l174 -305l-105 -84l-318 389l318 389l105 -83zM277 569l174 -305l-105 -83l-318 388l318 389l105 -83z" />
    <glyph glyph-name="registered.salt" unicode="&#xac;" horiz-adv-x="1765" vert-adv-y="2457" 
d="M624 366v730.999c104 12 194.333 18 271 18c198.667 0 298 -74 298 -222c0 -116 -61.667 -185 -185 -207l250 -320h-202l-249 392c28 -8.66699 56.667 -13 86 -13c48 0 80.667 11.667 98 35c18 24 27 58.667 27 104c0 50.667 -9.66699 85.334 -29 104.001
c-16.667 16 -50.667 24 -102 24c-30 0 -60.667 -2.66699 -92 -8v-638h-171zM883 1504c229.333 0 416.999 -73 562.999 -219c66.667 -66.667 118.667 -144 156 -232c42 -98 63 -202 63 -312c0 -151.333 -38 -289.333 -114 -414c-72 -118 -168.667 -208.333 -290 -271
c-110 -56.667 -235.333 -85 -376 -85c-231.333 0 -419.666 74 -564.999 222c-146 148.667 -219 334.667 -219 558c0 144 38 278 114 402c70 114.667 166.667 203.667 290 267c110 56 236 84 378 84zM882.999 1388c-184 0 -336.999 -64.333 -458.999 -193
c-112.667 -119.333 -169 -267.666 -169 -444.999c0 -189.333 56.333 -345 169 -467c121.333 -130.667 274.666 -196 459.999 -196c184 0 336.667 65.333 458 196c112.667 122 169 274.667 169 458c0 185.333 -56.333 336.666 -169 453.999
c-124.667 128.667 -277.667 193 -459 193z" />
    <glyph glyph-name="uni00AD" unicode="&#xad;" horiz-adv-x="739" vert-adv-y="2457" 
d="M95 524v152h550v-152h-550z" />
    <glyph glyph-name="registered" unicode="&#xae;" horiz-adv-x="1152" vert-adv-y="2457" 
d="M402 849v484c70.667 7.33301 131 11 181 11c71.333 0 123 -14.667 155 -44c28.667 -26 43 -60.333 43 -103c0 -68 -37.667 -114.333 -113 -139l154 -209h-148l-144 232v-232h-128zM530 1121c17.333 -7.33301 35 -11 53 -11c45.333 0 68 25.667 68 77
c0 33.333 -5.33301 56 -16 68c-10 10.667 -29.667 16 -59 16c-14.667 0 -30 -1.66699 -46 -5v-145zM576 1573c144 0 261.999 -42.667 353.999 -128c97.333 -90 146 -207.333 146 -352c0 -144 -48.667 -261.333 -146 -352c-91.333 -85.333 -209 -128 -353 -128
c-145.333 0 -263.666 42.667 -354.999 128c-97.333 90.667 -146 210 -146 358c0 90 22.333 172.667 67 248c46 78 112 137.333 198 178c68.667 32 147 48 235 48zM575.999 1477c-106.667 0 -193.666 -34.334 -260.999 -103.001c-67.333 -69.333 -101 -161.333 -101 -276
c0 -120.667 33.667 -216 101 -286c67.333 -68.667 154.666 -103 261.999 -103c106.667 0 193 34.333 259 103c68 70 102 163.667 102 281c0 118.667 -34 212.334 -102 281.001c-67.333 68.667 -154 103 -260 103z" />
    <glyph glyph-name="macron" unicode="&#xaf;" horiz-adv-x="1024" vert-adv-y="2457" 
d="M222 1288v145h580v-145h-580z" />
    <glyph glyph-name="degree" unicode="&#xb0;" horiz-adv-x="611" vert-adv-y="2457" 
d="M305 1563c83.333 0 150.668 -23.335 202.001 -70.002c51.333 -47.333 77 -109.666 77 -186.999s-25.667 -139.666 -77 -186.999c-50.667 -46.667 -117.667 -70 -201 -70c-84.667 0 -152.334 23.333 -203.001 70c-51.333 47.333 -77 111 -77 191c0 76 25.667 137 77 183
c52 46.667 119.333 70 202 70zM305.002 1460c-33.333 0 -60.665 -12.668 -81.998 -38.001c-22.667 -27.333 -34 -65 -34 -113c0 -51.333 11.333 -90.666 34 -117.999c21.333 -25.333 48.666 -38 81.999 -38s60.666 12.667 81.999 38c22.667 27.333 34 66 34 116
s-11.333 88.333 -34 115c-22 25.333 -49.333 38 -82 38z" />
    <glyph glyph-name="plusminus" unicode="&#xb1;" vert-adv-y="2457" 
d="M113 606v152h344v345h169v-345h343v-152h-343v-345h-169v345h-344zM113 0v152h856v-152h-856z" />
    <glyph glyph-name="twosuperior" unicode="&#xb2;" horiz-adv-x="715" vert-adv-y="2457" 
d="M47 906v83.001l19 19c136 137.333 220 223.666 252 258.999c40 44.667 67.333 80.667 82 108c14.667 28.667 22 56.667 22 84c0 76.667 -43.333 115 -130 115c-54.667 0 -123 -17 -205 -51v109c70 23.333 146.667 35 230 35c203.333 0 305 -67.667 305 -203
c0 -47.333 -14.333 -92.333 -43 -135c-32 -47.333 -124 -144.333 -276 -291l-37 -35h373v-97h-592z" />
    <glyph glyph-name="threesuperior" unicode="&#xb3;" horiz-adv-x="715" vert-adv-y="2457" 
d="M194 1254l-0.000976562 92.001h60c104 0 156 41 156 123c0 70 -41.667 105 -125 105c-55.333 0 -121.666 -14.333 -198.999 -43v106c71.333 20 143.333 30 216 30c204.667 0 307 -63.667 307 -191c0 -42.667 -11 -77.334 -33 -104.001
c-15.333 -20 -41.333 -38.667 -78 -56c42.667 -15.333 74 -32.333 94 -51c34 -31.333 51 -77.333 51 -138c0 -156 -112.667 -234 -338 -234c-92 0 -171.667 11.667 -239 35v119c44 -22.667 79 -37.667 105 -45c34.667 -10.667 71.667 -16 111 -16c108 0 162 46.333 162 139
c0 50 -17.333 86.333 -52 109c-21.333 13.333 -58.333 20 -111 20h-87z" />
    <glyph glyph-name="acute" unicode="&#xb4;" horiz-adv-x="1024" vert-adv-y="2457" 
d="M388 1198l150 312h241l-220 -312h-171z" />
    <glyph glyph-name="mu" unicode="&#xb5;" vert-adv-y="2457" 
d="M133 -504l0.000976562 1557h235v-662c0 -103.333 8.33301 -172.333 25 -207c14.667 -31.333 36 -53 64 -65c23.333 -10.667 56.333 -16 99 -16c50.667 0 102 6.66699 154 20v930h235v-1040c-136.667 -28 -259.334 -42 -368.001 -42c-81.333 0 -151 9 -209 27v-502h-235z
" />
    <glyph glyph-name="paragraph" unicode="&#xb6;" horiz-adv-x="1270" vert-adv-y="2457" 
d="M452 -469v1174h-46c-72.667 0 -127 6.66699 -163 20c-82.667 29.333 -141.667 85.666 -177 168.999c-22 52.667 -33 115 -33 187c0 162 52 275.333 156 340c44.667 27.333 101.667 44.333 171 51c24 2 79 3 165 3h494v-1944h-214v1801h-139v-1801h-214z" />
    <glyph glyph-name="periodcentered" unicode="&#xb7;" horiz-adv-x="541" vert-adv-y="2457" 
d="M270 747c44.667 0 82 -16.667 112 -50c25.333 -28 38 -61.333 38 -100c0 -44.667 -16.333 -82 -49 -112c-28.667 -25.333 -62.667 -38 -102 -38c-44 0 -80.667 16.667 -110 50c-26 28 -39 62.333 -39 103c0 42 16.667 78 50 108c28 26 61.333 39 100 39z" />
    <glyph glyph-name="cedilla" unicode="&#xb8;" horiz-adv-x="1024" vert-adv-y="2457" 
d="M486 0h151l-57 -119c61.333 -6.66699 109.333 -17.667 144 -33c68 -29.333 102 -84 102 -164c0 -131.333 -92.333 -197 -277 -197c-62 0 -120 7.66699 -174 23v107c50 -16 96.667 -24 140 -24c74 0 111 33.333 111 100c0 44 -20 73.333 -60 88
c-22 8 -60.333 13.667 -115 17l-47 37z" />
    <glyph glyph-name="onesuperior" unicode="&#xb9;" horiz-adv-x="715" vert-adv-y="2457" 
d="M275 907v618l-159 -46v100l206 76h146v-748h-193z" />
    <glyph glyph-name="ordmasculine" unicode="&#xba;" horiz-adv-x="767" vert-adv-y="2457" 
d="M386 1504c213.333 0 320 -113.332 320 -339.999c0 -227.333 -107 -341 -321 -341c-216 0 -324 115 -324 345c0 103.333 25 184.666 75 243.999c52.667 61.333 136 92 250 92zM384 1401c-79.333 0 -119 -78 -119 -234c0 -160.667 39.667 -241 119 -241
c78.667 0 118 79.333 118 238c0 158 -39.333 237 -118 237z" />
    <glyph glyph-name="guillemotright" unicode="&#xbb;" horiz-adv-x="863" vert-adv-y="2457" 
d="M217 570l-174 305l104 83l319 -388l-319 -390l-104 84zM587 570l-174 305l105 83l318 -388l-318 -389l-105 83z" />
    <glyph glyph-name="onequarter" unicode="&#xbc;" horiz-adv-x="1586" vert-adv-y="2457" 
d="M258 743v619l-159 -46v100l206 75h146v-748h-193zM299 0l656 1475h151l-656 -1475h-151zM1197 174h-405v86l221 499h197l-223 -491h210v226h184v-226h101v-94h-101v-174h-184v174z" />
    <glyph glyph-name="onehalf" unicode="&#xbd;" horiz-adv-x="1586" vert-adv-y="2457" 
d="M269 743v619l-159 -46v100l206 75h146v-748h-193zM293 0l655 1475h152l-656 -1475h-151zM839 0v83l19 19c134 134.667 218 221.334 252 260.001c69.333 76 104 139.667 104 191c0 76.667 -43.333 115 -130 115c-54 0 -122.333 -17 -205 -51v109
c67.333 23.333 143.666 35 228.999 35c204 0 306 -68 306 -204c0 -56.667 -22 -111.667 -66 -165c-45.333 -54.667 -100.666 -113.334 -165.999 -176.001l-124 -119h373v-97h-592z" />
    <glyph glyph-name="threequarters" unicode="&#xbe;" horiz-adv-x="1586" vert-adv-y="2457" 
d="M191 1090l-0.000976562 92.001h60c104 0 156 41 156 123c0 70.667 -41.667 106 -125 106c-55.333 0 -121.666 -14.667 -198.999 -44v107c72 20 144 30 216 30c204.667 0 307 -64 307 -192c0 -42.667 -11 -77.334 -33 -104.001c-15.333 -20 -41.333 -38.667 -78 -56
c42.667 -15.333 74 -32.333 94 -51c34 -31.333 51 -77.333 51 -138c0 -156 -112.667 -234 -338 -234c-90 0 -169.667 11.667 -239 35v119c44 -22.667 79 -37.667 105 -45c34.667 -10.667 71.667 -16 111 -16c108 0 162 46.333 162 139c0 50 -17.333 86.333 -52 109
c-21.333 13.333 -58.333 20 -111 20h-87zM385.999 0.000976562l656 1475h151l-655 -1475h-152zM1241 174.001h-383v86l227 493h196l-228 -485h188v202h187v-202h102v-94h-102v-174h-187v174z" />
    <glyph glyph-name="questiondown" unicode="&#xbf;" horiz-adv-x="855" vert-adv-y="2457" 
d="M396 589l191.002 0.000976562v-65c0 -84.667 -9.33301 -150 -28 -196c-14.667 -34 -34.334 -68.333 -59.001 -103l-84 -107c-31.333 -40 -57.333 -78.667 -78 -116c-23.333 -42 -35 -87 -35 -135c0 -64.667 18.333 -114.334 55 -149.001c38 -35.333 92.333 -53 163 -53
c67.333 0 142.666 11.667 225.999 35v-145c-86.667 -20.667 -176.667 -31 -270 -31c-139.333 0 -243.333 30 -312 90c-69.333 60.667 -104 142 -104 244c0 86 24.333 166 73 240c26.667 40 84.667 105.667 174 197c43.333 44 69.333 86 78 126c6.66699 28.667 10 60 10 94
v74zM473.002 1062c44.667 0 82 -16.668 112 -50.001c25.333 -28 38 -61.333 38 -100c0 -44.667 -16.333 -82 -49 -112c-28.667 -25.333 -62.667 -38 -102 -38c-44 0 -80.667 16.333 -110 49c-26 28.667 -39 63.334 -39 104.001c0 42 16.667 78 50 108
c28 26 61.333 39 100 39z" />
    <glyph glyph-name="Agrave" unicode="&#xc0;" horiz-adv-x="1173" vert-adv-y="2457" 
d="M823 377h-529l-117 -377h-206l494 1475h239l489 -1475h-254zM779 524l-217 716l-222 -716h439zM535 1599l-221 313h241l150 -313h-170z" />
    <glyph glyph-name="Aacute" unicode="&#xc1;" horiz-adv-x="1173" vert-adv-y="2457" 
d="M823 377h-529l-117 -377h-206l494 1475h239l489 -1475h-254zM779 524l-217 716l-222 -716h439zM470 1599l150 313h242l-221 -313h-171z" />
    <glyph glyph-name="Acircumflex" unicode="&#xc2;" horiz-adv-x="1173" vert-adv-y="2457" 
d="M823 377h-529l-117 -377h-206l494 1475h239l489 -1475h-254zM779 524l-217 716l-222 -716h439zM587 1792l-138 -193h-179l214 313h205l215 -313h-179z" />
    <glyph glyph-name="Atilde" unicode="&#xc3;" horiz-adv-x="1173" vert-adv-y="2457" 
d="M823 377h-529l-117 -377h-206l494 1475h239l489 -1475h-254zM779 524l-217 716l-222 -716h439zM382 1609h-133.002c9.33301 72 23.333 126.667 42 164c36.667 75.333 97.334 113 182.001 113c40 0 75.333 -9.33301 106 -28c16.667 -10.667 39.334 -30.667 68.001 -60
c23.333 -24.667 38.333 -39.667 45 -45c9.33301 -7.33301 18.666 -11 27.999 -11c38.667 0 62.667 43.333 72 130h133c-17.333 -184.667 -92 -277 -224 -277c-49.333 0 -91.666 13.667 -126.999 41c-19.333 16 -42.333 38.667 -69 68c-20 23.333 -37.333 35 -52 35
c-38 0 -61.667 -43.333 -71 -130z" />
    <glyph glyph-name="Adieresis" unicode="&#xc4;" horiz-adv-x="1173" vert-adv-y="2457" 
d="M823 377h-529l-117 -377h-206l494 1475h239l489 -1475h-254zM779 524l-217 716l-222 -716h439zM408 1864c37.333 0 68.332 -13.665 92.999 -40.998c21.333 -24 32 -52 32 -84c0 -36.667 -13.667 -67.334 -41 -92.001c-23.333 -21.333 -51.666 -32 -84.999 -32
c-36.667 0 -67 13.667 -91 41c-21.333 24 -32 52.333 -32 85c0 35.333 13.667 65.666 41 90.999c23.333 21.333 51 32 83 32zM761.999 1864c37.333 0 68.333 -13.665 93 -40.998c21.333 -24 32 -52 32 -84c0 -36.667 -13.667 -67.334 -41 -92.001
c-23.333 -21.333 -51.333 -32 -84 -32c-37.333 0 -68 13.667 -92 41c-21.333 24 -32 52.333 -32 85c0 35.333 13.667 65.666 41 90.999c23.333 21.333 51 32 83 32z" />
    <glyph glyph-name="Aring" unicode="&#xc5;" horiz-adv-x="1173" vert-adv-y="2457" 
d="M823 377h-529l-117 -377h-206l494 1475h239l489 -1475h-254zM779 524l-217 716l-222 -716h439zM587 1991c75.333 0 133.667 -21.332 175 -63.999c37.333 -38.667 56 -86.334 56 -143.001s-18.667 -104.334 -56 -143.001c-41.333 -42.667 -99.333 -64 -174 -64
c-76 0 -134.667 21.333 -176 64c-37.333 38.667 -56 87.334 -56 146.001c0 56 18.667 102.667 56 140c42.667 42.667 101 64 175 64zM587.001 1908c-56 0 -84 -40.667 -84 -122c0 -84 28 -126 84 -126s84 41.333 84 124s-28 124 -84 124z" />
    <glyph glyph-name="AE" unicode="&#xc6;" horiz-adv-x="1723" vert-adv-y="2457" 
d="M835 407h-511l-226 -407h-215l844 1475h916v-147h-566v-474h452v-147h-452v-560h588v-147h-830v407zM835 554v776l-430 -776h430z" />
    <glyph glyph-name="Ccedilla" unicode="&#xc7;" horiz-adv-x="995" vert-adv-y="2457" 
d="M962 157v-154.002c-65.333 -21.333 -142 -32 -230 -32c-16 0 -38 0.666992 -66 2l-44 -92c61.333 -6.66699 109.333 -17.667 144 -33c68 -29.333 102 -84 102 -164c0 -131.333 -92.333 -197 -277 -197c-62 0 -120 7.66699 -174 23v107c50 -16 96.667 -24 140 -24
c74 0 111 33.333 111 100c0 44 -20 73.333 -60 88c-22 8 -60.333 13.667 -115 17l-47 37l78 157c-108.667 26.667 -195.334 74.334 -260.001 143.001c-114 121.333 -171 313 -171 575c0 260.667 56.667 462 170 604c100.667 126.667 254 190 460 190
c79.333 0 151 -10.333 215 -31v-149c-67.333 24 -130.666 36 -189.999 36c-151.333 0 -258 -63.667 -320 -191c-56 -115.333 -84 -269.333 -84 -462c0 -179.333 27.333 -319.666 82 -420.999c61.333 -114 166 -171 314 -171c75.333 0 149.333 14 222 42z" />
    <glyph glyph-name="Egrave" unicode="&#xc8;" horiz-adv-x="1055" vert-adv-y="2457" 
d="M166 0v1475h807v-147h-565v-474h451v-147h-451v-560h588v-147h-830zM544 1599l-220 313h241l150 -313h-171z" />
    <glyph glyph-name="Eacute" unicode="&#xc9;" horiz-adv-x="1055" vert-adv-y="2457" 
d="M166 0v1475h807v-147h-565v-474h451v-147h-451v-560h588v-147h-830zM472 1599l150 313h241l-220 -313h-171z" />
    <glyph glyph-name="Ecircumflex" unicode="&#xca;" horiz-adv-x="1055" vert-adv-y="2457" 
d="M166 0v1475h807v-147h-565v-474h451v-147h-451v-560h588v-147h-830zM572 1792l-138 -193h-179l214 313h205l215 -313h-179z" />
    <glyph glyph-name="Edieresis" unicode="&#xcb;" horiz-adv-x="1055" vert-adv-y="2457" 
d="M166 0v1475h807v-147h-565v-474h451v-147h-451v-560h588v-147h-830zM399 1864c37.333 0 68.332 -13.665 92.999 -40.998c21.333 -24 32 -52 32 -84c0 -36.667 -13.667 -67.334 -41 -92.001c-23.333 -21.333 -51.666 -32 -84.999 -32c-36.667 0 -67 13.667 -91 41
c-21.333 24 -32 52.333 -32 85c0 35.333 13.667 65.666 41 90.999c23.333 21.333 51 32 83 32zM753.999 1864c37.333 0 68.334 -13.665 93.001 -40.998c21.333 -24 32 -52 32 -84c0 -36.667 -13.667 -67.334 -41 -92.001c-23.333 -21.333 -51.333 -32 -84 -32
c-36.667 0 -67.334 13.667 -92.001 41c-21.333 24 -32 52.333 -32 85c0 35.333 13.667 65.666 41 90.999c23.333 21.333 51 32 83 32z" />
    <glyph glyph-name="Igrave" unicode="&#xcc;" horiz-adv-x="598" vert-adv-y="2457" 
d="M178 0v1475h242v-1475h-242zM239 1599l-221 313h241l150 -313h-170z" />
    <glyph glyph-name="Iacute" unicode="&#xcd;" horiz-adv-x="598" vert-adv-y="2457" 
d="M178 0v1475h242v-1475h-242zM191 1599l150 313h242l-221 -313h-171z" />
    <glyph glyph-name="Icircumflex" unicode="&#xce;" horiz-adv-x="598" vert-adv-y="2457" 
d="M178 0v1475h242v-1475h-242zM299 1792l-138 -193h-179l214 313h205l215 -313h-179z" />
    <glyph glyph-name="Idieresis" unicode="&#xcf;" horiz-adv-x="598" vert-adv-y="2457" 
d="M179 0v1475h242v-1475h-242zM121 1864c36.667 0 67.333 -13.665 92 -40.998c21.333 -24 32 -52 32 -84c0 -36.667 -13.667 -67.334 -41 -92.001c-23.333 -21.333 -51.333 -32 -84 -32c-37.333 0 -68 13.667 -92 41c-21.333 24 -32 52.333 -32 85
c0 35.333 13.667 65.666 41 90.999c23.333 21.333 51.333 32 84 32zM474.999 1864c37.333 0 68.333 -13.665 93 -40.998c21.333 -24 32 -52 32 -84c0 -36.667 -13.667 -67.334 -41 -92.001c-23.333 -21.333 -51.333 -32 -84 -32c-37.333 0 -68 13.667 -92 41
c-21.333 24 -32 52.333 -32 85c0 35.333 13.667 65.666 41 90.999c23.333 21.333 51 32 83 32z" />
    <glyph glyph-name="Eth" unicode="&#xd0;" horiz-adv-x="1275" vert-adv-y="2457" 
d="M168 834l0.000976562 641c141.333 19.333 269.666 29 384.999 29c148 0 266 -28.667 354 -86c182 -119.333 273 -345 273 -677c0 -276.667 -58 -478.667 -174 -606c-66.667 -72 -150.667 -119.667 -252 -143c-60 -14 -133.333 -21 -220 -21c-116 0 -238 9.66699 -366 29
v689h-160v145h160zM410.001 834h292.999v-145h-293v-559c42.667 -10 85.334 -15 128.001 -15c147.333 0 253 64.667 317 194c49.333 99.333 74 243.333 74 432c0 202.667 -32.667 359 -98 469c-33.333 54.667 -73.333 93.667 -120 117c-45.333 22 -100 33 -164 33
c-45.333 0 -91 -4.33301 -137 -13v-513z" />
    <glyph glyph-name="Ntilde" unicode="&#xd1;" horiz-adv-x="1331" vert-adv-y="2457" 
d="M166 0v1475h267l435 -929c32 -68.667 67.333 -157 106 -265c-5.33301 85.333 -8 171 -8 257v937h198v-1475h-253l-473 1008c-24 52.667 -51.333 121.667 -82 207c5.33301 -96.667 8 -172.334 8 -227.001v-988h-198zM498 1609h-133.002c9.33301 72 23.333 126.667 42 164
c37.333 75.333 97.666 113 180.999 113c40.667 0 76.334 -9.33301 107.001 -28c16.667 -10 39.334 -30 68.001 -60c23.333 -24 38.333 -39 45 -45c9.33301 -7.33301 18.666 -11 27.999 -11c38.667 0 62.667 43.333 72 130h133c-18 -184.667 -92.667 -277 -224 -277
c-49.333 0 -91.666 13.667 -126.999 41c-19.333 16 -42.333 38.667 -69 68c-20 23.333 -37.667 35 -53 35c-37.333 0 -60.666 -43.333 -69.999 -130z" />
    <glyph glyph-name="Ograve" unicode="&#xd2;" horiz-adv-x="1299" vert-adv-y="2457" 
d="M653 1504c132.667 0 243.333 -36 332 -108c146.667 -118.667 220 -338 220 -658c0 -511.333 -185 -767 -555 -767c-371.333 0 -557 259 -557 777c0 504 186.667 756 560 756zM648.999 1360c-116 0 -196.334 -56.6689 -241.001 -170.002
c-42.667 -108.667 -64 -257 -64 -445c0 -197.333 21.333 -350.666 64 -459.999c44.667 -113.333 125.334 -170 242.001 -170c115.333 0 195.333 56.667 240 170c42.667 109.333 64 260.333 64 453c0 196.667 -21.333 347.334 -64 452.001c-46 113.333 -126.333 170 -241 170
zM618.998 1599l-221 313h241l150 -313h-170z" />
    <glyph glyph-name="Oacute" unicode="&#xd3;" horiz-adv-x="1299" vert-adv-y="2457" 
d="M653 1504c132.667 0 243.333 -36 332 -108c146.667 -118.667 220 -338 220 -658c0 -511.333 -185 -767 -555 -767c-371.333 0 -557 259 -557 777c0 504 186.667 756 560 756zM648.999 1360c-116 0 -196.334 -56.6689 -241.001 -170.002
c-42.667 -108.667 -64 -257 -64 -445c0 -197.333 21.333 -350.666 64 -459.999c44.667 -113.333 125.334 -170 242.001 -170c115.333 0 195.333 56.667 240 170c42.667 109.333 64 260.333 64 453c0 196.667 -21.333 347.334 -64 452.001c-46 113.333 -126.333 170 -241 170
zM537.998 1599l150 313h242l-221 -313h-171z" />
    <glyph glyph-name="Ocircumflex" unicode="&#xd4;" horiz-adv-x="1299" vert-adv-y="2457" 
d="M653 1504c132.667 0 243.333 -36 332 -108c146.667 -118.667 220 -338 220 -658c0 -511.333 -185 -767 -555 -767c-371.333 0 -557 259 -557 777c0 504 186.667 756 560 756zM648.999 1360c-116 0 -196.334 -56.6689 -241.001 -170.002
c-42.667 -108.667 -64 -257 -64 -445c0 -197.333 21.333 -350.666 64 -459.999c44.667 -113.333 125.334 -170 242.001 -170c115.333 0 195.333 56.667 240 170c42.667 109.333 64 260.333 64 453c0 196.667 -21.333 347.334 -64 452.001c-46 113.333 -126.333 170 -241 170
zM648.998 1792l-138 -193h-179l214 313h205l215 -313h-179z" />
    <glyph glyph-name="Otilde" unicode="&#xd5;" horiz-adv-x="1299" vert-adv-y="2457" 
d="M653 1504c132.667 0 243.333 -36 332 -108c146.667 -118.667 220 -338 220 -658c0 -511.333 -185 -767 -555 -767c-371.333 0 -557 259 -557 777c0 504 186.667 756 560 756zM648.999 1360c-116 0 -196.334 -56.6689 -241.001 -170.002
c-42.667 -108.667 -64 -257 -64 -445c0 -197.333 21.333 -350.666 64 -459.999c44.667 -113.333 125.334 -170 242.001 -170c115.333 0 195.333 56.667 240 170c42.667 109.333 64 260.333 64 453c0 196.667 -21.333 347.334 -64 452.001c-46 113.333 -126.333 170 -241 170
zM443.998 1609h-133.002c9.33301 72 23.333 126.667 42 164c37.333 75.333 97.666 113 180.999 113c40.667 0 76.334 -9.33301 107.001 -28c16.667 -10 39.334 -30 68.001 -60c23.333 -24 38.333 -39 45 -45c9.33301 -7.33301 18.666 -11 27.999 -11c38 0 62 43.333 72 130
h133c-18 -184.667 -92.667 -277 -224 -277c-49.333 0 -91.666 13.667 -126.999 41c-19.333 16 -42.333 38.667 -69 68c-20 23.333 -37.667 35 -53 35c-37.333 0 -60.666 -43.333 -69.999 -130z" />
    <glyph glyph-name="Odieresis" unicode="&#xd6;" horiz-adv-x="1299" vert-adv-y="2457" 
d="M653 1504c132.667 0 243.333 -36 332 -108c146.667 -118.667 220 -338 220 -658c0 -511.333 -185 -767 -555 -767c-371.333 0 -557 259 -557 777c0 504 186.667 756 560 756zM648.999 1360c-116 0 -196.334 -56.6689 -241.001 -170.002
c-42.667 -108.667 -64 -257 -64 -445c0 -197.333 21.333 -350.666 64 -459.999c44.667 -113.333 125.334 -170 242.001 -170c115.333 0 195.333 56.667 240 170c42.667 109.333 64 260.333 64 453c0 196.667 -21.333 347.334 -64 452.001c-46 113.333 -126.333 170 -241 170
zM469.998 1864c36.667 0 67.333 -13.665 92 -40.998c21.333 -24 32 -52 32 -84c0 -36.667 -13.667 -67.334 -41 -92.001c-23.333 -21.333 -51.333 -32 -84 -32c-37.333 0 -68 13.667 -92 41c-21.333 24 -32 52.333 -32 85c0 35.333 13.667 65.666 41 90.999
c23.333 21.333 51.333 32 84 32zM823.997 1864c37.333 0 68.332 -13.665 92.999 -40.998c21.333 -24 32 -52 32 -84c0 -36.667 -13.667 -67.334 -41 -92.001c-23.333 -21.333 -51.666 -32 -84.999 -32c-36.667 0 -67 13.667 -91 41c-21.333 24 -32 52.333 -32 85
c0 35.333 13.667 65.666 41 90.999c23.333 21.333 51 32 83 32z" />
    <glyph glyph-name="multiply" unicode="&#xd7;" vert-adv-y="2457" 
d="M431 643l-268 268l110 109l268 -268l268 268l109 -109l-268 -268l268 -268l-109 -110l-268 268l-268 -268l-110 110z" />
    <glyph glyph-name="Oslash" unicode="&#xd8;" horiz-adv-x="1299" vert-adv-y="2457" 
d="M207 -39l-134.002 85.002l119 173c-70 135.333 -105 308.333 -105 519c0 226.667 38.333 405.667 115 537c46 79.333 111 138.666 195 177.999c70.667 34 150.334 51 239.001 51c100.667 0 187.667 -18.667 261 -56c26.667 -14 58 -35.667 94 -65l90 131l132 -85
l-119 -173c27.333 -52.667 48.333 -104.667 63 -156c28 -98.667 42 -218.334 42 -359.001c0 -229.333 -38.333 -410 -115 -542c-46.667 -78.667 -111.667 -137.667 -195 -177c-70.667 -34 -151 -51 -241 -51c-141.333 0 -258.666 39.667 -351.999 119zM357.998 462.002
l517 751.001c-49.333 98 -126 147 -230 147c-117.333 0 -198.333 -56.667 -243 -170c-42.667 -109.333 -64 -259.333 -64 -450c0 -104.667 6.66699 -197.334 20 -278.001zM411.998 261.003c26 -42 49.333 -72.333 70 -91c41.333 -36.667 93.666 -55 156.999 -55
c118.667 0 200.334 56.667 245.001 170c42.667 109.333 64 261.333 64 456c0 96 -6.66699 186.333 -20 271z" />
    <glyph glyph-name="Ugrave" unicode="&#xd9;" horiz-adv-x="1257" vert-adv-y="2457" 
d="M157 1475h242v-983c0 -126.667 11.667 -214.667 35 -264c36 -77.333 107.667 -116 215 -116c114 0 188 45.333 222 136c18 48 27 129.333 27 244v983h202v-936c0 -89.333 -3 -157 -9 -203c-17.333 -131.333 -68 -226 -152 -284c-77.333 -54 -180 -81 -308 -81
c-223.333 0 -367.333 78 -432 234c-28 68 -42 179.333 -42 334v936zM596 1599l-221 313h241l150 -313h-170z" />
    <glyph glyph-name="Uacute" unicode="&#xda;" horiz-adv-x="1257" vert-adv-y="2457" 
d="M157 1475h242v-983c0 -126.667 11.667 -214.667 35 -264c36 -77.333 107.667 -116 215 -116c114 0 188 45.333 222 136c18 48 27 129.333 27 244v983h202v-936c0 -89.333 -3 -157 -9 -203c-17.333 -131.333 -68 -226 -152 -284c-77.333 -54 -180 -81 -308 -81
c-223.333 0 -367.333 78 -432 234c-28 68 -42 179.333 -42 334v936zM557 1599l150 313h241l-221 -313h-170z" />
    <glyph glyph-name="Ucircumflex" unicode="&#xdb;" horiz-adv-x="1257" vert-adv-y="2457" 
d="M157 1475h242v-983c0 -126.667 11.667 -214.667 35 -264c36 -77.333 107.667 -116 215 -116c114 0 188 45.333 222 136c18 48 27 129.333 27 244v983h202v-936c0 -89.333 -3 -157 -9 -203c-17.333 -131.333 -68 -226 -152 -284c-77.333 -54 -180 -81 -308 -81
c-223.333 0 -367.333 78 -432 234c-28 68 -42 179.333 -42 334v936zM637 1792l-138 -193h-179l214 313h205l215 -313h-179z" />
    <glyph glyph-name="Udieresis" unicode="&#xdc;" horiz-adv-x="1257" vert-adv-y="2457" 
d="M157 1475h242v-983c0 -126.667 11.667 -214.667 35 -264c36 -77.333 107.667 -116 215 -116c114 0 188 45.333 222 136c18 48 27 129.333 27 244v983h202v-936c0 -89.333 -3 -157 -9 -203c-17.333 -131.333 -68 -226 -152 -284c-77.333 -54 -180 -81 -308 -81
c-223.333 0 -367.333 78 -432 234c-28 68 -42 179.333 -42 334v936zM470 1864c37.333 0 68.333 -13.665 93 -40.998c21.333 -24 32 -52 32 -84c0 -36.667 -13.667 -67.334 -41 -92.001c-23.333 -21.333 -51.333 -32 -84 -32c-37.333 0 -68 13.667 -92 41
c-21.333 24 -32 52.333 -32 85c0 35.333 13.667 65.666 41 90.999c23.333 21.333 51 32 83 32zM825 1864c37.333 0 68.333 -13.665 93 -40.998c21.333 -24 32 -52 32 -84c0 -36.667 -13.667 -67.334 -41 -92.001c-23.333 -21.333 -51.333 -32 -84 -32
c-37.333 0 -68 13.667 -92 41c-21.333 24 -32 52.333 -32 85c0 35.333 13.667 65.666 41 90.999c23.333 21.333 51 32 83 32z" />
    <glyph glyph-name="Yacute" unicode="&#xdd;" horiz-adv-x="1024" vert-adv-y="2457" 
d="M388 0v547l-430 928h264l312 -729l302 729h217l-423 -930v-545h-242zM438 1599l150 313h241l-221 -313h-170z" />
    <glyph glyph-name="Thorn" unicode="&#xde;" horiz-adv-x="1110" vert-adv-y="2457" 
d="M166 0l0.000976562 1475h242v-236c60.667 6 117 9 169 9c177.333 0 304.666 -46.333 381.999 -139c66.667 -80 100 -189 100 -327c0 -136.667 -28.333 -245.334 -85 -326.001c-76 -108.667 -199.333 -163 -370 -163c-64 0 -129.333 10.333 -196 31v-324h-242z
M408.001 467.001c52.667 -20 104.667 -30.002 156 -30.002c96.667 0 163.667 34.333 201 103c30.667 56.667 46 134.334 46 233.001c0 108.667 -20.667 192.334 -62 251.001c-37.333 53.333 -104.333 80 -201 80c-42 0 -88.667 -3.66699 -140 -11v-626z" />
    <glyph glyph-name="germandbls" unicode="&#xdf;" horiz-adv-x="1166" vert-adv-y="2457" 
d="M156 0v1074c0 186.667 24.667 316.667 74 390c66 98.667 184 148 354 148c141.333 0 247.333 -34 318 -102c60.667 -58.667 91 -136 91 -232c0 -57.333 -14.333 -108.666 -43 -153.999c-12.667 -20 -43.667 -57.333 -93 -112c-38 -41.333 -64 -73.333 -78 -96
c-16.667 -26 -25 -51.333 -25 -76c0 -36.667 17.667 -73 53 -109c17.333 -17.333 59.666 -51 126.999 -101c62.667 -46.667 111.667 -97.667 147 -153c34.667 -54.667 52 -116.667 52 -186c0 -213.333 -124.667 -320 -374 -320c-74.667 0 -145 9.66699 -211 29v144
c57.333 -25.333 117.333 -38 180 -38c130.667 0 196 51.667 196 155c0 48 -15 88.333 -45 121c-15.333 16.667 -59.333 55.667 -132 117c-67.333 58 -113.333 104 -138 138c-34.667 48.667 -52 97.334 -52 146.001c0 43.333 12.333 86.333 37 129
c6 9.33301 34 45.666 84 108.999c31.333 39.333 55 75 71 107c17.333 34.667 26 74.667 26 120c0 152.667 -62.333 229 -187 229c-87.333 0 -144.666 -36.333 -171.999 -109c-16.667 -44 -25 -119 -25 -225v-1143h-235z" />
    <glyph glyph-name="agrave" unicode="&#xe0;" horiz-adv-x="1070" vert-adv-y="2457" 
d="M689 674l-0.000976562 40.001c0 69.333 -11.333 121 -34 155c-32 50.667 -97.667 76 -197 76c-83.333 0 -174.666 -16 -273.999 -48v147c94 25.333 196.667 38 308 38c186 0 310.333 -41 373 -123c29.333 -38.667 47.666 -95 54.999 -169
c2.66699 -28.667 4 -73.667 4 -135v-643c-142.667 -28 -287.667 -42 -435 -42c-135.333 0 -237.333 18.667 -306 56c-78 43.333 -117 121.666 -117 234.999c0 126.667 48 221.334 144 284.001c68 44 180 79.667 336 107c30.667 5.33301 78.334 12.666 143.001 21.999z
M688.999 547.001c-10.667 -2 -18.667 -3.66699 -24 -5c-112.667 -20.667 -194.667 -43.667 -246 -69c-77.333 -38 -116 -101.667 -116 -191c0 -118 70.667 -177 212 -177c67.333 0 125.333 7 174 21v421zM511.999 1198l-221 312h242l150 -312h-171z" />
    <glyph glyph-name="aacute" unicode="&#xe1;" horiz-adv-x="1070" vert-adv-y="2457" 
d="M689 674l-0.000976562 40.001c0 69.333 -11.333 121 -34 155c-32 50.667 -97.667 76 -197 76c-83.333 0 -174.666 -16 -273.999 -48v147c94 25.333 196.667 38 308 38c186 0 310.333 -41 373 -123c29.333 -38.667 47.666 -95 54.999 -169
c2.66699 -28.667 4 -73.667 4 -135v-643c-142.667 -28 -287.667 -42 -435 -42c-135.333 0 -237.333 18.667 -306 56c-78 43.333 -117 121.666 -117 234.999c0 126.667 48 221.334 144 284.001c68 44 180 79.667 336 107c30.667 5.33301 78.334 12.666 143.001 21.999z
M688.999 547.001c-10.667 -2 -18.667 -3.66699 -24 -5c-112.667 -20.667 -194.667 -43.667 -246 -69c-77.333 -38 -116 -101.667 -116 -191c0 -118 70.667 -177 212 -177c67.333 0 125.333 7 174 21v421zM426.999 1198l150 312h241l-221 -312h-170z" />
    <glyph glyph-name="acircumflex" unicode="&#xe2;" horiz-adv-x="1070" vert-adv-y="2457" 
d="M689 674l-0.000976562 40.001c0 69.333 -11.333 121 -34 155c-32 50.667 -97.667 76 -197 76c-83.333 0 -174.666 -16 -273.999 -48v147c94 25.333 196.667 38 308 38c186 0 310.333 -41 373 -123c29.333 -38.667 47.666 -95 54.999 -169
c2.66699 -28.667 4 -73.667 4 -135v-643c-142.667 -28 -287.667 -42 -435 -42c-135.333 0 -237.333 18.667 -306 56c-78 43.333 -117 121.666 -117 234.999c0 126.667 48 221.334 144 284.001c68 44 180 79.667 336 107c30.667 5.33301 78.334 12.666 143.001 21.999z
M688.999 547.001c-10.667 -2 -18.667 -3.66699 -24 -5c-112.667 -20.667 -194.667 -43.667 -246 -69c-77.333 -38 -116 -101.667 -116 -191c0 -118 70.667 -177 212 -177c67.333 0 125.333 7 174 21v421zM546.999 1391l-138 -193h-179l214 312h205l215 -312h-179z" />
    <glyph glyph-name="atilde" unicode="&#xe3;" horiz-adv-x="1070" vert-adv-y="2457" 
d="M689 674l-0.000976562 40.001c0 69.333 -11.333 121 -34 155c-32 50.667 -97.667 76 -197 76c-83.333 0 -174.666 -16 -273.999 -48v147c94 25.333 196.667 38 308 38c186 0 310.333 -41 373 -123c29.333 -38.667 47.666 -95 54.999 -169
c2.66699 -28.667 4 -73.667 4 -135v-643c-142.667 -28 -287.667 -42 -435 -42c-135.333 0 -237.333 18.667 -306 56c-78 43.333 -117 121.666 -117 234.999c0 126.667 48 221.334 144 284.001c68 44 180 79.667 336 107c30.667 5.33301 78.334 12.666 143.001 21.999z
M688.999 547.001c-10.667 -2 -18.667 -3.66699 -24 -5c-112.667 -20.667 -194.667 -43.667 -246 -69c-77.333 -38 -116 -101.667 -116 -191c0 -118 70.667 -177 212 -177c67.333 0 125.333 7 174 21v421zM329.999 1232h-133c9.33301 72 23.333 127 42 165
c37.333 74.667 98 112 182 112c40 0 75.333 -9.33301 106 -28c17.333 -10 40.333 -30 69 -60c22.667 -24 37.334 -39 44.001 -45c10 -7.33301 19.667 -11 29 -11c37.333 0 61 43.333 71 130h133c-18 -184.667 -92.667 -277 -224 -277c-49.333 0 -91.333 13.667 -126 41
c-19.333 15.333 -42.333 38.333 -69 69c-20.667 22.667 -38.334 34 -53.001 34c-38 0 -61.667 -43.333 -71 -130z" />
    <glyph glyph-name="adieresis" unicode="&#xe4;" horiz-adv-x="1070" vert-adv-y="2457" 
d="M689 674l-0.000976562 40.001c0 69.333 -11.333 121 -34 155c-32 50.667 -97.667 76 -197 76c-83.333 0 -174.666 -16 -273.999 -48v147c94 25.333 196.667 38 308 38c186 0 310.333 -41 373 -123c29.333 -38.667 47.666 -95 54.999 -169
c2.66699 -28.667 4 -73.667 4 -135v-643c-142.667 -28 -287.667 -42 -435 -42c-135.333 0 -237.333 18.667 -306 56c-78 43.333 -117 121.666 -117 234.999c0 126.667 48 221.334 144 284.001c68 44 180 79.667 336 107c30.667 5.33301 78.334 12.666 143.001 21.999z
M688.999 547.001c-10.667 -2 -18.667 -3.66699 -24 -5c-112.667 -20.667 -194.667 -43.667 -246 -69c-77.333 -38 -116 -101.667 -116 -191c0 -118 70.667 -177 212 -177c67.333 0 125.333 7 174 21v421zM362.999 1485c36.667 0 67.333 -13.666 92 -40.999
c21.333 -24 32 -51.667 32 -83c0 -37.333 -13.667 -68.333 -41 -93c-23.333 -21.333 -51.333 -32 -84 -32c-37.333 0 -68 13.667 -92 41c-21.333 24 -32 52.333 -32 85c0 35.333 13.667 65.666 41 90.999c23.333 21.333 51.333 32 84 32zM704.998 1485
c36.667 0 67.332 -13.666 91.999 -40.999c21.333 -24 32 -51.667 32 -83c0 -37.333 -13.667 -68.333 -41 -93c-23.333 -21.333 -51.666 -32 -84.999 -32c-36.667 0 -67 13.667 -91 41c-21.333 24 -32 52.333 -32 85c0 35.333 13.667 65.666 41 90.999
c23.333 21.333 51.333 32 84 32z" />
    <glyph glyph-name="aring" unicode="&#xe5;" horiz-adv-x="1070" vert-adv-y="2457" 
d="M689 674l-0.000976562 40.001c0 69.333 -11.333 121 -34 155c-32 50.667 -97.667 76 -197 76c-83.333 0 -174.666 -16 -273.999 -48v147c94 25.333 196.667 38 308 38c186 0 310.333 -41 373 -123c29.333 -38.667 47.666 -95 54.999 -169
c2.66699 -28.667 4 -73.667 4 -135v-643c-142.667 -28 -287.667 -42 -435 -42c-135.333 0 -237.333 18.667 -306 56c-78 43.333 -117 121.666 -117 234.999c0 126.667 48 221.334 144 284.001c68 44 180 79.667 336 107c30.667 5.33301 78.334 12.666 143.001 21.999z
M688.999 547.001c-10.667 -2 -18.667 -3.66699 -24 -5c-112.667 -20.667 -194.667 -43.667 -246 -69c-77.333 -38 -116 -101.667 -116 -191c0 -118 70.667 -177 212 -177c67.333 0 125.333 7 174 21v421zM569.999 1592c75.333 0 133.666 -21.333 174.999 -64
c37.333 -38 56 -85.667 56 -143c0 -56 -18.667 -103.333 -56 -142c-41.333 -42.667 -100.333 -64 -177 -64c-74.667 0 -132.667 21.333 -174 64c-37.333 38 -56 86.333 -56 145c0 56 18.667 102.667 56 140c42.667 42.667 101.334 64 176.001 64zM569.999 1509
c-56.667 0 -85 -40.667 -85 -122c0 -83.333 28.333 -125 85 -125c56 0 84 41.333 84 124c0 82 -28 123 -84 123z" />
    <glyph glyph-name="ae" unicode="&#xe6;" horiz-adv-x="1642" vert-adv-y="2457" 
d="M689 619l0.000976562 89.998c0 70.667 -11.333 123.667 -34 159c-32 51.333 -97.667 77 -197 77c-84 0 -175.333 -18 -274 -54v145c98 30.667 199.333 46 304 46c109.333 0 194.333 -18 255 -54c34.667 -21.333 63.667 -46.333 87 -75c78.667 86 183.334 129 314.001 129
c194.667 0 320 -85.667 376 -257c26.667 -81.333 40 -193.333 40 -336h-637c0.666992 -93.333 12.334 -169 35.001 -227c23.333 -59.333 62.666 -101 117.999 -125c44 -19.333 103 -29 177 -29c96.667 0 181 15.667 253 47v-141c-84.667 -28.667 -181 -43 -289 -43
c-120.667 0 -217.334 16.333 -290.001 49c-39.333 18 -76.666 44.667 -111.999 80c-82.667 -86 -206.334 -129 -371.001 -129c-106.667 0 -192.334 17.333 -257.001 52c-80.667 42.667 -121 123.334 -121 242.001c0 150.667 63.667 251.334 191 302.001
c87.333 34.667 207.333 52 360 52h72zM690.001 488.998l-67.999 0.000976562c-88 0 -159.667 -12 -215 -36c-69.333 -30.667 -104 -88.334 -104 -173.001c0 -116 63 -174 189 -174c107.333 0 187.666 41 240.999 123c-26.667 69.333 -41 156 -43 260zM924.002 618.999h413
c-2 70.667 -9.66699 130.667 -23 180c-14.667 53.333 -36.667 92 -66 116c-26.667 21.333 -62.667 32 -108 32c-88.667 0 -149.667 -48.333 -183 -145c-16.667 -49.333 -27.667 -110.333 -33 -183z" />
    <glyph glyph-name="ccedilla" unicode="&#xe7;" horiz-adv-x="829" vert-adv-y="2457" 
d="M787 147l-0.000976562 -143c-71.333 -22 -146 -33 -224 -33c-14 0 -28 0.333008 -42 1l-43 -91c60.667 -6.66699 108.667 -17.667 144 -33c68 -29.333 102 -84 102 -164c0 -131.333 -92.333 -197 -277 -197c-62 0 -120 7.66699 -174 23v107c50 -16 96.667 -24 140 -24
c74 0 111 33.333 111 100c0 44 -20 73.333 -60 88c-22 8 -60.333 13.667 -115 17l-47 37l79 158c-198 53.333 -297 226 -297 518c0 187.333 43.667 331 131 431c82 93.333 203.333 140 364 140c66 0 126 -8.66699 180 -26v-141c-46.667 21.333 -96 32 -148 32
c-190 0 -285 -147.333 -285 -442c0 -118 16.333 -209.333 49 -274c41.333 -80.667 118 -121 230 -121c64.667 0 125.334 12.333 182.001 37z" />
    <glyph glyph-name="egrave" unicode="&#xe8;" horiz-adv-x="1056" vert-adv-y="2457" 
d="M321 489c0.666992 -96 11.999 -171.667 33.999 -227c24.667 -60 66 -101.667 124 -125c47.333 -19.333 108.666 -29 183.999 -29c100 0 186 17 258 51v-145c-86 -28.667 -187 -43 -303 -43c-197.333 0 -337.666 46 -420.999 138c-75.333 83.333 -113 209 -113 377
c0 178.667 36.667 320.667 110 426c79.333 113.333 199.333 170 360 170c226.667 0 361.334 -116 404.001 -348c11.333 -59.333 17 -141 17 -245h-654zM320.999 619l431 -0.000976562c-2.66699 72.667 -10.667 133 -24 181c-14.667 54.667 -37 93.667 -67 117
c-28 21.333 -65 32 -111 32c-94 0 -158.333 -48.667 -193 -146c-18 -49.333 -30 -110.666 -36 -183.999zM509.999 1198l-221 312h242l150 -312h-171z" />
    <glyph glyph-name="eacute" unicode="&#xe9;" horiz-adv-x="1056" vert-adv-y="2457" 
d="M321 489c0.666992 -96 11.999 -171.667 33.999 -227c24.667 -60 66 -101.667 124 -125c47.333 -19.333 108.666 -29 183.999 -29c100 0 186 17 258 51v-145c-86 -28.667 -187 -43 -303 -43c-197.333 0 -337.666 46 -420.999 138c-75.333 83.333 -113 209 -113 377
c0 178.667 36.667 320.667 110 426c79.333 113.333 199.333 170 360 170c226.667 0 361.334 -116 404.001 -348c11.333 -59.333 17 -141 17 -245h-654zM320.999 619l431 -0.000976562c-2.66699 72.667 -10.667 133 -24 181c-14.667 54.667 -37 93.667 -67 117
c-28 21.333 -65 32 -111 32c-94 0 -158.333 -48.667 -193 -146c-18 -49.333 -30 -110.666 -36 -183.999zM434.999 1198l150 312h242l-221 -312h-171z" />
    <glyph glyph-name="ecircumflex" unicode="&#xea;" horiz-adv-x="1056" vert-adv-y="2457" 
d="M321 489c0.666992 -96 11.999 -171.667 33.999 -227c24.667 -60 66 -101.667 124 -125c47.333 -19.333 108.666 -29 183.999 -29c100 0 186 17 258 51v-145c-86 -28.667 -187 -43 -303 -43c-197.333 0 -337.666 46 -420.999 138c-75.333 83.333 -113 209 -113 377
c0 178.667 36.667 320.667 110 426c79.333 113.333 199.333 170 360 170c226.667 0 361.334 -116 404.001 -348c11.333 -59.333 17 -141 17 -245h-654zM320.999 619l431 -0.000976562c-2.66699 72.667 -10.667 133 -24 181c-14.667 54.667 -37 93.667 -67 117
c-28 21.333 -65 32 -111 32c-94 0 -158.333 -48.667 -193 -146c-18 -49.333 -30 -110.666 -36 -183.999zM557.999 1391l-138 -193h-179l214 312h205l215 -312h-179z" />
    <glyph glyph-name="edieresis" unicode="&#xeb;" horiz-adv-x="1056" vert-adv-y="2457" 
d="M321 489c0.666992 -96 11.999 -171.667 33.999 -227c24.667 -60 66 -101.667 124 -125c47.333 -19.333 108.666 -29 183.999 -29c100 0 186 17 258 51v-145c-86 -28.667 -187 -43 -303 -43c-197.333 0 -337.666 46 -420.999 138c-75.333 83.333 -113 209 -113 377
c0 178.667 36.667 320.667 110 426c79.333 113.333 199.333 170 360 170c226.667 0 361.334 -116 404.001 -348c11.333 -59.333 17 -141 17 -245h-654zM320.999 619l431 -0.000976562c-2.66699 72.667 -10.667 133 -24 181c-14.667 54.667 -37 93.667 -67 117
c-28 21.333 -65 32 -111 32c-94 0 -158.333 -48.667 -193 -146c-18 -49.333 -30 -110.666 -36 -183.999zM384.999 1485c36.667 0 67.332 -13.666 91.999 -40.999c21.333 -24 32 -51.667 32 -83c0 -37.333 -13.667 -68.333 -41 -93c-23.333 -21.333 -51.666 -32 -84.999 -32
c-36.667 0 -67 13.667 -91 41c-21.333 24 -32 52.333 -32 85c0 35.333 13.667 65.666 41 90.999c23.333 21.333 51.333 32 84 32zM725.997 1485c37.333 0 68.332 -13.666 92.999 -40.999c21.333 -24 32 -51.667 32 -83c0 -37.333 -13.667 -68.333 -41 -93
c-23.333 -21.333 -51.666 -32 -84.999 -32c-36.667 0 -67 13.667 -91 41c-21.333 24 -32 52.333 -32 85c0 35.333 13.667 65.666 41 90.999c23.333 21.333 51 32 83 32z" />
    <glyph glyph-name="igrave" unicode="&#xec;" horiz-adv-x="557" vert-adv-y="2457" 
d="M162 0v1053h235v-1053h-235zM222 1198l-221 312h241l150 -312h-170z" />
    <glyph glyph-name="iacute" unicode="&#xed;" horiz-adv-x="557" vert-adv-y="2457" 
d="M155 0v1053h235v-1053h-235zM159 1198l150 312h241l-221 -312h-170z" />
    <glyph glyph-name="icircumflex" unicode="&#xee;" horiz-adv-x="557" vert-adv-y="2457" 
d="M161 0v1053h235v-1053h-235zM278 1391l-138 -193h-179l214 312h205l215 -312h-179z" />
    <glyph glyph-name="idieresis" unicode="&#xef;" horiz-adv-x="557" vert-adv-y="2457" 
d="M161 0v1053h235v-1053h-235zM106 1485c36.667 0 67.333 -13.666 92 -40.999c21.333 -24 32 -51.667 32 -83c0 -37.333 -13.667 -68.333 -41 -93c-23.333 -21.333 -51.333 -32 -84 -32c-37.333 0 -68 13.667 -92 41c-21.333 24 -32 52.333 -32 85
c0 35.333 13.667 65.666 41 90.999c23.333 21.333 51.333 32 84 32zM446.999 1485c37.333 0 68.332 -13.666 92.999 -40.999c21.333 -24 32 -51.667 32 -83c0 -37.333 -13.667 -68.333 -41 -93c-23.333 -21.333 -51.666 -32 -84.999 -32c-36.667 0 -67 13.667 -91 41
c-21.333 24 -32 52.333 -32 85c0 35.333 13.667 65.666 41 90.999c23.333 21.333 51 32 83 32z" />
    <glyph glyph-name="eth" unicode="&#xf0;" horiz-adv-x="1086" vert-adv-y="2457" 
d="M698 1044c-34.667 99.333 -80 186.334 -136 261.001l-200 -123l-59 91l183 112c-50 40 -119.667 69.667 -209 89v132c138.667 -14.667 256 -55.334 352 -122.001l177 108l61 -91l-153 -91c63.333 -66 116 -143.333 158 -232c42.667 -91.333 76.667 -201 102 -329
c19.333 -100.667 29 -200 29 -298c0 -386.667 -153.333 -580 -460 -580c-157.333 0 -273.333 50.667 -348 152c-74 100 -111 234.333 -111 403c0 170 37 304.333 111 403c40.667 55.333 96.667 96.333 168 123c54 20 110.667 30 170 30c60.667 0 115.667 -12.667 165 -38z
M543 947.001c-86 0 -144.668 -40.334 -176.001 -121.001c-27.333 -69.333 -41 -169 -41 -299s13.667 -230 41 -300c30.667 -80.667 89.667 -121 177 -121c86.667 0 145.334 40.333 176.001 121c27.333 69.333 41 167.333 41 294c0 136.667 -13.667 238.334 -41 305.001
c-32 80.667 -91 121 -177 121z" />
    <glyph glyph-name="ntilde" unicode="&#xf1;" horiz-adv-x="1141" vert-adv-y="2457" 
d="M155 0v1040c155.333 28 300.666 42 435.999 42c121.333 0 211.333 -17 270 -51c66 -38 106.667 -100.333 122 -187c7.33301 -40 11 -98.667 11 -176v-668h-235v650c0 107.333 -8.66699 179.666 -26 216.999c-25.333 53.333 -78.333 80 -159 80
c-67.333 0 -128.666 -7 -183.999 -21v-926h-235zM364 1232h-133.001c9.33301 71.333 23.333 126.333 42 165c36.667 74.667 97.334 112 182.001 112c39.333 0 74.666 -9.33301 105.999 -28c17.333 -10 40 -30 68 -60c22.667 -24 37.667 -39 45 -45
c9.33301 -7.33301 18.666 -11 27.999 -11c38.667 0 62.667 43.333 72 130h133c-18 -184.667 -92.667 -277 -224 -277c-49.333 0 -91.666 13.667 -126.999 41c-18.667 15.333 -41.667 38.333 -69 69c-20 22.667 -37.667 34 -53 34c-37.333 0 -60.666 -43.333 -69.999 -130z
" />
    <glyph glyph-name="ograve" unicode="&#xf2;" horiz-adv-x="1086" vert-adv-y="2457" 
d="M543 1082c156.667 0 272.668 -50.667 348.001 -152c74 -100 111 -234.667 111 -404c0 -168 -37 -302.333 -111 -403c-74.667 -101.333 -190.334 -152 -347.001 -152c-158 0 -274.333 50.667 -349 152c-74 100.667 -111 237.334 -111 410.001
c0 165.333 37 297.666 111 396.999c75.333 101.333 191.333 152 348 152zM543.001 947c-86 0 -145.001 -40.333 -177.001 -121c-26.667 -69.333 -40 -167.333 -40 -294c0 -134 13.333 -235.667 40 -305c31.333 -80.667 90.333 -121 177 -121s145.334 40.333 176.001 121
c27.333 70 41 170 41 300c0 132 -13.667 231.667 -41 299c-32 80.667 -90.667 121 -176 121zM508 1198l-221 312h242l150 -312h-171z" />
    <glyph glyph-name="oacute" unicode="&#xf3;" horiz-adv-x="1086" vert-adv-y="2457" 
d="M543 1082c156.667 0 272.668 -50.667 348.001 -152c74 -100 111 -234.667 111 -404c0 -168 -37 -302.333 -111 -403c-74.667 -101.333 -190.334 -152 -347.001 -152c-158 0 -274.333 50.667 -349 152c-74 100.667 -111 237.334 -111 410.001
c0 165.333 37 297.666 111 396.999c75.333 101.333 191.333 152 348 152zM543.001 947c-86 0 -145.001 -40.333 -177.001 -121c-26.667 -69.333 -40 -167.333 -40 -294c0 -134 13.333 -235.667 40 -305c31.333 -80.667 90.333 -121 177 -121s145.334 40.333 176.001 121
c27.333 70 41 170 41 300c0 132 -13.667 231.667 -41 299c-32 80.667 -90.667 121 -176 121zM419 1198l150 312h241l-221 -312h-170z" />
    <glyph glyph-name="ocircumflex" unicode="&#xf4;" horiz-adv-x="1086" vert-adv-y="2457" 
d="M543 1082c156.667 0 272.668 -50.667 348.001 -152c74 -100 111 -234.667 111 -404c0 -168 -37 -302.333 -111 -403c-74.667 -101.333 -190.334 -152 -347.001 -152c-158 0 -274.333 50.667 -349 152c-74 100.667 -111 237.334 -111 410.001
c0 165.333 37 297.666 111 396.999c75.333 101.333 191.333 152 348 152zM543.001 947c-86 0 -145.001 -40.333 -177.001 -121c-26.667 -69.333 -40 -167.333 -40 -294c0 -134 13.333 -235.667 40 -305c31.333 -80.667 90.333 -121 177 -121s145.334 40.333 176.001 121
c27.333 70 41 170 41 300c0 132 -13.667 231.667 -41 299c-32 80.667 -90.667 121 -176 121zM543 1391l-138 -193h-179l214 312h205l215 -312h-179z" />
    <glyph glyph-name="otilde" unicode="&#xf5;" horiz-adv-x="1086" vert-adv-y="2457" 
d="M543 1082c156.667 0 272.668 -50.667 348.001 -152c74 -100 111 -234.667 111 -404c0 -168 -37 -302.333 -111 -403c-74.667 -101.333 -190.334 -152 -347.001 -152c-158 0 -274.333 50.667 -349 152c-74 100.667 -111 237.334 -111 410.001
c0 165.333 37 297.666 111 396.999c75.333 101.333 191.333 152 348 152zM543.001 947c-86 0 -145.001 -40.333 -177.001 -121c-26.667 -69.333 -40 -167.333 -40 -294c0 -134 13.333 -235.667 40 -305c31.333 -80.667 90.333 -121 177 -121s145.334 40.333 176.001 121
c27.333 70 41 170 41 300c0 132 -13.667 231.667 -41 299c-32 80.667 -90.667 121 -176 121zM338 1232h-132.999c9.33301 71.333 23.333 126.333 42 165c36.667 74.667 97 112 181 112c40 0 75.667 -9.33301 107 -28c17.333 -10 40 -30 68 -60c23.333 -24 38.333 -39 45 -45
c9.33301 -7.33301 18.666 -11 27.999 -11c38.667 0 62.667 43.333 72 130h133c-18 -184.667 -93 -277 -225 -277c-48.667 0 -90.667 13.667 -126 41c-18.667 15.333 -41.667 38.333 -69 69c-20 22.667 -37.667 34 -53 34c-38.667 0 -62 -43.333 -70 -130z" />
    <glyph glyph-name="odieresis" unicode="&#xf6;" horiz-adv-x="1086" vert-adv-y="2457" 
d="M543 1082c156.667 0 272.668 -50.667 348.001 -152c74 -100 111 -234.667 111 -404c0 -168 -37 -302.333 -111 -403c-74.667 -101.333 -190.334 -152 -347.001 -152c-158 0 -274.333 50.667 -349 152c-74 100.667 -111 237.334 -111 410.001
c0 165.333 37 297.666 111 396.999c75.333 101.333 191.333 152 348 152zM543.001 947c-86 0 -145.001 -40.333 -177.001 -121c-26.667 -69.333 -40 -167.333 -40 -294c0 -134 13.333 -235.667 40 -305c31.333 -80.667 90.333 -121 177 -121s145.334 40.333 176.001 121
c27.333 70 41 170 41 300c0 132 -13.667 231.667 -41 299c-32 80.667 -90.667 121 -176 121zM370 1485c37.333 0 68.332 -13.666 92.999 -40.999c21.333 -24 32 -51.667 32 -83c0 -37.333 -13.667 -68.333 -41 -93c-23.333 -21.333 -51.666 -32 -84.999 -32
c-36.667 0 -67 13.667 -91 41c-21.333 24 -32 52.333 -32 85c0 35.333 13.667 65.666 41 90.999c23.333 21.333 51 32 83 32zM711.999 1485c37.333 0 68.333 -13.666 93 -40.999c21.333 -24 32 -51.667 32 -83c0 -37.333 -13.667 -68.333 -41 -93
c-23.333 -21.333 -51.333 -32 -84 -32c-37.333 0 -68 13.667 -92 41c-21.333 24 -32 52.333 -32 85c0 35.333 13.667 65.666 41 90.999c23.333 21.333 51 32 83 32z" />
    <glyph glyph-name="divide" unicode="&#xf7;" vert-adv-y="2457" 
d="M113 566v152h856v-152h-856zM540 1123c39.333 0 72 -14.667 98 -44c22.667 -24.667 34 -54 34 -88c0 -39.333 -14.333 -72 -43 -98c-25.333 -22.667 -55.333 -34 -90 -34c-38.667 0 -71 14.667 -97 44c-22.667 24.667 -34 54.667 -34 90c0 37.333 14.667 69.333 44 96
c24.667 22.667 54 34 88 34zM540 427c39.333 0 72 -14.667 98 -44c22.667 -24.667 34 -54 34 -88c0 -39.333 -14.333 -72 -43 -98c-25.333 -22.667 -55.333 -34 -90 -34c-38.667 0 -71 14.667 -97 44c-22.667 24.667 -34 54.667 -34 90c0 38 14.667 70 44 96
c24.667 22.667 54 34 88 34z" />
    <glyph glyph-name="oslash" unicode="&#xf8;" horiz-adv-x="1086" vert-adv-y="2457" 
d="M92 5l90.002 132c-67.333 102.667 -101 232.667 -101 390c0 168.667 37 303 111 403c74.667 101.333 189.667 152 345 152c95.333 0 179.666 -21.667 252.999 -65l73 106l125 -83l-88 -128c66 -103.333 99 -233 99 -389c0 -166 -37 -299.333 -111 -400
c-74.667 -101.333 -189.667 -152 -345 -152c-90.667 0 -173.334 20.333 -248.001 61l-76 -110zM335.002 360l357 514.999c-36.667 48 -86.667 72 -150 72c-88 0 -147.667 -40.333 -179 -121c-26.667 -69.333 -40 -169.666 -40 -300.999c0 -54 4 -109 12 -165z
M391.002 172.999c39.333 -44.667 86.999 -67 142.999 -67c90.667 0 151.334 40.333 182.001 121c27.333 69.333 41 168 41 296c0 48 -3.66699 102.333 -11 163z" />
    <glyph glyph-name="ugrave" unicode="&#xf9;" horiz-adv-x="1114" vert-adv-y="2457" 
d="M147 1053l234.999 -0.00195312v-658c0 -105.333 8.66699 -175.666 26 -210.999c24.667 -52 78.334 -78 161.001 -78c54 0 105.667 7 155 21v926h235v-1040c-144 -28 -278.333 -42 -403 -42c-123.333 0 -214.333 16.333 -273 49c-68 38 -109.667 99 -125 183
c-7.33301 40.667 -11 98.334 -11 173.001v677zM507.999 1198l-220 312h241l150 -312h-171z" />
    <glyph glyph-name="uacute" unicode="&#xfa;" horiz-adv-x="1114" vert-adv-y="2457" 
d="M147 1053l234.999 -0.00195312v-658c0 -105.333 8.66699 -175.666 26 -210.999c24.667 -52 78.334 -78 161.001 -78c54 0 105.667 7 155 21v926h235v-1040c-144 -28 -278.333 -42 -403 -42c-123.333 0 -214.333 16.333 -273 49c-68 38 -109.667 99 -125 183
c-7.33301 40.667 -11 98.334 -11 173.001v677zM456.999 1198l151 312h241l-221 -312h-171z" />
    <glyph glyph-name="ucircumflex" unicode="&#xfb;" horiz-adv-x="1114" vert-adv-y="2457" 
d="M147 1053l234.999 -0.00195312v-658c0 -105.333 8.66699 -175.666 26 -210.999c24.667 -52 78.334 -78 161.001 -78c54 0 105.667 7 155 21v926h235v-1040c-144 -28 -278.333 -42 -403 -42c-123.333 0 -214.333 16.333 -273 49c-68 38 -109.667 99 -125 183
c-7.33301 40.667 -11 98.334 -11 173.001v677zM556.999 1391l-138 -193h-179l214 312h205l215 -312h-179z" />
    <glyph glyph-name="udieresis" unicode="&#xfc;" horiz-adv-x="1114" vert-adv-y="2457" 
d="M147 1053l234.999 -0.00195312v-658c0 -105.333 8.66699 -175.666 26 -210.999c24.667 -52 78.334 -78 161.001 -78c54 0 105.667 7 155 21v926h235v-1040c-144 -28 -278.333 -42 -403 -42c-123.333 0 -214.333 16.333 -273 49c-68 38 -109.667 99 -125 183
c-7.33301 40.667 -11 98.334 -11 173.001v677zM384.999 1485c36.667 0 67.333 -13.666 92 -40.999c21.333 -24 32 -51.667 32 -83c0 -37.333 -13.667 -68.333 -41 -93c-23.333 -21.333 -51.333 -32 -84 -32c-37.333 0 -68 13.667 -92 41c-21.333 24 -32 52.333 -32 85
c0 35.333 13.667 65.666 41 90.999c23.333 21.333 51.333 32 84 32zM725.998 1485c37.333 0 68.332 -13.666 92.999 -40.999c21.333 -24 32 -51.667 32 -83c0 -37.333 -13.667 -68.333 -41 -93c-23.333 -21.333 -51.666 -32 -84.999 -32c-36.667 0 -67 13.667 -91 41
c-21.333 24 -32 52.333 -32 85c0 35.333 13.667 65.666 41 90.999c23.333 21.333 51 32 83 32z" />
    <glyph glyph-name="yacute" unicode="&#xfd;" horiz-adv-x="961" vert-adv-y="2457" 
d="M395 -48l-383.999 1101h249l179 -576c19.333 -62 42.666 -144.333 69.999 -247c18 81.333 38.667 162.333 62 243l167 580h204l-535 -1557h-206zM421.001 1198l150 312h241l-220 -312h-171z" />
    <glyph glyph-name="thorn" unicode="&#xfe;" horiz-adv-x="1111" vert-adv-y="2457" 
d="M160 -504l-0.000976562 2089h235v-511c56.667 5.33301 110.334 8 161.001 8c182.667 0 308 -52.333 376 -157c63.333 -97.333 95 -234 95 -410c0 -154.667 -29 -280 -87 -376c-68 -112 -177.667 -168 -329 -168c-87.333 0 -159.333 22.667 -216 68v-543h-235z
M394.999 194c54.667 -58.667 114.001 -88 178.001 -88c141.333 0 212 137.333 212 412c0 150 -22 261.667 -66 335c-38 62.667 -103.333 94 -196 94c-36.667 0 -79.334 -4.33301 -128.001 -13v-740z" />
    <glyph glyph-name="ydieresis" unicode="&#xff;" horiz-adv-x="961" vert-adv-y="2457" 
d="M395 -48l-383.999 1101h249l179 -576c19.333 -62 42.666 -144.333 69.999 -247c18 81.333 38.667 162.333 62 243l167 580h204l-535 -1557h-206zM327.001 1485c36.667 0 67.333 -13.666 92 -40.999c21.333 -24 32 -51.667 32 -83c0 -37.333 -13.667 -68.333 -41 -93
c-23.333 -21.333 -51.333 -32 -84 -32c-37.333 0 -68 13.667 -92 41c-21.333 24 -32 52.333 -32 85c0 35.333 13.667 65.666 41 90.999c23.333 21.333 51.333 32 84 32zM668 1485c37.333 0 68.332 -13.666 92.999 -40.999c21.333 -24 32 -51.667 32 -83
c0 -37.333 -13.667 -68.333 -41 -93c-23.333 -21.333 -51.666 -32 -84.999 -32c-36.667 0 -67 13.667 -91 41c-21.333 24 -32 52.333 -32 85c0 35.333 13.667 65.666 41 90.999c23.333 21.333 51 32 83 32z" />
    <glyph glyph-name="Dcroat" unicode="&#x110;" horiz-adv-x="1275" vert-adv-y="2457" 
d="M168 834l0.000976562 641c141.333 19.333 269.666 29 384.999 29c148 0 266 -28.667 354 -86c182 -119.333 273 -345 273 -677c0 -276.667 -58 -478.667 -174 -606c-66.667 -72 -150.667 -119.667 -252 -143c-60 -14 -133.333 -21 -220 -21c-116 0 -238 9.66699 -366 29
v689h-160v145h160zM410.001 834h292.999v-145h-293v-559c42.667 -10 85.334 -15 128.001 -15c147.333 0 253 64.667 317 194c49.333 99.333 74 243.333 74 432c0 202.667 -32.667 359 -98 469c-33.333 54.667 -73.333 93.667 -120 117c-45.333 22 -100 33 -164 33
c-45.333 0 -91 -4.33301 -137 -13v-513z" />
    <glyph glyph-name="dotlessi" unicode="&#x131;" horiz-adv-x="557" vert-adv-y="2457" 
d="M161 0v1053h235v-1053h-235z" />
    <glyph glyph-name="OE" unicode="&#x152;" horiz-adv-x="1842" vert-adv-y="2457" 
d="M1195 707l0.000976562 -559.999h588v-147h-807v98c-85.333 -84.667 -199 -127 -341 -127c-126.667 0 -234.334 36 -323.001 108c-146 118.667 -219 338 -219 658c0 227.333 38.333 406.666 115 537.999c46.667 78.667 111.667 138 195 178c70.667 34 149.667 51 237 51
c95.333 0 176.333 -18.667 243 -56c28 -15.333 59 -39 93 -71v98h784v-147h-565v-474h452v-147h-452zM648.001 1363c-115.333 0 -195.333 -57 -240 -171c-42.667 -109.333 -64 -261 -64 -455c0 -193.333 21.333 -345 64 -455c44.667 -113.333 125 -170 241 -170
c116.667 0 197 56.667 241 170c42.667 110 64 259.333 64 448c0 202.667 -21.333 356.667 -64 462c-46 114 -126.667 171 -242 171z" />
    <glyph glyph-name="oe" unicode="&#x153;" horiz-adv-x="1721" vert-adv-y="2457" 
d="M995 489c0 -98 13 -176.332 39 -234.999c42 -97.333 140.667 -146 296 -146c98 0 183 15.667 255 47v-141c-84.667 -28.667 -180.667 -43 -288 -43c-136.667 0 -240.334 21 -311.001 63c-38 22.667 -72.333 54 -103 94c-81.333 -104.667 -196.666 -157 -345.999 -157
c-96 0 -179.333 22.333 -250 67c-80 50.667 -137 133 -171 247c-21.333 72.667 -32 153 -32 241c0 169.333 37 304 111 404c74.667 101.333 188.667 152 342 152c101.333 0 184.333 -22 249 -66c34 -22.667 66.333 -56 97 -100c39.333 50 75 85.667 107 107
c60.667 39.333 138.667 59 234 59c127.333 0 225.333 -38 294 -114c60 -66 97 -160 111 -282c6.66699 -52.667 10 -118.334 10 -197.001h-644zM542 947.001c-86 0 -144.666 -40.333 -175.999 -121c-26.667 -69.333 -40 -169.333 -40 -300s13.333 -230.667 40 -300
c31.333 -80 90 -120 176 -120s144.667 40 176 120c26.667 70 40 168.333 40 295c0 136 -13.333 237.667 -40 305c-32.667 80.667 -91.334 121 -176.001 121zM995.001 619.001h421c-2 70.667 -9.66699 130.667 -23 180c-14.667 53.333 -36.667 92 -66 116
c-26.667 21.333 -62.667 32 -108 32c-91.333 0 -154.333 -48.333 -189 -145c-18 -50 -29.667 -111 -35 -183z" />
    <glyph glyph-name="Scaron" unicode="&#x160;" horiz-adv-x="992" vert-adv-y="2457" 
d="M67 29l0.000976562 170.999c107.333 -54 214.333 -81 321 -81c205.333 0 308 81 308 243c0 62 -16 114.333 -48 157c-31.333 40.667 -97 89.334 -197 146.001c-95.333 54 -161 95 -197 123c-66.667 53.333 -113 109 -139 167c-20 45.333 -30 97.333 -30 156
c0 124 38.667 219.667 116 287c80.667 70.667 198 106 352 106c101.333 0 191 -12.333 269 -37v-159c-83.333 34.667 -164.333 52 -243 52c-178 0 -267 -72.333 -267 -217c0 -64 23.667 -117 71 -159c32.667 -28.667 99.667 -71.334 201 -128.001
c85.333 -48 146.333 -87 183 -117c104 -85.333 156 -201.666 156 -348.999c0 -279.333 -171.667 -419 -515 -419c-130.667 0 -244.334 19.333 -341.001 58zM539.001 1712l138 200h179l-214 -313h-205l-215 313h179z" />
    <glyph glyph-name="scaron" unicode="&#x161;" horiz-adv-x="827" vert-adv-y="2457" 
d="M58 10l0.00292969 151.998c74 -36 159 -54 255 -54c156.667 0 235 48.667 235 146c0 38 -14.667 71 -44 99c-26.667 24.667 -85.334 64.334 -176.001 119.001c-94 56.667 -158 107.334 -192 152.001c-39.333 50.667 -59 109 -59 175c0 95.333 36.333 167.333 109 216
c66 44.667 154 67 264 67c69.333 0 145.666 -10.333 228.999 -31v-144c-64 26.667 -131.667 40 -203 40c-54.667 0 -99.667 -10.333 -135 -31c-36 -21.333 -54 -55 -54 -101c0 -42 15.333 -77.333 46 -106c21.333 -19.333 77 -55 167 -107
c89.333 -52.667 153 -100.334 191 -143.001c44 -51.333 66 -113.666 66 -186.999c0 -200.667 -138.333 -301 -415 -301c-114.667 0 -209.334 13 -284.001 39zM443.003 1309l138 193h179l-213 -312h-206l-215 312h179z" />
    <glyph glyph-name="Ydieresis" unicode="&#x178;" horiz-adv-x="1024" vert-adv-y="2457" 
d="M388 0v547l-430 928h264l312 -729l302 729h217l-423 -930v-545h-242zM364 1864c37.333 0 68.332 -13.665 92.999 -40.998c21.333 -24 32 -52 32 -84c0 -36.667 -13.667 -67.334 -41 -92.001c-23.333 -21.333 -51.666 -32 -84.999 -32c-36.667 0 -67 13.667 -91 41
c-21.333 24 -32 52.333 -32 85c0 35.333 13.667 65.666 41 90.999c23.333 21.333 51 32 83 32zM718.999 1864c37.333 0 68.332 -13.665 92.999 -40.998c21.333 -24 32 -52 32 -84c0 -36.667 -13.667 -67.334 -41 -92.001c-23.333 -21.333 -51.666 -32 -84.999 -32
c-36.667 0 -67 13.667 -91 41c-21.333 24 -32 52.333 -32 85c0 35.333 13.667 65.666 41 90.999c23.333 21.333 51 32 83 32z" />
    <glyph glyph-name="Zcaron" unicode="&#x17d;" horiz-adv-x="1003" vert-adv-y="2457" 
d="M12 0v111l676 1217h-598v147h859v-113l-674 -1215h706v-147h-969zM544 1712l137 200h180l-214 -313h-206l-215 313h179z" />
    <glyph glyph-name="zcaron" unicode="&#x17e;" horiz-adv-x="864" vert-adv-y="2457" 
d="M23 0v117l525 802h-470v134h720v-119l-523 -800h554v-134h-806zM471 1309l138 193h179l-214 -312h-205l-215 312h179z" />
    <glyph glyph-name="copyright.salt" unicode="&#x192;" horiz-adv-x="1152" vert-adv-y="2457" 
d="M733 941l0.00195312 -83c-36 -10.667 -73 -16 -111 -16c-168 0 -252 80 -252 240c0 81.333 21 145 63 191c42 47.333 104 71 186 71c44 0 80.333 -5.66699 109 -17v-82c-32.667 14 -64.334 21 -95.001 21c-77.333 0 -116 -62.667 -116 -188
c0 -105.333 38.667 -158 116 -158c35.333 0 68.666 7 99.999 21zM576.002 1573c144 0 261.999 -42.667 353.999 -128c97.333 -90 146 -207.333 146 -352c0 -144 -48.667 -261.333 -146 -352c-91.333 -85.333 -209 -128 -353 -128c-145.333 0 -263.666 42.667 -354.999 128
c-97.333 90.667 -146 210 -146 358c0 90 22.333 172.667 67 248c46 78 112 137.333 198 178c68.667 32 147 48 235 48zM576.001 1477c-106.667 0 -193.666 -34.334 -260.999 -103.001c-67.333 -69.333 -101 -161.333 -101 -276c0 -120.667 33.667 -216 101 -286
c67.333 -68.667 154.666 -103 261.999 -103c106.667 0 193 34.333 259 103c68 70 102 163.667 102 281c0 118.667 -34 212.334 -102 281.001c-67.333 68.667 -154 103 -260 103z" />
    <glyph glyph-name="afii57929" unicode="&#x2bc;" horiz-adv-x="419" vert-adv-y="2457" 
d="M90 1060l58 525h226l-135 -525h-149z" />
    <glyph glyph-name="circumflex" unicode="&#x2c6;" horiz-adv-x="1024" vert-adv-y="2457" 
d="M512 1391l-138 -193h-179l214 312h205l215 -312h-179z" />
    <glyph glyph-name="caron" unicode="&#x2c7;" horiz-adv-x="1024" vert-adv-y="2457" 
d="M512 1309l138 193h179l-214 -312h-205l-215 312h179z" />
    <glyph glyph-name="uni02C9" unicode="&#x2c9;" horiz-adv-x="1024" vert-adv-y="2457" 
d="M222 1288v145h580v-145h-580z" />
    <glyph glyph-name="breve" unicode="&#x2d8;" horiz-adv-x="1024" vert-adv-y="2457" 
d="M184 1503l172 0.000976562c5.33301 -46.667 14.333 -81.334 27 -104.001c24 -45.333 67.333 -68 130 -68c67.333 0 112.333 26.333 135 79c9.33301 21.333 16.333 52.333 21 93h172c-8 -208 -117.333 -312 -328 -312c-211.333 0 -321 104 -329 312z" />
    <glyph glyph-name="dotaccent" unicode="&#x2d9;" horiz-adv-x="1024" vert-adv-y="2457" 
d="M510 1497c40.667 0 74.333 -14.999 101 -44.999c23.333 -26 35 -56 35 -90c0 -40.667 -15 -74.334 -45 -101.001c-25.333 -23.333 -56 -35 -92 -35c-39.333 0 -72.333 15 -99 45c-23.333 25.333 -35 56.333 -35 93c0 38 15 70.667 45 98c24.667 23.333 54.667 35 90 35z
" />
    <glyph glyph-name="ring" unicode="&#x2da;" horiz-adv-x="1024" vert-adv-y="2457" 
d="M512 1592c75.333 0 133.667 -21.333 175 -64c37.333 -38 56 -85.667 56 -143c0 -56 -18.667 -103.333 -56 -142c-41.333 -42.667 -100.333 -64 -177 -64c-74 0 -131.667 21.333 -173 64c-37.333 38 -56 86.333 -56 145c0 56 18.667 102.667 56 140
c42.667 42.667 101 64 175 64zM512.001 1509c-56 0 -84 -40.667 -84 -122c0 -83.333 28 -125 84 -125s84 41.333 84 124c0 82 -28 123 -84 123z" />
    <glyph glyph-name="ogonek" unicode="&#x2db;" horiz-adv-x="1024" vert-adv-y="2457" 
d="M509 0h126c-15.333 -16.667 -43 -50.667 -83 -102c-45.333 -58 -68 -116.333 -68 -175c0 -86.667 41.667 -130 125 -130c44 0 87 6.66699 129 20v-106c-46.667 -13.333 -100 -20 -160 -20c-98.667 0 -174 19.667 -226 59c-47.333 34.667 -71 84.667 -71 150
c0 102 76 203.333 228 304z" />
    <glyph glyph-name="tilde" unicode="&#x2dc;" horiz-adv-x="1024" vert-adv-y="2457" 
d="M307 1232h-133.001c9.33301 71.333 23.333 126.333 42 165c36.667 74.667 97.334 112 182.001 112c39.333 0 74.666 -9.33301 105.999 -28c17.333 -10 40 -30 68 -60c23.333 -24 38.333 -39 45 -45c9.33301 -7.33301 18.666 -11 27.999 -11
c38.667 0 62.667 43.333 72 130h133c-18 -184.667 -92.667 -277 -224 -277c-49.333 0 -91.666 13.667 -126.999 41c-18 14.667 -40.667 37.667 -68 69c-20.667 22.667 -38.667 34 -54 34c-37.333 0 -60.666 -43.333 -69.999 -130z" />
    <glyph glyph-name="hungarumlaut" unicode="&#x2dd;" horiz-adv-x="1024" vert-adv-y="2457" 
d="M278 1198l129 312h226l-199 -312h-156zM580 1198l129 312h226l-200 -312h-155z" />
    <glyph glyph-name="erotimatico" unicode="&#x37e;" horiz-adv-x="541" vert-adv-y="2457" 
d="M112 -319l56 571h240l-142 -571h-154zM273 1062c44.667 0 82 -16.668 112 -50.001c25.333 -28 38 -61.333 38 -100c0 -44.667 -16.333 -82 -49 -112c-28.667 -25.333 -62.667 -38 -102 -38c-44 0 -81 16.333 -111 49c-25.333 28.667 -38 63.334 -38 104.001
c0 42 16.667 78.333 50 109c28 25.333 61.333 38 100 38z" />
    <glyph glyph-name="uni0387" unicode="&#x387;" horiz-adv-x="541" vert-adv-y="2457" 
d="M270 747c44.667 0 82 -16.667 112 -50c25.333 -28 38 -61.333 38 -100c0 -44.667 -16.333 -82 -49 -112c-28.667 -25.333 -62.667 -38 -102 -38c-44 0 -80.667 16.667 -110 50c-26 28 -39 62.333 -39 103c0 42 16.667 78 50 108c28 26 61.333 39 100 39z" />
    <glyph glyph-name="uni2011" unicode="&#x2011;" horiz-adv-x="739" vert-adv-y="2457" 
d="M95 524v152h550v-152h-550z" />
    <glyph glyph-name="figuredash" unicode="&#x2012;" vert-adv-y="2457" 
d="M119 524v152h844v-152h-844z" />
    <glyph glyph-name="endash" unicode="&#x2013;" vert-adv-y="2457" 
d="M119 524v152h844v-152h-844z" />
    <glyph glyph-name="emdash" unicode="&#x2014;" horiz-adv-x="1024" vert-adv-y="2457" 
d="M-67 524v152h1157v-152h-1157z" />
    <glyph glyph-name="afii00208" unicode="&#x2015;" horiz-adv-x="1024" vert-adv-y="2457" 
d="M-67 524v152h1157v-152h-1157z" />
    <glyph glyph-name="quoteleft" unicode="&#x2018;" horiz-adv-x="419" vert-adv-y="2457" 
d="M45 1060l134 525h150l-58 -525h-226z" />
    <glyph glyph-name="quoteright" unicode="&#x2019;" horiz-adv-x="419" vert-adv-y="2457" 
d="M90 1060l58 525h226l-135 -525h-149z" />
    <glyph glyph-name="quotesinglbase" unicode="&#x201a;" horiz-adv-x="419" vert-adv-y="2457" 
d="M89 -297l58 540h222l-131 -540h-149z" />
    <glyph glyph-name="quotedblleft" unicode="&#x201c;" horiz-adv-x="772" vert-adv-y="2457" 
d="M45 1060l134 525h150l-58 -525h-226zM398 1060l135 525h149l-58 -525h-226z" />
    <glyph glyph-name="quotedblright" unicode="&#x201d;" horiz-adv-x="772" vert-adv-y="2457" 
d="M90 1060l58 525h226l-135 -525h-149zM443 1060l58 525h226l-135 -525h-149z" />
    <glyph glyph-name="quotedblbase" unicode="&#x201e;" horiz-adv-x="772" vert-adv-y="2457" 
d="M90 -274l58 526h226l-135 -526h-149zM443 -274l58 526h226l-135 -526h-149z" />
    <glyph glyph-name="dagger" unicode="&#x2020;" vert-adv-y="2457" 
d="M423 1006h-306v151h306v481h235v-481h307v-151h-307v-1264h-235v1264z" />
    <glyph glyph-name="daggerdbl" unicode="&#x2021;" vert-adv-y="2457" 
d="M423 1006h-306v151h306v481h235v-481h307v-151h-307v-632h307v-151h-307v-481h-235v481h-306v151h306v632z" />
    <glyph glyph-name="bullet" unicode="&#x2022;" vert-adv-y="2457" 
d="M542 1053c92 0 166.999 -33 224.999 -99c50 -57.333 75 -124.333 75 -201c0 -89.333 -32 -164 -96 -224c-55.333 -51.333 -124.333 -77 -207 -77c-91.333 0 -165.666 33 -222.999 99c-50 58 -75 127 -75 207c0 84.667 32.333 157 97 217c54.667 52 122.667 78 204 78z
" />
    <glyph glyph-name="ellipsis" unicode="&#x2026;" horiz-adv-x="1456" vert-adv-y="2457" 
d="M266 271c44.667 0 82 -16.667 112 -50c25.333 -28 38 -61.333 38 -100c0 -44.667 -16.333 -82 -49 -112c-28.667 -25.333 -62.667 -38 -102 -38c-44 0 -80.667 16.333 -110 49c-26 28.667 -39 63 -39 103c0 42.667 16.667 79 50 109c28.667 26 62 39 100 39zM728 271
c44 0 81 -16.666 111 -49.999c26 -28 39 -61.333 39 -100c0 -44.667 -16.667 -82 -50 -112c-28 -25.333 -61.667 -38 -101 -38c-44 0 -81 16.333 -111 49c-25.333 28.667 -38 63 -38 103c0 43.333 16.667 79.666 50 108.999c28.667 26 62 39 100 39zM1190 271.001
c44.667 0 82 -16.667 112 -50c25.333 -28 38 -61.333 38 -100c0 -44.667 -16.333 -82 -49 -112c-28.667 -25.333 -62.667 -38 -102 -38c-44 0 -81 16.333 -111 49c-25.333 28.667 -38 63 -38 103c0 42.667 16.667 79 50 109c28 26 61.333 39 100 39z" />
    <glyph glyph-name="perthousand" unicode="&#x2030;" horiz-adv-x="2331" vert-adv-y="2457" 
d="M382 1504c128 0 215.332 -44.001 261.999 -132.001c32 -60.667 48 -146 48 -256c0 -120.667 -19.667 -212 -59 -274c-48 -75.333 -131.667 -113 -251 -113c-128 0 -215.333 44 -262 132c-32 60.667 -48 147.334 -48 260.001c0 118.667 19.667 208.667 59 270
c48.667 75.333 132.334 113 251.001 113zM381.999 1411c-44.667 0 -75.335 -29.667 -92.002 -89c-12.667 -45.333 -19 -112.666 -19 -201.999c0 -102.667 7.66699 -177 23 -223c16.667 -50 46 -75 88 -75c44.667 0 75.334 29.667 92.001 89c12.667 44.667 19 113 19 205
c0 101.333 -7.66699 174.666 -23 219.999c-17.333 50 -46.666 75 -87.999 75zM398.998 -0.000976562l655 1475h151l-655 -1475h-151zM1222 759.999c128 0 215.333 -44.001 262 -132.001c32 -60 48 -145 48 -255c0 -121.333 -19.667 -213 -59 -275
c-48 -74.667 -131.667 -112 -251 -112c-128 0 -215.333 44 -262 132c-32 60.667 -48 147.334 -48 260.001c0 118 19.667 208 59 270c48 74.667 131.667 112 251 112zM1222 666.998c-44.667 0 -75.334 -29.667 -92.001 -89c-12.667 -44.667 -19 -111.667 -19 -201
c0 -102.667 7.66699 -177 23 -223c16.667 -50 46 -75 88 -75c44.667 0 75.334 29.667 92.001 89c12.667 44.667 19 113 19 205c0 100.667 -7.66699 173.667 -23 219c-16.667 50 -46 75 -88 75zM1949 759.998c128 0 215.333 -44 262 -132c32 -60.667 48 -145.667 48 -255
c0 -120.667 -19.667 -212.334 -59 -275.001c-48 -74.667 -131.667 -112 -251 -112c-128 0 -215.333 44 -262 132c-32 60.667 -48 147.334 -48 260.001c0 118 19.667 208 59 270c48 74.667 131.667 112 251 112zM1949 666.998c-44.667 0 -75.333 -29.668 -92 -89.001
c-12.667 -44.667 -19 -111.667 -19 -201c0 -103.333 7.66699 -177.666 23 -222.999c17.333 -50 46.666 -75 87.999 -75c44.667 0 75.334 29.667 92.001 89c12.667 44.667 19 113 19 205c0 100.667 -7.66699 173.667 -23 219c-16.667 50 -46 75 -88 75z" />
    <glyph glyph-name="guilsinglleft" unicode="&#x2039;" horiz-adv-x="493" vert-adv-y="2457" 
d="M276 569l174 -305l-105 -84l-318 389l318 389l105 -83z" />
    <glyph glyph-name="guilsinglright" unicode="&#x203a;" horiz-adv-x="493" vert-adv-y="2457" 
d="M217 570l-174 305l104 83l319 -388l-319 -390l-104 84z" />
    <glyph glyph-name="uni203E" unicode="&#x203e;" horiz-adv-x="915" vert-adv-y="2457" 
d="M-37 1682v128h989v-128h-989z" />
    <glyph glyph-name="fraction" unicode="&#x2044;" horiz-adv-x="156" vert-adv-y="2457" 
d="M-325 0l655 1475h152l-656 -1475h-151z" />
    <glyph glyph-name="zerosuperior" unicode="&#x2070;" horiz-adv-x="715" vert-adv-y="2457" 
d="M357 1667c128 0 215.333 -44 262 -132c32 -60.667 48 -145.667 48 -255c0 -120.667 -19.667 -212.334 -59 -275.001c-48 -74.667 -131.667 -112 -251 -112c-128 0 -215.333 44 -262 132c-32 60.667 -48 147.334 -48 260.001c0 118 19.667 208 59 270
c48 74.667 131.667 112 251 112zM357 1574c-44.667 0 -75.335 -29.667 -92.002 -89c-12.667 -44.667 -19 -111.667 -19 -201c0 -102.667 7.66699 -177 23 -223c16.667 -50 46 -75 88 -75c44.667 0 75.334 29.667 92.001 89c12.667 44.667 19 113 19 205
c0 100.667 -7.66699 173.667 -23 219c-17.333 50 -46.666 75 -87.999 75z" />
    <glyph glyph-name="foursuperior" unicode="&#x2074;" horiz-adv-x="715" vert-adv-y="2457" 
d="M419 1067h-387v87l204 511h196l-205 -503h192v244h184v-244h101v-95h-101v-160h-184v160z" />
    <glyph glyph-name="fivesuperior" unicode="&#x2075;" horiz-adv-x="715" vert-adv-y="2457" 
d="M76 917l0.000976562 105.999c79.333 -24.667 151.333 -37 216 -37c104 0 156 49.667 156 149c0 54.667 -19 93.334 -57 116.001c-28.667 17.333 -76 26 -142 26h-147l26 376h471v-94h-296l-14 -189h26c108 0 187.667 -16 239 -48c62 -39.333 93 -101.333 93 -186
c0 -92 -34.333 -157.667 -103 -197c-52.667 -30.667 -133.334 -46 -242.001 -46c-82 0 -157.333 8 -226 24z" />
    <glyph glyph-name="sixsuperior" unicode="&#x2076;" horiz-adv-x="715" vert-adv-y="2457" 
d="M265 1371c37.333 18 82.002 27.001 134.002 27.001c95.333 0 166.666 -25.667 213.999 -77c36 -38.667 54 -93.334 54 -164.001c0 -176.667 -100.667 -265 -302 -265c-125.333 0 -211 35.333 -257 106c-32.667 50 -49 127.333 -49 232c0 152 31 263.667 93 335
c60 68 150.667 102 272 102c55.333 0 110.666 -7 165.999 -21v-98c-54 17.333 -99 26 -135 26c-60 0 -105 -18.667 -135 -56c-26 -32 -44.333 -81 -55 -147zM363.002 1310c-37.333 0 -65 -18.666 -83 -55.999c-14.667 -30.667 -22 -66.334 -22 -107.001
c0 -43.333 7.66699 -80.333 23 -111c18 -37.333 45.333 -56 82 -56c37.333 0 65 19 83 57c14.667 32 22 68 22 108c0 40.667 -7.33301 77 -22 109c-18 37.333 -45.667 56 -83 56z" />
    <glyph glyph-name="sevensuperior" unicode="&#x2077;" horiz-adv-x="715" vert-adv-y="2457" 
d="M138 907l318 652h-382v94h582v-60l-312 -686h-206z" />
    <glyph glyph-name="eightsuperior" unicode="&#x2078;" horiz-adv-x="715" vert-adv-y="2457" 
d="M170 1301c-68 33.333 -102 87.333 -102 162c0 136.667 96.333 205 289 205s289 -68.333 289 -205c0 -74.667 -34.333 -128.667 -103 -162c88 -38 132 -102.333 132 -193c0 -144 -106 -216 -318 -216s-318 72 -318 216c0 92 43.667 156.333 131 193zM357 1581
c-29.333 0 -52.668 -10.668 -70.001 -32.001c-16.667 -20.667 -25 -49.667 -25 -87c0 -36.667 8.33301 -65.667 25 -87c17.333 -21.333 40 -32 68 -32c30.667 0 54.667 10.667 72 32c16.667 20.667 25 50 25 88c0 36.667 -8.33301 65.334 -25 86.001
c-17.333 21.333 -40.666 32 -69.999 32zM358.998 1253c-82 0 -123 -45.999 -123 -137.999c0 -44.667 11.667 -79.334 35 -104.001c20 -21.333 48.667 -32 86 -32c80.667 0 121 45.667 121 137c0 45.333 -11.667 80.333 -35 105c-20 21.333 -48 32 -84 32z" />
    <glyph glyph-name="ninesuperior" unicode="&#x2079;" horiz-adv-x="715" vert-adv-y="2457" 
d="M453 1210c-37.333 -21.333 -83.999 -32 -139.999 -32c-94 0 -164.667 24.667 -212 74c-36 38 -54 91 -54 159c0 170.667 101 256 303 256c124.667 0 210 -35.333 256 -106c32.667 -50.667 49 -130.334 49 -239.001c0 -152.667 -26.333 -262 -79 -328
c-54.667 -68 -151 -102 -289 -102c-62.667 0 -127.334 7.66699 -194.001 23v106c61.333 -24 120.333 -36 177 -36c72.667 0 121.667 25.333 147 76c17.333 32.667 29.333 82.334 36 149.001zM351.001 1579c-70 0 -105.001 -51.333 -105.001 -154s35 -154 105 -154
c38.667 0 66.334 16 83.001 48c14.667 29.333 22 64 22 104c0 104 -35 156 -105 156z" />
    <glyph glyph-name="zeroinferior" unicode="&#x2080;" horiz-adv-x="715" vert-adv-y="2457" 
d="M357 597c128 0 215.333 -44.001 262 -132.001c32 -60.667 48 -146 48 -256c0 -120.667 -19.667 -212 -59 -274c-48 -75.333 -131.667 -113 -251 -113c-128 0 -215.333 44 -262 132c-32 60.667 -48 147.334 -48 260.001c0 118.667 19.667 208.667 59 270
c48 75.333 131.667 113 251 113zM357 503.999c-44.667 0 -75.334 -29.667 -92.001 -89c-12.667 -45.333 -19 -112.666 -19 -201.999c0 -102.667 7.66699 -177 23 -223c17.333 -50 46.666 -75 87.999 -75c44.667 0 75.334 29.667 92.001 89c12.667 44.667 19 113 19 205
c0 101.333 -7.66699 174.666 -23 219.999c-17.333 50 -46.666 75 -87.999 75z" />
    <glyph glyph-name="oneinferior" unicode="&#x2081;" horiz-adv-x="715" vert-adv-y="2457" 
d="M275 -164v618l-159 -46v100l206 76h146v-748h-193z" />
    <glyph glyph-name="twoinferior" unicode="&#x2082;" horiz-adv-x="715" vert-adv-y="2457" 
d="M47 -164v83.002l19 19c136 137.333 220 223.666 252 258.999c40 44.667 67.333 80.667 82 108c14.667 28.667 22 56.667 22 84c0 76.667 -43.333 115 -130 115c-54.667 0 -123 -17 -205 -51v109c70 23.333 146.667 35 230 35c203.333 0 305 -68 305 -204
c0 -46.667 -14.333 -91.334 -43 -134.001c-31.333 -46.667 -123.333 -143.667 -276 -291l-37 -35h373v-97h-592z" />
    <glyph glyph-name="threeinferior" unicode="&#x2083;" horiz-adv-x="715" vert-adv-y="2457" 
d="M194 183l-0.000976562 93.001h60c104 0 156 41 156 123c0 70 -41.667 105 -125 105c-55.333 0 -121.666 -14.333 -198.999 -43v106c71.333 20 143.333 30 216 30c204.667 0 307 -63.667 307 -191c0 -42.667 -11 -77.334 -33 -104.001
c-15.333 -20 -41.333 -38.667 -78 -56c42.667 -16 74 -33.333 94 -52c34 -31.333 51 -77.333 51 -138c0 -156 -112.667 -234 -338 -234c-90 0 -169.667 11.667 -239 35v119c44 -22.667 79 -37.667 105 -45c34.667 -10.667 71.667 -16 111 -16c108 0 162 46.333 162 139
c0 50 -17.333 86.333 -52 109c-21.333 13.333 -58.333 20 -111 20h-87z" />
    <glyph glyph-name="fourinferior" unicode="&#x2084;" horiz-adv-x="715" vert-adv-y="2457" 
d="M419 -3h-387v87l204 511h196l-205 -503h192v243h184v-243h101v-95h-101v-161h-184v161z" />
    <glyph glyph-name="fiveinferior" unicode="&#x2085;" horiz-adv-x="715" vert-adv-y="2457" 
d="M76 -154v105.999c78 -24.667 150 -37 216 -37c104 0 156 49.667 156 149c0 54.667 -19 93.334 -57 116.001c-28.667 17.333 -76 26 -142 26h-147l26 376h471v-94h-296l-14 -189h26c108 0 187.667 -16 239 -48c62 -39.333 93 -101.333 93 -186
c0 -92 -34.333 -157.667 -103 -197c-52.667 -30.667 -133.334 -46 -242.001 -46c-81.333 0 -156.666 8 -225.999 24z" />
    <glyph glyph-name="sixinferior" unicode="&#x2086;" horiz-adv-x="715" vert-adv-y="2457" 
d="M265 300c38 18 82.6689 27 134.002 27c95.333 0 166.666 -25.667 213.999 -77c36 -38.667 54 -93.334 54 -164.001c0 -176.667 -100.667 -265 -302 -265c-125.333 0 -211 35.333 -257 106c-32.667 50.667 -49 128.334 -49 233.001c0 152 31 263.333 93 334
c60 68.667 150.667 103 272 103c55.333 0 110.666 -7.33301 165.999 -22v-98c-54.667 18 -99.667 27 -135 27c-60 0 -105 -18.667 -135 -56c-26 -32 -44.333 -81.333 -55 -148zM363.002 239c-37.333 0 -65 -18.666 -83 -55.999c-14.667 -30.667 -22 -66.334 -22 -107.001
c0 -43.333 7.66699 -80.333 23 -111c18 -37.333 45.333 -56 82 -56c37.333 0 65 19 83 57c14.667 32 22 68 22 108c0 40.667 -7.33301 76.667 -22 108c-18 38 -45.667 57 -83 57z" />
    <glyph glyph-name="seveninferior" unicode="&#x2087;" horiz-adv-x="715" vert-adv-y="2457" 
d="M138 -164l318 652h-382v94h582v-59l-312 -687h-206z" />
    <glyph glyph-name="eightinferior" unicode="&#x2088;" horiz-adv-x="715" vert-adv-y="2457" 
d="M170 231c-68 32.667 -102 86.335 -102 161.002c0 136.667 96.333 205 289 205s289 -68.333 289 -205c0 -74.667 -34.333 -128.334 -103 -161.001c88 -38.667 132 -103.334 132 -194.001c0 -144 -106 -216 -318 -216s-318 72 -318 216c0 92 43.667 156.667 131 194z
M357 510.001c-29.333 0 -52.668 -10.668 -70.001 -32.001c-16.667 -20.667 -25 -49.667 -25 -87c0 -36.667 8.33301 -65.667 25 -87c17.333 -21.333 40 -32 68 -32c30.667 0 54.667 10.667 72 32c16.667 20.667 25 50 25 88c0 36.667 -8.33301 65.334 -25 86.001
c-17.333 21.333 -40.666 32 -69.999 32zM358.998 182c-82 0 -123 -45.999 -123 -137.999c0 -44.667 11.667 -79.334 35 -104.001c20 -21.333 48.667 -32 86 -32c80.667 0 121 45.667 121 137c0 45.333 -11.667 80.333 -35 105c-20 21.333 -48 32 -84 32z" />
    <glyph glyph-name="nineinferior" unicode="&#x2089;" horiz-adv-x="715" vert-adv-y="2457" 
d="M453 139c-37.333 -21.333 -84 -31.999 -140 -31.999c-94 0 -164.667 24.667 -212 74c-36 38 -54 91.333 -54 160c0 170.667 101 256 303 256c124.667 0 210 -35.333 256 -106c32.667 -50.667 49 -130.334 49 -239.001c0 -153.333 -26.333 -263 -79 -329
c-54.667 -68 -151 -102 -289 -102c-63.333 0 -128 7.66699 -194 23v107c61.333 -24.667 120.333 -37 177 -37c72.667 0 121.667 25.333 147 76c17.333 33.333 29.333 83 36 149zM351 509.001c-70 0 -105.001 -51.333 -105.001 -154c0 -103.333 35 -155 105 -155
c38.667 0 66.334 16 83.001 48c14.667 29.333 22 64.333 22 105c0 104 -35 156 -105 156z" />
    <glyph glyph-name="Euro" unicode="&#x20ac;" vert-adv-y="2457" 
d="M41 494l-0.00195312 135h143c-2 22 -3 46 -3 72c0 20 0.333008 40.333 1 61h-141v135h152c20 134 53 242 99 324c62 111.333 144.333 189.666 247 234.999c72.667 32 161.334 48 266.001 48c82.667 0 158 -10.667 226 -32v-144c-74.667 23.333 -142.667 35 -204 35
c-107.333 0 -191.666 -34.667 -252.999 -104c-54.667 -61.333 -92.667 -144.666 -114 -249.999c-6 -30.667 -11.667 -68 -17 -112h487v-135h-496c-0.666992 -14.667 -1 -32.667 -1 -54c0 -28 0.666992 -54.333 2 -79h495v-135h-482c15.333 -85.333 36 -152.333 62 -201
c32.667 -62.667 74 -108.667 124 -138c49.333 -28.667 111.666 -43 186.999 -43c60.667 0 136.667 13.667 228 41v-151c-73.333 -20.667 -155.333 -31 -246 -31c-249.333 0 -424 93.667 -524 281c-33.333 61.333 -59.666 142 -78.999 242h-159z" />
    <glyph glyph-name="trademark" unicode="&#x2122;" horiz-adv-x="1523" vert-adv-y="2457" 
d="M610 740l49 735h212l157 -516l165 516h204l48 -735h-170l-23 468l-156 -468h-149l-149 468l-25 -468h-163zM205 740v626h-205v109h584v-109h-204v-626h-175z" />
    <glyph glyph-name="uni2126" unicode="&#x2126;" horiz-adv-x="1397" vert-adv-y="2457" 
d="M98 0l-0.00195312 143.998h348v73c-77.333 38 -136.666 76.667 -177.999 116c-114.667 110.667 -172 275 -172 493c0 180 37.667 329 113 447c98 154 261 231 489 231c226 0 388.667 -77 488 -231c75.333 -117.333 113 -266.666 113 -447.999
c0 -217.333 -57.667 -381.333 -173 -492c-41.333 -40 -100.666 -78.667 -177.999 -116v-73h349v-144h-510v300c73.333 46.667 128.666 97.334 165.999 152.001c63.333 91.333 95 218.333 95 381c0 144.667 -22.333 263.667 -67 357
c-55.333 115.333 -149.666 173 -282.999 173c-234 0 -351 -177.333 -351 -532c0 -164.667 36 -296.667 108 -396c33.333 -46 84.333 -91 153 -135v-300h-510z" />
    <glyph glyph-name="arrowleft" unicode="&#x2190;" horiz-adv-x="1622" vert-adv-y="2457" 
d="M1459 647h-1011l468 -548h-264l-533 639l533 638h264l-468 -548h1011v-181z" />
    <glyph glyph-name="arrowup" unicode="&#x2191;" horiz-adv-x="1622" vert-adv-y="2457" 
d="M904 0h-185v1157l-546 -468v253l639 533l638 -533v-253l-546 468v-1157z" />
    <glyph glyph-name="arrowright" unicode="&#x2192;" horiz-adv-x="1622" vert-adv-y="2457" 
d="M162 647v181h1011l-469 548h265l533 -638l-533 -639h-265l469 548h-1011z" />
    <glyph glyph-name="arrowdown" unicode="&#x2193;" horiz-adv-x="1622" vert-adv-y="2457" 
d="M719 1475h185v-1156l546 467v-253l-638 -533l-639 533v253l546 -468v1157z" />
    <glyph glyph-name="arrowboth" unicode="&#x2194;" horiz-adv-x="1622" vert-adv-y="2457" 
d="M391 828h840l-281 328h251l350 -418l-350 -420h-251l281 329h-840l280 -329h-250l-350 420l350 418h250z" />
    <glyph glyph-name="arrowupdn" unicode="&#x2195;" horiz-adv-x="1622" vert-adv-y="2457" 
d="M719 270v935l-326 -258v212l419 328l417 -328v-212l-325 258v-935l325 258v-212l-417 -328l-419 328v212z" />
    <glyph glyph-name="uni2196" unicode="&#x2196;" horiz-adv-x="1622" vert-adv-y="2457" 
d="M1433 281l-131 -130l-809 809l-56 -717l-187 188l75 828l828 74l187 -187l-716 -56z" />
    <glyph glyph-name="uni2197" unicode="&#x2197;" horiz-adv-x="1622" vert-adv-y="2457" 
d="M189 281l809 809l-716 56l187 187l828 -74l75 -828l-188 -188l-55 717l-809 -809z" />
    <glyph glyph-name="uni2198" unicode="&#x2198;" horiz-adv-x="1622" vert-adv-y="2457" 
d="M189 1202l131 131l809 -809l55 717l188 -188l-75 -828l-828 -74l-187 187l716 55z" />
    <glyph glyph-name="uni2199" unicode="&#x2199;" horiz-adv-x="1622" vert-adv-y="2457" 
d="M1433 1202l-809 -809l716 -55l-187 -187l-828 74l-75 828l187 188l56 -717l809 809z" />
    <glyph glyph-name="arrowupdnbse" unicode="&#x21a8;" horiz-adv-x="1622" vert-adv-y="2457" 
d="M704 505v747l-325 -257v212l417 327l419 -327v-212l-326 257v-747l326 258v-212l-419 -327l-417 327v212zM369 0v181h856v-181h-856z" />
    <glyph glyph-name="uni21C4" unicode="&#x21c4;" horiz-adv-x="1622" vert-adv-y="2457" 
d="M120 419l350 419h252l-277 -328h1015v-181h-1015l277 -329h-252zM162 965v181h1015l-277 329h252l350 -419l-350 -420h-252l277 329h-1015z" />
    <glyph glyph-name="uni21C6" unicode="&#x21c6;" horiz-adv-x="1622" vert-adv-y="2457" 
d="M162 329v181h1015l-277 328h252l350 -419l-350 -419h-252l277 329h-1015zM120 1056l350 419h252l-277 -329h1015v-181h-1015l277 -329h-252z" />
    <glyph glyph-name="partialdiff" unicode="&#x2202;" vert-adv-y="2457" 
d="M696 1044c-45.333 128.667 -98.3311 225.666 -158.998 290.999c-48 53.333 -106.333 92 -175 116c-25.333 8.66699 -54.333 16.334 -87 23.001v132c101.333 -14 184.666 -35.667 249.999 -65c150 -67.333 265 -188.333 345 -363c44 -95.333 78 -205.333 102 -330
c19.333 -100.667 29 -199.667 29 -297c0 -386.667 -153.333 -580 -460 -580c-157.333 0 -273.333 50.667 -348 152c-74 100 -111 234.333 -111 403c0 170 37 304.667 111 404c40.667 55.333 96.667 96 168 122c53.333 20 109.666 30 168.999 30
c64 0 119.333 -12.667 166 -38zM541.002 950.999c-86.667 0 -145.334 -40.667 -176.001 -122c-27.333 -70 -41 -170.667 -41 -302s13.667 -232.333 41 -303c30.667 -81.333 89.667 -122 177 -122c86.667 0 145.334 40.667 176.001 122c27.333 70.667 41 169.667 41 297
c0 137.333 -13.667 240 -41 308c-32 81.333 -91 122 -177 122z" />
    <glyph glyph-name="Delta" unicode="&#x2206;" vert-adv-y="2457" 
d="M1150 0h-1218l483 1475h246zM852 144l-339 1047l-338 -1047h677z" />
    <glyph glyph-name="product" unicode="&#x220f;" horiz-adv-x="1351" vert-adv-y="2457" 
d="M168 -572v2213h1014v-2213h-244v2069h-526v-2069h-244z" />
    <glyph glyph-name="summation" unicode="&#x2211;" horiz-adv-x="1141" vert-adv-y="2457" 
d="M61 -572v183l447 970l-441 881v179h1018v-144h-776l455 -916l-459 -1008h800v-145h-1044z" />
    <glyph glyph-name="minus" unicode="&#x2212;" vert-adv-y="2457" 
d="M113 566v152h856v-152h-856z" />
    <glyph glyph-name="radical" unicode="&#x221a;" vert-adv-y="2457" 
d="M401 0l-163 639h-154v146h308l119 -474l377 1571h537v-138h-382l-428 -1744h-214z" />
    <glyph glyph-name="infinity" unicode="&#x221e;" horiz-adv-x="1494" vert-adv-y="2457" 
d="M746 625c-82 -141.333 -190.999 -212 -326.999 -212c-105.333 0 -185 32.667 -239 98c-52.667 64 -79 143 -79 237c0 94.667 26.333 174 79 238c54 65.333 133.333 98 238 98c137.333 0 246.666 -70.667 327.999 -212c82 141.333 191.667 212 329 212
c104.667 0 184 -32.667 238 -98c52.667 -64.667 79 -144 79 -238c0 -93.333 -26.333 -172.333 -79 -237c-54 -65.333 -133.333 -98 -238 -98c-137.333 0 -247 70.667 -329 212zM832.001 748c38.667 -65.333 69 -111.335 91 -138.002c50.667 -61.333 103.667 -92 159 -92
c49.333 0 88.333 20.333 117 61c29.333 42.667 44 99 44 169c0 70.667 -14.667 127.334 -44 170.001c-28 40.667 -67.333 61 -118 61c-58.667 0 -115 -35.667 -169 -107c-16.667 -21.333 -34.667 -47.666 -54 -78.999c-18 -29.333 -26.667 -44.333 -26 -45zM661.001 747.998
c-36.667 62.667 -66.333 108.001 -89 136.001c-52 63.333 -105.667 95 -161 95c-50 0 -89 -20.333 -117 -61c-29.333 -42.667 -44 -99.334 -44 -170.001c0 -70 14.667 -126.333 44 -169c28 -40.667 67 -61 117 -61c58.667 0 114.667 34.333 168 103
c16 20.667 43.333 63 82 127z" />
    <glyph glyph-name="integral" unicode="&#x222b;" vert-adv-y="2457" 
d="M210 -497l-0.000976562 141c45.333 -10 80.333 -15 105 -15c46 0 76.667 18.667 92 56c9.33301 24 14 71 14 141v1413c0 148 16.667 251 50 309c44 76.667 125.667 115 245 115c50.667 0 102.667 -6.33301 156 -19v-142c-45.333 10 -81 15 -107 15
c-45.333 0 -75.666 -18.667 -90.999 -56c-9.33301 -23.333 -14 -70 -14 -140v-1414c0 -148 -16.667 -251 -50 -309c-44 -76.667 -125.667 -115 -245 -115c-51.333 0 -103 6.66699 -155 20z" />
    <glyph glyph-name="approxequal" unicode="&#x2248;" vert-adv-y="2457" 
d="M220 332l-112 50c31.333 73.333 58.666 124.333 81.999 153c50 60.667 113.333 91 190 91c51.333 0 104 -16 158 -48c26 -16 65 -44.333 117 -85c26.667 -20.667 52.334 -31 77.001 -31c30.667 0 59.334 21.667 86.001 65c7.33301 12 20 39.667 38 83l112 -51
c-47.333 -162 -138 -243 -272 -243c-62 0 -117 16.333 -165 49c-17.333 11.333 -51 36.333 -101 75c-34.667 26.667 -63 40 -85 40c-30 0 -58 -21.667 -84 -65c-8.66699 -14 -22.334 -41.667 -41.001 -83zM220 679l-112 51c31.333 73.333 58.666 124.333 81.999 153
c50 60.667 113.333 91 190 91c51.333 0 104 -16.333 158 -49c26 -15.333 65 -43.666 117 -84.999c27.333 -20.667 53 -31 77 -31c30.667 0 59.334 22 86.001 66c7.33301 11.333 20 38.666 38 81.999l112 -51c-47.333 -162 -138 -243 -272 -243c-62 0 -117 16.333 -165 49
c-17.333 11.333 -51 36.333 -101 75c-34.667 27.333 -63 41 -85 41c-30 0 -58 -21.667 -84 -65c-8 -12.667 -21.667 -40.667 -41 -84z" />
    <glyph glyph-name="notequal" unicode="&#x2260;" vert-adv-y="2457" 
d="M113 390v152h299l89 201h-388v152h457l109 243l139 -67l-78 -176h229v-152h-299l-88 -201h387v-152h-457l-108 -242l-140 66l78 176h-229z" />
    <glyph glyph-name="lessequal" unicode="&#x2264;" vert-adv-y="2457" 
d="M97 0v152h858v-152h-858zM319 688l636 -305v-170l-872 431v88l872 429v-169z" />
    <glyph glyph-name="greaterequal" unicode="&#x2265;" vert-adv-y="2457" 
d="M126 0v152h858v-152h-858zM763 688l-637 304v169l872 -429v-88l-872 -431v170z" />
    <glyph glyph-name="dotmath" unicode="&#x22c5;" horiz-adv-x="541" vert-adv-y="2457" 
d="M270 747c44.667 0 82 -16.667 112 -50c25.333 -28 38 -61.333 38 -100c0 -44.667 -16.333 -82 -49 -112c-28.667 -25.333 -62.667 -38 -102 -38c-44 0 -80.667 16.667 -110 50c-26 28 -39 62.333 -39 103c0 42 16.667 78 50 108c28 26 61.333 39 100 39z" />
    <glyph glyph-name="filledbox" unicode="&#x25a0;" horiz-adv-x="1622" vert-adv-y="2457" 
d="M285 0v1053h1053v-1053h-1053z" />
    <glyph glyph-name="lozenge" unicode="&#x25ca;" vert-adv-y="2457" 
d="M32 737l509 822l509 -822l-509 -824zM269 737l272 -456l272 456l-272 457z" />
    <glyph glyph-name="glyph1" horiz-adv-x="0" vert-adv-y="0" 
 />
    <glyph glyph-name="glyph2" horiz-adv-x="492" vert-adv-y="2457" 
 />
    <glyph glyph-name="glyph155" horiz-adv-x="492" vert-adv-y="2457" 
 />
    <glyph glyph-name="glyph164" horiz-adv-x="492" vert-adv-y="2457" 
 />
    <glyph glyph-name="glyph166" horiz-adv-x="492" vert-adv-y="2457" 
 />
    <glyph glyph-name="glyph172" vert-adv-y="1081" 
 />
    <glyph glyph-name="glyph210" horiz-adv-x="492" vert-adv-y="2457" 
 />
    <glyph glyph-name="florin.fitted" horiz-adv-x="756" vert-adv-y="2457" 
d="M55 676v137.999h193v192c0 122.667 10.333 219 31 289c17.333 61.333 50 110 98 146c54.667 41.333 143.667 62 267 62h99v-131h-49c-82 0 -137.667 -20.333 -167 -61c-29.333 -40 -44 -124.667 -44 -254v-243h245v-138h-245v-674c0 -122.667 -10.333 -219 -31 -289
c-26.667 -92 -80.667 -151.667 -162 -179c-56 -19.333 -124 -29 -204 -29h-98v131h48c82 0 138 20.333 168 61c29.333 40.667 44 125.334 44 254.001v725h-193z" />
    <glyph glyph-name="cent.fitted" horiz-adv-x="969" vert-adv-y="2457" 
d="M531 165c-103.333 13.333 -185 40.666 -245 81.999c-126.667 87.333 -190 237 -190 449c0 140.667 28.333 257 85 349c72 116.667 188.667 184.334 350 203.001v255h144v-251c67.333 -4 132 -14.667 194 -32v-138c-62 23.333 -126.667 36.333 -194 39v-829
c80.667 4 154 20.333 220 49v-144c-56.667 -19.333 -130 -31.333 -220 -36v-259h-144v263zM531 308l-0.000976562 791c-55.333 -24 -96.666 -58 -123.999 -102c-46 -72.667 -69 -177.667 -69 -315c0 -144.667 30.333 -249.667 91 -315c21.333 -24 55.333 -43.667 102 -59z
" />
    <glyph glyph-name="dollar.fitted" horiz-adv-x="1096" vert-adv-y="2457" 
d="M482 131v555.997c-102.667 48.667 -179.667 92.334 -231 131.001c-61.333 46 -105 92.667 -131 140c-25.333 46.667 -38 99.667 -38 159c0 92 28.333 169.667 85 233c64 71.333 169 116 315 134v205h144v-198c106.667 -3.33301 206 -20.333 298 -51v-155
c-97.333 41.333 -196.666 63 -297.999 65v-511c115.333 -53.333 195.666 -98 240.999 -134c105.333 -85.333 158 -192.333 158 -321c0 -103.333 -32.333 -188.666 -97 -255.999c-65.333 -68 -166 -110.333 -302 -127v-222h-144v212
c-162 0.666992 -301.333 22.334 -418 65.001v167c100 -46 189.667 -74 269 -84c40 -5.33301 89.667 -8 149 -8zM626 152.997c119.333 38.667 179 110.999 179 216.999c0 72 -27.667 133 -83 183c-14 12.667 -46 34.334 -96 65.001v-465zM482 911.996v421.001
c-40.667 -10.667 -72.667 -22.334 -96 -35.001c-56.667 -32 -85 -87 -85 -165c0 -61.333 22 -110.333 66 -147c26.667 -22 65 -46.667 115 -74z" />
    <glyph glyph-name="sterling.fitted" horiz-adv-x="1060" vert-adv-y="2457" 
d="M243 157l0.00195312 508.001h-164v138h164v177c0 93.333 6.33301 171 19 233c20.667 101.333 72 176.666 154 225.999c71.333 43.333 164.666 65 279.999 65c90 0 175 -12.333 255 -37v-149c-84.667 30 -159.334 45 -224.001 45c-112 0 -185 -43.333 -219 -130
c-19.333 -49.333 -29 -135 -29 -257v-173h261v-138h-261v-508h524v-157h-925v157h165z" />
    <glyph glyph-name="zero.fitted" horiz-adv-x="1093" vert-adv-y="2457" 
d="M549 1504c186.667 0 314.001 -82.334 382.001 -247.001c46.667 -112 70 -285 70 -519c0 -257.333 -29 -443 -87 -557c-70.667 -140 -193.334 -210 -368.001 -210c-187.333 0 -315.333 82.333 -384 247c-46.667 110.667 -70 286.667 -70 528
c0 252.667 28.667 435.334 86 548.001c72 140 195.667 210 371 210zM546.001 1363c-86 0 -145.334 -65 -178.001 -195c-22.667 -89.333 -34 -229.666 -34 -420.999c0 -221.333 14 -377.333 42 -468c18 -58.667 40.667 -101.334 68 -128.001c26.667 -26 60.667 -39 102 -39
c55.333 0 99 24.333 131 73c34.667 53.333 58 136.666 70 249.999c8 74.667 12 176 12 304c0 214.667 -13.667 367.334 -41 458.001c-33.333 110.667 -90.666 166 -171.999 166z" />
    <glyph glyph-name="nine.fitted" horiz-adv-x="1071" vert-adv-y="2457" 
d="M725 650c-64.667 -64 -149.002 -96.001 -253.002 -96.001c-139.333 0 -242.666 49 -309.999 147c-53.333 77.333 -80 179.333 -80 306c0 123.333 23.333 226.333 70 309c70 125.333 194 188 372 188c179.333 0 303.333 -70.667 372 -212
c49.333 -101.333 74 -257.666 74 -468.999c0 -298 -40.333 -515 -121 -651c-80 -135.333 -220 -203 -420 -203c-91.333 0 -183 14 -275 42v152c80.667 -35.333 167.334 -53 260.001 -53c132.667 0 219.667 63.333 261 190c20.667 62 34.667 139.667 42 233zM524.998 1373
c-77.333 0 -130.668 -36.666 -160.001 -109.999c-27.333 -68 -41 -147 -41 -237c0 -86 13 -160.667 39 -224c28.667 -71.333 80.334 -107 155.001 -107c66 0 116.333 29 151 87c39.333 65.333 59 147.666 59 246.999c0 229.333 -67.667 344 -203 344z" />
    <glyph glyph-name="eight.fitted" horiz-adv-x="1064" vert-adv-y="2457" 
d="M306 780c-49.333 25.333 -85.999 51.667 -109.999 79c-55.333 62 -83 146.667 -83 254c0 124 35.667 221.333 107 292c68 67.333 172 101 312 101c139.333 0 243.333 -33.667 312 -101c70.667 -70.667 106 -168 106 -292c0 -115.333 -31.667 -204.666 -95 -267.999
c-21.333 -20.667 -54.333 -42.334 -99 -65.001c161.333 -66.667 242 -199 242 -397c0 -139.333 -43.667 -245 -131 -317c-78.667 -64.667 -190.334 -97 -335.001 -97c-145.333 0 -257.333 32.333 -336 97c-87.333 72 -131 177.667 -131 317c0 198 80.333 330.333 241 397z
M532.001 1378c-62.667 0 -109.667 -23.665 -141 -70.998c-31.333 -46.667 -47 -112.334 -47 -197.001s15.667 -150.334 47 -197.001c31.333 -47.333 77.333 -71 138 -71c126.667 0 190 90 190 270c0 84.667 -15.667 149.667 -47 195c-32 47.333 -78.667 71 -140 71z
M535.001 707.003c-77.333 0 -134 -23.333 -170 -70c-40.667 -53.333 -61 -132.333 -61 -237c0 -202 76 -303 228 -303c151.333 0 227 101.333 227 304c0 204 -74.667 306 -224 306z" />
    <glyph glyph-name="seven.fitted" horiz-adv-x="890" vert-adv-y="2457" 
d="M113 0l502 1328h-607v147h838v-87l-488 -1388h-245z" />
    <glyph glyph-name="six.fitted" horiz-adv-x="1071" vert-adv-y="2457" 
d="M346 858c64.667 64 147.667 96 249 96c142.667 0 247.334 -50.667 314.001 -152c53.333 -81.333 80 -187 80 -317c0 -128.667 -23 -236.667 -69 -324c-66.667 -128 -191 -192 -373 -192c-180 0 -304.333 70.333 -373 211c-49.333 100.667 -74 253.334 -74 458.001
c0 577.333 180.333 866 541 866c76.667 0 152 -12 226 -36v-150c-66.667 30 -137.334 45 -212.001 45c-74 0 -134.667 -27 -182 -81c-49.333 -56 -84.333 -138.667 -105 -248c-8.66699 -46.667 -16 -105.334 -22 -176.001zM554 822c-66.667 0 -118.667 -34.333 -156 -103
c-37.333 -69.333 -56 -153.333 -56 -252c0 -93.333 13 -174 39 -242c31.333 -83.333 87 -125 167 -125c60.667 0 107.667 28.667 141 86c38.667 66 58 160 58 282c0 130 -21.667 225.667 -65 287c-32 44.667 -74.667 67 -128 67z" />
    <glyph glyph-name="five.fitted" horiz-adv-x="1016" vert-adv-y="2457" 
d="M86 12v157c94.667 -38.667 195.667 -58 303 -58c113.333 0 191 33.667 233 101c34.667 54.667 52 131.667 52 231c0 123.333 -33.667 209.333 -101 258c-50.667 36.667 -133.334 55 -248.001 55h-198l40 719h673v-147h-468l-24 -432h66c168 0 290.333 -32.667 367 -98
c90 -76.667 135 -195 135 -355c0 -174 -50.333 -300.333 -151 -379c-79.333 -62 -199.666 -93 -360.999 -93c-118.667 0 -224.667 13.667 -318 41z" />
    <glyph glyph-name="four.fitted" horiz-adv-x="1030" vert-adv-y="2457" 
d="M600 0v344h-560v144l405 987h233l-413 -984h335v360h224v-360h163v-147h-163v-344h-224z" />
    <glyph glyph-name="three.fitted" horiz-adv-x="977" vert-adv-y="2457" 
d="M261 708l0.00195312 139.998h61c56 0 99.333 5 130 15c101.333 34 152 120.667 152 260c0 78.667 -16.667 137.334 -50 176.001c-36.667 42.667 -97.667 64 -183 64c-86.667 0 -179.667 -22 -279 -66v153c98.667 36 200.667 54 306 54c149.333 0 262.333 -32.667 339 -98
c72.667 -62.667 109 -151 109 -265c0 -102.667 -27.333 -183.667 -82 -243c-32.667 -34.667 -77.334 -64.667 -134.001 -90c74.667 -28 128.667 -57.333 162 -88c72 -65.333 108 -163.333 108 -294c0 -156 -44.667 -272.667 -134 -350c-81.333 -70 -205 -105 -371 -105
c-88.667 0 -162.667 5.66699 -222 17c-28 5.33301 -65.333 15.333 -112 30v168c92.667 -50 192 -75 298 -75c114.667 0 194.667 29.333 240 88c39.333 51.333 59 125 59 221c0 116.667 -31 198.334 -93 245.001c-38.667 28.667 -105.334 43 -200.001 43h-104z" />
    <glyph glyph-name="one.fitted" horiz-adv-x="733" vert-adv-y="2457" 
d="M279 0v1285l-250 -93v140l307 147h176v-1479h-233z" />
    <glyph glyph-name="two.fitted" horiz-adv-x="945" vert-adv-y="2457" 
d="M21 0l0.000976562 131.002l53 69c179.333 235.333 301.333 399.666 366 492.999c62.667 91.333 106 166 130 224c27.333 65.333 41 129.666 41 192.999c0 168.667 -81 253 -243 253c-91.333 0 -187.333 -25.333 -288 -76v152c99.333 43.333 209.333 65 330 65
c151.333 0 263.666 -35.667 336.999 -107c71.333 -68.667 107 -162 107 -280c0 -94 -28.667 -191 -86 -291c-70.667 -124 -239.667 -349 -507 -675h619v-151h-859z" />
    <glyph glyph-name="zero.denominator" horiz-adv-x="715" vert-adv-y="2457" 
d="M357 760c128 0 215.333 -44 262 -132c32 -60.667 48 -145.667 48 -255c0 -120.667 -19.667 -212.334 -59 -275.001c-48 -74.667 -131.667 -112 -251 -112c-128 0 -215.333 44 -262 132c-32 60.667 -48 147.334 -48 260.001c0 118 19.667 208 59 270
c48 74.667 131.667 112 251 112zM357 667c-44.667 0 -75.334 -29.667 -92.001 -89c-12.667 -44.667 -19 -111.667 -19 -201c0 -102.667 7.66699 -177 23 -223c17.333 -50 46.666 -75 87.999 -75c44.667 0 75.334 29.667 92.001 89c12.667 44.667 19 113 19 205
c0 100.667 -7.66699 173.667 -23 219c-17.333 50 -46.666 75 -87.999 75z" />
    <glyph glyph-name="nine.denominator" horiz-adv-x="715" vert-adv-y="2457" 
d="M453 303c-38 -21.333 -84.667 -31.999 -140 -31.999c-94 0 -164.667 24.667 -212 74c-36 38 -54 91 -54 159c0 170.667 101 256 303 256c124.667 0 210 -35.333 256 -106c32.667 -50.667 49 -130.334 49 -239.001c0 -152.667 -26.333 -262 -79 -328
c-54.667 -68 -151 -102 -289 -102c-63.333 0 -128 7.66699 -194 23v107c62 -24.667 121 -37 177 -37c72.667 0 121.667 25.333 147 76c17.333 33.333 29.333 83 36 149zM351 672.001c-70 0 -105.001 -51.333 -105.001 -154s35 -154 105 -154c38.667 0 66.334 16 83.001 48
c14.667 29.333 22 64 22 104c0 104 -35 156 -105 156z" />
    <glyph glyph-name="eight.denominator" horiz-adv-x="715" vert-adv-y="2457" 
d="M170 395c-68 32.667 -102 86.335 -102 161.002c0 136.667 96.333 205 289 205s289 -68.333 289 -205c0 -74.667 -34.333 -128.334 -103 -161.001c88 -38.667 132 -103.334 132 -194.001c0 -144 -106 -216 -318 -216s-318 72 -318 216c0 92 43.667 156.667 131 194z
M357 674.001c-29.333 0 -52.668 -10.668 -70.001 -32.001c-16.667 -20.667 -25 -49.667 -25 -87c0 -36.667 8.33301 -65.667 25 -87c17.333 -21.333 40 -32 68 -32c30.667 0 54.667 10.667 72 32c16.667 20.667 25 50 25 88c0 36.667 -8.33301 65.334 -25 86.001
c-17.333 21.333 -40.666 32 -69.999 32zM358.998 346c-82 0 -123 -45.999 -123 -137.999c0 -44.667 11.667 -79.334 35 -104.001c20 -21.333 48.667 -32 86 -32c80.667 0 121 45.667 121 137c0 45.333 -11.667 80.333 -35 105c-20 21.333 -48 32 -84 32z" />
    <glyph glyph-name="seven.denominator" horiz-adv-x="715" vert-adv-y="2457" 
d="M138 0l318 652h-382v94h582v-60l-312 -686h-206z" />
    <glyph glyph-name="six.denominator" horiz-adv-x="715" vert-adv-y="2457" 
d="M265 464c37.333 18 82.001 27.001 134.001 27.001c95.333 0 166.666 -25.667 213.999 -77c36 -38.667 54 -93.334 54 -164.001c0 -176.667 -100.667 -265 -302 -265c-125.333 0 -211 35.333 -257 106c-32.667 50 -49 127.333 -49 232c0 152 31 263.667 93 335
c60 68 150.667 102 272 102c54 0 109.333 -7 166 -21v-98c-54.667 17.333 -99.667 26 -135 26c-60 0 -105 -18.333 -135 -55c-26 -32 -44.333 -81.333 -55 -148zM363.001 403.001c-37.333 0 -65 -18.666 -83 -55.999c-14.667 -30.667 -22 -66.334 -22 -107.001
c0 -43.333 7.66699 -80.333 23 -111c18 -37.333 45.333 -56 82 -56c37.333 0 65 19 83 57c14.667 32 22 68 22 108c0 40.667 -7.33301 76.667 -22 108c-18 38 -45.667 57 -83 57z" />
    <glyph glyph-name="five.denominator" horiz-adv-x="715" vert-adv-y="2457" 
d="M76 10l0.000976562 106.999c80 -25.333 152 -38 216 -38c104 0 156 49.667 156 149c0 54.667 -19 93.334 -57 116.001c-28.667 17.333 -76 26 -142 26h-147l26 376h471v-94h-296l-14 -189h26c108 0 187.667 -16 239 -48c62 -39.333 93 -101.333 93 -186
c0 -92 -34.333 -157.667 -103 -197c-52.667 -30.667 -133.334 -46 -242.001 -46c-80.667 0 -156 8 -226 24z" />
    <glyph glyph-name="four.denominator" horiz-adv-x="715" vert-adv-y="2457" 
d="M419 160h-387v87l204 512h196l-205 -504h192v244h184v-244h101v-95h-101v-160h-184v160z" />
    <glyph glyph-name="three.denominator" horiz-adv-x="715" vert-adv-y="2457" 
d="M194 347l0.000976562 93.001h60c104 0 156 41 156 123c0 70 -41.667 105 -125 105c-54 0 -120.333 -14.333 -199 -43v107c74 19.333 146 29 216 29c204.667 0 307 -63.667 307 -191c0 -42.667 -11 -77.334 -33 -104.001c-15.333 -20 -41.333 -38.667 -78 -56
c42 -16 73.333 -33.333 94 -52c34 -31.333 51 -77.333 51 -138c0 -156 -112.667 -234 -338 -234c-90.667 0 -170.334 11.667 -239.001 35v119c79.333 -40.667 151.333 -61 216 -61c108 0 162 46.333 162 139c0 50 -17.333 86.333 -52 109c-21.333 13.333 -58.333 20 -111 20
h-87z" />
    <glyph glyph-name="two.denominator" horiz-adv-x="715" vert-adv-y="2457" 
d="M47 0v83l19 19c135.333 136.667 219.333 223.334 252 260.001c40 44 67.333 79.667 82 107c14.667 28.667 22 57 22 85c0 76 -43.333 114 -130 114c-54 0 -122.333 -17 -205 -51v109c68 23.333 144.667 35 230 35c203.333 0 305 -68 305 -204
c0 -46.667 -14.333 -91.334 -43 -134.001c-31.333 -47.333 -123.333 -144.333 -276 -291l-37 -35h373v-97h-592z" />
    <glyph glyph-name="Dieresis" horiz-adv-x="1024" vert-adv-y="2457" 
d="M333 1864c36.667 0 67.333 -13.665 92 -40.998c21.333 -24 32 -52 32 -84c0 -36.667 -13.667 -67.334 -41 -92.001c-23.333 -21.333 -51.333 -32 -84 -32c-37.333 0 -68 13.667 -92 41c-21.333 24 -32 52.333 -32 85c0 35.333 13.667 65.666 41 90.999
c23.333 21.333 51.333 32 84 32zM686.999 1864c37.333 0 68.333 -13.665 93 -40.998c21.333 -24 32 -52 32 -84c0 -36.667 -13.667 -67.334 -41 -92.001c-23.333 -21.333 -51.333 -32 -84 -32c-37.333 0 -68 13.667 -92 41c-21.333 24 -32 52.333 -32 85
c0 35.333 13.667 65.666 41 90.999c23.333 21.333 51 32 83 32z" />
    <glyph glyph-name="Dotaccent" horiz-adv-x="1024" vert-adv-y="2457" 
d="M510 1876c40.667 0 74.333 -14.999 101 -44.999c23.333 -25.333 35 -55.333 35 -90c0 -40.667 -15 -74.334 -45 -101.001c-25.333 -23.333 -56 -35 -92 -35c-39.333 0 -72.333 15 -99 45c-23.333 25.333 -35 56.333 -35 93c0 38 15 70.667 45 98
c25.333 23.333 55.333 35 90 35z" />
    <glyph glyph-name="Ring" horiz-adv-x="1024" vert-adv-y="2457" 
d="M512 1991c75.333 0 133.667 -21.332 175 -63.999c37.333 -38.667 56 -86.334 56 -143.001s-18.667 -104.334 -56 -143.001c-41.333 -42.667 -100 -64 -176 -64c-74.667 0 -132.667 21.333 -174 64c-37.333 38.667 -56 87.334 -56 146.001c0 56 18.667 102.667 56 140
c42.667 42.667 101 64 175 64zM512.001 1908c-56 0 -84 -40.667 -84 -122c0 -84 28 -126 84 -126s84 41.333 84 124s-28 124 -84 124z" />
    <glyph glyph-name="Acute" horiz-adv-x="1024" vert-adv-y="2457" 
d="M386 1599l150 313h241l-220 -313h-171z" />
    <glyph glyph-name="Grave" horiz-adv-x="1024" vert-adv-y="2457" 
d="M468 1599l-221 313h241l150 -313h-170z" />
    <glyph glyph-name="Circumflex" horiz-adv-x="1024" vert-adv-y="2457" 
d="M512 1792l-138 -193h-179l214 313h205l215 -313h-179z" />
    <glyph glyph-name="Caron" horiz-adv-x="1024" vert-adv-y="2457" 
d="M512 1712l138 200h179l-214 -313h-205l-215 313h179z" />
    <glyph glyph-name="Breve" horiz-adv-x="1024" vert-adv-y="2457" 
d="M184 1900h172c5.33301 -46 14.333 -80.667 27 -104c24 -45.333 67.333 -68 130 -68c67.333 0 112.333 26.333 135 79c9.33301 21.333 16.333 52.333 21 93h172c-8 -208 -117.333 -312 -328 -312c-211.333 0 -321 104 -329 312z" />
    <glyph glyph-name="Tilde" horiz-adv-x="1024" vert-adv-y="2457" 
d="M307 1609h-132.998c9.33301 72 23.333 126.667 42 164c37.333 75.333 98 113 182 113c40 0 75.333 -9.33301 106 -28c17.333 -10.667 40 -30.667 68 -60c23.333 -24.667 38.333 -39.667 45 -45c9.33301 -7.33301 18.666 -11 27.999 -11c38.667 0 62.667 43.333 72 130
h133c-17.333 -184.667 -92 -277 -224 -277c-49.333 0 -91.666 13.667 -126.999 41c-18.667 15.333 -41.334 38 -68.001 68c-20.667 23.333 -38.334 35 -53.001 35c-38 0 -61.667 -43.333 -71 -130z" />
    <glyph glyph-name="Hungarumlaut" horiz-adv-x="1024" vert-adv-y="2457" 
d="M278 1599l129 313h226l-199 -313h-156zM580 1599l129 313h226l-200 -313h-155z" />
    <glyph glyph-name="Cedilla" horiz-adv-x="1024" vert-adv-y="2457" 
d="M486 0h151l-57 -119c61.333 -6.66699 109.333 -17.667 144 -33c68 -29.333 102 -84 102 -164c0 -131.333 -92.333 -197 -277 -197c-62 0 -120 7.66699 -174 23v107c50 -16 96.667 -24 140 -24c74 0 111 33.333 111 100c0 44 -20 73.333 -60 88
c-22 8 -60.333 13.667 -115 17l-47 37z" />
    <glyph glyph-name="Ogonek" horiz-adv-x="1024" vert-adv-y="2457" 
d="M509 0h126c-15.333 -16.667 -43 -50.667 -83 -102c-45.333 -58 -68 -116.333 -68 -175c0 -86.667 41.667 -130 125 -130c44 0 87 6.66699 129 20v-106c-46.667 -13.333 -100 -20 -160 -20c-98.667 0 -174 19.667 -226 59c-47.333 34.667 -71 84.667 -71 150
c0 102 76 203.333 228 304z" />
    <glyph glyph-name="Macron" horiz-adv-x="1024" vert-adv-y="2457" 
d="M222 1666v145h580v-145h-580z" />
    <glyph glyph-name="one.denominator" horiz-adv-x="715" vert-adv-y="2457" 
d="M275 0v618l-159 -46v100l206 76h146v-748h-193z" />
    <glyph glyph-name="zero.numerator" horiz-adv-x="715" vert-adv-y="2457" 
d="M357 1504c128 0 215.332 -44.001 261.999 -132.001c32 -60.667 48 -146 48 -256c0 -120.667 -19.667 -212 -59 -274c-48 -75.333 -131.667 -113 -251 -113c-128 0 -215.333 44 -262 132c-32 60.667 -48 147.334 -48 260.001c0 118.667 19.667 208.667 59 270
c48.667 75.333 132.334 113 251.001 113zM356.999 1411c-44.667 0 -75.335 -29.667 -92.002 -89c-12.667 -45.333 -19 -112.666 -19 -201.999c0 -102.667 7.66699 -177 23 -223c16.667 -50 46 -75 88 -75c44.667 0 75.334 29.667 92.001 89c12.667 44.667 19 113 19 205
c0 101.333 -7.66699 174.666 -23 219.999c-17.333 50 -46.666 75 -87.999 75z" />
    <glyph glyph-name="nine.numerator" horiz-adv-x="715" vert-adv-y="2457" 
d="M453 1046c-37.333 -21.333 -84 -31.999 -140 -31.999c-94 0 -164.667 24.667 -212 74c-36 38 -54 91.333 -54 160c0 170.667 101 256 303 256c124.667 0 210 -35.333 256 -106c32.667 -50.667 49 -130.334 49 -239.001c0 -153.333 -26.333 -263 -79 -329
c-54.667 -68 -151 -102 -289 -102c-63.333 0 -128 7.66699 -194 23v107c62.667 -24.667 121.667 -37 177 -37c72.667 0 121.667 25.333 147 76c17.333 33.333 29.333 83 36 149zM351 1416c-70 0 -105.001 -51.333 -105.001 -154c0 -103.333 35 -155 105 -155
c38.667 0 66.334 16 83.001 48c14.667 29.333 22 64.333 22 105c0 104 -35 156 -105 156z" />
    <glyph glyph-name="eight.numerator" horiz-adv-x="715" vert-adv-y="2457" 
d="M170 1138c-68 32.667 -102.001 86.667 -102.001 162c0 136.667 96.333 205 289 205s289 -68.333 289 -205c0 -75.333 -34.333 -129.333 -103 -162c40.667 -18 70.334 -38.333 89.001 -61c28.667 -34.667 43 -79 43 -133c0 -144 -106 -216 -318 -216s-318 72 -318 216
c0 92 43.667 156.667 131 194zM356.999 1418c-29.333 0 -52.668 -10.667 -70.001 -32c-16.667 -20.667 -25 -49.667 -25 -87s8.33301 -66.666 25 -87.999c17.333 -21.333 40 -32 68 -32c30.667 0 54.667 10.667 72 32c16.667 21.333 25 50.666 25 87.999
s-8.33301 66.333 -25 87c-17.333 21.333 -40.666 32 -69.999 32zM358.997 1089c-82 0 -123 -45.999 -123 -137.999c0 -44.667 11.667 -79.334 35 -104.001c20 -21.333 48.667 -32 86 -32c80.667 0 121 45.667 121 137c0 45.333 -11.667 80 -35 104c-20 22 -48 33 -84 33z
" />
    <glyph glyph-name="seven.numerator" horiz-adv-x="715" vert-adv-y="2457" 
d="M138 743l318 652h-382v94h582v-59l-312 -687h-206z" />
    <glyph glyph-name="six.numerator" horiz-adv-x="715" vert-adv-y="2457" 
d="M265 1208c37.333 17.333 82.001 26 134.001 26c95.333 0 166.666 -25.667 213.999 -77c36 -38.667 54 -93.334 54 -164.001c0 -176.667 -100.667 -265 -302 -265c-125.333 0 -211 35.333 -257 106c-32.667 50.667 -49 128.334 -49 233.001c0 152 31 263.333 93 334
c60 68.667 150.667 103 272 103c56 0 111.333 -7.33301 166 -22v-98c-54.667 18 -99.667 27 -135 27c-60 0 -105 -18.667 -135 -56c-26 -32 -44.333 -81 -55 -147zM363.001 1146c-37.333 0 -65 -18.666 -83 -55.999c-14.667 -30.667 -22 -66.334 -22 -107.001
c0 -43.333 7.66699 -80.333 23 -111c18 -37.333 45.333 -56 82 -56c37.333 0 65 19 83 57c14.667 32 22 68 22 108c0 40.667 -7.33301 76.667 -22 108c-18 38 -45.667 57 -83 57z" />
    <glyph glyph-name="five.numerator" horiz-adv-x="715" vert-adv-y="2457" 
d="M76 753v105.999c78 -24.667 150 -37 216 -37c104 0 156 49.667 156 149c0 54.667 -19 93.334 -57 116.001c-28.667 17.333 -76 26 -142 26h-147l26 376h471v-94h-296l-14 -189h26c108 0 187.667 -16 239 -48c62 -39.333 93 -101.333 93 -186
c0 -92 -34.333 -157.667 -103 -197c-52.667 -30.667 -133.334 -46 -242.001 -46c-81.333 0 -156.666 8 -225.999 24z" />
    <glyph glyph-name="four.numerator" horiz-adv-x="715" vert-adv-y="2457" 
d="M419 903h-387v87l204 511h196l-205 -503h192v244h184v-244h101v-95h-101v-160h-184v160z" />
    <glyph glyph-name="three.numerator" horiz-adv-x="715" vert-adv-y="2457" 
d="M194 1090l-0.000976562 92.001h60c104 0 156 41 156 123c0 70.667 -41.667 106 -125 106c-55.333 0 -121.666 -14.667 -198.999 -44v107c72 20 144 30 216 30c204.667 0 307 -64 307 -192c0 -42.667 -11 -77.334 -33 -104.001c-15.333 -20 -41.333 -38.667 -78 -56
c42.667 -15.333 74 -32.333 94 -51c34 -31.333 51 -77.333 51 -138c0 -156 -112.667 -234 -338 -234c-90 0 -169.667 11.667 -239 35v119c44 -22.667 79 -37.667 105 -45c34.667 -10.667 71.667 -16 111 -16c108 0 162 46.333 162 139c0 50 -17.333 86.333 -52 109
c-21.333 13.333 -58.333 20 -111 20h-87z" />
    <glyph glyph-name="two.numerator" horiz-adv-x="715" vert-adv-y="2457" 
d="M47 742v83l19 19c136 137.333 220 224 252 260c40 44 67.333 80 82 108c14.667 28.667 22 56.667 22 84c0 76.667 -43.333 115 -130 115c-54.667 0 -123 -17 -205 -51v109c68 23.333 144.667 35 230 35c203.333 0 305 -68 305 -204c0 -46.667 -14.333 -91.667 -43 -135
c-31.333 -46.667 -123.333 -143.667 -276 -291l-37 -35h373v-97h-592z" />
    <glyph glyph-name="one.numerator" horiz-adv-x="715" vert-adv-y="2457" 
d="M275 743v619l-159 -46v100l206 75h146v-748h-193z" />
    <glyph glyph-name="zerooldstyle" horiz-adv-x="1104" vert-adv-y="2457" 
d="M552 1082c175.333 0 300.998 -58.667 376.998 -176c56 -87.333 84 -214 84 -380c0 -181.333 -34.667 -316.666 -104 -405.999c-77.333 -99.333 -196.666 -149 -357.999 -149c-175.333 0 -301 58.667 -377 176c-33.333 52.667 -56.666 115 -69.999 187
c-9.33301 51.333 -14 117.666 -14 198.999c0 178 34.333 311.333 103 400c77.333 99.333 197 149 359 149zM550.998 947c-83.333 0 -143 -42.999 -179 -128.999c-26.667 -64.667 -40 -160 -40 -286c0 -144.667 16.333 -250.334 49 -317.001c36 -72.667 92.667 -109 170 -109
c84 0 144 43 180 129c26.667 64 40 161 40 291c0 142 -16.333 246 -49 312c-36 72.667 -93 109 -171 109z" />
    <glyph glyph-name="nineoldstyle" horiz-adv-x="1071" vert-adv-y="2457" 
d="M725 228c-64.667 -64 -149 -96 -253 -96c-139.333 0 -242.666 49 -309.999 147c-53.333 77.333 -80 179.333 -80 306c0 123.333 23.333 226.333 70 309c70 125.333 194 188 372 188c179.333 0 303.333 -70.667 372 -212c49.333 -101.333 74 -257.333 74 -468
c0 -298 -40.333 -515 -121 -651c-80 -135.333 -220 -203 -420 -203c-90.667 0 -182.334 13.667 -275.001 41v152c81.333 -34.667 168 -52 260 -52c132.667 0 219.667 63.333 261 190c20.667 62 34.667 139.333 42 232zM525 951c-77.333 0 -130.668 -36.667 -160.001 -110
c-27.333 -68 -41 -147 -41 -237c0 -86 13 -161 39 -225c28.667 -71.333 80.334 -107 155.001 -107c66 0 116.333 29 151 87c39.333 66 59 148.667 59 248c0 229.333 -67.667 344 -203 344z" />
    <glyph glyph-name="eightoldstyle" horiz-adv-x="1064" vert-adv-y="2457" 
d="M306 780c-49.333 25.333 -85.999 51.667 -109.999 79c-55.333 62 -83 146.667 -83 254c0 124 35.667 221.333 107 292c68 67.333 172 101 312 101c139.333 0 243.333 -33.667 312 -101c70.667 -70.667 106 -168 106 -292c0 -115.333 -31.667 -204.666 -95 -267.999
c-21.333 -20.667 -54.333 -42.334 -99 -65.001c161.333 -66.667 242 -199 242 -397c0 -139.333 -43.667 -245 -131 -317c-78.667 -64.667 -190.334 -97 -335.001 -97c-145.333 0 -257.333 32.333 -336 97c-87.333 72 -131 177.667 -131 317c0 198 80.333 330.333 241 397z
M532.001 1378c-62.667 0 -109.667 -23.665 -141 -70.998c-31.333 -46.667 -47 -112.334 -47 -197.001s15.667 -150.334 47 -197.001c31.333 -47.333 77.333 -71 138 -71c126.667 0 190 90 190 270c0 84.667 -15.667 149.667 -47 195c-32 47.333 -78.667 71 -140 71z
M535.001 707.003c-77.333 0 -134 -23.333 -170 -70c-40.667 -53.333 -61 -132.333 -61 -237c0 -202 76 -303 228 -303c151.333 0 227 101.333 227 304c0 204 -74.667 306 -224 306z" />
    <glyph glyph-name="sevenoldstyle" horiz-adv-x="881" vert-adv-y="2457" 
d="M114 -422l502 1328h-618v147h849v-87l-488 -1388h-245z" />
    <glyph glyph-name="sixoldstyle" horiz-adv-x="1071" vert-adv-y="2457" 
d="M346 858c64.667 64 147.667 96 249 96c142.667 0 247.334 -50.667 314.001 -152c53.333 -81.333 80 -187 80 -317c0 -128.667 -23 -236.667 -69 -324c-66.667 -128 -191 -192 -373 -192c-180 0 -304.333 70.333 -373 211c-49.333 100.667 -74 253.334 -74 458.001
c0 577.333 180.333 866 541 866c76.667 0 152 -12 226 -36v-150c-66.667 30 -137.334 45 -212.001 45c-74 0 -134.667 -27 -182 -81c-49.333 -56 -84.333 -138.667 -105 -248c-8.66699 -46.667 -16 -105.334 -22 -176.001zM554 822c-66.667 0 -118.667 -34.333 -156 -103
c-37.333 -69.333 -56 -153.333 -56 -252c0 -93.333 13 -174 39 -242c31.333 -83.333 87 -125 167 -125c60.667 0 107.667 28.667 141 86c38.667 66 58 160 58 282c0 130 -21.667 225.667 -65 287c-32 44.667 -74.667 67 -128 67z" />
    <glyph glyph-name="fiveoldstyle" horiz-adv-x="1016" vert-adv-y="2457" 
d="M86 -409l0.000976562 156.001c90.667 -38 187 -57 289 -57c117.333 0 199 33.667 245 101c36 53.333 54 130 54 230c0 123.333 -33.667 209.333 -101 258c-50.667 36.667 -133.334 55 -248.001 55h-198l40 719h673v-147h-468l-24 -432h66c168 0 290.333 -32.667 367 -98
c90 -76.667 135 -194.334 135 -353.001c0 -175.333 -52 -302.333 -156 -381c-81.333 -61.333 -204.333 -92 -369 -92c-112 0 -213.667 13.667 -305 41z" />
    <glyph glyph-name="fouroldstyle" horiz-adv-x="1016" vert-adv-y="2457" 
d="M603 0h-582v144l393 909h237l-396 -906h348v364h224v-364h179v-147h-179v-383h-224v383z" />
    <glyph glyph-name="threeoldstyle" horiz-adv-x="977" vert-adv-y="2457" 
d="M261 286l0.00195312 139.999h61c56 0 99.333 5 130 15c101.333 34 152 120.667 152 260c0 78.667 -16.667 137.334 -50 176.001c-36.667 42.667 -97.667 64 -183 64c-86.667 0 -179.667 -22 -279 -66v153c98.667 36 200.667 54 306 54c149.333 0 262.333 -32.667 339 -98
c72.667 -62.667 109 -151 109 -265c0 -102.667 -27.333 -183.667 -82 -243c-32.667 -35.333 -77.334 -65.333 -134.001 -90c74 -27.333 128 -56.666 162 -87.999c72 -65.333 108 -163 108 -293c0 -156.667 -46 -273.334 -138 -350.001c-84 -70 -210.333 -105 -379 -105
c-121.333 0 -228.666 15.667 -321.999 47v167c88 -49.333 183 -74 285 -74c119.333 0 202.666 29.333 249.999 88c41.333 51.333 62 125 62 221c0 116 -31 197.333 -93 244c-38.667 28.667 -105.334 43 -200.001 43h-104z" />
    <glyph glyph-name="twooldstyle" horiz-adv-x="935" vert-adv-y="2457" 
d="M30 0l-0.000976562 133.999l358 314c70.667 64 121 116 151 156c36.667 47.333 55 98 55 152c0 53.333 -15 96 -45 128c-36 38 -91.333 57 -166 57c-93.333 0 -190.666 -25.333 -291.999 -76v152c96 43.333 206.333 65 331 65c136 0 239 -28 309 -84
c34.667 -27.333 61.667 -64 81 -110c16.667 -39.333 25 -80.666 25 -123.999c0 -68.667 -22.333 -133 -67 -193c-55.333 -74 -213 -214 -473 -420h562v-151h-829z" />
    <glyph glyph-name="oneoldstyle" horiz-adv-x="733" vert-adv-y="2457" 
d="M279 0v875l-250 -93v140l307 147h176v-1069h-233z" />
    <glyph glyph-name="yen.fitted" horiz-adv-x="1113" vert-adv-y="2457" 
d="M438 0v222h-331v135h331v134h-331v135h295l-394 849h256l322 -740l309 740h199l-379 -849h280v-135h-316v-134h316v-135h-316v-222h-241z" />
    <glyph glyph-name="Euro.fitted" horiz-adv-x="1090" vert-adv-y="2457" 
d="M33 494l-0.00195312 135h143c-2 22 -3 46 -3 72c0 20 0.333008 40.333 1 61h-141v135h152c20 134 53 242 99 324c62 111.333 144.333 189.666 247 234.999c72.667 32 161.334 48 266.001 48c82.667 0 158 -10.667 226 -32v-144c-74.667 23.333 -142.667 35 -204 35
c-107.333 0 -191.666 -34.667 -252.999 -104c-54.667 -61.333 -92.667 -144.666 -114 -249.999c-6 -30.667 -11.667 -68 -17 -112h487v-135h-496c-0.666992 -14.667 -1 -32.667 -1 -54c0 -28 0.666992 -54.333 2 -79h495v-135h-482c15.333 -85.333 36 -152.333 62 -201
c32.667 -62.667 74 -108.667 124 -138c49.333 -28.667 111.666 -43 186.999 -43c60.667 0 136.667 13.667 228 41v-151c-73.333 -20.667 -155.333 -31 -246 -31c-249.333 0 -424 93.667 -524 281c-33.333 61.333 -59.666 142 -78.999 242h-159z" />
    </font>
</defs>
</svg>
