<?xml version="1.0" encoding="utf-8"?>
<!-- Generator: Adobe Illustrator 17.0.0, SVG Export Plug-In . SVG Version: 6.00 Build 0)  -->
<!DOCTYPE svg PUBLIC "-//W3C//DTD SVG 1.1//EN" "http://www.w3.org/Graphics/SVG/1.1/DTD/svg11.dtd">
<svg version="1.1" id="Layer_1" xmlns="http://www.w3.org/2000/svg" xmlns:xlink="http://www.w3.org/1999/xlink" x="0px" y="0px"
	 width="100px" height="48px" viewBox="0 0 100 48" enable-background="new 0 0 100 48" xml:space="preserve">
<g>
	<path fill-rule="evenodd" clip-rule="evenodd" fill="#ED1C24" d="M1.311,37.237c0,1.313-1.154,1.992-1.154,1.992h6.37
		c-0.219,0-1.433-1.113-1.433-2.049c0-0.71,0-8.998,0-8.998h5.27c0,0,1.597,0.222,1.597,0.937c0,0.719,0-3.292,0-3.292H5.094v-6.514
		c0,0,6.316,0,6.697,0c0.386,0,1.759,0.643,1.813,1.41c0.061,0.781,0-3.721,0-3.721H0c0,0,1.251,0.77,1.311,2.032
		C1.371,20.294,1.311,35.925,1.311,37.237L1.311,37.237z"/>
	<path fill-rule="evenodd" clip-rule="evenodd" fill="#ED1C24" d="M35.222,17.001c0.216,0,1.425,0.898,1.363,2.052
		c0,0.821,0,21.132,0,21.623c0,0.487-0.65,5.31-3.517,7.291c-0.056,0.045,3.032-0.444,5.108-2.524
		c0.333-0.326,2.248-1.645,2.248-6.244c0-4.937-0.046-18.877-0.046-20.2c0-1.48,1.48-1.998,1.48-1.998H35.222L35.222,17.001z"/>
	<path fill-rule="evenodd" clip-rule="evenodd" fill="#ED1C24" d="M16.195,19.047c0.05-1.154-1.056-2.045-1.279-2.045
		c-1.151,0,6.646,0,6.646,0s-1.401,0.83-1.401,1.991c0,0.73,0.023,11.693,0.023,13.607c0,1.925,1.098,4.611,4.324,4.611
		c2.547,0,3.684-2.696,3.684-4.611c0-1.644-0.04-12.359-0.04-13.519c0.057-1.141-1.059-2.08-1.275-2.08c-1.157,0,6.628,0,6.628,0
		s-1.384,0.749-1.384,1.897c0,0.734-0.007,13.837-0.007,13.837s-0.036,2.49-1.46,4.121c-1.097,1.245-2.934,2.662-6.079,2.716
		c-3.608,0.058-5.264-1.201-6.853-2.749c-1.152-1.121-1.453-3.351-1.499-4.27C16.184,30.739,16.195,19.757,16.195,19.047
		L16.195,19.047z"/>
	<path fill-rule="evenodd" clip-rule="evenodd" fill="#ED1C24" d="M82.687,19.047c0.048-1.154-1.059-2.045-1.281-2.045
		c-1.155,0,6.645,0,6.645,0s-1.402,0.83-1.402,1.991c0,0.73,0.027,11.693,0.027,13.607c0,1.925,1.1,4.611,4.324,4.611
		c2.546,0,3.681-2.696,3.681-4.611c0-1.644-0.034-12.359-0.034-13.519c0.054-1.141-1.062-2.08-1.282-2.08c-1.154,0,6.635,0,6.635,0
		s-1.386,0.749-1.386,1.897c0,0.734-0.014,13.837-0.014,13.837s-0.03,2.49-1.457,4.121c-1.093,1.245-2.934,2.662-6.08,2.716
		c-3.61,0.058-5.26-1.201-6.85-2.749c-1.152-1.121-1.457-3.351-1.502-4.27C82.675,30.739,82.687,19.757,82.687,19.047L82.687,19.047
		z"/>
	<path fill-rule="evenodd" clip-rule="evenodd" fill="#ED1C24" d="M48.49,37.177c0,1.211,1.42,2.052,1.473,2.052
		c1.145,0-6.631,0-6.631,0s1.353-0.841,1.353-1.998c0-0.727,0.01-17.467,0.01-18.177c0.063-1.154-1.142-2.052-1.36-2.052
		c-1.151,0,6.628,0,6.628,0s-1.473,0.848-1.473,1.994C48.49,19.719,48.49,36.47,48.49,37.177L48.49,37.177z"/>
	<path fill-rule="evenodd" clip-rule="evenodd" fill="#ED1C24" d="M56.533,19.416c0,0.711,0.02,17.165,0.02,17.894
		c0,1.155-1.404,1.918-1.404,1.918s7.784,0,6.622,0c-0.05,0-1.36-0.848-1.36-2.055c0-0.714,0.068-17.704,0.068-17.704
		c0.003-0.155,2.523-0.121,3.251-0.1c0.509,0.007,1.537,0.303,1.719,1.578c0.054,0.391,1.363-3.946,1.363-3.946H51.388l-1.309,4.337
		c0,0,1.588-1.922,2.293-1.922C53.376,19.427,56.533,19.416,56.533,19.416L56.533,19.416z"/>
	<path fill-rule="evenodd" clip-rule="evenodd" fill="#ED1C24" d="M67.632,39.203l-1.211-4.216c0,0,1.872,2.193,5.163,2.359
		c3.293,0.161,4.294-1.421,4.62-1.757c0.322-0.33,2.055-2.577-0.603-4.223c-2.875-1.757-5.45-2.743-6.602-3.729
		c-1.147-0.99-2.793-3.13-2.132-6.202c0.659-3.062,4.001-4.381,5.366-4.596c1.397-0.216,5.068-0.169,6.501,0.38
		c0.094,0.168,0,3.398,0,3.398c-0.078,0.215-0.55-1.585-3.956-1.646c-3.413-0.05-3.961,2.252-4.011,2.41
		c-0.058,0.168-0.992,2.584,1.689,3.953c2.694,1.374,5.346,2.227,7.302,4.664c2.251,2.793,0.251,6.419-0.361,7.12
		c-0.921,1.047-3.634,2.638-6.547,2.638C68.908,39.753,67.69,39.266,67.632,39.203L67.632,39.203z"/>
	<path fill-rule="evenodd" clip-rule="evenodd" fill="#ED1C24" d="M52.721,6.142c0.096,2.577-1.575,6.229-6.155,6.309
		c-3.392,0.047-5.037-2.588-5.425-3.018c-0.378-0.441-1.208-2.08-3.291-2.134c-2.087-0.06-3.018,1.858-3.069,2.847
		c-0.054,0.996,0.376,3.398,3.113,3.452c2.522,0.064,3.744-2.627,3.744-2.627v2.796c0,0-1.325,1.585-3.674,1.645
		c-2.366,0.053-5.161-1.931-5.055-5.377c0.111-3.453,3.566-4.665,5.156-4.607c1.598,0.058,2.964,0.822,4.172,2.473
		c1.204,1.645,2.793,2.971,5.108,2.521c1.403-0.276,3.496-1.374,3.496-4.388c0-3.015-3.11-4.124-4.324-4.112
		c-0.804,0.007-1.867,0.219-3.076,1.366c-1.204,1.155-1.756,2.907-1.756,2.907V2.524c0,0,1.867-2.469,4.66-2.524
		C49.147-0.053,52.571,2.198,52.721,6.142L52.721,6.142z"/>
</g>
</svg>
