<?xml version="1.0" encoding="utf-8"?>
<!-- Generator: Adobe Illustrator 17.0.0, SVG Export Plug-In . SVG Version: 6.00 Build 0)  -->
<!DOCTYPE svg PUBLIC "-//W3C//DTD SVG 1.1//EN" "http://www.w3.org/Graphics/SVG/1.1/DTD/svg11.dtd">
<svg version="1.1" id="Layer_1" xmlns="http://www.w3.org/2000/svg" xmlns:xlink="http://www.w3.org/1999/xlink" x="0px" y="0px"
	 width="175px" height="50px" viewBox="0 0 175 50" enable-background="new 0 0 175 50" xml:space="preserve">
<g>
	<g>
		<path fill="#FFFFFF" d="M28.783,2.245c3.267-1.009,6.831-1.278,10.153-0.377c2.66,0.715,5.072,2.314,6.736,4.509
			c0.672,0.911,0.825,2.082,0.874,3.183c0.063,1.966-0.277,3.919-0.72,5.829c-1.215,5.025-3.388,9.786-6.152,14.145
			c1.548,0.664,3.285,0.332,4.882,0.047c0.665-0.132,1.524-0.291,2.028,0.291c0.49,0.635,0.019,1.445-0.477,1.912
			c-2.323,2.27-5.839,2.865-8.949,2.34c-0.314,2.777-0.644,5.557-1.078,8.32c-0.241,1.543-0.755,3.151-1.963,4.215
			c-1.136,0.994-2.632,1.431-4.085,1.707c-1.482,0.258-3.146,0.046-4.314-0.973c-1.238-1.096-1.942-2.718-2.098-4.347
			c-0.314-2.781-0.328-5.585-0.319-8.382c-1.336,1.152-3.113,1.743-4.872,1.61c-1.241-0.104-2.616-0.298-3.548-1.204
			c-0.516-0.472-0.488-1.368,0.086-1.778c0.995-0.751,2.319-0.694,3.448-1.129c0.837-0.246,1.271-1.06,1.798-1.685
			c-0.973-0.072-1.924-0.319-2.8-0.75c-1.341,1.429-2.635,2.906-3.892,4.412c-0.727,0.871-1.8,1.606-2.986,1.462
			c-1.334-0.163-2.326-1.21-3.072-2.247c-1.469-2.112-2.377-4.549-3.204-6.968c-1.254-3.88-2.238-7.858-2.809-11.9
			C1.166,11.443,1.407,8.127,3.18,5.53c1.403-2.082,3.857-3.216,6.301-3.471c3.287-0.344,6.606,0.327,9.693,1.438
			c2.572-1.717,5.843-1.954,8.808-1.352C28.247,2.178,28.512,2.3,28.783,2.245z M31.197,3.088c0.639,0.442,1.357,0.75,1.998,1.19
			c2.63,1.761,4.681,4.326,5.969,7.207c0.356,0.832,0.723,1.708,0.65,2.635c0.016,1.893-0.632,3.738-0.439,5.636
			c0.184,2.01,0.618,4.066,0.105,6.064c-0.144,0.707-0.514,1.336-0.769,2.003c0.019,0.097,0.056,0.29,0.075,0.385
			c0.242-0.313,0.462-0.643,0.664-0.983c2.044-3.462,3.669-7.181,4.74-11.061c0.56-2.096,0.999-4.25,0.973-6.429
			c-0.039-0.915-0.114-1.914-0.708-2.658c-1.245-1.559-2.902-2.79-4.768-3.497C36.992,2.565,33.993,2.487,31.197,3.088z
			 M23.426,3.351c-2.086,0.272-4.04,1.399-5.299,3.088c-1.713,2.27-2.461,5.132-2.679,7.929c1.722-0.804,3.662-1.557,5.586-1.073
			c1.25,0.3,2.189,1.392,2.463,2.627c0.562,2.474,0.866,5.081,0.316,7.586c-0.423,2.024-1.657,3.775-2.066,5.802
			c0.521,0.042,1.066,0.077,1.531,0.339c0.96,0.523,1.513,1.645,1.454,2.723c-0.072,2.76-0.068,5.522,0.077,8.278
			c0.086,1.141,0.118,2.3,0.42,3.409c0.413,1.324,1.331,2.681,2.788,2.937c1.534,0.235,3.12-0.2,4.484-0.894
			c1.333-0.702,1.931-2.202,2.159-3.611c0.483-2.943,0.816-5.908,1.155-8.87c0.146-1.057-0.061-2.217,0.528-3.169
			c0.337-0.611,0.999-0.897,1.592-1.197c-0.497-0.637-1.022-1.257-1.412-1.968c-1.468-3.03-3.455-5.895-4.068-9.266
			c-0.263-1.419-0.112-3.106,1.06-4.094c1.292-1.111,3.106-1.046,4.705-0.99c-0.962-2.72-2.748-5.139-5.007-6.924
			C30.482,3.86,26.867,2.914,23.426,3.351z M8.761,3.583C6.848,3.941,5.025,5.037,4.049,6.755c-1.304,2.27-1.447,5.004-1.218,7.553
			c0.458,3.35,1.255,6.645,2.2,9.888c0.843,2.741,1.764,5.5,3.292,7.944c0.565,0.832,1.211,1.759,2.226,2.052
			c0.867,0.179,1.555-0.536,2.065-1.136c1.154-1.424,2.416-2.751,3.606-4.143c-1.749-1.589-2.693-4.01-2.375-6.364
			c0.253-1.803,0.3-3.629,0.19-5.446c-0.191-2.579,0.176-5.192,0.978-7.646c0.59-1.838,1.599-3.517,2.897-4.942
			C14.967,3.618,11.825,2.993,8.761,3.583z M34.508,14.919c-0.888,0.695-0.843,1.961-0.662,2.962
			c0.639,3.144,2.474,5.839,3.892,8.662c1.059-2.128,0.407-4.54,0.244-6.784c-0.181-1.814,0.374-3.58,0.43-5.381
			C37.11,14.298,35.635,14.119,34.508,14.919z M15.399,16.08c0.03,1.512,0.137,3.025,0.033,4.537
			c-0.046,1.336-0.437,2.677-0.137,4.01c0.439,2.358,2.546,4.451,5.023,4.426c0.363-1.189,0.785-2.361,1.304-3.492
			c1.489-2.932,1.248-6.377,0.47-9.473c-0.212-0.873-1.03-1.499-1.917-1.538C18.465,14.45,16.813,15.167,15.399,16.08z
			 M37.722,30.96c-0.462,0.428-0.43,1.111-0.435,1.689c1.02,0.349,2.117,0.312,3.174,0.186c1.596-0.172,3.22-0.706,4.391-1.845
			c-1.917,0.232-4.013,0.695-5.817-0.255C38.611,30.441,38.089,30.69,37.722,30.96z M19.564,33.169
			c-1.069,0.632-2.367,0.592-3.476,1.106c2.249,1.146,5.362,0.744,6.917-1.362c0.797-0.741,0.026-2.307-1.027-2.158
			C21.01,31.385,20.6,32.613,19.564,33.169z"/>
		<path fill="#FFFFFF" d="M34.924,15.341c0.639-0.456,1.526-0.49,2.231-0.162c-0.026,0.894-1.097,1.536-1.878,1.076
			C34.954,16.11,34.548,15.649,34.924,15.341z"/>
		<path fill="#FFFFFF" d="M19.371,15.393c0.667-0.179,1.466-0.093,2.015,0.353c0.384,0.312,0.033,0.83-0.3,1.018
			c-0.757,0.558-1.959,0.012-2.114-0.885C18.928,15.616,19.155,15.469,19.371,15.393z"/>
		<path fill="#346791" d="M31.197,3.088c2.797-0.6,5.795-0.523,8.49,0.492c1.866,0.708,3.524,1.938,4.768,3.497
			c0.593,0.744,0.669,1.743,0.708,2.658c0.026,2.179-0.413,4.333-0.973,6.429c-1.071,3.88-2.697,7.598-4.74,11.061
			c-0.202,0.341-0.421,0.671-0.664,0.983c-0.019-0.095-0.056-0.288-0.075-0.385c0.255-0.667,0.625-1.296,0.769-2.003
			c0.513-1.998,0.079-4.054-0.105-6.064c-0.193-1.898,0.455-3.743,0.439-5.636c0.074-0.927-0.293-1.803-0.65-2.635
			c-1.289-2.881-3.339-5.446-5.969-7.207C32.554,3.838,31.836,3.53,31.197,3.088z"/>
		<path fill="#346791" d="M23.426,3.351c3.441-0.437,7.056,0.509,9.789,2.662c2.26,1.786,4.045,4.205,5.007,6.924
			c-1.599-0.056-3.413-0.121-4.705,0.99c-1.173,0.988-1.324,2.676-1.06,4.094c0.613,3.371,2.6,6.236,4.068,9.266
			c0.39,0.711,0.915,1.331,1.412,1.968c-0.593,0.3-1.255,0.586-1.592,1.197c-0.59,0.952-0.383,2.112-0.528,3.169
			c-0.339,2.962-0.672,5.927-1.155,8.87c-0.228,1.41-0.827,2.909-2.159,3.611c-1.364,0.694-2.95,1.129-4.484,0.894
			c-1.457-0.256-2.375-1.614-2.788-2.937c-0.302-1.11-0.334-2.268-0.42-3.409c-0.146-2.756-0.149-5.518-0.077-8.278
			c0.06-1.078-0.493-2.2-1.454-2.723c-0.465-0.262-1.009-0.297-1.531-0.339c0.409-2.028,1.643-3.778,2.066-5.802
			c0.55-2.505,0.246-5.112-0.316-7.586c-0.274-1.234-1.213-2.326-2.463-2.627c-1.924-0.485-3.864,0.269-5.586,1.073
			c0.218-2.797,0.966-5.658,2.679-7.929C19.386,4.75,21.34,3.623,23.426,3.351z"/>
		<path fill="#346791" d="M8.761,3.583c3.064-0.59,6.206,0.035,9.147,0.932c-1.297,1.426-2.307,3.104-2.897,4.942
			c-0.802,2.454-1.169,5.067-0.978,7.646c0.111,1.817,0.063,3.643-0.19,5.446c-0.318,2.354,0.627,4.775,2.375,6.364
			c-1.19,1.392-2.453,2.719-3.606,4.143c-0.509,0.6-1.197,1.315-2.065,1.136c-1.015-0.293-1.661-1.22-2.226-2.052
			c-1.527-2.444-2.449-5.204-3.292-7.944c-0.945-3.243-1.742-6.538-2.2-9.888c-0.228-2.549-0.086-5.283,1.218-7.553
			C5.025,5.037,6.848,3.941,8.761,3.583z"/>
		<path fill="#346791" d="M34.508,14.919c1.127-0.801,2.602-0.621,3.905-0.541c-0.056,1.801-0.611,3.567-0.43,5.381
			c0.163,2.244,0.815,4.656-0.244,6.784c-1.419-2.823-3.253-5.518-3.892-8.662C33.665,16.88,33.619,15.614,34.508,14.919z
			 M34.924,15.341c-0.376,0.309,0.03,0.769,0.353,0.915c0.781,0.46,1.852-0.183,1.878-1.076
			C36.449,14.851,35.563,14.884,34.924,15.341z"/>
		<path fill="#346791" d="M15.399,16.08c1.413-0.913,3.065-1.629,4.777-1.531c0.887,0.039,1.705,0.665,1.917,1.538
			c0.778,3.097,1.018,6.541-0.47,9.473c-0.52,1.131-0.941,2.303-1.304,3.492c-2.477,0.025-4.584-2.068-5.023-4.426
			c-0.3-1.333,0.091-2.674,0.137-4.01C15.536,19.105,15.429,17.591,15.399,16.08z M19.371,15.393
			c-0.216,0.076-0.442,0.223-0.399,0.486c0.154,0.897,1.357,1.443,2.114,0.885c0.334-0.188,0.685-0.706,0.3-1.018
			C20.837,15.3,20.038,15.214,19.371,15.393z"/>
		<path fill="#346791" d="M37.722,30.96c0.367-0.27,0.888-0.52,1.313-0.225c1.803,0.95,3.899,0.486,5.817,0.255
			c-1.171,1.139-2.795,1.673-4.391,1.845c-1.057,0.126-2.154,0.163-3.174-0.186C37.292,32.072,37.261,31.389,37.722,30.96z"/>
		<path fill="#346791" d="M19.564,33.169c1.036-0.557,1.447-1.784,2.414-2.414c1.053-0.149,1.824,1.417,1.027,2.158
			c-1.555,2.107-4.668,2.509-6.917,1.362C17.197,33.761,18.494,33.801,19.564,33.169z"/>
		<path fill="#010101" d="M28.793,0.834c2.999-0.787,6.171-1.122,9.24-0.539c2.786,0.502,5.437,1.81,7.454,3.81
			c0.892,0.894,1.798,1.87,2.133,3.123c0.6,2.154,0.362,4.435,0,6.608C46.669,19.05,44.61,24.01,41.973,28.59
			c1.187,0,2.328-0.377,3.504-0.455c1.154-0.076,2.386,0.634,2.663,1.803c0.348,1.245-0.435,2.451-1.352,3.223
			c-2.333,2.077-5.571,2.763-8.62,2.588c-0.183,3.148-0.246,6.42-1.575,9.342c-0.593,1.303-1.529,2.465-2.756,3.218
			c-1.175,0.732-2.539,1.078-3.884,1.334c-1.471,0.265-3.085,0.121-4.354-0.725c-1.173-0.746-1.908-2.001-2.33-3.297
			c-1.041-2.709-0.937-5.662-1.06-8.515c-2.065,0.83-4.414,0.829-6.508,0.109c-0.736-0.256-1.385-0.702-1.944-1.239
			c-1.078,0.895-2.563,1.355-3.941,0.966c-1.754-0.478-2.995-1.949-3.927-3.429c-1.617-2.658-2.632-5.627-3.527-8.592
			c-0.989-3.425-1.828-6.905-2.281-10.444c-0.255-3.146,0.028-6.512,1.726-9.256c1.364-2.247,3.757-3.748,6.315-4.249
			c3.625-0.737,7.363-0.025,10.841,1.062c1.125-0.506,2.249-1.059,3.481-1.259C24.539,0.351,26.695,0.546,28.793,0.834z
			 M28.783,2.245c-0.27,0.054-0.535-0.067-0.801-0.1c-2.965-0.602-6.236-0.365-8.808,1.352c-3.086-1.111-6.406-1.782-9.693-1.438
			C7.037,2.314,4.583,3.448,3.18,5.53c-1.773,2.597-2.014,5.913-1.731,8.957c0.571,4.042,1.555,8.02,2.809,11.9
			c0.827,2.419,1.735,4.856,3.204,6.968c0.746,1.038,1.738,2.084,3.072,2.247c1.187,0.144,2.26-0.592,2.986-1.462
			c1.257-1.506,2.551-2.983,3.892-4.412c0.876,0.43,1.828,0.678,2.8,0.75c-0.527,0.625-0.96,1.44-1.798,1.685
			c-1.129,0.435-2.453,0.377-3.448,1.129c-0.574,0.411-0.602,1.306-0.086,1.778c0.932,0.906,2.307,1.101,3.548,1.204
			c1.759,0.133,3.536-0.458,4.872-1.61c-0.009,2.797,0.005,5.6,0.319,8.382c0.156,1.629,0.86,3.251,2.098,4.347
			c1.167,1.018,2.832,1.231,4.314,0.973c1.454-0.276,2.949-0.713,4.085-1.707c1.208-1.064,1.722-2.672,1.963-4.215
			c0.434-2.763,0.764-5.543,1.078-8.32c3.109,0.525,6.626-0.07,8.949-2.34c0.497-0.467,0.967-1.276,0.477-1.912
			c-0.504-0.583-1.362-0.423-2.028-0.291c-1.598,0.284-3.334,0.616-4.882-0.047c2.763-4.359,4.937-9.121,6.152-14.145
			c0.442-1.91,0.783-3.862,0.72-5.829c-0.049-1.101-0.202-2.272-0.874-3.183c-1.664-2.195-4.077-3.794-6.736-4.509
			C35.614,0.967,32.05,1.236,28.783,2.245z"/>
	</g>
	<g>
		<g>
			<path fill="#010101" d="M56.017,17.248c2.618,0.009,5.237-0.021,7.858-0.038c1.214-0.014,2.521,0.209,3.459,1.04
				c1.271,1.1,1.493,3.037,0.947,4.556c-0.645,1.643-2.495,2.411-4.156,2.452c-2.24,0.028-4.482-0.012-6.722,0.017
				c-0.024,1.978,0.033,3.954,0.012,5.932c-0.467-0.002-0.933-0.002-1.397,0C56.002,26.553,56,21.902,56.017,17.248z M57.421,18.364
				c-0.002,1.938-0.01,3.875,0.005,5.813c2.069-0.005,4.137,0.031,6.206-0.017c1.155-0.036,2.507-0.433,2.99-1.595
				c0.381-1.04,0.321-2.333-0.383-3.226c-0.686-0.821-1.833-0.974-2.84-0.978C61.406,18.36,59.413,18.36,57.421,18.364z"/>
		</g>
		<path fill="#010101" d="M93.332,19.04c0.478,0,0.957,0,1.438,0c0,0.997-0.002,1.992,0.007,2.99c0.817,0.01,1.633,0.01,2.449,0
			c0.012,0.324,0.024,0.645,0.038,0.969c-0.826,0.017-1.652,0.017-2.478-0.002c-0.033,1.959-0.007,3.916-0.019,5.873
			c0.014,0.445-0.028,1.036,0.426,1.29c0.636,0.319,1.371,0.202,2.052,0.164c0,0.31,0.002,0.621,0.005,0.933
			c-1.05,0.119-2.181,0.198-3.154-0.286c-0.588-0.307-0.783-1.009-0.771-1.628c-0.012-2.119,0.005-4.235-0.005-6.353
			c-0.617,0.002-1.231,0-1.847-0.007c0.005-0.317,0.007-0.633,0.012-0.947c0.609,0.007,1.216,0.002,1.826-0.024
			C93.318,21.021,93.32,20.031,93.332,19.04z"/>
		<g>
			<path fill="#010101" d="M72.301,21.873c1.821-0.269,3.811-0.207,5.449,0.719c2.461,1.385,2.807,5.104,1.093,7.199
				c-1.471,1.633-3.88,1.854-5.944,1.681c-1.676-0.102-3.392-0.933-4.185-2.471c-0.719-1.421-0.728-3.19-0.057-4.63
				C69.333,22.968,70.806,22.123,72.301,21.873z M73.003,22.802c-1.345,0.157-2.668,1.005-3.109,2.33
				c-0.493,1.473-0.283,3.311,0.914,4.399c0.947,0.869,2.302,1.071,3.54,1.012c1.124-0.045,2.316-0.343,3.118-1.183
				c0.878-0.862,1.024-2.188,0.909-3.354c-0.088-1.009-0.574-2.033-1.464-2.571C75.753,22.728,74.322,22.649,73.003,22.802z"/>
		</g>
		<path fill="#010101" d="M81.837,22.545c0.947-0.605,2.114-0.7,3.209-0.776c1.545-0.036,3.235-0.045,4.573,0.843
			c0.745,0.467,1.014,1.35,1.119,2.173c-0.502,0.019-1.007,0.024-1.509,0.024c-0.105-0.683-0.383-1.407-1.069-1.692
			c-1.233-0.567-2.659-0.505-3.973-0.317c-0.817,0.117-1.814,0.581-1.838,1.531c-0.071,0.674,0.545,1.147,1.133,1.293
			c1.733,0.436,3.544,0.393,5.289,0.767c0.778,0.183,1.619,0.495,2.061,1.207c0.605,1.033,0.229,2.516-0.819,3.114
			c-1.271,0.752-2.809,0.79-4.247,0.797c-1.4-0.055-2.923-0.079-4.118-0.912c-0.733-0.507-0.986-1.414-1.124-2.247
			c0.521-0.007,1.043,0,1.564,0.01c0.026,1.135,0.981,1.94,2.052,2.076c1.557,0.224,3.278,0.352,4.728-0.371
			c1.004-0.505,0.907-2.13-0.155-2.507c-2.154-0.628-4.501-0.421-6.625-1.193C80.559,25.753,80.535,23.404,81.837,22.545z"/>
		<g>
			<path fill="#010101" d="M101.564,21.992c1.483-0.331,3.071-0.355,4.535,0.088c0.836,0.226,1.419,0.893,2.05,1.435
				c0.029-0.488,0.041-0.976,0.067-1.461c0.459,0.002,0.919-0.002,1.381-0.012c0.124,2.821,0.017,5.651,0.055,8.477
				c0.036,1.169-0.193,2.454-1.104,3.271c-1.197,1.085-2.904,1.262-4.449,1.293c-1.373-0.029-2.821-0.06-4.063-0.712
				c-0.869-0.45-1.285-1.402-1.457-2.316c0.469-0.01,0.938-0.014,1.409-0.029c0.298,0.607,0.526,1.343,1.181,1.662
				c0.981,0.471,2.104,0.486,3.171,0.479c1.188-0.04,2.549-0.269,3.297-1.3c0.721-0.986,0.557-2.273,0.557-3.418
				c-1.488,1.507-3.737,1.788-5.749,1.545c-1.262-0.145-2.58-0.595-3.404-1.612c-1-1.235-1.124-2.98-0.752-4.475
				C98.674,23.38,100.078,22.328,101.564,21.992z M102.768,22.842c-1.036,0.162-2.073,0.666-2.65,1.573
				c-0.669,1.078-0.678,2.487-0.229,3.652c0.479,1.207,1.781,1.823,3.007,1.95c1.557,0.224,3.373,0.021,4.485-1.207
				c1.245-1.514,1.109-4.142-0.557-5.308C105.649,22.704,104.132,22.656,102.768,22.842z"/>
		</g>
		<path fill="#010101" d="M114.025,22.133c1.043-0.457,2.209-0.371,3.321-0.369c0,0.388,0.002,0.776,0.007,1.164
			c-1.143-0.017-2.416-0.169-3.399,0.545c-0.959,0.657-1.29,1.881-1.307,2.987c-0.017,1.581,0.01,3.164-0.007,4.747
			c-0.471-0.002-0.943-0.005-1.412-0.005c-0.045-3.049-0.052-6.099-0.012-9.148c0.471,0.002,0.945,0.002,1.416-0.005
			c0.01,0.526,0.012,1.054,0.026,1.581C113.009,23.052,113.378,22.418,114.025,22.133z"/>
		<g>
			<path fill="#010101" d="M117.841,24.03c0.959-1.547,2.835-2.207,4.58-2.261c1.785-0.088,3.799,0.155,5.104,1.507
				c0.966,0.938,1.283,2.314,1.335,3.616c-3.409,0.031-6.818-0.024-10.224,0.029c0.079,0.921,0.357,1.876,1.074,2.509
				c1.324,1.216,3.321,1.326,4.999,0.95c1.114-0.24,1.971-1.107,2.38-2.145c0.519-0.002,1.038,0,1.559,0.005
				c-0.445,1.547-1.809,2.668-3.352,3.016c-2.09,0.486-4.499,0.402-6.301-0.881C117.027,28.991,116.656,26.032,117.841,24.03z
				 M120.419,23.28c-1.036,0.536-1.521,1.673-1.769,2.754c2.897,0.021,5.796,0.019,8.696,0c-0.098-0.659-0.29-1.328-0.747-1.833
				C125.135,22.428,122.364,22.242,120.419,23.28z"/>
		</g>
	</g>
	<g>
		<path fill="#346791" d="M132.055,17.757c1.471-0.814,3.214-0.869,4.856-0.897c1.776,0.021,3.723,0.167,5.175,1.309
			c0.909,0.702,1.295,1.864,1.297,2.98c-0.564,0.002-1.126,0-1.688,0c-0.205-1.095-0.686-2.273-1.826-2.678
			c-1.907-0.724-4.097-0.678-6.039-0.112c-1.557,0.431-2.126,2.683-0.926,3.771c0.859,0.686,2.004,0.778,3.04,1.009
			c2.123,0.452,4.375,0.526,6.353,1.495c2.109,1.057,2.028,4.43,0.169,5.696c-1.542,1.059-3.504,1.176-5.318,1.19
			c-1.976-0.031-4.13-0.217-5.737-1.493c-1.028-0.814-1.347-2.169-1.407-3.418c0.576-0.029,1.152-0.038,1.73-0.041
			c0.126,1.328,0.75,2.709,2.073,3.214c2.071,0.805,4.466,0.795,6.579,0.155c1.478-0.417,2.052-2.3,1.381-3.59
			c-0.319-0.583-0.945-0.9-1.559-1.069c-2.583-0.697-5.318-0.736-7.841-1.666C129.988,22.739,129.91,18.945,132.055,17.757z"/>
		<g>
			<path fill="#346791" d="M148.115,17.907c1.971-1.005,4.254-1.162,6.425-0.983c2.061,0.171,4.161,0.933,5.556,2.514
				c1.731,1.864,2.04,4.682,1.39,7.06c-0.352,1.333-1.288,2.385-2.292,3.28c0.793,0.576,1.616,1.107,2.409,1.688
				c-0.355,0.343-0.719,0.674-1.093,0.995c-0.838-0.538-1.607-1.181-2.473-1.669c-0.669,0-1.281,0.405-1.947,0.497
				c-1.857,0.329-3.787,0.352-5.642-0.012c-2.021-0.405-3.963-1.538-5.054-3.323c-1.078-1.745-1.219-3.947-0.724-5.901
				C145.128,20.245,146.463,18.735,148.115,17.907z M150.808,18.228c-1.926,0.447-3.721,1.79-4.344,3.718
				c-0.659,2.076-0.431,4.578,1.074,6.244c1.324,1.5,3.361,2.176,5.32,2.207c2.166,0.071,4.537-0.55,5.963-2.28
				c1.947-2.504,1.723-6.677-0.883-8.653C155.968,17.862,153.198,17.716,150.808,18.228z"/>
		</g>
		<path fill="#346791" d="M162.938,17.217c0.548-0.012,1.095-0.026,1.645-0.043c0.045,4.27,0.01,8.541,0.017,12.811
			c3.466,0.06,6.934-0.026,10.4,0.043c-0.002,0.378-0.005,0.759-0.007,1.14c-4.018,0.002-8.039,0.017-12.059-0.01
			C162.941,26.512,162.931,21.863,162.938,17.217z"/>
	</g>
</g>
</svg>
